<?xml version="1.0" standalone="no"?>
<!DOCTYPE svg PUBLIC "-//W3C//DTD SVG 20010904//EN"
 "http://www.w3.org/TR/2001/REC-SVG-20010904/DTD/svg10.dtd">
<svg version="1.0" xmlns="http://www.w3.org/2000/svg"
 width="320.000000pt" height="320.000000pt" viewBox="0 0 320.000000 320.000000"
 preserveAspectRatio="xMidYMid meet">
<metadata>
Created by potrace 1.14, written by Peter Selinger 2001-2017
</metadata>
<g transform="translate(0.000000,320.000000) scale(0.100000,-0.100000)"
fill="#000000" stroke="none">
<path d="M1470 3144 c-36 -3 -72 -7 -80 -11 -17 -7 -29 -9 -77 -12 -22 -1 -33
-6 -33 -16 0 -8 -5 -15 -11 -15 -5 0 -7 5 -3 11 5 9 -1 10 -22 4 -16 -4 -34
-8 -41 -8 -7 0 -10 -4 -7 -9 3 -4 -11 -8 -30 -8 -19 0 -37 -4 -41 -10 -3 -5
-13 -6 -22 -3 -12 5 -14 3 -8 -7 5 -8 4 -11 -2 -7 -19 12 -205 -71 -196 -86 4
-6 0 -8 -11 -4 -11 5 -15 3 -10 -5 5 -7 2 -9 -8 -6 -8 4 -28 -3 -44 -14 -28
-19 -28 -19 -4 -13 24 7 25 7 5 -9 -19 -16 -19 -17 15 -12 34 6 34 5 7 -5 -22
-9 -32 -8 -45 4 -15 13 -21 13 -52 -9 -19 -13 -35 -30 -35 -36 0 -6 -7 -13
-15 -15 -13 -4 -13 -3 0 6 8 6 11 11 6 11 -16 0 -76 -50 -73 -62 1 -6 -5 -13
-13 -15 -13 -4 -13 -3 0 6 8 6 11 11 7 11 -16 0 -66 -54 -60 -64 4 -5 -1 -7
-10 -3 -20 7 -22 -4 -5 -21 16 -16 2 -28 -15 -14 -11 9 -24 2 -60 -34 -26 -25
-47 -51 -47 -57 0 -7 4 -7 9 2 5 8 14 10 22 6 9 -6 11 -4 6 8 -3 9 -3 18 1 21
4 2 8 -17 8 -42 1 -26 -1 -42 -3 -35 -2 7 -10 11 -16 9 -7 -1 -9 -1 -4 1 4 3
7 9 7 13 0 14 -53 6 -58 -9 -3 -9 0 -11 9 -6 8 5 11 4 6 -1 -5 -5 -12 -9 -16
-9 -15 0 -41 -34 -31 -40 5 -3 14 -14 20 -25 10 -19 -2 -22 -27 -7 -8 5 -13 3
-13 -4 0 -7 -3 -10 -6 -6 -3 3 -3 11 1 17 5 8 11 7 23 -2 13 -11 14 -11 10 2
-7 21 -29 19 -42 -4 -6 -11 -30 -49 -54 -85 -23 -36 -40 -71 -38 -78 3 -7 1
-13 -4 -13 -5 0 -12 -11 -16 -25 -3 -14 -11 -22 -17 -18 -6 4 -8 0 -4 -10 4
-10 10 -24 13 -32 3 -8 1 -15 -5 -15 -6 0 -11 8 -11 18 0 9 -8 1 -16 -18 -9
-19 -20 -43 -25 -53 -5 -10 -7 -22 -4 -27 3 -4 -1 -10 -7 -13 -10 -3 -10 -7 0
-20 8 -9 12 -22 9 -29 -4 -8 -6 -7 -6 5 -1 9 -5 17 -11 17 -5 0 -7 -7 -4 -15
4 -8 2 -15 -4 -15 -10 0 -28 -56 -24 -74 2 -4 -2 -14 -7 -20 -16 -19 -43 -206
-37 -256 4 -31 3 -39 -3 -25 -13 27 -13 -157 -1 -250 16 -125 21 -149 36 -193
8 -24 11 -48 8 -54 -4 -7 -2 -8 4 -4 8 5 12 -3 12 -23 0 -16 5 -33 11 -36 6
-4 8 -14 5 -22 -3 -8 0 -24 6 -36 13 -23 15 -28 17 -49 1 -9 4 -9 12 2 9 12
10 10 5 -9 -5 -24 20 -75 33 -66 4 2 7 -6 7 -18 -1 -13 4 -21 12 -19 8 1 11
-2 8 -7 -10 -15 15 -73 58 -136 22 -33 39 -64 38 -69 -2 -5 4 -6 12 -3 8 3 17
-1 20 -9 3 -8 1 -12 -4 -9 -6 3 -7 -1 -4 -9 3 -9 10 -14 14 -11 5 3 14 -8 21
-24 7 -16 17 -27 21 -25 4 3 8 -2 8 -10 0 -10 6 -13 15 -10 11 5 13 2 9 -10
-4 -11 5 -20 30 -33 21 -10 35 -22 32 -30 -3 -7 -1 -15 4 -18 6 -4 10 -1 10 6
0 10 3 10 12 1 10 -10 10 -14 0 -21 -10 -6 -10 -10 3 -21 8 -7 15 -9 15 -4 0
4 5 3 12 -4 16 -16 28 -15 28 2 0 9 -10 12 -27 10 -27 -3 -27 -2 -8 12 17 13
18 16 5 25 -11 7 -7 8 14 3 21 -5 32 -2 41 10 8 10 19 14 30 10 16 -7 17 -29
3 -74 -3 -8 -3 -12 -1 -7 3 4 9 5 14 1 5 -3 9 11 9 30 0 20 5 36 11 36 6 0 8
-8 5 -18 -4 -13 0 -18 14 -20 44 -4 49 -6 43 -15 -4 -6 3 -8 15 -5 26 7 30 -8
5 -16 -10 -3 -6 -4 9 -2 15 2 25 -1 22 -6 -3 -4 2 -11 10 -14 9 -3 16 -16 16
-28 1 -20 1 -20 16 4 8 14 13 17 10 8 -4 -13 0 -18 14 -18 25 0 51 -27 44 -45
-4 -8 -1 -15 5 -15 6 0 11 7 11 15 0 9 9 15 23 14 21 0 21 -1 2 -9 -19 -8 -19
-9 3 -9 27 -1 50 -21 45 -38 -2 -6 1 -15 8 -19 8 -5 9 -3 4 6 -16 25 18 29 50
4 l32 -24 -3 27 c-3 22 -1 19 12 -12 9 -22 16 -58 16 -80 0 -41 2 -40 12 6 4
19 14 28 34 32 32 7 74 -1 67 -12 -2 -4 0 -21 5 -37 l10 -29 -5 32 c-3 21 0
33 10 37 8 3 15 0 15 -6 0 -7 4 -7 13 0 10 8 13 6 14 -9 1 -10 -5 -19 -13 -19
-8 0 -14 -7 -14 -15 0 -8 5 -15 11 -15 5 0 8 4 5 9 -3 5 9 16 27 25 24 12 27
16 12 16 -15 0 -17 2 -6 9 20 13 51 2 44 -17 -4 -10 -2 -13 5 -8 16 10 32 -33
22 -59 -4 -11 -5 -26 -2 -34 3 -8 0 -11 -6 -7 -6 3 -21 2 -35 -3 -16 -6 -28
-6 -36 2 -8 8 -11 8 -11 -2 0 -7 -4 -10 -10 -6 -5 3 -7 11 -4 18 6 16 -73 10
-83 -6 -4 -7 5 -8 26 -4 20 4 30 3 26 -3 -3 -6 2 -10 12 -11 10 0 25 -2 33 -4
161 -38 567 -41 544 -4 -3 5 0 9 5 9 6 0 11 -4 11 -10 0 -5 5 -10 10 -10 18 0
11 30 -7 31 -10 0 -26 2 -35 4 -10 2 -18 -1 -18 -7 0 -6 8 -7 17 -4 10 4 14 4
10 -1 -13 -13 -68 -12 -60 1 3 6 0 6 -8 -1 -7 -7 -26 -13 -41 -13 -24 0 -28 4
-28 29 0 17 -5 33 -12 37 -7 5 -8 3 -3 -5 12 -21 -15 -61 -40 -59 -14 1 -21 7
-18 15 7 17 -9 16 -33 -2 -10 -8 -31 -15 -46 -15 -22 0 -29 6 -37 33 -6 22 -9
26 -10 11 -1 -25 -24 -47 -36 -36 -5 4 -5 1 0 -7 5 -9 3 -12 -6 -9 -22 7 -47
60 -31 65 6 3 9 10 6 16 -5 8 -4 9 4 2 5 -5 12 -19 15 -30 4 -17 5 -16 7 5 1
23 2 23 10 5 8 -17 9 -16 9 9 1 19 -3 27 -12 23 -7 -3 -13 2 -13 12 0 13 11
16 53 16 36 0 53 -4 53 -12 0 -7 -4 -13 -8 -13 -4 0 -8 -9 -8 -20 0 -11 4 -20
8 -20 4 0 8 -5 8 -11 0 -5 -5 -7 -12 -3 -7 4 -8 3 -4 -5 6 -9 11 -9 22 0 11 9
12 15 2 26 -8 10 -9 16 -1 21 6 4 15 20 19 37 l7 29 10 -25 10 -24 7 25 c7 23
8 22 10 -10 l2 -35 9 32 c5 18 13 33 18 33 5 0 2 -19 -6 -41 -7 -23 -12 -43
-10 -46 3 -2 9 9 15 25 8 24 15 29 48 30 20 1 41 7 46 14 4 8 8 8 8 2 0 -6 7
-11 15 -11 8 0 15 4 15 9 0 4 4 8 10 8 5 0 7 -7 4 -15 -8 -19 6 -19 20 0 6 8
23 16 39 17 20 2 26 7 22 18 -4 13 -4 13 7 0 7 -8 22 -15 33 -15 14 0 22 -9
26 -30 l7 -30 1 28 c0 15 6 27 11 27 6 0 8 -11 4 -25 -7 -29 22 -48 37 -24 5
8 9 10 9 4 -1 -17 -26 -45 -42 -45 -8 0 -18 -3 -22 -7 -4 -4 -13 -8 -19 -9 -7
0 -20 -2 -29 -2 -10 -1 -18 -5 -18 -10 0 -4 20 -6 45 -4 28 3 43 8 38 15 -3 6
-1 7 5 3 14 -8 102 13 102 25 0 5 3 8 8 7 4 0 18 4 32 10 27 13 29 13 -70 -4
-24 -4 -24 -4 -3 5 22 10 22 12 8 52 -8 22 -13 45 -10 49 9 15 55 20 76 10 20
-11 20 -11 4 14 -17 26 -43 38 -29 14 4 -7 4 -10 -1 -6 -4 4 -20 1 -36 -8 -41
-21 -36 -10 7 17 30 18 40 20 56 10 20 -13 88 -5 88 10 0 5 18 17 40 27 22 10
38 21 35 24 -3 3 8 8 25 11 20 5 34 15 40 32 5 14 15 25 22 25 9 0 9 -3 0 -12
-14 -14 -16 -32 -3 -23 5 3 12 -3 14 -12 3 -11 5 -8 6 9 1 21 7 29 26 34 14 3
22 10 19 15 -11 18 8 8 28 -14 l20 -22 -16 25 c-30 47 -16 54 23 11 32 -35 39
-39 45 -25 8 20 -24 61 -34 44 -5 -7 -11 -6 -20 5 -12 15 -4 21 23 16 5 -1 6
8 2 19 -4 11 -2 20 4 20 6 0 11 -5 11 -11 0 -6 7 -3 16 5 8 9 13 20 9 25 -3 5
-1 12 5 16 5 3 10 1 10 -4 0 -6 7 -11 16 -11 8 0 13 4 10 8 -2 4 5 9 17 9 15
2 18 0 8 -6 -8 -6 -9 -11 -3 -15 6 -4 16 2 22 11 11 17 11 17 6 1 -3 -10 -9
-25 -12 -33 -4 -11 -2 -13 9 -9 19 7 33 -14 18 -29 -13 -13 -14 -27 -2 -27 5
0 15 16 21 35 6 19 16 35 22 35 6 0 5 -7 -3 -17 -12 -14 -12 -16 1 -11 8 2 20
14 26 26 6 12 14 19 17 15 4 -3 7 -1 7 5 0 6 12 23 28 38 15 15 21 23 15 20
-7 -4 -13 -2 -13 3 0 6 10 11 23 11 16 0 18 3 8 9 -11 7 -8 11 10 16 23 8 48
32 49 47 0 4 -6 5 -14 2 -8 -3 -17 -1 -21 5 -4 7 0 8 11 4 14 -5 16 -3 11 10
-6 15 -3 16 13 7 17 -9 20 -7 26 15 3 14 11 22 17 18 6 -4 8 0 4 10 -3 9 -3
17 1 19 23 10 126 203 117 218 -3 6 -1 10 4 10 6 0 14 18 17 41 5 29 9 37 16
27 7 -9 8 -7 5 10 -3 12 -2 22 3 22 4 0 10 10 13 23 3 12 17 66 31 120 14 54
28 131 32 170 8 92 8 88 -1 112 -5 16 -5 17 4 5 10 -15 8 165 -3 250 -3 19 -8
55 -11 80 -10 74 -67 270 -82 286 -8 8 -12 14 -9 14 2 0 -2 20 -10 44 -11 31
-20 43 -30 39 -9 -3 -14 1 -14 12 0 9 4 13 10 10 5 -3 -7 26 -27 65 -20 38
-40 70 -45 70 -5 0 -7 4 -4 8 7 11 -31 72 -44 72 -5 0 -9 3 -8 8 3 13 -37 69
-47 66 -5 -2 -17 11 -25 29 -10 21 -21 31 -32 29 -12 -2 -18 4 -18 18 0 23
-10 26 -29 8 -11 -11 -13 -10 -7 5 3 10 6 21 6 23 0 3 5 2 12 -2 7 -4 8 -3 4
4 -8 13 -36 5 -36 -11 0 -6 -3 -8 -6 -5 -3 4 -1 15 5 27 10 17 6 24 -30 53
-23 18 -52 42 -64 54 -12 11 -26 19 -32 17 -5 -2 -18 6 -28 17 -18 20 -18 21
1 15 19 -6 19 -6 0 6 -16 10 -21 9 -32 -6 -7 -10 -11 -23 -8 -29 3 -6 -4 0
-15 13 -23 25 -27 41 -11 41 5 0 9 -3 9 -7 -1 -5 -1 -15 0 -23 1 -13 3 -13 10
-1 11 17 -14 61 -35 61 -8 0 -14 4 -14 10 0 5 -7 6 -17 3 -12 -5 -14 -3 -8 8
4 8 5 11 0 7 -5 -5 -23 3 -41 17 -18 14 -42 25 -53 25 -11 0 -27 7 -35 16 -9
8 -16 13 -16 9 0 -3 -16 6 -35 21 -20 15 -49 27 -64 28 -16 1 -27 4 -25 8 5 7
-60 28 -88 28 -9 0 -18 5 -20 11 -2 5 -11 7 -22 3 -14 -5 -15 -9 -4 -16 10 -8
10 -9 -2 -5 -8 2 -15 10 -15 18 0 15 -49 30 -102 32 -18 0 -29 5 -26 10 3 6
-9 8 -30 5 -20 -2 -33 0 -31 4 3 5 -7 8 -23 7 -15 0 -77 1 -138 4 -60 2 -139
3 -175 1z m342 -59 c-2 -14 -9 -25 -14 -25 -5 0 -7 3 -5 8 2 4 7 15 10 25 9
25 15 21 9 -8z m-40 -17 c-8 -8 -9 -4 -5 13 4 13 8 18 11 10 2 -7 -1 -18 -6
-23z m123 23 c-16 -7 -15 -8 11 -14 33 -6 77 -40 66 -51 -4 -4 0 -6 8 -4 11 2
15 -6 15 -27 1 -17 5 -36 9 -44 6 -10 5 -12 -2 -7 -8 4 -12 0 -12 -10 0 -14
-3 -15 -12 -6 -10 10 -10 15 2 22 13 8 13 11 1 22 -10 10 -12 10 -7 1 4 -7 3
-13 -3 -13 -5 0 -9 -20 -9 -45 0 -25 4 -45 10 -45 6 0 4 -8 -5 -18 -12 -13
-13 -22 -6 -37 10 -19 10 -19 -5 -1 -8 10 -19 15 -25 11 -6 -3 -9 0 -5 8 4 11
-1 13 -20 10 -14 -3 -26 -9 -26 -12 0 -4 -15 -8 -32 -8 l-33 0 29 12 28 12
-28 6 c-16 4 -40 10 -53 13 -17 5 -22 4 -17 -4 4 -7 3 -12 -3 -12 -12 0 -8 43
8 83 13 34 13 37 4 36 -20 -3 -26 2 -13 11 13 9 13 11 0 20 -15 10 -8 14 23
11 9 -1 17 3 17 8 0 6 -5 11 -11 11 -6 0 -4 7 5 15 8 8 17 23 20 33 5 13 17
18 48 19 29 1 36 -1 23 -6z m45 -1 c0 -5 3 -9 8 -7 4 1 20 -8 36 -20 21 -17
24 -23 12 -23 -9 0 -19 6 -22 14 -3 8 -16 17 -30 20 -23 6 -34 26 -14 26 6 0
10 -4 10 -10z m245 -70 c3 -6 -1 -7 -9 -4 -18 7 -21 14 -7 14 6 0 13 -4 16
-10z m-1165 -5 c0 -7 -61 -37 -66 -32 -3 2 10 12 28 20 37 19 38 19 38 12z
m1114 -19 c-10 -8 -21 -12 -24 -10 -5 6 21 24 34 24 6 0 1 -6 -10 -14z m96 4
c8 -5 12 -11 10 -14 -3 -2 -14 2 -24 10 -22 15 -10 19 14 4z m-36 -55 c-1 -20
2 -33 7 -29 5 3 9 0 9 -5 0 -6 -4 -11 -9 -11 -15 0 -8 -154 7 -173 9 -10 10
-17 2 -22 -5 -3 -10 1 -10 9 0 9 -5 16 -11 16 -5 0 -7 -4 -4 -10 4 -7 -2 -7
-18 -1 -14 5 -35 8 -48 5 -17 -3 -19 -2 -8 3 30 14 2 60 -33 54 -5 0 -8 4 -8
9 0 14 -28 12 -32 -2 -3 -9 -9 -8 -22 2 -45 39 -47 43 -36 54 6 6 14 11 18 11
13 0 65 45 59 51 -3 3 -16 -3 -28 -14 -17 -17 -25 -19 -40 -9 -20 12 -25 27
-10 27 5 0 12 -7 15 -17 6 -14 11 -12 37 13 25 24 32 26 40 14 7 -11 8 -7 3
13 -4 17 -2 27 6 27 6 0 8 -4 5 -10 -3 -5 -1 -10 5 -10 6 0 8 -6 5 -12 -4 -7
6 1 22 19 17 19 38 32 54 32 24 1 26 -2 23 -34z m23 -7 c-3 -7 -5 -2 -5 12 0
14 2 19 5 13 2 -7 2 -19 0 -25z m-1352 2 c3 -5 1 -10 -4 -10 -6 0 -11 5 -11
10 0 6 2 10 4 10 3 0 8 -4 11 -10z m902 -12 c-3 -8 -6 -5 -6 6 -1 11 2 17 5
13 3 -3 4 -12 1 -19z m251 -12 c-7 -8 -15 -12 -17 -11 -5 6 10 25 20 25 5 0 4
-6 -3 -14z m-1058 -6 c0 -5 -4 -10 -10 -10 -5 0 -10 5 -10 10 0 6 5 10 10 10
6 0 10 -4 10 -10z m1430 -22 c0 -6 -6 -5 -15 2 -8 7 -15 14 -15 16 0 2 7 1 15
-2 8 -4 15 -11 15 -16z m-43 -20 c3 7 25 -5 59 -34 30 -26 54 -41 54 -35 0 6
-16 21 -35 33 -35 20 -42 39 -17 44 7 1 8 0 2 -3 -13 -6 6 -33 24 -33 16 0 37
-37 30 -54 -3 -8 -1 -24 6 -35 7 -14 7 -21 0 -21 -5 0 -10 -6 -10 -14 0 -14
-39 -51 -61 -58 -6 -2 -7 -20 -3 -46 l7 -43 30 28 c17 15 25 20 18 10 -20 -26
-8 -30 17 -6 13 11 19 25 16 31 -4 6 -3 8 3 5 13 -8 59 30 49 41 -4 4 -14 -2
-22 -12 -8 -11 -14 -15 -14 -9 0 17 26 34 43 27 8 -3 17 -1 20 4 3 4 -10 14
-29 21 -23 8 -34 19 -34 32 0 10 5 19 10 19 6 0 10 -9 10 -20 0 -19 4 -22 32
-24 7 -1 27 -17 45 -36 18 -19 33 -29 33 -22 0 6 -4 12 -10 12 -5 0 -10 4 -10
10 0 5 7 7 16 3 11 -4 14 -13 10 -29 -4 -14 -2 -24 4 -24 5 0 10 8 10 18 0 14
2 15 10 2 6 -9 5 -17 -2 -21 -9 -6 -8 -12 1 -23 9 -11 11 -30 7 -59 -4 -29 -3
-38 4 -27 5 8 10 11 10 5 -1 -5 -8 -19 -17 -30 -13 -16 -15 -17 -10 -2 4 9 2
17 -3 17 -6 0 -10 -4 -10 -9 0 -5 -9 -13 -20 -16 -11 -4 -20 -16 -21 -28 -1
-20 -2 -20 -8 3 l-7 25 -12 -22 c-7 -12 -12 -28 -12 -37 0 -22 -19 -30 -37
-14 -14 11 -16 11 -9 0 6 -10 3 -13 -9 -10 -10 1 -20 10 -22 18 -4 13 -3 13 6
0 8 -11 9 -6 7 20 -2 19 -6 43 -10 52 -7 16 -11 16 -35 3 -24 -12 -28 -12 -28
0 0 8 5 11 11 8 6 -4 5 1 -3 11 -11 13 -16 14 -23 4 -7 -10 -8 -10 -7 2 3 32
-1 51 -11 45 -7 -4 -9 2 -7 17 2 12 2 17 0 11 -7 -21 -28 -15 -62 17 -35 34
-37 42 -16 60 9 7 13 15 10 18 -2 3 -16 -7 -29 -21 -14 -15 -31 -27 -38 -26
-10 0 -10 2 0 6 10 4 8 9 -7 20 -25 17 -27 36 -6 53 9 7 14 19 11 26 -2 6 4
14 15 17 10 3 19 10 19 17 0 6 -4 8 -10 5 -6 -3 -7 1 -3 10 4 11 8 13 12 6 5
-7 16 1 29 19 24 31 28 45 12 35 -5 -3 -10 1 -10 11 0 14 2 15 17 3 13 -11 17
-11 20 -1z m-90 -30 c-3 -8 -6 -5 -6 6 -1 11 2 17 5 13 3 -3 4 -12 1 -19z
m-440 6 c-3 -3 -12 -4 -19 -1 -8 3 -5 6 6 6 11 1 17 -2 13 -5z m483 -3 c0 -6
-4 -13 -10 -16 -5 -3 -10 1 -10 9 0 9 5 16 10 16 6 0 10 -4 10 -9z m-73 -23
c-3 -8 -6 -5 -6 6 -1 11 2 17 5 13 3 -3 4 -12 1 -19z m-535 -39 c11 -6 18 -6
18 0 0 5 -6 11 -12 14 -7 2 -1 4 14 3 22 -1 24 -4 17 -18 -8 -15 -6 -18 12
-18 12 0 20 -3 16 -6 -3 -3 4 -24 15 -46 21 -40 26 -102 13 -152 -7 -26 -6
-27 14 -17 14 8 21 22 22 44 2 30 2 30 6 5 3 -20 10 -28 26 -29 53 -3 60 -5
63 -17 1 -7 0 -8 -3 -2 -2 5 -9 10 -15 10 -6 0 -6 -6 2 -15 7 -8 18 -15 26
-15 7 0 14 -14 16 -32 2 -19 8 -32 15 -31 7 2 10 -4 7 -15 -4 -12 0 -10 15 7
12 13 21 29 21 37 0 8 5 14 10 14 6 0 10 -9 10 -20 0 -11 -4 -20 -10 -20 -14
0 -32 -39 -23 -53 4 -6 6 -21 4 -32 -3 -24 -50 -75 -68 -75 -7 0 -13 -4 -13
-10 0 -15 17 -12 35 6 9 9 18 14 21 11 8 -7 -26 -37 -42 -37 -8 0 -14 -3 -14
-7 0 -15 15 -28 30 -28 8 0 16 -9 17 -20 l3 -20 -9 20 c-5 11 -10 15 -10 8 -1
-14 38 -83 47 -83 4 0 18 9 32 20 37 29 79 26 108 -7 13 -16 21 -21 19 -13 -7
23 30 23 54 -1 14 -14 15 -19 5 -19 -8 0 -16 7 -20 15 -7 20 -22 19 -30 -2 -5
-11 -1 -22 9 -29 9 -7 15 -16 14 -20 -1 -5 4 -24 11 -43 12 -32 14 -33 27 -16
7 11 14 15 14 9 6 -41 5 -54 -3 -54 -5 0 -7 10 -3 23 3 12 -3 6 -14 -14 -14
-25 -33 -42 -61 -53 -22 -9 -40 -22 -40 -29 0 -20 74 -140 78 -127 3 7 -1 16
-8 20 -8 5 -9 10 -1 14 6 4 13 -4 17 -19 7 -29 7 -29 44 -10 16 8 46 17 67 20
31 4 41 1 51 -16 12 -19 12 -20 -13 -3 -15 10 -25 12 -25 5 0 -6 3 -11 8 -11
4 0 12 -10 17 -22 6 -13 17 -23 25 -23 9 0 14 -8 12 -18 -3 -18 35 -96 53
-109 5 -4 13 0 17 10 6 16 7 16 7 0 1 -9 -3 -20 -9 -23 -6 -3 -10 -15 -10 -26
0 -10 -5 -19 -10 -19 -6 0 -8 11 -4 28 6 23 5 25 -7 11 -8 -8 -31 -28 -52 -43
-35 -26 -37 -30 -23 -44 13 -13 18 -13 31 -2 9 8 14 22 12 32 -3 10 0 21 6 25
7 3 9 3 5 -2 -4 -4 -3 -13 2 -20 7 -8 4 -18 -8 -30 -15 -16 -16 -25 -7 -52 5
-18 16 -33 23 -33 17 0 46 -29 38 -38 -4 -3 -11 0 -15 7 -5 7 -13 12 -19 10
-7 -3 -6 -11 3 -22 11 -15 17 -17 34 -7 12 6 19 16 15 22 -4 6 -1 9 7 6 8 -3
26 -1 41 3 36 10 58 -10 93 -86 15 -33 33 -67 40 -75 22 -27 28 -60 11 -60 -9
0 -16 -8 -16 -17 0 -15 -2 -16 -10 -3 -6 9 -10 10 -10 3 0 -6 -9 -15 -20 -18
-11 -3 -20 -11 -20 -17 0 -7 4 -7 13 0 10 8 13 5 15 -15 2 -22 0 -24 -13 -13
-9 7 -18 10 -21 7 -3 -3 12 -17 33 -31 20 -14 35 -26 31 -26 -4 0 4 -12 17
-26 14 -15 25 -37 25 -50 0 -12 5 -26 10 -29 7 -4 9 2 5 18 -4 14 -2 28 4 31
6 4 11 4 12 -1 10 -108 8 -124 -11 -118 -16 5 -20 2 -20 -19 0 -14 5 -28 10
-31 7 -4 9 3 5 22 -5 21 -4 24 4 13 6 -8 11 -10 11 -5 0 6 4 4 9 -4 6 -9 4
-19 -5 -29 -13 -13 -13 -17 2 -33 17 -19 43 -26 45 -11 0 4 3 16 5 27 3 11 6
30 8 43 4 25 16 43 16 23 0 -7 5 -9 10 -6 6 4 8 15 5 25 -3 10 1 25 10 33 20
21 19 31 -2 23 -16 -5 -16 -4 0 8 11 8 26 12 34 9 12 -5 12 -7 2 -14 -8 -4
-10 -12 -5 -16 4 -4 14 1 22 11 13 18 14 15 11 -31 -1 -28 -6 -49 -10 -46 -12
7 -47 -27 -47 -46 1 -11 5 -8 15 9 8 14 14 21 14 15 1 -16 -17 -40 -30 -40
-14 0 -37 -66 -42 -124 -2 -25 -11 -49 -20 -56 -9 -7 -14 -15 -10 -18 3 -4 -1
-7 -10 -7 -11 0 -14 5 -11 15 5 11 2 13 -10 9 -9 -3 -16 -1 -16 6 0 7 -11 10
-28 9 -15 -2 -33 0 -40 4 -6 5 -16 5 -22 2 -5 -3 -10 -1 -10 6 0 8 -26 10 -97
5 -136 -10 -153 -10 -160 -2 -3 3 -3 9 0 13 4 4 13 1 19 -5 7 -7 19 -12 28
-11 10 0 11 2 3 6 -7 2 -13 11 -13 19 0 13 49 21 105 15 19 -1 19 -1 2 12 -16
11 -13 12 25 8 34 -3 39 -6 23 -12 -13 -5 2 -8 45 -8 36 0 61 3 55 7 -5 4 -18
24 -28 46 -10 21 -21 36 -24 32 -3 -3 0 -13 7 -22 12 -13 11 -17 -1 -25 -8 -5
-18 -9 -24 -9 -5 0 -4 4 4 9 11 7 11 15 3 40 -8 22 -8 30 -1 25 11 -7 -5 31
-24 54 -8 11 -12 11 -19 0 -7 -9 -8 -6 -5 10 4 18 2 22 -10 18 -9 -4 -13 -1
-10 6 2 7 10 12 16 10 7 -1 10 2 6 7 -3 6 -13 7 -23 4 -14 -6 -15 -4 -4 9 8
10 9 19 3 22 -5 3 -11 3 -14 -1 -2 -5 -2 -2 0 6 2 8 -7 30 -20 50 -13 20 -27
46 -31 59 -4 12 -11 20 -16 17 -4 -3 -11 6 -14 20 -3 13 -16 40 -28 60 -16 28
-23 33 -30 23 -7 -10 -8 -9 -4 5 3 9 3 24 -1 33 -5 13 -8 13 -15 2 -7 -9 -8
-7 -5 9 3 15 1 20 -9 16 -8 -3 -14 0 -14 6 0 6 6 11 13 12 10 0 10 2 0 6 -7 2
-13 11 -13 19 0 9 -5 12 -12 8 -7 -4 -8 -3 -4 4 8 14 -24 73 -35 66 -4 -2 -11
1 -15 7 -5 8 -3 9 6 4 8 -5 11 -3 8 6 -3 8 -13 12 -23 11 -16 -3 -17 -1 -6 11
7 9 8 18 2 21 -5 3 -12 0 -15 -6 -3 -7 -4 -1 -1 13 3 18 -3 39 -20 63 -14 20
-25 39 -25 42 0 13 -47 73 -53 68 -4 -4 -43 -6 -87 -5 -66 2 -80 -1 -80 -13 0
-9 -5 -16 -11 -16 -5 0 -8 4 -5 9 3 4 -50 8 -117 8 -67 0 -106 -2 -87 -4 19
-3 39 -8 43 -12 4 -4 -23 -4 -60 2 -37 5 -95 6 -128 2 -33 -3 -88 -6 -122 -6
-41 1 -63 -3 -63 -10 0 -8 -4 -8 -15 1 -10 9 -32 10 -72 5 -44 -6 -53 -9 -38
-16 20 -8 20 -8 -1 -8 -11 -1 -25 4 -31 10 -21 21 -40 2 -83 -83 -23 -46 -45
-87 -50 -92 -5 -5 -6 -16 -3 -25 4 -9 2 -13 -2 -8 -11 10 -45 -42 -38 -59 3
-8 0 -14 -6 -14 -6 0 -18 -14 -27 -31 -8 -17 -11 -28 -5 -25 7 4 8 1 5 -8 -3
-9 -10 -16 -14 -16 -9 0 -37 -46 -110 -185 -29 -55 -59 -109 -65 -120 -7 -11
-18 -37 -25 -57 -6 -21 -16 -38 -21 -38 -5 0 -9 -8 -9 -17 0 -13 3 -14 8 -6 5
8 8 -1 9 -21 1 -24 -4 -37 -16 -41 -13 -5 -14 -4 -4 6 15 15 17 33 4 24 -5 -3
-13 0 -17 6 -5 8 -3 9 6 4 9 -6 11 -4 5 5 -6 10 -11 9 -21 -6 -22 -31 -44 -51
-77 -69 l-32 -16 30 6 c16 4 33 11 36 17 4 7 9 6 14 -1 3 -7 15 -9 26 -6 11 4
19 2 19 -4 0 -13 10 -12 -139 -16 -74 -2 -118 1 -110 6 11 6 8 9 -9 9 -15 0
-26 -8 -32 -25 -10 -26 -24 -32 -35 -15 -3 6 1 7 10 4 11 -4 14 -2 10 9 -4 8
1 17 10 21 9 3 13 11 10 17 -4 6 -13 8 -21 5 -8 -3 -13 0 -11 6 1 6 -4 13 -12
16 -8 3 -11 0 -7 -7 4 -6 2 -11 -4 -11 -7 0 -10 7 -6 15 3 9 -2 23 -12 33 -23
24 -72 99 -72 111 0 6 -6 14 -14 18 -7 4 -18 26 -23 48 -9 36 -9 33 -7 -33 2
-69 -6 -92 -20 -54 -3 9 -9 24 -13 32 -5 13 -4 13 11 1 16 -13 17 -11 11 34
-3 27 -11 52 -17 56 -8 5 -8 15 1 37 8 19 10 44 6 63 l-7 33 -12 -29 c-8 -20
-15 -25 -20 -17 -4 7 -2 12 4 12 7 0 9 8 5 20 -4 11 -2 20 4 20 6 0 11 21 11
50 0 28 -4 50 -8 50 -4 0 -4 37 0 83 11 122 12 153 4 165 -3 6 -2 13 4 17 5 3
10 -2 11 -12 0 -10 7 7 14 37 8 30 11 64 8 75 -5 17 -4 18 11 6 12 -10 16 -11
16 -1 0 7 14 35 30 62 32 51 36 63 20 53 -6 -3 -10 -1 -10 4 0 6 10 10 23 8
16 -1 22 3 22 19 0 28 25 56 43 49 8 -3 21 3 29 12 8 10 11 12 7 4 -5 -11 -1
-10 17 2 33 23 169 25 169 2 0 -9 7 -18 15 -21 8 -3 17 -14 20 -25 4 -10 12
-19 19 -19 8 0 13 -16 14 -42 1 -23 7 -47 12 -52 6 -6 10 -19 9 -31 -1 -17 -2
-16 -9 5 -7 21 -8 22 -9 5 -1 -11 -8 -33 -16 -49 -9 -16 -13 -36 -10 -43 2 -8
0 -11 -5 -8 -6 3 -10 2 -10 -4 0 -5 -16 -30 -35 -55 -43 -56 -46 -74 -5 -26
16 19 30 39 30 44 0 5 3 6 6 3 4 -4 1 -13 -6 -22 -7 -8 -10 -21 -7 -29 4 -11
1 -13 -10 -9 -12 5 -15 2 -11 -9 5 -11 0 -14 -16 -13 -24 3 -88 -48 -84 -67 2
-7 -4 -12 -13 -13 -8 0 -23 -8 -33 -17 -17 -17 -16 -18 3 -18 12 0 21 -4 21
-9 0 -6 -12 -6 -31 -1 -25 7 -30 6 -25 -5 3 -10 -1 -15 -12 -15 -10 0 -27 -8
-38 -17 -10 -10 -36 -27 -57 -38 -31 -16 -34 -21 -20 -28 11 -4 5 -6 -17 -3
-19 3 -30 3 -24 0 6 -2 9 -18 6 -34 -8 -57 39 -210 65 -210 11 0 14 -7 11 -25
-6 -27 23 -70 37 -57 5 4 6 0 2 -9 -7 -22 19 -59 43 -59 11 0 24 -9 30 -19 5
-11 24 -22 41 -26 40 -9 102 2 93 17 -4 7 -3 8 4 4 7 -4 17 -4 23 0 8 4 7 9
-2 15 -10 6 -5 9 14 9 16 0 26 4 23 9 -3 5 4 11 15 14 30 8 15 25 -18 21 -27
-4 -27 -3 -3 4 19 6 24 14 23 33 -2 21 -2 22 6 4 5 -11 6 -24 3 -29 -2 -5 1
-7 7 -5 7 3 33 41 57 87 34 62 40 80 27 76 -14 -4 -14 -3 2 7 31 19 45 42 39
63 -4 10 -2 16 3 13 5 -3 16 8 25 24 15 25 15 31 2 43 -21 22 -17 32 5 12 18
-16 20 -16 33 11 90 174 111 218 111 229 0 7 3 11 7 9 9 -6 76 127 72 143 -2
9 1 11 10 6 10 -6 10 -4 -1 9 -8 10 -11 20 -7 24 3 3 6 1 6 -5 0 -7 5 -12 10
-12 6 0 8 11 4 25 -6 25 10 36 19 13 2 -7 7 2 11 20 4 17 12 32 17 32 5 0 9 5
9 11 0 7 14 34 30 61 17 26 30 57 30 67 0 10 7 22 16 25 9 4 14 13 10 22 -4
10 -2 13 6 8 11 -7 10 -3 -4 46 -3 8 -3 11 0 6 2 -4 9 -2 14 5 6 10 7 6 3 -11
-5 -18 -4 -22 4 -14 18 17 50 84 39 84 -5 0 -6 5 -3 10 4 6 11 8 16 5 8 -6 13
8 10 28 0 4 3 7 8 7 5 0 7 10 3 22 -3 14 -2 19 6 14 8 -5 12 1 12 14 0 13 4
19 11 14 7 -4 10 1 7 12 -2 11 -12 19 -22 19 -11 0 -21 6 -24 13 -2 7 2 10 11
7 16 -7 32 10 40 40 4 15 5 13 6 -7 1 -32 21 -39 21 -7 0 11 4 18 8 15 8 -5
52 83 52 103 0 5 7 12 16 15 8 3 12 10 9 16 -3 5 -2 10 2 10 5 0 9 34 9 75 -1
41 2 75 7 75 7 0 11 -17 8 -34 -1 -5 4 -13 10 -17 9 -5 10 -11 2 -21 -10 -13
-24 -58 -18 -58 2 0 15 22 29 50 21 40 24 54 16 75 -13 34 -13 48 0 40 6 -4 7
-12 3 -18 -5 -8 -2 -8 9 0 8 7 18 10 21 6 4 -3 7 -1 7 6 0 8 -7 11 -15 7 -8
-3 -15 -1 -15 4 0 13 40 24 50 13 5 -4 27 -42 51 -83 23 -41 47 -78 53 -82 6
-4 8 -8 4 -8 -4 0 5 -21 20 -47 15 -27 34 -61 42 -76 l14 -28 13 23 c12 22 12
22 7 -8 -6 -31 27 -113 58 -145 7 -8 24 -38 37 -67 17 -36 27 -49 33 -40 6 9
8 7 7 -7 -2 -33 1 -41 11 -25 8 12 10 9 10 -13 0 -18 4 -26 11 -21 7 4 10 1 7
-7 -8 -21 22 -75 32 -59 6 9 10 6 15 -11 7 -20 9 -21 20 -6 9 13 14 14 24 4
10 -9 10 -6 0 16 -8 17 -15 23 -19 16 -8 -11 -23 26 -21 49 1 6 -10 17 -24 22
-14 5 -25 17 -24 27 0 16 1 15 9 -2 7 -19 8 -18 18 6 6 15 30 40 54 56 30 21
42 35 40 49 -2 10 -7 21 -12 24 -4 3 -19 29 -34 58 -14 28 -30 52 -34 52 -13
0 -48 -29 -35 -30 6 0 15 5 19 11 4 7 10 7 16 1 7 -7 6 -16 -2 -29 -8 -12 -10
-13 -7 -2 4 12 -2 16 -22 16 -22 0 -31 -8 -43 -35 -13 -31 -15 -33 -21 -13 -4
15 -1 21 11 21 10 1 1 8 -18 17 -19 9 -38 15 -43 15 -4 -1 -6 1 -5 5 3 13 -44
113 -53 113 -5 0 -5 7 -2 17 4 10 2 14 -4 10 -6 -4 -13 3 -15 16 -4 19 3 27
34 42 44 21 61 45 51 71 -11 29 -73 128 -73 117 0 -6 -9 -13 -21 -16 -20 -5
-20 -5 -2 15 14 16 14 20 3 16 -8 -2 -19 -14 -24 -25 -8 -17 -18 -21 -51 -20
-22 0 -46 -3 -53 -7 -7 -4 -12 -2 -12 3 0 6 5 11 10 11 6 0 10 15 9 33 0 17
-3 26 -6 20 -7 -20 -19 -15 -19 8 0 14 5 19 18 16 10 -3 18 -2 19 1 5 31 6
101 2 116 -5 17 -6 18 -15 3 -5 -10 -6 -22 -3 -27 3 -6 1 -10 -4 -10 -6 0 -11
-5 -11 -11 0 -5 5 -7 10 -4 14 9 12 -1 -7 -38 -9 -18 -16 -35 -15 -39 1 -3 -5
-9 -14 -12 -8 -3 -13 -2 -10 3 3 5 -12 5 -35 0 -23 -6 -42 -8 -43 -7 -27 47
-33 109 -13 130 8 7 12 20 9 28 -4 12 -2 13 9 3 14 -14 33 -18 25 -5 -12 20
44 4 63 -18 l22 -25 -12 25 c-11 23 -11 24 5 10 16 -13 18 -12 14 10 -1 14
-10 25 -18 25 -8 0 -19 6 -23 13 -11 16 -71 13 -109 -5 -31 -15 -36 -31 -13
-39 8 -4 15 -11 15 -17 0 -5 -9 -2 -20 8 -19 17 -20 17 -30 -9 -12 -34 -6 -96
12 -107 7 -5 9 -9 4 -9 -12 0 14 -30 26 -30 6 0 7 7 4 16 -3 8 -2 12 4 9 13
-8 13 -35 0 -35 -5 0 -10 -5 -10 -11 0 -5 4 -8 9 -5 5 3 11 -1 15 -9 3 -8 0
-17 -6 -21 -7 -5 -8 -2 -4 7 29 55 -35 -43 -71 -111 -26 -47 -57 -100 -69
-119 -12 -18 -20 -40 -17 -49 4 -9 2 -13 -4 -9 -6 4 -22 -16 -38 -48 -14 -30
-30 -57 -35 -60 -5 -3 -6 -13 -3 -22 4 -10 2 -14 -4 -10 -12 7 -25 -16 -28
-47 -2 -10 -9 -23 -18 -27 -9 -6 -13 -18 -10 -31 4 -19 3 -20 -7 -8 -10 13
-11 11 -7 -7 3 -12 -1 -30 -9 -40 -7 -10 -14 -13 -14 -8 0 6 5 16 12 23 7 7 8
12 2 12 -6 0 -19 -18 -29 -40 -25 -56 -41 -67 -64 -46 -11 10 -25 14 -37 9
-16 -6 -17 -5 -6 9 7 9 21 14 31 11 22 -6 57 52 39 63 -7 5 -8 2 -3 -6 5 -8 4
-11 -3 -7 -14 9 -43 -3 -36 -14 3 -5 10 -7 15 -4 5 4 9 -1 9 -10 0 -12 -4 -14
-19 -5 -16 8 -22 6 -29 -6 -8 -15 -14 -14 -56 11 -25 15 -49 31 -52 36 -3 5
-10 9 -15 9 -6 0 -7 -5 -3 -12 4 -7 3 -8 -5 -4 -6 4 -9 12 -6 17 10 16 -6 33
-17 18 -7 -10 -8 -8 -5 8 3 12 -1 30 -9 40 -18 25 -18 97 1 113 9 7 13 21 10
31 -5 14 -1 19 12 19 15 0 16 -2 3 -10 -8 -5 -10 -10 -4 -10 5 0 20 9 32 20
26 25 96 27 119 4 10 -10 25 -13 42 -9 17 3 21 2 13 -3 -11 -8 -11 -10 2 -15
8 -3 17 -1 20 6 2 7 5 5 5 -4 1 -9 8 -19 16 -23 8 -3 15 -15 15 -27 0 -14 5
-19 14 -16 10 4 12 0 9 -14 -6 -21 -19 -25 -25 -7 -2 6 -15 -6 -28 -28 -63
-106 -62 -104 -47 -98 8 3 18 17 21 30 4 14 11 22 16 19 6 -3 10 4 10 16 0 17
3 20 11 12 8 -8 8 -17 0 -31 -16 -30 -13 -41 4 -12 7 14 11 36 9 50 -4 17 -3
21 4 12 13 -19 55 53 47 82 -5 17 -4 18 5 6 10 -12 11 -11 7 8 -4 18 -3 21 8
12 9 -8 14 -6 19 5 3 9 2 13 -4 10 -13 -8 -13 5 0 25 9 13 10 13 10 0 1 -8 10
2 20 22 11 20 24 39 29 43 6 3 7 13 4 22 -4 10 -2 14 4 10 6 -4 13 -1 16 7 7
18 -22 14 -34 -5 -17 -27 -9 -4 16 45 14 27 25 44 25 37 0 -7 -5 -21 -10 -32
-8 -15 -7 -19 5 -19 8 0 14 3 14 8 -1 4 -1 18 0 32 1 20 3 22 12 10 8 -12 9
-9 4 9 -6 19 -4 23 8 18 16 -6 32 17 28 42 -1 7 2 10 7 7 5 -3 17 11 26 32 17
37 17 39 -8 83 -26 46 -49 183 -25 149 8 -12 9 -8 6 15 -2 17 -2 24 1 16 6
-20 52 35 47 58 -3 15 5 16 73 13 42 -2 84 -8 94 -13z m-212 7 c0 -2 -7 -6
-15 -10 -8 -3 -15 -1 -15 4 0 6 7 10 15 10 8 0 15 -2 15 -4z m620 -31 c0 -8
-2 -15 -4 -15 -2 0 -6 7 -10 15 -3 8 -1 15 4 15 6 0 10 -7 10 -15z m-505 -25
c-3 -5 -12 -10 -18 -10 -7 0 -6 4 3 10 19 12 23 12 15 0z m-955 -21 c0 -14
-17 -10 -23 5 -4 10 -1 13 9 9 7 -3 14 -9 14 -14z m2030 6 c0 -2 -6 -5 -13 -8
-8 -3 -14 1 -14 8 0 7 6 11 14 8 7 -3 13 -6 13 -8z m-1402 -2 c-10 -2 -26 -2
-35 0 -10 3 -2 5 17 5 19 0 27 -2 18 -5z m72 -3 c20 -6 21 -8 5 -8 -11 0 -29
3 -40 8 -25 11 1 11 35 0z m1170 -5 c0 -2 -9 -3 -19 -2 -11 0 -18 5 -15 9 4 6
34 0 34 -7z m90 5 c0 -5 -5 -10 -11 -10 -5 0 -7 5 -4 10 3 6 8 10 11 10 2 0 4
-4 4 -10z m-1503 -6 c-3 -3 -12 -4 -19 -1 -8 3 -5 6 6 6 11 1 17 -2 13 -5z
m233 -19 c11 -13 5 -15 -41 -15 -63 0 -120 -23 -172 -70 -31 -27 -35 -35 -26
-52 8 -15 8 -19 0 -14 -6 4 -11 2 -11 -4 0 -6 -4 -8 -10 -5 -5 3 -10 2 -10 -4
0 -5 6 -12 13 -14 7 -4 6 -6 -4 -6 -11 -1 -17 -10 -17 -23 0 -13 -2 -41 -5
-63 -5 -34 -4 -37 5 -17 6 12 14 22 18 22 12 0 30 -50 29 -78 -1 -20 -2 -22
-6 -7 -2 11 -6 30 -9 43 -2 12 -9 22 -15 22 -6 0 -8 -9 -4 -19 3 -10 7 -32 9
-47 7 -51 11 -59 31 -66 12 -5 5 -6 -18 -3 -30 3 -38 1 -33 -10 3 -9 0 -12 -9
-8 -8 3 -12 9 -9 14 8 13 -4 11 -42 -7 -18 -9 -36 -24 -39 -35 -4 -10 -11 -19
-17 -19 -6 0 -19 -10 -29 -22 -18 -20 -19 -20 -19 -2 -1 18 -1 18 -11 1 -5 -9
-8 -21 -5 -26 3 -5 -2 -8 -11 -7 -9 0 -18 -5 -21 -13 -3 -9 0 -11 8 -6 9 5 10
2 5 -15 -6 -19 -4 -21 14 -15 18 5 21 2 21 -20 0 -14 -4 -24 -9 -20 -5 3 -12
-3 -14 -12 -2 -10 -3 -6 -1 10 3 25 -9 37 -19 20 -2 -5 -3 -3 -1 3 1 6 -1 17
-6 24 -11 17 -21 -31 -19 -90 2 -44 19 -85 32 -75 4 3 3 0 -2 -7 -11 -12 5
-52 17 -44 4 2 7 -6 7 -18 0 -14 -6 -22 -17 -22 -9 0 -14 4 -12 8 8 13 -10 9
-27 -4 -11 -11 -12 -11 -3 0 14 16 6 55 -9 45 -6 -4 -8 0 -4 9 3 9 -1 24 -8
35 -32 41 -12 213 28 242 10 7 16 20 13 28 -3 8 -2 11 3 8 6 -3 14 3 20 12 5
10 13 18 18 18 4 0 7 3 5 8 -1 4 1 6 5 5 5 -1 26 4 47 12 l39 15 -29 7 c-26 6
-24 7 11 6 77 -2 75 -4 59 49 -8 25 -14 61 -14 80 0 20 -4 32 -10 28 -5 -3
-10 -2 -10 3 0 6 7 12 15 16 11 4 13 14 9 38 -4 25 -3 29 5 18 8 -12 11 -12
11 -2 0 8 9 27 20 42 15 21 17 30 8 33 -9 4 -7 6 3 6 9 1 24 10 35 22 37 41
105 68 170 69 43 0 65 -5 74 -15z m1350 11 c0 -2 -8 -10 -17 -17 -16 -13 -17
-12 -4 4 13 16 21 21 21 13z m-1555 -15 c-15 -13 -62 -26 -50 -13 6 5 19 12
30 15 11 3 22 5 25 6 2 0 0 -3 -5 -8z m-585 -11 c0 -5 -4 -10 -10 -10 -5 0
-10 5 -10 10 0 6 5 10 10 10 6 0 10 -4 10 -10z m1267 -12 c-3 -8 -6 -5 -6 6
-1 11 2 17 5 13 3 -3 4 -12 1 -19z m-270 -10 c-3 -8 -6 -5 -6 6 -1 11 2 17 5
13 3 -3 4 -12 1 -19z m680 0 c-3 -8 -6 -5 -6 6 -1 11 2 17 5 13 3 -3 4 -12 1
-19z m-907 2 c8 -5 11 -10 5 -10 -5 0 -17 5 -25 10 -8 5 -10 10 -5 10 6 0 17
-5 25 -10z m47 4 c-3 -3 -12 -4 -19 -1 -8 3 -5 6 6 6 11 1 17 -2 13 -5z m200
-26 c-3 -7 -5 -2 -5 12 0 14 2 19 5 13 2 -7 2 -19 0 -25z m-477 6 c0 -8 -19
-13 -24 -6 -3 5 1 9 9 9 8 0 15 -2 15 -3z m100 -8 c0 -3 -4 -8 -10 -11 -5 -3
-10 -1 -10 4 0 6 5 11 10 11 6 0 10 -2 10 -4z m60 -16 c0 -5 -9 -10 -20 -10
-11 0 -20 5 -20 10 0 6 9 10 20 10 11 0 20 -4 20 -10z m1457 -12 c-3 -8 -6 -5
-6 6 -1 11 2 17 5 13 3 -3 4 -12 1 -19z m-1547 5 c0 -5 -15 -16 -33 -26 l-32
-18 25 25 c25 25 40 32 40 19z m43 -17 c4 -10 1 -13 -9 -9 -15 6 -19 23 -5 23
5 0 11 -7 14 -14z m1556 -4 c7 -14 6 -18 -8 -18 -12 0 -17 6 -13 18 2 10 6 18
8 18 2 0 8 -8 13 -18z m-1279 -11 c0 -5 -7 -12 -16 -15 -14 -5 -15 -4 -4 9 14
17 20 19 20 6z m880 -1 c0 -5 -2 -10 -4 -10 -3 0 -8 5 -11 10 -3 6 -1 10 4 10
6 0 11 -4 11 -10z m352 -4 c7 4 8 2 4 -5 -9 -13 -26 -5 -25 12 0 9 2 8 6 -1 2
-6 10 -9 15 -6z m-1539 -11 c-3 -9 -8 -14 -10 -11 -3 3 -2 9 2 15 9 16 15 13
8 -4z m647 5 c0 -5 -5 -10 -11 -10 -5 0 -7 5 -4 10 3 6 8 10 11 10 2 0 4 -4 4
-10z m-833 -32 c-3 -7 -5 -2 -5 12 0 14 2 19 5 13 2 -7 2 -19 0 -25z m233 17
c0 -12 -19 -12 -23 0 -4 9 -1 12 9 8 7 -3 14 -7 14 -8z m145 5 c-6 -10 83 -50
99 -44 19 7 31 -13 17 -30 -6 -7 -9 -27 -7 -45 2 -17 -1 -34 -6 -37 -4 -3 -8
-2 -7 3 1 4 1 22 -1 38 -1 26 -3 27 -9 10 -5 -11 -6 -26 -3 -33 2 -7 -2 -12
-9 -10 -10 2 -13 -5 -11 -22 1 -17 -1 -21 -6 -12 -7 10 -14 3 -27 -25 -10 -21
-26 -50 -35 -65 l-16 -27 -35 18 c-22 12 -46 17 -64 14 -19 -4 -26 -2 -21 5 4
6 14 8 24 5 16 -5 16 -4 -1 13 -15 17 -19 17 -28 4 -9 -13 -10 -13 -6 1 3 10
-5 27 -19 40 -23 21 -24 22 -18 4 7 -20 6 -20 -9 0 -9 11 -11 22 -6 23 5 2 9
21 9 42 0 21 4 50 10 64 6 17 6 26 0 26 -9 0 -14 -14 -11 -32 0 -5 -4 -8 -9
-8 -13 0 -13 3 2 35 7 16 17 24 26 20 14 -5 56 18 47 27 -3 3 26 5 65 5 38 0
67 -3 65 -7z m50 -7 c18 -14 18 -15 2 -9 -10 3 -23 6 -28 6 -5 0 -9 5 -9 10 0
14 12 12 35 -7z m575 7 c0 -5 -4 -10 -10 -10 -5 0 -10 5 -10 10 0 6 5 10 10
10 6 0 10 -4 10 -10z m-492 -35 c-3 -3 -9 2 -12 12 -6 14 -5 15 5 6 7 -7 10
-15 7 -18z m165 8 c-7 -2 -19 -2 -25 0 -7 3 -2 5 12 5 14 0 19 -2 13 -5z
m-545 -34 c-1 -17 -4 -25 -8 -18 -7 10 -2 49 5 49 2 0 3 -14 3 -31z m545 14
c-7 -2 -19 -2 -25 0 -7 3 -2 5 12 5 14 0 19 -2 13 -5z m-653 -13 c0 -5 -4 -10
-10 -10 -5 0 -10 5 -10 10 0 6 5 10 10 10 6 0 10 -4 10 -10z m903 -55 c9 -18
9 -19 -6 -6 -10 7 -17 23 -16 35 0 14 2 16 6 6 3 -8 10 -24 16 -35z m724 23
c-3 -8 -6 -5 -6 6 -1 11 2 17 5 13 3 -3 4 -12 1 -19z m-877 -4 c0 -8 -5 -12
-10 -9 -6 4 -8 11 -5 16 9 14 15 11 15 -7z m1120 6 c0 -5 -4 -10 -10 -10 -5 0
-10 5 -10 10 0 6 5 10 10 10 6 0 10 -4 10 -10z m-1288 -44 c-3 -5 -9 -1 -13
10 -12 31 -10 39 5 19 8 -11 12 -24 8 -29z m286 -17 c-7 -5 -17 -8 -23 -8 -5
0 -5 3 2 5 8 4 10 17 7 37 l-5 32 16 -29 c14 -24 15 -30 3 -37z m895 54 c-7
-2 -21 -2 -30 0 -10 3 -4 5 12 5 17 0 24 -2 18 -5z m140 -50 c-9 -24 -18 -13
-19 23 -1 34 0 34 12 13 6 -13 10 -29 7 -36z m-1759 -3 c-5 -5 -9 4 -10 23 -1
30 -1 30 9 9 6 -14 7 -26 1 -32z m581 31 c3 -5 1 -12 -5 -16 -5 -3 -10 1 -10
9 0 18 6 21 15 7z m682 -23 c-3 -7 -5 -2 -5 12 0 14 2 19 5 13 2 -7 2 -19 0
-25z m392 28 c-2 -2 -22 -6 -44 -9 -28 -5 -34 -4 -20 3 19 8 73 14 64 6z m46
-6 c-3 -5 -12 -7 -20 -3 -21 7 -19 13 6 13 11 0 18 -4 14 -10z m-1865 -26 c0
-8 -5 -12 -10 -9 -6 4 -8 11 -5 16 9 14 15 11 15 -7z m1838 -12 c2 -12 -6 -34
-17 -48 -12 -15 -21 -33 -21 -40 0 -8 -5 -14 -11 -14 -6 0 -8 -7 -5 -16 3 -8
2 -13 -3 -10 -5 3 -14 -1 -21 -9 -7 -8 -9 -15 -4 -15 5 0 2 -5 -6 -10 -12 -8
-10 -10 10 -11 23 0 23 -1 5 -8 -11 -5 -23 -7 -27 -4 -10 5 -10 0 -2 -21 3 -9
15 -16 26 -16 27 0 118 33 118 42 0 17 60 7 70 -11 16 -31 12 -38 -27 -55 -32
-14 -34 -16 -10 -13 30 5 38 -9 10 -16 -10 -2 -3 -3 16 -1 39 4 61 -10 61 -38
0 -27 -60 -51 -94 -38 -26 10 -31 6 -75 -58 -16 -22 -51 -26 -51 -5 0 7 -6 13
-12 14 -9 0 -9 2 1 6 10 4 10 7 1 13 -8 5 -4 15 15 34 14 14 24 30 20 35 -3 5
0 11 7 14 7 2 2 2 -12 -1 -74 -14 -77 -13 -78 19 0 18 5 32 14 36 7 3 11 9 8
14 -3 5 -10 7 -15 4 -5 -3 -6 1 -3 10 5 13 2 15 -18 10 -17 -4 -25 -2 -26 7
-3 41 -7 58 -14 58 -4 0 -8 8 -8 18 0 14 2 15 10 2 5 -8 10 -10 10 -4 0 17
-51 56 -66 50 -8 -3 -12 -2 -9 3 3 5 1 12 -5 16 -17 10 -11 41 12 61 12 10 18
13 14 7 -9 -16 6 -16 104 1 94 17 104 16 108 -12z m-2525 -2 c-3 -12 -8 -19
-11 -16 -5 6 5 36 12 36 2 0 2 -9 -1 -20z m1507 0 c0 -5 -4 -10 -10 -10 -5 0
-10 5 -10 10 0 6 5 10 10 10 6 0 10 -4 10 -10z m-40 -44 c0 -12 -5 -7 -19 24
-11 24 -11 24 3 6 9 -11 16 -24 16 -30z m-1441 -14 c1 -7 -3 -10 -9 -7 -5 3
-10 18 -9 33 0 24 1 25 9 7 5 -11 9 -26 9 -33z m1533 26 c-7 -7 -12 -8 -12 -2
0 6 3 14 7 17 3 4 9 5 12 2 2 -3 -1 -11 -7 -17z m-865 -10 c-3 -8 -6 -5 -6 6
-1 11 2 17 5 13 3 -3 4 -12 1 -19z m938 12 c-3 -5 -12 -10 -18 -10 -7 0 -6 4
3 10 19 12 23 12 15 0z m-421 -27 c-7 -27 -34 -75 -34 -60 0 11 32 87 36 87 3
0 1 -12 -2 -27z m1332 0 c-10 -10 -19 5 -10 18 6 11 8 11 12 0 2 -7 1 -15 -2
-18z m-1681 -5 c5 -4 0 -6 -12 -6 -13 1 -19 7 -16 15 3 8 8 10 12 6 3 -4 10
-11 16 -15z m-148 -13 c-4 -8 -11 -15 -17 -15 -6 0 -6 7 2 20 14 22 24 19 15
-5z m988 15 c-3 -5 -12 -10 -18 -10 -7 0 -6 4 3 10 19 12 23 12 15 0z m45 -20
c0 -16 -4 -30 -10 -30 -5 0 -10 14 -10 30 0 17 5 30 10 30 6 0 10 -13 10 -30z
m-923 -6 c-3 -3 -12 -4 -19 -1 -8 3 -5 6 6 6 11 1 17 -2 13 -5z m678 -4 c3 -5
1 -10 -4 -10 -6 0 -11 5 -11 10 0 6 2 10 4 10 3 0 8 -4 11 -10z m35 -12 c0
-19 -18 -44 -25 -36 -4 3 0 15 7 27 15 24 18 26 18 9z m785 2 c3 -5 1 -10 -4
-10 -6 0 -11 5 -11 10 0 6 2 10 4 10 3 0 8 -4 11 -10z m-1698 -16 c-3 -3 -12
-4 -19 -1 -8 3 -5 6 6 6 11 1 17 -2 13 -5z m368 -14 c3 -6 -1 -7 -9 -4 -18 7
-21 14 -7 14 6 0 13 -4 16 -10z m-985 -10 c0 -5 -4 -10 -10 -10 -5 0 -10 5
-10 10 0 6 5 10 10 10 6 0 10 -4 10 -10z m1195 0 c3 -5 1 -10 -4 -10 -6 0 -11
5 -11 10 0 6 2 10 4 10 3 0 8 -4 11 -10z m341 -6 c-4 -11 -2 -15 8 -11 10 4
12 0 9 -14 -7 -24 -19 -25 -25 -1 -5 18 0 42 9 42 3 0 2 -7 -1 -16z m149 6 c3
-5 1 -10 -4 -10 -6 0 -11 5 -11 10 0 6 2 10 4 10 3 0 8 -4 11 -10z m605 0 c0
-5 -7 -10 -16 -10 -8 0 -12 5 -9 10 3 6 10 10 16 10 5 0 9 -4 9 -10z m-1270
-10 c0 -5 -2 -10 -4 -10 -3 0 -8 5 -11 10 -3 6 -1 10 4 10 6 0 11 -4 11 -10z
m-1083 -22 c-3 -8 -6 -5 -6 6 -1 11 2 17 5 13 3 -3 4 -12 1 -19z m583 12 c0
-5 -5 -10 -11 -10 -5 0 -7 5 -4 10 3 6 8 10 11 10 2 0 4 -4 4 -10z m1320 -1
c0 -11 -27 -12 -34 -1 -2 4 4 9 15 9 10 1 19 -2 19 -8z m812 -11 c-4 -16 -6
-16 -16 -4 -6 8 -20 17 -31 19 -11 3 -4 5 16 4 30 -1 35 -4 31 -19z m-970 -24
c-6 -11 -11 -13 -16 -5 -4 6 -2 11 3 11 6 0 11 8 12 18 0 9 3 12 5 5 3 -7 1
-20 -4 -29z m828 26 c-13 -8 -12 -10 4 -10 11 0 17 -3 13 -6 -3 -4 -13 -4 -22
0 -18 6 -11 26 8 26 7 0 6 -4 -3 -10z m-1513 -32 c-3 -8 -6 -5 -6 6 -1 11 2
17 5 13 3 -3 4 -12 1 -19z m-224 5 c-7 -2 -19 -2 -25 0 -7 3 -2 5 12 5 14 0
19 -2 13 -5z m830 -13 c5 -21 -7 -35 -22 -26 -10 7 -3 46 9 46 4 0 10 -9 13
-20z m277 10 c0 -5 -4 -10 -10 -10 -5 0 -10 5 -10 10 0 6 5 10 10 10 6 0 10
-4 10 -10z m-1247 -25 c-3 -9 -8 -14 -10 -11 -3 3 -2 9 2 15 9 16 15 13 8 -4z
m468 -12 c-8 -15 -10 -15 -11 -2 0 17 10 32 18 25 2 -3 -1 -13 -7 -23z m594 7
c3 -5 1 -10 -4 -10 -6 0 -11 5 -11 10 0 6 2 10 4 10 3 0 8 -4 11 -10z m1025
-28 c0 -15 -2 -15 -10 -2 -13 20 -13 33 0 25 6 -3 10 -14 10 -23z m-1120 -7
c0 -8 -4 -15 -10 -15 -5 0 -10 7 -10 15 0 8 5 15 10 15 6 0 10 -7 10 -15z
m-1130 -75 l-7 -75 -2 71 c0 39 2 74 6 77 10 11 11 6 3 -73z m180 76 c0 -3 -4
-8 -10 -11 -5 -3 -10 -1 -10 4 0 6 5 11 10 11 6 0 10 -2 10 -4z m-203 -28 c-3
-8 -6 -5 -6 6 -1 11 2 17 5 13 3 -3 4 -12 1 -19z m1183 -6 c0 -15 -2 -15 -10
-2 -13 20 -13 33 0 25 6 -3 10 -14 10 -23z m650 18 c0 -5 -4 -10 -10 -10 -5 0
-10 5 -10 10 0 6 5 10 10 10 6 0 10 -4 10 -10z m417 -52 c-2 -13 -4 -3 -4 22
0 25 2 35 4 23 2 -13 2 -33 0 -45z m62 22 c0 -10 -3 -8 -9 5 -12 27 -12 43 0
25 5 -8 9 -22 9 -30z m-1099 20 c0 -5 -4 -10 -10 -10 -5 0 -10 5 -10 10 0 6 5
10 10 10 6 0 10 -4 10 -10z m687 -12 c-3 -8 -6 -5 -6 6 -1 11 2 17 5 13 3 -3
4 -12 1 -19z m-533 -14 c10 -37 2 -39 -11 -4 -6 17 -8 30 -3 30 4 0 11 -12 14
-26z m126 17 c0 -5 -7 -11 -14 -14 -10 -4 -13 -1 -9 9 6 15 23 19 23 5z m-320
-26 c14 -19 14 -19 -2 -6 -10 7 -18 18 -18 24 0 6 1 8 3 6 1 -2 9 -13 17 -24z
m-1173 -7 c-3 -8 -6 -5 -6 6 -1 11 2 17 5 13 3 -3 4 -12 1 -19z m1218 12 c3
-6 -1 -7 -9 -4 -18 7 -21 14 -7 14 6 0 13 -4 16 -10z m75 0 c0 -5 -4 -10 -10
-10 -5 0 -10 5 -10 10 0 6 5 10 10 10 6 0 10 -4 10 -10z m164 -6 c3 -8 2 -12
-4 -9 -6 3 -10 10 -10 16 0 14 7 11 14 -7z m546 -4 c8 -5 11 -10 5 -10 -5 0
-17 5 -25 10 -8 5 -10 10 -5 10 6 0 17 -5 25 -10z m-1399 -23 c-10 -9 -11 -8
-5 6 3 10 9 15 12 12 3 -3 0 -11 -7 -18z m-514 -19 c-3 -7 -5 -2 -5 12 0 14 2
19 5 13 2 -7 2 -19 0 -25z m486 5 c-5 -12 -3 -14 7 -8 9 6 11 4 5 -4 -5 -9
-11 -9 -17 -3 -6 6 -7 15 -4 21 11 17 16 13 9 -6z m1598 1 c54 9 48 0 -9 -12
-28 -7 -42 -6 -42 0 0 6 -7 4 -17 -3 -15 -13 -15 -12 -2 8 8 14 16 18 20 11 5
-7 22 -8 50 -4z m-785 -42 c-4 -3 -13 3 -21 14 -22 28 -18 37 6 13 11 -11 18
-23 15 -27z m-1396 27 c0 8 2 12 5 10 6 -7 -6 -49 -14 -49 -3 0 -7 12 -8 27
-1 19 1 22 8 12 7 -12 9 -12 9 0z m1280 1 c0 -5 -8 -23 -18 -39 -17 -28 -19
-29 -30 -10 -7 11 -8 19 -2 19 5 0 10 -5 10 -12 0 -6 6 -3 14 8 8 10 10 21 5
22 -11 4 -2 22 12 22 5 0 9 -4 9 -10z m75 -10 c3 -5 1 -10 -4 -10 -6 0 -11 5
-11 10 0 6 2 10 4 10 3 0 8 -4 11 -10z m904 -40 c11 0 21 -9 24 -21 4 -13 10
-19 19 -14 7 3 4 -1 -7 -10 -11 -9 -19 -23 -17 -31 2 -8 -4 -14 -13 -14 -9 0
-14 4 -10 9 3 6 -4 9 -15 8 -29 -2 -25 -16 8 -22 45 -10 57 -20 60 -53 3 -33
-7 -40 -76 -48 -20 -2 -49 -9 -64 -15 -23 -9 -33 -8 -55 7 -16 11 -35 22 -43
26 -11 5 -11 7 -2 7 8 1 10 6 5 14 -10 15 -11 127 -1 121 4 -3 5 -12 2 -22 -2
-9 1 -7 7 5 12 23 24 27 102 38 46 7 68 24 25 20 -15 -1 -16 -1 -4 2 10 3 21
14 25 26 5 20 6 20 9 -5 2 -19 9 -28 21 -28z m15 35 c3 -8 1 -15 -4 -15 -6 0
-10 7 -10 15 0 8 2 15 4 15 2 0 6 -7 10 -15z m-2168 -32 c-11 -11 -17 4 -9 23
7 18 8 18 11 1 2 -10 1 -21 -2 -24z m1234 7 c0 -5 -2 -10 -4 -10 -3 0 -8 5
-11 10 -3 6 -1 10 4 10 6 0 11 -4 11 -10z m667 -12 c-3 -8 -6 -5 -6 6 -1 11 2
17 5 13 3 -3 4 -12 1 -19z m-2614 -31 c-7 -11 -23 12 -23 32 0 11 4 9 14 -4 8
-11 12 -24 9 -28z m2757 33 c12 -8 9 -10 -13 -10 -16 0 -26 4 -22 10 8 12 16
12 35 0z m-850 -10 c0 -5 -4 -10 -10 -10 -5 0 -10 5 -10 10 0 6 5 10 10 10 6
0 10 -4 10 -10z m744 -16 c3 -8 2 -12 -4 -9 -6 3 -10 10 -10 16 0 14 7 11 14
-7z m-1884 -24 c0 -5 -4 -10 -10 -10 -5 0 -10 5 -10 10 0 6 5 10 10 10 6 0 10
-4 10 -10z m427 -12 c-3 -8 -6 -5 -6 6 -1 11 2 17 5 13 3 -3 4 -12 1 -19z
m1753 2 c0 -11 -4 -20 -10 -20 -5 0 -10 9 -10 20 0 11 5 20 10 20 6 0 10 -9
10 -20z m-2065 -10 c3 -5 -1 -10 -10 -10 -9 0 -13 5 -10 10 3 6 8 10 10 10 2
0 7 -4 10 -10z m35 -8 c0 -5 12 -13 28 -20 25 -11 25 -11 2 -6 -14 3 -31 6
-37 6 -15 2 -18 28 -3 28 6 0 10 -4 10 -8z m1101 -14 c11 -21 11 -22 -4 -9
-10 7 -17 17 -17 22 0 15 9 10 21 -13z m-897 -3 c11 15 12 15 12 -2 0 -11 -8
-20 -18 -20 -13 -1 -18 5 -17 20 1 18 2 19 6 4 4 -17 6 -17 17 -2z m810 -41
c5 -14 4 -15 -9 -4 -17 14 -19 20 -6 20 5 0 12 -7 15 -16z m156 6 c0 -5 -4
-10 -10 -10 -5 0 -10 5 -10 10 0 6 5 10 10 10 6 0 10 -4 10 -10z m-1587 -7
c-7 -2 -19 -2 -25 0 -7 3 -2 5 12 5 14 0 19 -2 13 -5z m517 -8 c11 -13 10 -14
-4 -9 -9 3 -16 10 -16 15 0 13 6 11 20 -6z m1130 5 c-8 -5 -19 -10 -25 -10 -5
0 -3 5 5 10 8 5 20 10 25 10 6 0 3 -5 -5 -10z m120 -20 c0 -14 -14 -12 -28 2
-19 19 -14 30 8 18 11 -6 20 -15 20 -20z m-1464 11 c-3 -5 1 -14 9 -21 21 -17
9 -31 -25 -28 -26 2 -28 4 -15 18 8 9 15 22 15 28 0 7 5 12 11 12 5 0 8 -4 5
-9z m1299 -11 c-3 -5 -11 -10 -16 -10 -6 0 -7 5 -4 10 3 6 11 10 16 10 6 0 7
-4 4 -10z m875 -25 c0 -8 -4 -15 -10 -15 -5 0 -7 7 -4 15 4 8 8 15 10 15 2 0
4 -7 4 -15z m-2230 -5 c0 -5 -4 -10 -10 -10 -5 0 -10 5 -10 10 0 6 5 10 10 10
6 0 10 -4 10 -10z m313 3 c-7 -2 -19 -2 -25 0 -7 3 -2 5 12 5 14 0 19 -2 13
-5z m20 -28 c-3 -9 -8 -14 -10 -11 -3 3 -2 9 2 15 9 16 15 13 8 -4z m16 -37
c-7 -13 -14 -18 -16 -11 -3 7 2 19 9 27 18 20 22 12 7 -16z m-269 -8 c0 -12
-24 -12 -60 0 -21 7 -19 8 18 9 23 1 42 -3 42 -9z m1963 -7 c-7 -2 -21 -2 -30
0 -10 3 -4 5 12 5 17 0 24 -2 18 -5z m137 -8 c0 -8 3 -15 8 -15 4 0 7 -33 7
-74 0 -41 -3 -70 -6 -64 -4 6 -12 2 -20 -9 -20 -28 -52 -43 -92 -43 -41 0
-110 27 -102 39 3 5 -1 15 -8 23 -9 9 -11 31 -7 73 l5 60 98 3 c53 1 97 7 97
12 0 6 5 10 10 10 6 0 10 -7 10 -15z m-2268 -37 c-8 -8 -9 -4 -5 13 4 13 8 18
11 10 2 -7 -1 -18 -6 -23z m210 25 c-6 -2 -9 -9 -6 -14 3 -6 0 -16 -6 -24 -9
-11 -17 -12 -32 -4 -24 13 -19 31 13 40 28 8 49 10 31 2z m24 -19 c-4 -9 -9
-15 -11 -12 -3 3 -3 13 1 22 4 9 9 15 11 12 3 -3 3 -13 -1 -22z m1394 16 c0
-5 -2 -10 -4 -10 -3 0 -8 5 -11 10 -3 6 -1 10 4 10 6 0 11 -4 11 -10z m690 0
c0 -5 -5 -10 -11 -10 -5 0 -7 5 -4 10 3 6 8 10 11 10 2 0 4 -4 4 -10z m-1960
-10 c0 -5 -5 -10 -11 -10 -5 0 -7 5 -4 10 3 6 8 10 11 10 2 0 4 -4 4 -10z
m-393 -32 c-3 -7 -5 -2 -5 12 0 14 2 19 5 13 2 -7 2 -19 0 -25z m1680 10 c-3
-8 -6 -5 -6 6 -1 11 2 17 5 13 3 -3 4 -12 1 -19z m390 -35 c-3 -10 -5 -4 -5
12 0 17 2 24 5 18 2 -7 2 -21 0 -30z m270 -12 c-1 -33 -5 -44 -10 -34 -8 13
-1 83 7 83 2 0 3 -22 3 -49z m-2167 18 c0 -5 -4 -9 -10 -9 -5 0 -10 7 -10 16
0 8 5 12 10 9 6 -3 10 -10 10 -16z m205 11 c3 -5 1 -10 -4 -10 -6 0 -11 5 -11
10 0 6 2 10 4 10 3 0 8 -4 11 -10z m-179 -37 c-11 -11 -17 4 -9 23 7 18 8 18
11 1 2 -10 1 -21 -2 -24z m-636 -4 c0 -6 -4 -7 -10 -4 -5 3 -10 11 -10 16 0 6
5 7 10 4 6 -3 10 -11 10 -16z m2150 -9 c-6 -11 -12 -20 -14 -20 -2 0 -2 9 1
20 3 11 9 20 15 20 5 0 4 -9 -2 -20z m-477 3 c-7 -2 -21 -2 -30 0 -10 3 -4 5
12 5 17 0 24 -2 18 -5z m-338 -23 c-3 -5 -11 -10 -16 -10 -6 0 -7 5 -4 10 3 6
11 10 16 10 6 0 7 -4 4 -10z m490 -28 c-8 -8 -25 10 -25 26 0 13 2 13 14 -4 8
-10 13 -21 11 -22z m-805 24 c0 -3 -4 -8 -10 -11 -5 -3 -10 -1 -10 4 0 6 5 11
10 11 6 0 10 -2 10 -4z m233 -3 c-7 -2 -19 -2 -25 0 -7 3 -2 5 12 5 14 0 19
-2 13 -5z m535 -18 c-3 -3 -9 2 -12 12 -6 14 -5 15 5 6 7 -7 10 -15 7 -18z
m-1130 -12 c3 -18 -2 -23 -17 -23 -21 0 -45 32 -34 44 15 15 48 0 51 -21z
m224 -8 c-2 -20 -8 -32 -14 -29 -6 4 -8 -3 -4 -17 3 -13 3 -18 0 -11 -9 18
-24 4 -24 -22 0 -13 -6 -29 -14 -35 -12 -10 -11 -5 1 31 8 24 21 50 29 59 8 8
14 22 14 31 0 12 8 28 15 28 0 0 -1 -16 -3 -35z m591 28 c-7 -2 -19 -2 -25 0
-7 3 -2 5 12 5 14 0 19 -2 13 -5z m170 0 c-7 -2 -21 -2 -30 0 -10 3 -4 5 12 5
17 0 24 -2 18 -5z m417 3 c0 -3 -4 -8 -10 -11 -5 -3 -10 -1 -10 4 0 6 5 11 10
11 6 0 10 -2 10 -4z m-2090 -10 c0 -2 -7 -7 -16 -10 -8 -3 -12 -2 -9 4 6 10
25 14 25 6z m794 -80 c-15 -30 -31 -53 -35 -50 -5 3 0 15 11 26 11 12 20 28
20 35 0 15 22 54 28 48 2 -2 -9 -28 -24 -59z m-807 32 c-3 -8 -6 -5 -6 6 -1
11 2 17 5 13 3 -3 4 -12 1 -19z m2850 -10 c-3 -7 -5 -2 -5 12 0 14 2 19 5 13
2 -7 2 -19 0 -25z m-2075 -30 c-6 -6 -7 0 -4 19 5 21 7 23 10 9 2 -10 0 -22
-6 -28z m1963 32 c-3 -5 -14 -10 -23 -9 -14 0 -13 2 3 9 27 11 27 11 20 0z
m-2053 -33 c-7 -8 -9 -16 -6 -19 3 -3 1 -9 -5 -13 -7 -4 -11 3 -11 16 0 22 0
22 -15 3 -8 -10 -15 -15 -15 -9 0 16 44 53 54 44 5 -5 4 -14 -2 -22z m1231 20
c3 -8 -1 -14 -8 -14 -7 0 -11 6 -8 14 3 7 6 13 8 13 2 0 5 -6 8 -13z m864 -19
c-3 -8 -6 -5 -6 6 -1 11 2 17 5 13 3 -3 4 -12 1 -19z m-2239 -29 c-3 -8 -7 -3
-11 10 -4 17 -3 21 5 13 5 -5 8 -16 6 -23z m602 22 c0 -5 -8 -11 -17 -15 -10
-3 -25 -9 -33 -12 -8 -3 -4 4 10 15 27 22 40 26 40 12z m80 2 c0 -5 -9 -19
-20 -33 -16 -20 -19 -21 -14 -5 11 31 34 58 34 38z m985 -3 c-3 -5 -1 -10 6
-10 7 0 10 -2 8 -5 -3 -2 -16 -1 -29 2 -22 6 -23 7 -4 14 26 10 26 10 19 -1z
m352 -5 c6 -10 13 -11 23 -5 12 8 13 10 1 10 -8 0 -11 3 -8 7 4 3 15 -1 24 -9
25 -21 83 -29 90 -11 7 18 23 17 23 -2 0 -10 10 -15 28 -15 21 0 24 2 12 10
-12 8 -11 10 7 10 17 0 21 -4 16 -16 -5 -13 -2 -15 16 -9 13 4 27 1 36 -9 13
-13 13 -15 -5 -21 -11 -3 -20 -14 -21 -23 0 -13 -2 -14 -6 -3 -3 8 2 20 11 26
14 11 14 14 2 18 -18 7 -29 -35 -20 -76 l6 -31 19 23 c19 23 19 23 19 2 0 -12
-6 -21 -15 -21 -8 0 -15 -8 -16 -17 0 -14 -2 -13 -9 5 -9 21 -21 31 -19 15 1
-5 1 -20 0 -35 -1 -22 -6 -28 -23 -27 -22 0 -22 1 -3 9 19 8 19 9 -3 9 -15 1
-26 8 -29 21 -6 21 -23 28 -23 9 0 -6 -12 -9 -27 -7 -20 2 -29 9 -31 26 -2 12
-8 22 -13 22 -5 0 -9 -6 -8 -12 3 -28 -2 -38 -21 -38 -30 0 -73 22 -59 31 9 5
9 15 0 39 -9 27 -8 30 3 21 11 -9 15 -7 20 11 8 33 8 38 -8 38 -15 0 -28 24
-19 34 10 10 22 7 30 -9z m88 5 c-3 -5 -11 -10 -16 -10 -6 0 -7 5 -4 10 3 6
11 10 16 10 6 0 7 -4 4 -10z m-2068 -25 c-7 -13 -14 -20 -15 -14 -5 14 6 39
17 39 5 0 4 -11 -2 -25z m48 -27 c-3 -7 -16 -14 -29 -14 -19 -1 -23 2 -19 15
3 9 13 22 21 29 13 10 18 10 24 -2 4 -8 6 -20 3 -28z m-658 0 c-3 -7 -5 -2 -5
12 0 14 2 19 5 13 2 -7 2 -19 0 -25z m1201 7 c-3 -3 -9 2 -12 12 -6 14 -5 15
5 6 7 -7 10 -15 7 -18z m48 -76 c-9 -21 -13 -39 -10 -39 3 0 10 14 16 31 7 20
14 27 20 21 6 -6 17 -8 26 -5 11 5 13 3 7 -7 -5 -8 -4 -11 3 -6 6 4 9 13 6 21
-4 9 1 13 15 12 31 -2 26 -38 -10 -73 -18 -17 -28 -36 -25 -46 2 -10 1 -18 -3
-18 -4 0 -7 -9 -7 -19 0 -15 3 -17 13 -9 7 6 10 15 6 21 -4 6 0 8 10 4 10 -3
17 -2 17 3 0 6 -4 10 -10 10 -14 0 -12 26 3 38 14 11 41 -10 29 -24 -4 -4 8 3
26 16 19 12 55 33 80 46 26 13 43 24 37 24 -5 0 -2 5 8 11 10 6 21 8 24 5 4
-3 1 -6 -5 -6 -7 0 -12 -3 -12 -7 0 -5 30 -6 66 -5 36 2 76 1 90 -2 32 -8 31
-40 -2 -55 -15 -6 -24 -15 -20 -18 7 -8 -13 -33 -26 -33 -6 0 -4 8 3 17 12 15
-87 -64 -116 -92 -33 -32 -64 -78 -59 -86 3 -5 -2 -16 -10 -24 -8 -9 -12 -23
-9 -32 4 -10 2 -14 -4 -10 -6 4 -13 -4 -15 -18 -3 -15 -1 -25 6 -25 6 0 5 -4
-3 -9 -23 -15 5 -54 32 -45 19 6 20 5 9 -8 -10 -13 -10 -17 4 -22 8 -3 24 -6
35 -6 17 0 18 3 9 23 l-11 22 17 -22 c9 -13 24 -23 33 -23 14 0 14 2 1 11 -12
8 -9 9 11 5 19 -4 47 6 105 39 43 25 88 45 99 45 12 0 16 3 9 8 -7 4 20 7 60
8 48 0 63 -2 46 -8 -22 -7 -21 -7 8 -4 20 1 31 -2 29 -8 -7 -21 52 -36 116
-30 93 8 114 13 96 25 -11 7 -9 9 8 9 12 0 23 6 26 13 3 8 7 5 13 -7 11 -29
-57 -86 -103 -86 -22 0 -32 4 -27 11 5 8 1 8 -14 0 -33 -18 -80 -13 -132 13
-54 27 -104 28 -141 2 -13 -9 -28 -16 -34 -16 -5 0 -3 5 5 10 9 6 10 10 3 10
-6 0 -18 -6 -25 -13 -7 -7 -34 -23 -60 -37 -26 -13 -45 -27 -43 -30 2 -3 -15
-7 -37 -7 -23 -1 -45 -8 -49 -14 -5 -9 -11 -10 -21 -2 -7 6 -26 13 -43 17 -16
4 -44 21 -61 37 l-31 30 12 78 c7 48 18 85 28 96 9 9 17 31 18 48 0 27 2 29 9
12 8 -19 9 -18 9 4 1 13 4 22 7 18 3 -3 20 9 38 26 18 18 52 49 76 70 45 39
46 49 4 53 -25 3 -25 2 -8 -11 18 -13 18 -15 -6 -37 -21 -20 -22 -21 -6 -1 17
21 17 22 -1 31 -12 7 -27 6 -48 -4 -25 -12 -26 -13 -5 -8 24 5 24 4 6 -10 -13
-11 -15 -16 -6 -16 7 0 11 -2 8 -5 -3 -4 -18 -3 -33 1 -20 5 -23 9 -13 15 8 5
8 9 2 9 -17 0 -37 -27 -29 -40 3 -5 1 -10 -4 -10 -6 0 -11 5 -11 12 0 6 -8 4
-19 -6 -11 -10 -17 -24 -15 -31 3 -7 -2 -15 -11 -19 -11 -4 -14 -2 -10 7 4 6
-17 -13 -47 -43 -41 -42 -51 -58 -43 -69 8 -12 6 -13 -7 -8 -13 4 -31 -9 -67
-46 -46 -48 -62 -77 -26 -47 13 11 14 10 9 -3 -3 -9 -20 -17 -37 -19 -19 -2
-31 -8 -29 -15 1 -7 -5 -13 -13 -13 -10 0 -12 -6 -8 -17 6 -16 5 -16 -10 -4
-9 7 -17 9 -17 4 0 -22 -124 -66 -200 -71 -41 -2 -72 -1 -68 3 8 8 -31 42 -44
38 -4 -2 -5 13 -2 33 3 26 1 35 -8 31 -21 -8 -16 54 5 67 16 9 22 7 34 -11 9
-13 23 -23 32 -22 12 0 12 2 -4 10 -16 7 -14 8 12 5 17 -3 33 -1 35 5 2 6 11
11 20 13 10 1 21 5 24 9 4 4 17 7 28 8 16 1 14 3 -8 9 -16 5 -33 7 -38 4 -4
-3 -8 -1 -8 4 0 5 20 9 45 8 25 0 45 -4 45 -8 0 -5 5 -8 11 -8 5 0 7 5 4 10
-4 6 6 10 22 9 25 0 26 -1 8 -9 -13 -6 -15 -9 -5 -9 8 0 26 6 40 14 14 8 20
14 13 15 -6 0 -10 9 -8 19 2 11 -2 27 -10 37 -11 16 -17 16 -39 6 -23 -10 -26
-9 -26 7 0 11 15 25 40 37 22 10 40 23 40 27 0 4 -9 3 -19 -3 -26 -14 -26 -14
-29 15 -1 19 3 25 17 25 11 0 25 2 33 5 9 4 14 -7 15 -37 2 -23 7 -46 13 -52
6 -6 4 -16 -7 -28 -9 -10 -12 -18 -7 -18 5 0 3 -4 -4 -9 -11 -7 -10 -9 3 -14
11 -5 14 -3 9 5 -5 7 -2 9 9 5 11 -4 29 9 57 41 22 26 54 62 71 80 42 45 36
68 -16 64 -49 -5 -78 -28 -69 -55 4 -13 2 -17 -5 -13 -15 10 -14 -7 2 -23 9
-11 9 -12 0 -7 -9 5 -11 2 -7 -8 3 -8 12 -12 20 -9 22 8 17 -4 -13 -32 -30
-27 -53 -35 -34 -11 9 11 9 20 2 34 -9 17 -13 59 -11 115 1 9 5 15 10 12 5 -3
22 3 37 14 16 11 45 21 65 23 20 1 34 6 32 10 -7 10 14 78 30 97 18 24 20 -35
2 -80z m104 81 c0 -5 -4 -10 -10 -10 -5 0 -10 5 -10 10 0 6 5 10 10 10 6 0 10
-4 10 -10z m-209 -22 c1 -7 1 -16 0 -20 -2 -14 17 -8 23 7 3 8 10 15 16 15 6
0 8 -5 5 -10 -3 -6 0 -13 8 -16 9 -3 12 -14 9 -30 -5 -29 -32 -32 -32 -3 0 11
-4 18 -10 14 -5 -3 -7 -12 -4 -19 5 -14 -22 -30 -36 -21 -10 6 -19 66 -13 83
3 6 11 12 19 12 8 0 15 -6 15 -12z m147 -14 c0 -18 -3 -22 -9 -13 -11 18 -11
39 0 39 5 0 9 -12 9 -26z m-427 -43 c-19 -35 -13 -51 19 -51 17 0 30 -4 30
-10 0 -5 -11 -10 -23 -10 -26 0 -61 32 -50 45 5 4 0 5 -10 2 -15 -6 -16 -4 -6
15 9 16 13 18 20 7 6 -10 10 -4 16 21 4 20 9 28 11 18 2 -9 -2 -26 -7 -37z
m816 42 c-4 -3 1 -12 11 -19 15 -12 15 -13 1 -14 -9 0 -19 6 -22 14 -5 13 0
26 11 26 3 0 2 -3 -1 -7z m-1680 -25 c-3 -8 -6 -5 -6 6 -1 11 2 17 5 13 3 -3
4 -12 1 -19z m759 -26 c-11 -10 -15 4 -8 28 l7 25 3 -23 c2 -13 1 -26 -2 -30z
m881 32 c-3 -3 -12 -4 -19 -1 -8 3 -5 6 6 6 11 1 17 -2 13 -5z m744 -21 c-12
-20 -14 -14 -5 12 4 9 9 14 11 11 3 -2 0 -13 -6 -23z m-2021 7 c0 -5 -5 -10
-11 -10 -5 0 -7 5 -4 10 3 6 8 10 11 10 2 0 4 -4 4 -10z m710 0 c0 -5 -5 -10
-11 -10 -5 0 -7 5 -4 10 3 6 8 10 11 10 2 0 4 -4 4 -10z m26 -16 c-4 -15 -3
-23 3 -20 5 3 8 -2 6 -11 -3 -19 -25 -19 -37 0 -6 9 -8 8 -8 -1 0 -7 -5 -10
-10 -7 -14 9 7 35 26 35 8 0 14 7 14 15 0 8 3 15 6 15 3 0 3 -12 0 -26z m374
6 c0 -5 -10 -10 -22 -10 -19 0 -20 2 -8 10 19 13 30 13 30 0z m535 -19 c3 -5
1 -12 -5 -16 -5 -3 -10 1 -10 9 0 18 6 21 15 7z m405 -17 c0 -2 -7 -4 -15 -4
-8 0 -15 4 -15 10 0 5 7 7 15 4 8 -4 15 -8 15 -10z m-1893 -31 c-3 -10 -5 -4
-5 12 0 17 2 24 5 18 2 -7 2 -21 0 -30z m69 26 c3 -6 1 -16 -5 -22 -6 -6 -12
-20 -12 -31 -1 -20 -1 -20 -6 -1 -3 11 -12 25 -21 31 -8 6 -12 16 -8 22 9 15
43 15 52 1z m154 -10 c0 -4 -7 -6 -15 -3 -8 4 -15 10 -15 15 0 4 7 6 15 3 8
-4 15 -10 15 -15z m281 6 c16 -9 33 -13 38 -11 5 3 8 -2 7 -12 -1 -18 -27 -34
-36 -22 -3 3 -19 14 -37 22 -23 11 -33 13 -36 4 -3 -6 -4 -1 -4 12 1 26 25 29
68 7z m388 12 c-2 -1 -13 -9 -24 -17 -19 -14 -19 -14 -6 3 7 9 18 17 24 17 6
0 8 -1 6 -3z m321 -3 c0 -8 -32 -33 -42 -34 -4 0 0 9 9 20 17 20 33 26 33 14z
m310 -8 c0 -3 -4 -8 -10 -11 -5 -3 -10 -1 -10 4 0 6 5 11 10 11 6 0 10 -2 10
-4z m-30 -27 c0 -6 -4 -7 -10 -4 -5 3 -10 11 -10 16 0 6 5 7 10 4 6 -3 10 -11
10 -16z m-1180 -9 c0 -4 -11 -7 -24 -6 -18 1 -22 4 -14 13 10 12 38 7 38 -7z
m1847 14 c-3 -3 -12 -4 -19 -1 -8 3 -5 6 6 6 11 1 17 -2 13 -5z m-1947 -8 c0
-3 -4 -8 -10 -11 -5 -3 -10 -1 -10 4 0 6 5 11 10 11 6 0 10 -2 10 -4z m270
-12 c0 -2 -9 -4 -21 -4 -11 0 -18 4 -14 10 5 8 35 3 35 -6z m211 -18 c-6 -14
-13 -26 -17 -26 -3 0 -3 7 0 16 5 12 2 15 -9 10 -9 -3 -13 -2 -10 3 3 5 -3 12
-12 15 -10 3 -6 4 10 2 15 -2 30 1 33 6 11 18 14 0 5 -26z m538 31 c-2 -1 -13
-9 -24 -17 -19 -14 -19 -14 -6 3 7 9 18 17 24 17 6 0 8 -1 6 -3z m718 -29 c-3
-7 -5 -2 -5 12 0 14 2 19 5 13 2 -7 2 -19 0 -25z m-1921 -3 c1 -8 -2 -13 -7
-9 -5 3 -9 12 -9 21 0 19 13 9 16 -12z m-343 -10 c-3 -9 -8 -14 -10 -11 -3 3
-2 9 2 15 9 16 15 13 8 -4z m489 -29 c-31 -51 -42 -54 -16 -4 14 27 31 47 41
48 1 0 -10 -20 -25 -44z m1964 23 c3 -5 15 -9 27 -8 21 0 21 1 2 9 -15 7 -16
9 -4 9 9 1 22 -6 29 -14 7 -8 16 -13 20 -10 10 6 28 -41 32 -81 1 -17 -4 -39
-12 -49 -14 -16 -13 -17 9 -10 21 6 22 5 10 -8 -8 -8 -19 -13 -25 -10 -7 2
-15 0 -19 -6 -8 -14 -62 -14 -70 -1 -3 6 -26 10 -51 10 -39 0 -47 4 -65 33
-16 25 -20 27 -16 10 3 -13 2 -23 -2 -23 -9 0 -31 46 -30 63 0 7 4 3 9 -8 7
-17 9 -14 10 15 1 34 18 88 19 63 1 -20 17 -15 30 10 10 19 18 22 52 19 21 -2
42 -8 45 -13z m-2196 1 c0 -5 -2 -10 -4 -10 -3 0 -8 5 -11 10 -3 6 -1 10 4 10
6 0 11 -4 11 -10z m450 0 c0 -5 -9 -10 -20 -10 -11 0 -20 5 -20 10 0 6 9 10
20 10 11 0 20 -4 20 -10z m249 -37 c-15 -18 -16 -17 -21 17 -4 28 -4 29 14 13
14 -12 15 -19 7 -30z m1338 25 c-3 -8 -6 -5 -6 6 -1 11 2 17 5 13 3 -3 4 -12
1 -19z m266 7 c-3 -9 -8 -14 -10 -11 -3 3 -2 9 2 15 9 16 15 13 8 -4z m-2328
-4 c3 -5 1 -12 -5 -16 -5 -3 -10 1 -10 9 0 18 6 21 15 7z m1375 -22 l35 -7
-32 -1 c-37 -1 -63 7 -63 21 0 5 5 6 12 2 7 -4 28 -11 48 -15z m-1633 5 c-3
-3 -12 -4 -19 -1 -8 3 -5 6 6 6 11 1 17 -2 13 -5z m308 -19 c0 -22 -31 -33
-47 -17 -17 17 -1 44 24 40 15 -2 23 -10 23 -23z m2300 -10 c2 -14 -1 -25 -7
-25 -6 0 -8 9 -5 20 3 11 1 20 -5 20 -5 0 -6 5 -3 11 9 14 17 5 20 -26z
m-2002 5 c3 -11 1 -18 -4 -14 -5 3 -9 12 -9 20 0 20 7 17 13 -6z m1214 -25
c-9 -8 -14 -23 -13 -32 2 -10 1 -12 -1 -5 -3 8 -9 10 -16 4 -25 -19 -72 -20
-107 -2 -31 16 -39 16 -65 4 -25 -12 -26 -13 -5 -8 22 5 21 3 -8 -17 -18 -12
-36 -19 -39 -15 -4 3 -1 6 5 6 7 0 12 4 12 9 0 6 -16 3 -35 -5 -48 -20 -51
-18 -16 12 17 14 28 31 24 36 -4 7 -1 8 7 3 8 -5 18 -1 27 10 7 11 13 16 13
12 0 -4 12 -2 28 4 22 9 35 7 71 -13 32 -17 45 -20 48 -10 3 6 9 12 14 12 6 0
7 -4 4 -10 -3 -5 -4 -10 -1 -10 3 0 13 14 21 30 14 28 17 29 31 15 14 -13 14
-17 1 -30z m-1580 13 c-3 -8 -6 -5 -6 6 -1 11 2 17 5 13 3 -3 4 -12 1 -19z
m330 0 c-3 -8 -6 -5 -6 6 -1 11 2 17 5 13 3 -3 4 -12 1 -19z m838 3 c-3 -6
-11 -11 -16 -11 -5 0 -4 6 3 14 14 16 24 13 13 -3z m532 -3 c-3 -8 -6 -5 -6 6
-1 11 2 17 5 13 3 -3 4 -12 1 -19z m303 12 c-8 -5 -19 -10 -25 -10 -5 0 -3 5
5 10 8 5 20 10 25 10 6 0 3 -5 -5 -10z m-2030 -7 c0 -5 -5 -15 -10 -23 -8 -12
-10 -11 -10 8 0 12 5 22 10 22 6 0 10 -3 10 -7z m540 -3 c0 -5 -4 -10 -10 -10
-5 0 -10 5 -10 10 0 6 5 10 10 10 6 0 10 -4 10 -10z m487 4 c-3 -3 -12 -4 -19
-1 -8 3 -5 6 6 6 11 1 17 -2 13 -5z m501 -12 c2 -7 -1 -12 -8 -12 -6 0 -9 4
-6 9 4 5 1 12 -4 14 -6 3 -5 4 2 3 6 -1 14 -8 16 -14z m-1668 -13 c0 -14 -17
-10 -23 5 -4 10 -1 13 9 9 7 -3 14 -9 14 -14z m1450 7 c0 -2 -7 -7 -16 -10 -8
-3 -12 -2 -9 4 6 10 25 14 25 6z m717 -46 c17 -20 16 -30 -2 -30 -8 0 -15 9
-15 20 0 12 -5 17 -14 14 -8 -3 -17 -1 -21 5 -3 6 -1 11 5 11 6 0 8 5 4 13
-10 15 26 -12 43 -33z m-1050 -2 c-3 -7 -5 -2 -5 12 0 14 2 19 5 13 2 -7 2
-19 0 -25z m140 4 c-2 -31 -23 -40 -23 -10 0 10 4 18 9 18 4 0 5 5 2 10 -3 6
-2 10 4 10 6 0 9 -13 8 -28z m208 18 c-3 -5 -11 -10 -16 -10 -6 0 -7 5 -4 10
3 6 11 10 16 10 6 0 7 -4 4 -10z m-1352 -17 c-7 -2 -21 -2 -30 0 -10 3 -4 5
12 5 17 0 24 -2 18 -5z m1632 -26 c11 -2 1 -4 -23 -3 -36 1 -40 3 -25 13 9 7
19 9 22 4 3 -5 15 -11 26 -14z m-1621 -3 c3 -9 3 -20 0 -26 -7 -11 -54 -2 -69
14 -7 8 -6 9 3 4 7 -4 15 -1 18 8 8 21 40 21 48 0z m926 5 c0 -11 -27 -12 -34
-1 -2 4 4 9 15 9 10 1 19 -2 19 -8z m520 1 c-8 -5 -19 -10 -25 -10 -5 0 -3 5
5 10 8 5 20 10 25 10 6 0 3 -5 -5 -10z m95 0 c-3 -5 -12 -10 -18 -10 -7 0 -6
4 3 10 19 12 23 12 15 0z m-1206 -21 c1 8 3 12 6 10 2 -3 2 -15 -2 -27 l-6
-23 -12 23 c-6 13 -9 27 -7 32 3 5 9 1 13 -10 5 -11 8 -13 8 -5z m1448 -1 c-3
-8 -6 -5 -6 6 -1 11 2 17 5 13 3 -3 4 -12 1 -19z m20 0 c-3 -8 -6 -5 -6 6 -1
11 2 17 5 13 3 -3 4 -12 1 -19z m-2187 -48 c0 -8 -9 0 -20 18 -11 18 -20 36
-20 40 1 14 40 -43 40 -58z m123 21 l-2 -36 8 33 c12 45 23 54 15 11 -7 -34
-20 -57 -28 -48 -2 2 -7 20 -11 40 -5 27 -3 36 7 36 9 0 13 -11 11 -36z m167
29 c-19 -13 -30 -13 -30 0 0 6 10 10 23 10 18 0 19 -2 7 -10z m286 -17 c-10
-10 -19 5 -10 18 6 11 8 11 12 0 2 -7 1 -15 -2 -18z m1891 19 c9 -6 7 -11 -7
-19 -14 -10 -19 -9 -23 1 -9 23 7 32 30 18z m-1530 -8 c-3 -3 -12 -4 -19 -1
-8 3 -5 6 6 6 11 1 17 -2 13 -5z m307 -19 c-4 -8 -11 -15 -16 -15 -6 0 -5 6 2
15 7 8 14 15 16 15 2 0 1 -7 -2 -15z m32 -5 c0 -11 -4 -20 -8 -20 -10 0 -11
24 -1 33 9 9 9 10 9 -13z m224 17 c0 -2 -9 -12 -20 -22 -19 -18 -20 -17 -20 3
0 15 6 22 20 22 11 0 20 -2 20 -3z m-1265 -17 c-3 -5 -12 -10 -18 -10 -7 0 -6
4 3 10 19 12 23 12 15 0z m1975 -10 c0 -11 -2 -20 -4 -20 -2 0 -6 9 -9 20 -3
11 -1 20 4 20 5 0 9 -9 9 -20z m427 14 c-3 -3 -12 -4 -19 -1 -8 3 -5 6 6 6 11
1 17 -2 13 -5z m123 -19 c8 -9 8 -15 2 -15 -6 0 -13 6 -16 13 -5 9 -7 9 -12 0
-3 -7 -13 -9 -21 -6 -14 6 -14 8 3 14 28 11 30 11 44 -6z m-2077 -8 c3 -7 -3
-13 -13 -13 -10 0 -16 6 -13 13 3 7 9 13 13 13 4 0 10 -6 13 -13z m544 -14
c-8 -7 -37 9 -31 19 3 5 12 4 20 -3 8 -6 13 -14 11 -16z m1376 20 c-7 -2 -21
-2 -30 0 -10 3 -4 5 12 5 17 0 24 -2 18 -5z m-2343 -29 c0 -14 4 -23 8 -20 5
3 9 -9 8 -27 l0 -32 -10 28 c-6 15 -17 27 -27 27 -10 0 -21 5 -24 10 -11 18 3
40 25 40 15 0 20 -7 20 -26z m70 16 c-8 -5 -19 -10 -25 -10 -5 0 -3 5 5 10 8
5 20 10 25 10 6 0 3 -5 -5 -10z m76 -4 c15 -16 18 -26 6 -26 -4 0 -13 9 -20
20 -14 23 -7 26 14 6z m1644 -16 c-8 -5 -33 -9 -55 -8 l-40 1 45 7 c25 4 50 8
55 8 6 1 3 -3 -5 -8z m-321 -4 c-2 -2 -15 -9 -29 -15 -24 -11 -24 -11 -6 3 16
13 49 24 35 12z m371 -11 c7 -8 9 -15 6 -15 -4 0 -14 7 -22 15 -9 8 -11 15 -6
15 5 0 15 -7 22 -15z m-1963 -17 c-3 -8 -6 -5 -6 6 -1 11 2 17 5 13 3 -3 4
-12 1 -19z m173 -3 c0 -8 -4 -15 -10 -15 -5 0 -7 7 -4 15 4 8 8 15 10 15 2 0
4 -7 4 -15z m323 -17 c-3 -15 -9 -25 -14 -23 -4 3 -3 17 3 30 14 31 18 28 11
-7z m1034 16 c-3 -3 -12 -4 -19 -1 -8 3 -5 6 6 6 11 1 17 -2 13 -5z m336 -1
c-7 -2 -19 -2 -25 0 -7 3 -2 5 12 5 14 0 19 -2 13 -5z m-1759 -12 c3 -5 0 -14
-7 -19 -10 -8 -13 -6 -14 9 -2 19 11 26 21 10z m1956 -7 c0 -8 -4 -12 -10 -9
-5 3 -10 10 -10 16 0 5 5 9 10 9 6 0 10 -7 10 -16z m-1056 -10 c22 -8 20 -24
-3 -24 -10 0 -21 7 -25 15 -6 16 3 19 28 9z m-613 -26 c-4 -12 -14 -24 -22
-26 -9 -2 -10 -1 -3 5 6 4 13 16 17 26 3 9 9 17 11 17 3 0 2 -10 -3 -22z
m1074 12 c-3 -5 -11 -10 -16 -10 -6 0 -7 5 -4 10 3 6 11 10 16 10 6 0 7 -4 4
-10z m255 -4 c0 -8 -4 -18 -10 -21 -5 -3 -10 3 -10 14 0 12 5 21 10 21 6 0 10
-6 10 -14z m-1640 -41 c0 -5 -5 -3 -10 5 -5 8 -10 20 -10 25 0 6 5 3 10 -5 5
-8 10 -19 10 -25z m384 19 c3 -8 2 -12 -4 -9 -6 3 -10 10 -10 16 0 14 7 11 14
-7z m893 10 c-3 -3 -12 -4 -19 -1 -8 3 -5 6 6 6 11 1 17 -2 13 -5z m-430 -10
c-3 -3 -12 -4 -19 -1 -8 3 -5 6 6 6 11 1 17 -2 13 -5z m924 -3 c-16 -10 7 -20
47 -22 27 -1 27 -1 -3 -8 -16 -4 -31 -3 -33 1 -2 4 -17 8 -33 8 -17 0 -28 4
-24 9 3 5 -3 11 -12 13 -10 3 2 5 27 6 26 0 39 -3 31 -7z m139 -1 c0 -5 -7
-10 -15 -10 -8 0 -15 5 -15 10 0 6 7 10 15 10 8 0 15 -4 15 -10z m-1509 -27
c-12 -20 -14 -14 -5 12 4 9 9 14 11 11 3 -2 0 -13 -6 -23z m133 10 c10 1 21
-4 23 -10 3 -7 0 -13 -7 -13 -6 0 -8 5 -5 10 9 14 -8 13 -23 -2 -9 -9 -12 -9
-12 3 0 12 -2 12 -10 -1 -5 -8 -12 -11 -15 -8 -4 4 -1 13 6 21 8 8 16 11 19 7
3 -5 14 -8 24 -7z m268 0 c-6 -3 -10 -8 -7 -13 3 -4 -4 -6 -16 -3 -20 5 -20 6
3 18 13 6 25 10 28 7 3 -3 -1 -7 -8 -9z m84 2 c-26 -19 -42 -19 -26 0 7 8 20
15 29 15 13 -1 13 -3 -3 -15z m1400 -33 c-4 -3 -11 -1 -17 5 -8 8 -8 15 2 26
12 13 14 13 17 -5 2 -11 1 -22 -2 -26z m116 16 c-8 -8 -9 -4 -5 13 4 13 8 18
11 10 2 -7 -1 -18 -6 -23z m-2028 6 c3 -8 2 -12 -4 -9 -6 3 -10 10 -10 16 0
14 7 11 14 -7z m1121 6 c3 -5 -1 -10 -10 -10 -9 0 -13 5 -10 10 3 6 8 10 10
10 2 0 7 -4 10 -10z m210 -10 c-3 -5 -15 -10 -26 -10 -10 0 -19 5 -19 10 0 6
12 10 26 10 14 0 23 -4 19 -10z m-1693 -22 c-15 -15 -16 -31 0 -22 7 5 8 3 3
-5 -5 -8 -11 -9 -17 -3 -6 6 -5 17 3 30 7 12 15 19 18 16 3 -2 -1 -10 -7 -16z
m1445 16 c-3 -3 -12 -4 -19 -1 -8 3 -5 6 6 6 11 1 17 -2 13 -5z m-1576 -27
c-10 -9 -11 -8 -5 6 3 10 9 15 12 12 3 -3 0 -11 -7 -18z m319 -7 c0 -5 -5 -10
-11 -10 -5 0 -7 5 -4 10 3 6 8 10 11 10 2 0 4 -4 4 -10z m1127 -6 c-3 -3 -12
-4 -19 -1 -8 3 -5 6 6 6 11 1 17 -2 13 -5z m-1436 -26 c11 -21 11 -22 -4 -9
-10 7 -17 17 -17 22 0 15 9 10 21 -13z m2452 -11 c3 -8 2 -20 -3 -26 -5 -9 -7
-4 -7 13 0 29 2 32 10 13z m-2205 -24 c-10 -2 -26 -2 -35 0 -10 3 -2 5 17 5
19 0 27 -2 18 -5z m1772 -7 c0 -3 -4 -8 -10 -11 -5 -3 -10 -1 -10 4 0 6 5 11
10 11 6 0 10 -2 10 -4z m-1940 -39 c8 -3 3 -5 -12 -4 -28 1 -34 8 -21 20 4 4
9 3 12 -1 3 -5 13 -12 21 -15z m2290 -86 c0 -6 -4 -13 -10 -16 -5 -3 -10 1
-10 9 0 9 5 16 10 16 6 0 10 -4 10 -9z m-200 -21 c0 -5 -2 -10 -4 -10 -3 0 -8
5 -11 10 -3 6 -1 10 4 10 6 0 11 -4 11 -10z m160 -4 c0 -2 -7 -7 -16 -10 -8
-3 -12 -2 -9 4 6 10 25 14 25 6z m-302 -78 c-15 -5 -34 -6 -42 -1 -10 6 -1 9
27 9 38 1 40 0 15 -8z m142 -39 c0 -6 -4 -7 -10 -4 -5 3 -10 11 -10 16 0 6 5
7 10 4 6 -3 10 -11 10 -16z m-1626 -32 c7 -6 6 -7 -4 -4 -8 2 -16 12 -17 23
-2 13 -1 15 4 4 3 -8 11 -19 17 -23z m1416 -7 c0 -5 -12 -10 -27 -9 l-28 1 25
8 c14 4 26 8 28 9 1 1 2 -3 2 -9z m-1315 -30 c3 -6 -1 -7 -9 -4 -18 7 -21 14
-7 14 6 0 13 -4 16 -10z m285 -50 c0 -5 -4 -10 -10 -10 -5 0 -10 5 -10 10 0 6
5 10 10 10 6 0 10 -4 10 -10z m577 -76 c-3 -3 -12 -4 -19 -1 -8 3 -5 6 6 6 11
1 17 -2 13 -5z m150 -26 c-3 -8 -6 -5 -6 6 -1 11 2 17 5 13 3 -3 4 -12 1 -19z
m-522 2 c-3 -5 -10 -10 -16 -10 -5 0 -9 5 -9 10 0 6 7 10 16 10 8 0 12 -4 9
-10z m35 6 c0 -3 -4 -8 -10 -11 -5 -3 -10 -1 -10 4 0 6 5 11 10 11 6 0 10 -2
10 -4z m512 -48 c-8 -8 -9 -4 -5 13 4 13 8 18 11 10 2 -7 -1 -18 -6 -23z
m-630 -30 c-7 -7 -12 -8 -12 -2 0 14 12 26 19 19 2 -3 -1 -11 -7 -17z m13 -66
c-8 -8 -25 17 -25 38 0 9 6 6 16 -8 9 -13 13 -26 9 -30z m292 -8 c-3 -3 -12
-4 -19 -1 -8 3 -5 6 6 6 11 1 17 -2 13 -5z"/>
<path d="M1880 3000 c18 -12 30 -13 30 -2 0 4 -10 9 -22 9 -18 2 -20 0 -8 -7z"/>
<path d="M1860 2920 c20 -13 33 -13 25 0 -3 6 -14 10 -23 10 -15 0 -15 -2 -2
-10z"/>
<path d="M1940 2860 c0 -5 5 -10 10 -10 6 0 10 5 10 10 0 6 -4 10 -10 10 -5 0
-10 -4 -10 -10z"/>
<path d="M2356 2764 c-8 -21 -8 -24 5 -24 5 0 7 5 4 10 -3 6 1 10 10 10 11 0
15 -5 11 -16 -3 -8 -2 -12 4 -9 15 10 12 23 -9 34 -15 8 -20 7 -25 -5z"/>
<path d="M2566 2584 c-4 -10 -2 -22 4 -28 7 -7 10 -4 10 10 0 16 2 17 10 4 5
-8 10 -10 10 -4 0 6 -6 17 -14 23 -11 9 -15 8 -20 -5z"/>
<path d="M2415 2559 c-11 -16 -1 -19 13 -3 7 8 8 14 3 14 -5 0 -13 -5 -16 -11z"/>
<path d="M2490 2505 c0 -8 4 -15 10 -15 5 0 7 7 4 15 -4 8 -8 15 -10 15 -2 0
-4 -7 -4 -15z"/>
<path d="M1602 2616 c1 -15 10 -27 21 -30 20 -5 57 13 57 27 0 4 -4 5 -10 2
-5 -3 -10 -2 -10 4 0 5 6 12 13 14 6 3 -7 6 -30 6 -39 1 -43 -1 -41 -23z"/>
<path d="M1610 2424 c0 -8 5 -12 10 -9 6 3 10 10 10 16 0 5 -4 9 -10 9 -5 0
-10 -7 -10 -16z"/>
<path d="M1642 2379 c-12 -20 -22 -40 -22 -43 0 -4 -7 -14 -15 -23 -10 -9 -13
-23 -9 -35 4 -13 2 -18 -4 -14 -6 3 -13 2 -17 -4 -3 -5 -1 -10 4 -10 6 0 11
-5 11 -11 0 -5 -5 -7 -11 -3 -15 9 -30 -17 -23 -40 4 -12 2 -16 -5 -12 -6 4
-11 0 -11 -9 0 -9 -5 -13 -11 -9 -8 4 -9 -1 -4 -16 5 -15 4 -20 -4 -16 -6 4
-20 -13 -34 -41 -13 -26 -38 -74 -56 -105 -18 -32 -29 -58 -24 -58 4 0 3 -4
-2 -8 -6 -4 -21 -24 -33 -44 l-21 -38 45 0 c38 0 47 4 51 21 4 14 8 17 13 8 6
-8 13 -3 23 17 23 45 30 74 18 74 -6 0 -11 -8 -11 -17 0 -10 -5 -25 -10 -33
-6 -10 -7 -3 -3 24 4 28 3 37 -5 32 -7 -4 -12 -18 -12 -30 0 -13 -7 -29 -15
-36 -13 -10 -15 -9 -15 9 0 12 4 20 9 17 8 -5 21 32 27 83 2 13 6 26 10 30 4
3 4 -4 1 -17 -4 -19 -2 -22 11 -17 14 5 15 4 5 -6 -19 -19 -16 -27 12 -25 27
1 39 22 29 52 -4 15 -4 16 4 5 10 -15 9 -17 81 124 14 28 32 50 40 50 15 0 43
-43 100 -150 25 -49 30 -54 34 -34 3 17 5 13 6 -13 1 -45 10 -70 22 -62 5 3 9
10 9 15 0 6 -4 7 -10 4 -5 -3 -10 -1 -10 4 0 6 4 11 9 11 17 0 22 -19 11 -39
-7 -14 -7 -22 2 -27 7 -5 8 -3 3 6 -6 9 -4 11 4 6 7 -5 10 -14 7 -21 -7 -21
14 -30 73 -34 36 -2 51 0 47 8 -4 5 -13 8 -20 5 -20 -8 -30 14 -14 33 7 9 8
14 3 11 -15 -9 -43 10 -29 20 7 5 7 14 -2 31 -11 21 -13 22 -18 5 -3 -11 -4
-7 -2 8 2 16 -1 25 -7 21 -5 -3 -7 0 -5 8 3 8 -4 25 -16 38 -11 13 -15 21 -9
17 7 -4 -4 20 -24 53 -21 32 -41 57 -46 54 -5 -3 -8 1 -6 8 3 28 -1 40 -13 33
-7 -5 -9 -2 -6 8 7 16 -25 72 -34 62 -3 -3 -5 3 -4 13 0 10 -4 17 -11 16 -8
-2 -10 4 -6 15 3 9 2 13 -3 9 -4 -4 -13 9 -19 30 l-11 38 -22 -36z m28 -27 c0
-15 -2 -15 -10 -2 -13 20 -13 33 0 25 6 -3 10 -14 10 -23z m-23 -104 c-2 -13
-4 -5 -4 17 -1 22 1 32 4 23 2 -10 2 -28 0 -40z m47 -13 c-4 -8 -11 -15 -16
-15 -6 0 -5 6 2 15 7 8 14 15 16 15 2 0 1 -7 -2 -15z m-64 -30 c0 -5 -5 -3
-10 5 -5 8 -10 20 -10 25 0 6 5 3 10 -5 5 -8 10 -19 10 -25z m108 10 c-3 -3
-9 2 -12 12 -6 14 -5 15 5 6 7 -7 10 -15 7 -18z m-18 -42 c0 -32 -5 -28 -14
10 -4 19 -3 26 4 22 5 -3 10 -18 10 -32z m-119 8 c6 10 8 5 5 -14 -6 -35 -46
-100 -46 -75 0 9 4 20 10 23 5 3 15 15 21 27 10 18 8 19 -11 13 -19 -6 -20 -5
-8 14 7 12 15 16 17 10 2 -8 6 -7 12 2z m142 -36 c-3 -9 -8 -14 -10 -11 -3 3
-2 9 2 15 9 16 15 13 8 -4z m72 -41 c9 -15 12 -23 6 -20 -11 7 -35 46 -28 46
3 0 12 -12 22 -26z m-295 6 c0 -5 -5 -10 -11 -10 -5 0 -7 5 -4 10 3 6 8 10 11
10 2 0 4 -4 4 -10z m240 0 c0 -5 -2 -10 -4 -10 -3 0 -8 5 -11 10 -3 6 -1 10 4
10 6 0 11 -4 11 -10z m-226 -34 c-3 -9 -10 -13 -15 -10 -5 3 -3 11 4 19 15 16
19 13 11 -9z m245 -20 c-3 -3 -11 5 -18 17 -13 21 -12 21 5 5 10 -10 16 -20
13 -22z m-219 4 c0 -5 -5 -10 -11 -10 -5 0 -7 5 -4 10 3 6 8 10 11 10 2 0 4
-4 4 -10z m267 -47 c-3 -10 -5 -4 -5 12 0 17 2 24 5 18 2 -7 2 -21 0 -30z m35
-30 c-2 -17 2 -34 8 -38 5 -3 10 -11 10 -18 0 -6 -7 -2 -15 10 -9 12 -15 35
-14 50 1 15 -2 37 -5 48 -8 20 -7 20 5 0 7 -11 12 -34 11 -52z m48 -78 c0 -8
-2 -15 -4 -15 -2 0 -6 7 -10 15 -3 8 -1 15 4 15 6 0 10 -7 10 -15z m-500 -15
c0 -5 -5 -10 -11 -10 -5 0 -7 5 -4 10 3 6 8 10 11 10 2 0 4 -4 4 -10z m-10
-30 c0 -5 -5 -10 -11 -10 -5 0 -7 5 -4 10 3 6 8 10 11 10 2 0 4 -4 4 -10z m37
-6 c-3 -3 -12 -4 -19 -1 -8 3 -5 6 6 6 11 1 17 -2 13 -5z"/>
<path d="M1551 2364 c0 -11 3 -14 6 -6 3 7 2 16 -1 19 -3 4 -6 -2 -5 -13z"/>
<path d="M1412 2089 c2 -7 10 -15 17 -17 8 -3 12 1 9 9 -2 7 -10 15 -17 17 -8
3 -12 -1 -9 -9z"/>
<path d="M1930 1899 c0 -5 5 -7 10 -4 6 3 10 8 10 11 0 2 -4 4 -10 4 -5 0 -10
-5 -10 -11z"/>
<path d="M1890 1833 c0 -9 42 -22 54 -17 28 11 17 21 -19 20 -19 0 -35 -2 -35
-3z"/>
<path d="M1965 1820 c-3 -11 -11 -20 -17 -20 -6 0 -3 -9 7 -20 l19 -21 11 22
c10 19 13 19 18 5 4 -10 3 -15 -3 -11 -18 11 -10 -20 9 -37 17 -14 20 -14 25
-2 3 9 2 12 -5 9 -6 -4 -9 -1 -8 6 3 17 -32 89 -42 89 -4 0 -11 -9 -14 -20z
m19 -24 c-3 -9 -10 -13 -15 -10 -5 3 -3 11 4 19 15 16 19 13 11 -9z"/>
<path d="M1750 1821 c12 -8 7 -11 -22 -11 -20 0 -45 -3 -55 -6 -14 -5 -15 -4
-4 4 10 7 -9 10 -62 11 -84 1 -91 -6 -52 -44 13 -14 21 -25 17 -25 -4 -1 4
-10 17 -20 13 -11 19 -20 15 -20 -5 0 -4 -4 1 -8 6 -4 21 -22 34 -39 12 -18
27 -33 32 -33 5 0 -2 12 -16 27 -14 15 -25 32 -25 38 0 5 10 -2 23 -17 19 -23
24 -25 35 -13 7 8 10 15 7 15 -3 0 13 18 35 41 22 23 37 45 34 50 -3 5 0 17 6
26 11 16 11 16 5 -1 -6 -19 -5 -19 15 -1 11 10 20 23 20 29 0 6 -5 4 -10 -4
-6 -9 -13 -11 -17 -5 -5 6 -17 11 -28 13 -16 2 -17 1 -5 -7z m-180 -15 c0 -11
-19 -15 -25 -6 -3 5 1 10 9 10 9 0 16 -2 16 -4z m58 -7 c9 0 2 -5 -17 -10 -18
-6 -36 -8 -39 -5 -3 3 3 6 14 6 16 0 17 2 4 11 -12 9 -12 10 3 5 10 -3 26 -6
35 -7z m39 -25 c-3 -3 -12 -4 -19 -1 -8 3 -5 6 6 6 11 1 17 -2 13 -5z m3 -19
c30 1 49 0 43 -2 -7 -3 -13 -12 -13 -20 0 -13 2 -13 17 -2 13 11 15 11 12 1
-3 -8 -16 -21 -31 -30 -22 -13 -29 -13 -42 -3 -9 8 -16 22 -16 32 0 15 -4 17
-24 9 -21 -8 -24 -6 -23 10 1 11 5 16 12 11 5 -4 35 -7 65 -6z"/>
<path d="M1847 1804 c3 -9 8 -11 12 -6 3 6 17 0 33 -13 22 -19 24 -24 12 -29
-8 -3 -12 -11 -9 -16 4 -6 1 -17 -5 -25 -15 -18 -70 -16 -70 1 0 20 31 46 47
40 24 -9 35 4 18 21 -15 14 -17 14 -31 -3 -11 -15 -13 -15 -8 -3 3 10 0 20 -7
25 -8 4 -10 3 -5 -4 4 -7 0 -12 -11 -13 -10 0 -13 -3 -6 -5 16 -7 5 -34 -13
-34 -8 0 -17 -7 -20 -15 -3 -8 -21 -31 -40 -52 -19 -20 -34 -41 -34 -45 0 -9
230 -11 254 -2 9 3 16 12 16 20 0 8 7 14 16 14 10 0 14 -6 10 -15 -4 -12 4
-15 40 -15 28 0 43 4 39 10 -4 6 -11 8 -16 5 -5 -4 -9 -1 -9 4 0 6 -8 11 -18
11 -11 0 -27 10 -38 23 -19 22 -19 22 2 5 11 -10 24 -18 29 -18 4 0 -5 10 -21
22 -16 12 -32 26 -35 31 -4 5 -12 6 -19 2 -9 -6 -11 -4 -5 5 5 8 3 11 -6 8 -8
-3 -13 -13 -13 -22 1 -9 -2 -16 -7 -16 -5 0 -9 4 -9 9 0 5 -3 18 -6 28 -4 13
-3 15 4 4 7 -10 11 -11 17 -1 5 9 -5 25 -30 47 -40 35 -69 44 -58 17z m48
-114 c-3 -5 -12 -10 -18 -10 -7 0 -6 4 3 10 19 12 23 12 15 0z m81 -1 c3 -6 1
-16 -6 -22 -10 -9 -12 -8 -7 5 3 9 1 19 -6 22 -9 3 -9 5 0 5 6 1 15 -4 19 -10z
m-192 -30 c-8 -13 -21 -11 -27 5 -4 10 0 12 14 9 10 -3 16 -9 13 -14z m115 -5
c2 -2 -10 -4 -27 -4 -18 0 -32 5 -32 10 0 9 47 4 59 -6z m-114 -17 c16 -4 14
-5 -6 -6 -17 -1 -29 5 -33 15 -5 13 -3 14 6 6 7 -5 22 -12 33 -15z m103 -4
c-10 -2 -26 -2 -35 0 -10 3 -2 5 17 5 19 0 27 -2 18 -5z m65 0 c-7 -2 -19 -2
-25 0 -7 3 -2 5 12 5 14 0 19 -2 13 -5z"/>
<path d="M1350 1793 c0 -15 -2 -15 -9 -4 -7 11 -14 4 -29 -27 -11 -23 -17 -42
-12 -42 11 0 31 26 24 32 -3 3 -1 8 4 12 5 3 9 -3 9 -12 0 -16 -35 -49 -49
-45 -10 4 -18 -26 -9 -32 13 -7 83 74 75 87 -4 7 -3 8 5 4 6 -4 8 -13 4 -19
-4 -7 0 -6 10 2 9 7 14 18 10 25 -3 6 -3 8 2 4 9 -9 35 9 35 23 0 5 -16 9 -35
9 -27 0 -35 -4 -35 -17z"/>
<path d="M1461 1784 c-23 -27 -20 -44 7 -44 23 0 44 46 28 60 -9 7 -19 3 -35
-16z m14 -24 c3 -5 1 -10 -4 -10 -6 0 -11 5 -11 10 0 6 2 10 4 10 3 0 8 -4 11
-10z"/>
<path d="M1506 1761 c-8 -13 4 -42 15 -35 13 8 11 -10 -3 -24 -8 -8 -9 -12 -1
-12 6 0 14 6 16 13 4 9 6 9 6 -1 1 -8 6 -10 14 -6 6 4 8 3 4 -2 -4 -4 -25 -9
-47 -11 -40 -2 -65 15 -65 45 0 21 -17 25 -40 8 -20 -15 -20 -15 0 -30 11 -8
15 -16 10 -16 -6 0 -15 4 -20 9 -6 5 -18 6 -29 2 -16 -6 -17 -9 -4 -22 13 -12
13 -17 1 -27 -13 -12 -18 -5 -14 20 0 4 -6 5 -15 1 -8 -3 -13 -12 -10 -19 3
-8 0 -11 -10 -7 -19 7 -18 -7 4 -24 17 -15 15 -15 -28 0 -3 1 -6 -2 -7 -8 -1
-5 -12 -13 -25 -17 -13 -3 11 -5 52 -3 259 13 332 18 323 24 -6 3 -15 16 -22
29 -6 12 -21 22 -32 22 -11 0 -18 4 -15 9 8 12 -4 42 -14 36 -4 -3 -13 9 -19
25 -10 31 -16 36 -25 21z m-76 -141 c-19 -13 -30 -13 -30 0 0 6 10 10 23 10
18 0 19 -2 7 -10z m105 0 c-11 -5 -33 -8 -50 -8 -29 1 -29 1 5 8 49 10 69 10
45 0z"/>
<path d="M2104 1757 c-3 -9 -10 -15 -14 -12 -4 3 15 -38 43 -90 35 -65 54 -91
60 -82 6 8 7 6 3 -6 -6 -19 57 -131 68 -120 4 4 4 -1 0 -11 -5 -13 -4 -17 4
-12 8 5 10 2 6 -8 -3 -9 -1 -16 5 -16 6 0 11 4 11 9 0 5 8 8 18 7 9 -2 17 -8
16 -14 -3 -33 -5 -36 -15 -19 -6 9 -14 15 -19 12 -9 -6 20 -65 33 -65 4 0 7
-7 7 -15 0 -9 6 -15 13 -14 33 4 39 -1 34 -33 -3 -24 1 -39 17 -57 11 -13 16
-21 9 -17 -7 4 4 -22 25 -58 20 -36 38 -63 40 -61 2 2 -2 14 -9 27 -15 27 -19
59 -7 52 4 -3 8 0 8 6 0 7 5 6 14 -2 8 -7 12 -17 9 -22 -3 -4 -9 -3 -13 4 -5
9 -9 8 -12 -2 -3 -8 0 -22 8 -33 8 -10 14 -30 14 -44 1 -33 25 -68 33 -48 3 8
1 20 -4 28 -5 8 -8 21 -8 29 0 8 7 0 15 -18 11 -24 12 -38 4 -55 -11 -21 -10
-21 4 -3 16 20 17 41 2 64 -9 14 0 30 10 19 13 -13 12 -62 -2 -89 -8 -16 -10
-28 -4 -28 5 0 10 -6 10 -13 0 -7 8 -22 18 -33 9 -10 30 -45 45 -76 16 -32 31
-57 35 -56 13 2 42 -14 42 -25 0 -5 -9 -2 -20 8 -11 10 -20 13 -20 7 0 -7 9
-17 20 -24 11 -7 20 -16 20 -21 0 -4 -5 -5 -11 -1 -7 4 -1 -7 12 -25 26 -35
39 -39 40 -13 0 14 2 14 9 -3 7 -17 9 -15 9 11 1 17 -5 37 -13 43 -11 9 -15 6
-20 -14 -4 -16 -11 -23 -18 -19 -9 6 -9 9 0 12 7 2 12 11 12 20 0 20 -44 74
-53 66 -3 -4 -5 30 -4 75 1 50 -2 80 -8 78 -5 -1 -9 -5 -8 -9 4 -12 -15 -10
-22 2 -3 6 -2 10 4 10 6 0 15 8 20 19 8 14 7 19 -2 18 -32 -1 -48 4 -42 13 5
8 11 7 21 -1 18 -15 18 -2 0 17 -9 9 -17 10 -21 4 -3 -5 -11 -10 -18 -10 -8 0
-8 3 1 12 8 8 5 18 -13 40 -36 43 -32 73 11 96 18 9 20 18 16 64 -4 56 -20 96
-47 118 -14 12 -20 12 -38 0 -23 -14 -107 -31 -104 -21 4 11 -42 81 -53 81 -6
0 -10 6 -9 13 3 17 -34 77 -47 77 -7 0 -14 7 -17 14 -4 10 -1 13 8 10 7 -3 16
3 19 13 4 10 21 27 39 38 24 16 31 27 29 45 -2 21 -1 22 8 10 10 -13 11 -13 7
0 -2 8 -10 14 -17 12 -8 -2 -10 3 -6 13 7 20 -31 78 -45 69 -5 -3 -9 -2 -8 3
7 38 -12 39 -81 4 -57 -30 -57 -30 -40 -41 9 -6 10 -10 3 -10 -18 0 -26 19
-14 34 8 10 4 16 -17 27 -15 8 -30 18 -34 24 -4 5 -10 2 -14 -8z m31 -49 c10
-18 20 -44 21 -58 3 -21 1 -22 -7 -7 -6 9 -7 22 -4 27 3 6 2 10 -2 10 -5 0
-17 14 -26 30 -10 17 -14 30 -10 30 5 0 17 -15 28 -32z m99 7 c-4 -8 -14 -15
-23 -15 -14 1 -13 3 3 15 25 19 27 19 20 0z m56 -15 c0 -5 -2 -10 -4 -10 -3 0
-8 5 -11 10 -3 6 -1 10 4 10 6 0 11 -4 11 -10z m60 -35 c0 -5 -5 -3 -10 5 -16
25 -12 -7 5 -39 15 -30 10 -41 -26 -53 -18 -7 -67 27 -56 38 4 4 13 0 20 -9
16 -22 53 -15 49 9 -1 11 -5 37 -7 58 -5 37 -4 38 10 20 8 -10 14 -23 15 -29z
m-90 -15 c0 -5 -4 -10 -10 -10 -5 0 -10 5 -10 10 0 6 5 10 10 10 6 0 10 -4 10
-10z m-20 -39 c0 -5 -7 -11 -14 -14 -10 -4 -13 -1 -9 9 6 15 23 19 23 5z m20
-39 c0 -4 -9 -8 -20 -8 -11 0 -20 4 -20 8 0 4 9 8 20 8 11 0 20 -4 20 -8z m64
-130 c3 -5 -1 -9 -9 -9 -8 0 -12 4 -9 9 3 4 7 8 9 8 2 0 6 -4 9 -8z m31 -52
c3 -5 1 -10 -4 -10 -6 0 -11 5 -11 10 0 6 2 10 4 10 3 0 8 -4 11 -10z m-18
-36 c-3 -3 -12 -4 -19 -1 -8 3 -5 6 6 6 11 1 17 -2 13 -5z m110 -40 c-3 -3
-12 -4 -19 -1 -8 3 -5 6 6 6 11 1 17 -2 13 -5z m108 -4 c3 -5 2 -10 -4 -10 -5
0 -13 5 -16 10 -3 6 -2 10 4 10 5 0 13 -4 16 -10z m-41 -9 c3 -5 -3 -11 -15
-14 -16 -4 -18 -3 -8 9 13 16 16 17 23 5z m-71 -116 c-3 -9 -8 -14 -10 -11 -3
3 -2 9 2 15 9 16 15 13 8 -4z m54 -77 c-3 -8 -6 -5 -6 6 -1 11 2 17 5 13 3 -3
4 -12 1 -19z m27 -4 c3 -8 2 -12 -4 -9 -6 3 -10 10 -10 16 0 14 7 11 14 -7z
m33 -166 c-3 -8 -6 -5 -6 6 -1 11 2 17 5 13 3 -3 4 -12 1 -19z m63 -78 c6 -11
7 -20 3 -20 -5 0 -14 9 -21 20 -7 11 -8 20 -2 20 5 0 14 -9 20 -20z"/>
<path d="M421 1724 c-7 -8 -11 -17 -9 -20 3 -2 13 5 23 16 10 11 14 20 9 20
-5 -1 -15 -8 -23 -16z"/>
<path d="M2040 1721 c0 -5 7 -15 17 -22 15 -13 15 -12 4 9 -12 23 -21 28 -21
13z"/>
<path d="M524 1704 c-17 -14 -17 -15 -1 -10 11 4 16 2 12 -5 -4 -6 -13 -8 -21
-5 -17 6 -94 -60 -94 -80 0 -8 -9 -23 -21 -35 -11 -11 -18 -27 -15 -35 3 -8 2
-13 -3 -10 -5 3 -14 -8 -20 -24 -6 -18 -6 -28 -1 -25 6 4 10 13 10 22 0 9 3
14 6 10 10 -9 -6 -47 -20 -47 -29 0 -60 -206 -37 -248 8 -14 8 -22 1 -22 -5 0
-10 -4 -10 -10 0 -10 116 56 126 71 3 5 -5 13 -18 18 -14 6 -17 10 -8 10 9 1
21 -4 28 -11 9 -9 26 3 75 53 80 82 129 152 150 213 9 27 17 51 17 52 0 1 -10
0 -22 -3 -14 -3 -18 -1 -12 4 6 4 15 23 19 41 6 30 4 34 -27 48 -19 9 -24 13
-10 10 30 -6 28 1 -8 19 -37 19 -71 19 -96 -1z m71 -3 c6 -11 -33 -26 -42 -17
-4 3 2 6 13 7 18 0 18 1 -1 9 -19 8 -19 9 2 9 12 1 24 -3 28 -8z m-135 -71
c-6 -11 -13 -20 -16 -20 -2 0 0 9 6 20 6 11 13 20 16 20 2 0 0 -9 -6 -20z
m120 -145 c0 -5 -5 -3 -10 5 -5 8 -10 20 -10 25 0 6 5 3 10 -5 5 -8 10 -19 10
-25z m25 -39 c-17 -36 -35 -55 -35 -38 0 5 7 15 15 22 8 7 15 20 15 30 0 17
10 33 18 26 2 -2 -4 -21 -13 -40z m-228 -38 c-3 -7 -5 -2 -5 12 0 14 2 19 5
13 2 -7 2 -19 0 -25z m-17 10 c-1 -7 -8 -24 -16 -38 l-15 -25 5 25 c3 14 6 31
6 38 0 6 5 12 10 12 6 0 10 -6 10 -12z m170 -61 c0 -2 -11 -17 -25 -33 -28
-33 -34 -25 -7 11 15 21 32 32 32 22z m-167 -87 c8 0 7 -4 -1 -12 -9 -9 -16
-8 -30 6 -16 18 -16 19 1 12 10 -3 24 -6 30 -6z"/>
<path d="M2361 1463 c7 -12 15 -20 18 -17 3 2 -3 12 -13 22 -17 16 -18 16 -5
-5z"/>
<path d="M2350 1272 c6 -13 14 -21 18 -18 3 4 -2 14 -12 24 -18 16 -18 16 -6
-6z"/>
<path d="M2593 1233 c1 -18 5 -33 10 -33 10 0 9 32 -3 50 -7 11 -9 6 -7 -17z"/>
<path d="M275 970 c-3 -5 -1 -10 4 -10 6 0 11 5 11 10 0 6 -2 10 -4 10 -3 0
-8 -4 -11 -10z"/>
<path d="M2820 915 c-7 -9 -11 -18 -8 -20 3 -3 11 1 18 10 7 9 11 18 8 20 -3
3 -11 -1 -18 -10z"/>
<path d="M1051 2354 c0 -11 3 -14 6 -6 3 7 2 16 -1 19 -3 4 -6 -2 -5 -13z"/>
<path d="M920 2220 c-14 -10 -23 -21 -20 -23 3 -3 16 3 29 14 31 25 23 33 -9
9z"/>
<path d="M1450 2484 c0 -8 5 -12 10 -9 6 4 8 11 5 16 -9 14 -15 11 -15 -7z"/>
<path d="M2930 1870 c11 -8 6 -9 -20 -8 -29 3 -35 0 -35 -17 0 -17 7 -20 40
-19 21 1 41 6 42 11 2 5 18 8 36 6 l32 -3 -32 10 c-18 6 -35 15 -38 20 -3 6
-14 10 -23 10 -15 0 -15 -2 -2 -10z m-16 -25 c19 -14 19 -15 -5 -15 -16 0 -26
6 -26 15 0 19 7 18 31 0z"/>
<path d="M2910 1600 c0 -6 5 -8 10 -5 6 3 10 1 10 -4 0 -6 -5 -11 -11 -11 -8
0 -8 -5 1 -15 24 -29 75 -16 82 20 3 17 -3 20 -44 23 -31 2 -48 -1 -48 -8z
m80 -24 c0 -3 -4 -8 -10 -11 -5 -3 -10 -1 -10 4 0 6 5 11 10 11 6 0 10 -2 10
-4z"/>
<path d="M2900 1330 c0 -5 5 -10 11 -10 5 0 7 5 4 10 -3 6 -8 10 -11 10 -2 0
-4 -4 -4 -10z"/>
<path d="M2982 1310 c0 -14 2 -19 5 -12 2 6 2 18 0 25 -3 6 -5 1 -5 -13z"/>
<path d="M1514 1198 c-8 -34 -14 -43 -29 -41 -11 1 -14 0 -7 -3 17 -8 15 -27
-3 -20 -9 3 -15 0 -15 -8 0 -24 24 -24 45 -2 13 15 21 38 22 69 1 26 1 47 -1
47 -2 0 -7 -19 -12 -42z"/>
<path d="M1575 1230 c3 -5 8 -10 11 -10 2 0 4 5 4 10 0 6 -5 10 -11 10 -5 0
-7 -4 -4 -10z"/>
<path d="M1286 1115 c-3 -8 -1 -15 4 -15 6 0 10 7 10 15 0 8 -2 15 -4 15 -2 0
-6 -7 -10 -15z"/>
<path d="M1434 1107 c-6 -7 -10 -23 -9 -36 2 -23 1 -23 -13 -5 -14 18 -14 18
-9 -3 4 -18 -24 -83 -37 -83 -2 0 -7 8 -10 17 -4 10 -4 14 0 10 9 -9 45 33 38
44 -3 5 -11 3 -18 -4 -8 -6 -12 -15 -9 -19 2 -5 -3 -8 -11 -8 -8 0 -24 -12
-35 -26 -11 -14 -25 -23 -30 -20 -5 4 -12 2 -16 -4 -3 -5 -21 -10 -40 -10 -19
0 -37 -4 -40 -10 -3 -5 -12 -10 -18 -10 -7 0 -6 4 3 10 8 5 11 10 7 10 -15 0
-112 -60 -107 -67 3 -3 -7 -10 -22 -14 -17 -4 -31 -3 -34 3 -4 6 -3 9 2 6 5
-3 18 -2 29 3 18 7 17 8 -7 8 -18 1 -35 12 -52 34 -31 38 -35 28 -5 -14 14
-21 17 -29 7 -30 -11 0 8 -11 37 -20 6 -1 16 -9 23 -16 7 -7 32 -13 55 -13 55
1 203 77 201 103 -1 12 2 15 10 8 13 -11 134 109 128 127 -2 8 2 10 13 5 16
-5 15 -4 -1 15 -10 12 -19 22 -19 22 0 -1 -5 -6 -11 -13z m-94 -127 c0 -5 -2
-10 -4 -10 -3 0 -8 5 -11 10 -3 6 -1 10 4 10 6 0 11 -4 11 -10z m-60 -30 c-8
-6 -26 -9 -40 -8 l-25 1 25 4 c14 3 29 9 34 14 5 5 12 6 15 3 3 -3 -1 -9 -9
-14z m30 -16 c0 -8 -19 -13 -24 -6 -3 5 1 9 9 9 8 0 15 -2 15 -3z m-166 -19
c-18 -14 -18 -14 6 -15 23 -1 23 -2 5 -10 -28 -12 -37 -12 -30 0 3 6 0 10 -7
10 -15 1 20 30 36 30 5 0 1 -7 -10 -15z m86 -15 c0 -5 -5 -10 -11 -10 -5 0 -7
5 -4 10 3 6 8 10 11 10 2 0 4 -4 4 -10z m-110 -40 c0 -5 -10 -10 -22 -9 -22 0
-22 1 -3 9 11 5 21 9 23 9 1 1 2 -3 2 -9z"/>
<path d="M2885 1170 c-3 -5 -1 -10 4 -10 6 0 11 5 11 10 0 6 -2 10 -4 10 -3 0
-8 -4 -11 -10z"/>
<path d="M2771 1134 c0 -11 3 -14 6 -6 3 7 2 16 -1 19 -3 4 -6 -2 -5 -13z"/>
<path d="M2854 1122 c4 -7 2 -12 -3 -12 -6 0 -11 -4 -11 -10 0 -15 17 -12 23
5 4 8 1 17 -5 21 -7 4 -8 3 -4 -4z"/>
<path d="M2925 1100 c-3 -6 1 -7 9 -4 18 7 21 14 7 14 -6 0 -13 -4 -16 -10z"/>
<path d="M2907 1063 c-4 -3 -7 -13 -7 -22 1 -13 3 -13 11 2 11 19 8 33 -4 20z"/>
<path d="M460 546 c0 -2 7 -9 15 -16 9 -7 15 -8 15 -2 0 5 -7 12 -15 16 -8 3
-15 4 -15 2z"/>
<path d="M2556 512 c-2 -4 4 -9 15 -9 11 -1 17 2 14 8 -7 11 -22 12 -29 1z"/>
<path d="M2598 445 c6 -32 17 -32 18 0 1 14 -4 25 -11 25 -8 0 -10 -9 -7 -25z"/>
<path d="M707 436 c10 -13 19 -23 21 -21 7 6 -19 45 -29 45 -5 0 -2 -11 8 -24z"/>
<path d="M2555 422 c0 -36 -1 -37 -36 -37 -27 0 -35 -4 -37 -19 -1 -14 2 -16
11 -7 21 21 30 11 11 -11 -10 -12 5 -3 34 21 28 23 52 48 52 54 0 7 -5 5 -10
-3 -8 -12 -10 -11 -10 7 0 12 -3 24 -7 26 -5 3 -8 -11 -8 -31z"/>
<path d="M587 444 c-8 -8 34 -54 50 -54 8 0 11 -5 7 -12 -4 -6 -3 -8 3 -5 6 4
20 -5 33 -18 13 -13 26 -22 31 -20 4 3 14 -3 21 -13 20 -28 39 -37 31 -15 -6
16 -5 16 10 4 9 -7 14 -18 10 -25 -3 -6 -3 -8 1 -4 5 4 17 -2 29 -13 24 -22
26 -22 47 -9 8 5 11 12 7 17 -5 4 -12 1 -17 -7 -7 -12 -14 -9 -34 13 -14 16
-26 34 -26 42 0 11 -6 12 -25 5 -22 -9 -28 -6 -44 21 -10 17 -22 26 -25 20 -4
-6 -17 0 -33 15 -14 13 -32 24 -39 24 -8 0 -13 3 -13 8 4 27 -8 41 -24 26z
m123 -94 c0 -5 -2 -10 -4 -10 -3 0 -8 5 -11 10 -3 6 -1 10 4 10 6 0 11 -4 11
-10z"/>
<path d="M760 405 c0 -9 38 -43 43 -38 3 2 -3 13 -14 24 -19 19 -29 24 -29 14z"/>
<path d="M732 380 c7 -11 18 -22 26 -25 8 -3 6 4 -5 20 -21 29 -38 34 -21 5z"/>
<path d="M2403 380 c2 -28 32 -39 51 -19 8 9 7 11 -6 6 -10 -4 -18 -2 -18 4 0
6 -4 8 -9 4 -5 -3 -12 3 -15 12 -3 11 -4 8 -3 -7z"/>
<path d="M824 346 c-15 -39 21 -61 47 -29 11 13 11 15 1 9 -9 -6 -12 -3 -10
10 4 23 -30 32 -38 10z m26 -26 c0 -5 -2 -10 -4 -10 -3 0 -8 5 -11 10 -3 6 -1
10 4 10 6 0 11 -4 11 -10z"/>
<path d="M2367 325 c-10 -7 -14 -16 -9 -19 5 -3 17 1 27 8 10 7 14 15 9 19 -5
3 -17 -1 -27 -8z"/>
<path d="M2430 322 c-22 -7 -53 -42 -45 -50 4 -4 10 -1 12 6 3 6 10 12 16 12
17 1 50 27 40 33 -4 2 -15 2 -23 -1z"/>
<path d="M2210 309 c0 -9 -15 -24 -32 -33 -30 -15 -31 -16 -8 -14 14 1 31 -1
37 -5 7 -5 19 -4 28 0 12 7 12 13 -5 38 -13 19 -20 24 -20 14z"/>
<path d="M2265 310 c-3 -5 -1 -10 4 -10 6 0 11 5 11 10 0 6 -2 10 -4 10 -3 0
-8 -4 -11 -10z"/>
<path d="M920 294 c-11 -12 -10 -18 3 -32 16 -15 18 -15 33 3 8 11 12 14 8 6
-5 -11 -3 -13 9 -8 10 4 17 1 17 -5 0 -6 3 -8 7 -5 7 7 -42 57 -56 57 -5 0
-14 -7 -21 -16z m25 -13 c-3 -6 -11 -11 -17 -11 -6 0 -6 6 2 15 14 17 26 13
15 -4z"/>
<path d="M2290 279 c0 -5 -5 -7 -12 -3 -7 4 -8 3 -4 -4 4 -6 13 -9 21 -6 8 4
12 10 9 15 -7 12 -14 11 -14 -2z"/>
<path d="M2331 268 c-1 -16 4 -28 9 -28 12 0 12 8 0 35 -8 18 -9 17 -9 -7z"/>
<path d="M1051 266 c-1 -11 -6 -16 -15 -13 -8 3 -16 -2 -19 -14 -6 -22 2 -24
27 -6 11 8 16 21 13 33 -4 18 -5 18 -6 0z"/>
<path d="M872 254 c-10 -12 -10 -14 3 -14 10 0 13 -5 9 -12 -5 -8 -2 -9 9 -5
10 3 17 2 17 -3 0 -6 15 -10 33 -9 l32 1 -34 12 c-18 6 -38 19 -45 28 -9 13
-13 13 -24 2z"/>
<path d="M2355 260 c3 -5 8 -10 11 -10 2 0 4 5 4 10 0 6 -5 10 -11 10 -5 0 -7
-4 -4 -10z"/>
<path d="M2219 234 c-12 -15 -11 -16 11 -9 25 7 25 7 -3 -15 -15 -12 -39 -23
-52 -24 -14 0 -25 -5 -25 -11 0 -5 -5 -3 -11 5 -9 13 -10 13 -6 0 5 -18 66
-18 77 0 4 6 11 10 16 9 22 -4 34 2 34 17 0 10 6 14 15 10 8 -3 15 -1 15 5 0
6 7 8 16 5 8 -3 12 -2 9 4 -3 6 -17 7 -31 4 -14 -4 -24 -2 -24 5 0 17 -26 13
-41 -5z"/>
<path d="M2075 223 c4 -10 8 -23 8 -30 0 -8 6 -9 19 -2 23 12 24 20 1 12 -15
-6 -16 -4 -5 9 10 13 10 17 -4 22 -24 9 -27 8 -19 -11z"/>
<path d="M2187 233 c-4 -3 -7 -11 -7 -17 0 -6 5 -5 12 2 6 6 9 14 7 17 -3 3
-9 2 -12 -2z"/>
<path d="M1155 204 c-15 -15 -15 -18 -1 -33 13 -12 20 -13 34 -5 13 9 20 7 29
-5 10 -14 11 -13 6 7 -3 13 -13 22 -24 22 -10 0 -21 5 -25 12 -5 8 -2 9 10 5
10 -4 15 -3 11 3 -9 14 -21 12 -40 -6z m15 -14 c0 -5 -5 -10 -11 -10 -5 0 -7
5 -4 10 3 6 8 10 11 10 2 0 4 -4 4 -10z"/>
<path d="M955 190 c3 -5 8 -10 11 -10 2 0 4 5 4 10 0 6 -5 10 -11 10 -5 0 -7
-4 -4 -10z"/>
<path d="M986 185 c4 -8 8 -15 10 -15 2 0 4 7 4 15 0 8 -4 15 -10 15 -5 0 -7
-7 -4 -15z"/>
<path d="M1024 186 c-14 -11 -8 -16 46 -39 34 -15 66 -24 72 -21 6 4 14 1 18
-6 6 -9 12 -9 29 1 26 17 28 34 3 20 -13 -7 -27 -6 -45 4 -15 8 -27 10 -27 4
0 -5 -5 -9 -11 -9 -5 0 -7 5 -3 11 4 7 0 9 -14 5 -13 -5 -22 -1 -26 10 -5 12
-2 15 9 10 9 -3 14 -2 11 3 -10 15 -45 19 -62 7z"/>
<path d="M1896 191 c-4 -7 -5 -15 -2 -18 9 -9 19 4 14 18 -4 11 -6 11 -12 0z"/>
<path d="M1320 180 c8 -5 20 -10 25 -10 6 0 3 5 -5 10 -8 5 -19 10 -25 10 -5
0 -3 -5 5 -10z"/>
<path d="M1854 151 c0 -17 4 -31 8 -31 11 0 10 32 -1 49 -6 9 -8 4 -7 -18z"/>
<path d="M1300 155 c0 -17 22 -29 41 -23 8 3 6 9 -5 21 -22 21 -36 22 -36 2z"/>
<path d="M1710 156 c0 -4 9 -6 20 -3 10 3 21 0 24 -7 2 -6 5 -4 5 5 1 12 -7
16 -24 15 -14 0 -25 -5 -25 -10z"/>
<path d="M1810 160 c0 -5 5 -10 11 -10 5 0 7 5 4 10 -3 6 -8 10 -11 10 -2 0
-4 -4 -4 -10z"/>
<path d="M1900 145 c0 -8 4 -15 10 -15 5 0 7 7 4 15 -4 8 -8 15 -10 15 -2 0
-4 -7 -4 -15z"/>
<path d="M1590 119 c0 -5 5 -7 10 -4 6 3 10 8 10 11 0 2 -4 4 -10 4 -5 0 -10
-5 -10 -11z"/>
<path d="M1715 120 c3 -5 10 -10 16 -10 5 0 9 5 9 10 0 6 -7 10 -16 10 -8 0
-12 -4 -9 -10z"/>
</g>
</svg>
