<svg width="683" height="683" viewBox="0 0 683 683" fill="none" xmlns="http://www.w3.org/2000/svg">
<path fill-rule="evenodd" clip-rule="evenodd" d="M371.766 11.1867L371.637 11.1681L371.572 11.1589L371.57 11.1586L371.481 11.146L371.391 11.1344L371.249 11.1161L370.882 11.0695C370.566 11.0297 370.115 10.9733 369.554 10.9047C368.434 10.7679 366.87 10.5818 365.087 10.3836C361.605 9.99649 356.972 9.52779 353.158 9.32089C344.521 8.85239 339.477 8.93789 331.153 9.31369C326.981 9.50209 323.412 9.39869 319.24 9.27779L319.087 9.27339C314.906 9.15229 310.144 9.01909 304.519 9.32029C297.08 9.71869 288.267 10.1124 279.864 10.4877L279.844 10.4886L279.84 10.4888L279.837 10.4889C275.77 10.6706 271.8 10.848 268.128 11.0194C264.461 11.1908 261.228 11.2577 258.078 11.3228L257.923 11.326L257.921 11.326C257.219 11.3406 256.521 11.3552 255.823 11.3708C252.102 11.4543 248.198 11.5722 244.411 11.9861C236.154 12.8886 228.356 15.208 220.195 21.102C215.745 24.3158 212.702 26.1977 209.524 28.1625L209.474 28.1932C208.033 29.0844 206.562 29.9941 204.919 31.0541C199.591 34.4914 194.466 38.3347 187.504 45.2972C186.758 46.0426 185.806 46.9023 184.329 48.2361L184.256 48.302C182.878 49.5468 181.124 51.1352 179.41 52.8559C176.388 55.8899 171.377 61.3299 169.292 68.6299C168.264 72.2266 166.212 76.5429 163.757 81.7065L163.75 81.7209C163.262 82.7469 162.759 83.8059 162.244 84.8999C158.059 93.7919 157.958 102.9 158.333 109.575C158.488 112.325 158.764 115.125 158.997 117.493L159.001 117.533C159.051 118.042 159.099 118.531 159.144 118.995C159.419 121.854 159.585 124.013 159.585 125.867C159.585 132.326 160.928 140.239 163.017 147.378C165.002 154.159 168.373 162.758 173.888 168.922C174.742 169.877 175.662 170.95 176.653 172.107C181.849 178.175 189.018 186.545 199.065 192.127C205.104 195.482 210.097 201.27 217.18 209.926C222.583 216.531 226.631 226.076 226.631 232.118C226.631 233.526 226.701 235.63 226.771 237.714L226.804 238.694C226.889 241.279 226.975 244.148 227 246.959C227.026 249.817 226.985 252.344 226.852 254.277C226.813 254.851 226.771 255.296 226.732 255.624C226.369 256.35 225.914 257.193 225.293 258.342C225.099 258.701 224.889 259.09 224.661 259.514C223.578 261.528 221.996 264.506 220.839 267.686C220.84 267.684 220.75 267.923 220.532 268.457C220.334 268.945 220.073 269.57 219.765 270.287C219.144 271.731 218.38 273.44 217.604 275.058C217.395 275.494 217.196 275.901 217.007 276.278C214.287 277.482 211.951 278.784 210.147 279.799C209.917 279.929 209.694 280.054 209.479 280.176L209.18 280.344C206.311 281.962 204.742 282.846 203.112 283.473C193.948 286.997 185.248 291.375 177.362 295.343L177.361 295.344L177.343 295.353C177.03 295.51 176.718 295.668 176.407 295.824C168.012 300.047 160.482 303.787 152.793 306.635C147.897 308.448 143.354 310.786 139.733 312.65L139.39 312.826C135.42 314.869 132.424 316.386 129.434 317.494C118.812 321.428 112.202 328.608 107.379 335.575C105.459 338.349 103.587 340.72 101.544 343.306L101.544 343.307L101.535 343.318L101.277 343.645C99.2481 346.215 96.8231 349.289 94.6901 352.668C89.9051 360.246 86.9201 368.786 86.9201 380.573C86.9201 381.254 86.8671 381.958 86.7401 383.03C86.7171 383.223 86.6821 383.499 86.6401 383.829L86.6317 383.895C86.5058 384.887 86.3216 386.339 86.2101 387.568C85.8171 391.874 85.8691 396.762 87.3011 403.204C88.3961 408.131 91.0601 411.699 93.0491 413.868C95.1311 416.139 97.4301 417.912 99.3411 419.215C103.158 421.819 107.162 423.71 109.377 424.694C114.495 426.968 123.114 429.573 130.375 429.573H151.375C155.661 429.573 161.555 428.648 166.189 427.758C170.97 426.839 176.501 425.549 180.256 424.208C184.966 422.526 190.063 419.987 193.678 418.186L193.865 418.093C195.042 417.508 196.053 417.005 196.831 416.644C199.805 415.264 201.945 414.526 203.85 414.23C204.286 414.515 204.737 414.794 205.202 415.069C205.337 415.201 205.553 415.428 205.842 415.772C206.618 416.697 207.57 418.05 208.577 419.766C210.246 422.608 210.676 423.964 211.53 428.835C212.535 434.566 212.777 437.164 213.006 443.182C213.2 448.259 213.13 452.742 213.062 457.037L213.061 457.086L213.059 457.221C213.027 459.298 212.995 461.333 212.995 463.371V479.848C212.995 490.04 210.716 500.259 206.485 507.874C203.31 513.589 201.213 519.472 199.569 524.143L199.315 524.865C197.67 529.544 196.436 533.052 194.797 536.33C192.403 541.117 190.554 545.967 188.99 550.286C188.527 551.566 188.097 552.771 187.686 553.926L187.608 554.146L187.585 554.211L187.584 554.212C186.561 557.088 185.647 559.657 184.593 562.291C183.878 564.078 183.116 565.948 182.324 567.89L182.319 567.902C175.468 584.712 166.403 606.951 166.403 628.713C166.403 630.27 166.374 631.118 166.34 632.106C166.308 633.046 166.272 634.112 166.252 636.034C166.224 638.789 166.285 642.385 166.973 646.122C167.683 649.978 169.137 654.437 172.204 658.653C175.335 662.958 179.526 666.156 184.428 668.335C197.618 674.197 206.793 673.687 216.994 673.12L216.999 673.12L217.382 673.098C223.881 672.737 229.305 670.217 232.97 668.142C236.034 666.408 238.998 664.295 240.922 662.922L240.935 662.913L241.23 662.703L241.478 662.526C241.614 662.43 241.743 662.338 241.864 662.253C248.334 657.7 251.624 651.931 253.694 647.556C254.796 645.227 255.429 643.714 255.946 642.477C256.621 640.861 257.1 639.717 258.169 637.843L258.336 637.551L258.347 637.532L258.347 637.531L258.348 637.53C267.983 620.646 276.253 606.154 282.101 589.776C283.921 584.681 285.454 579.426 286.826 574.723L286.833 574.698C287.181 573.503 287.519 572.344 287.849 571.232C289.563 565.453 291.191 560.428 293.304 555.733C294.553 552.957 295.75 550.648 297.144 547.958L297.157 547.933C297.968 546.37 298.847 544.676 299.842 542.686C300.856 540.657 301.611 538.666 302.169 537.092C302.426 536.367 302.81 535.229 303.126 534.292L303.129 534.284L303.131 534.277L303.184 534.121C303.362 533.592 303.514 533.144 303.599 532.896C304.277 530.939 304.65 530.195 304.74 530.016C304.745 530.005 304.749 529.996 304.753 529.989C304.759 529.976 304.761 529.97 304.761 529.97C304.761 529.97 304.76 529.971 304.758 529.972C307.752 526.111 309.583 521.909 310.699 519.279C311.008 518.55 311.273 517.919 311.506 517.363L311.51 517.353C312.324 515.416 312.749 514.403 313.312 513.418C313.743 512.663 314.438 511.751 316.163 509.654L316.3 509.489L316.421 509.342L316.424 509.339C317.87 507.585 320.16 504.809 322.05 501.597C324.24 497.874 329.386 492.674 337.115 489.084C337.908 488.715 338.596 488.392 339.224 488.097C340.165 487.654 340.972 487.275 341.801 486.9C342.564 491.766 342.875 496.843 342.875 499.073C342.875 514.779 344.262 530.515 345.579 545.45L345.611 545.819C346.959 561.112 348.223 575.589 348.223 589.824C348.223 607.966 353.818 622.418 362.697 636.229C366.935 642.822 371.687 649.844 380.685 656.073C386.834 660.331 397.299 667.049 406.465 670.222C406.59 670.265 406.718 670.309 406.848 670.355C407.076 670.434 407.312 670.517 407.556 670.602C411.613 672.018 417.758 674.162 424.1 675.232C431.056 676.406 440.691 676.758 449.836 671.678C450.804 671.139 451.316 670.922 452.176 670.558L452.183 670.555C452.916 670.244 453.903 669.825 455.638 669.011C458.668 667.59 462.621 665.445 466.447 661.618C473.449 654.617 476.352 647.557 478.724 640.913C481.779 632.36 482.305 624.115 482.542 617.615C482.594 616.188 482.633 614.865 482.671 613.622C482.819 608.664 482.93 604.988 483.628 601.146C485.391 591.45 485.113 580.605 484.895 572.131L484.894 572.108C484.829 569.612 484.77 567.322 484.77 565.329C484.77 562.897 484.886 560.965 485.026 558.64L485.027 558.623L485.027 558.619L485.028 558.617C485.144 556.663 485.277 554.43 485.373 551.387C485.54 546.075 485.489 539.12 483.618 532.385C481.378 524.319 480.283 515.144 479.096 505.195C478.695 501.828 478.282 498.373 477.811 494.842C477.721 494.168 477.578 492.921 477.404 491.406L477.362 491.043L477.358 491.003L477.356 490.991C477.007 487.949 476.552 483.986 476.167 481.339C475.453 476.417 474.273 469.888 471.783 464.277L471.779 464.266L471.778 464.263C471.775 464.256 471.772 464.245 471.767 464.233C471.756 464.2 471.739 464.15 471.717 464.079C471.695 464.006 471.667 463.91 471.634 463.789C471.509 463.323 471.38 462.744 471.178 461.77L471.082 461.303C470.735 459.595 470.107 456.51 468.965 453.486C468.491 452.232 468.045 451.072 467.629 449.991C465.854 445.376 464.625 442.18 464.079 439.038C463.073 433.256 461.129 427.872 459.514 423.636C459.117 422.593 458.743 421.628 458.392 420.722L458.298 420.48C457.107 417.408 456.18 415.015 455.449 412.549C453.654 406.49 453.383 400.8 454.264 397.936C455.723 393.196 455.606 388.564 455.497 386.03C455.421 384.247 455.347 383.216 455.294 382.477L455.294 382.475L455.293 382.464C455.236 381.655 455.203 381.196 455.22 380.471C455.22 380.479 455.22 380.479 455.221 380.469C455.228 380.399 455.278 379.922 455.582 378.73C455.749 378.072 455.941 377.387 456.199 376.471L456.211 376.43C456.446 375.596 456.747 374.526 457.019 373.437C458.344 368.136 460.262 363.385 462.936 357.367C463.22 356.73 463.894 355.688 466.082 353.252C466.343 352.961 466.65 352.625 466.993 352.251C468.871 350.202 471.818 346.985 474.128 343.52C475.067 342.112 475.94 340.785 476.766 339.527L476.78 339.506C480.475 333.888 483.252 329.667 486.861 325.919C492.056 320.524 495.397 314.546 497.833 309.909C498.463 308.709 499.025 307.622 499.541 306.621C501.254 303.301 502.472 300.942 504.085 298.612C506.904 294.54 508.528 289.756 509.522 285.852C510.586 281.67 511.26 277.138 511.566 272.729C511.873 268.328 511.838 263.682 511.311 259.284C510.819 255.168 509.754 249.989 507.189 245.371C504.727 240.94 501.42 235.431 497.231 230.334C493.112 225.321 487.414 219.804 479.873 216.452C475.799 214.641 468.255 211.314 458.774 211.078C450.61 210.875 445.427 212.453 439.647 214.451C435.58 215.857 432.566 217.46 429.988 219.007C428.72 219.768 427.893 220.291 427.18 220.743L427.157 220.757L427.156 220.758C426.2 221.362 425.442 221.841 424.085 222.597C418.802 225.542 415.833 227.275 410.713 230.311L410.155 230.642L409.661 230.935L409.172 231.225C401.732 235.635 396.786 238.567 388.842 243.889C386.61 245.384 384.573 246.89 382.987 248.064C382.715 248.264 382.457 248.455 382.213 248.635C380.359 250 379.323 250.715 378.508 251.181L378.506 251.182L378.275 251.314L378.273 251.315C377.251 251.899 376.732 252.193 376.303 252.415C376.265 252.434 376.231 252.452 376.2 252.467C376.087 252.474 375.929 252.48 375.72 252.482C375.717 252.481 375.713 252.481 375.71 252.481C375.706 252.481 375.702 252.48 375.699 252.48C375.575 252.469 375.37 252.445 375.094 252.403C374.527 252.315 373.869 252.18 373.25 252.014C373.157 251.989 373.069 251.964 372.986 251.94C372.946 251.904 372.906 251.869 372.866 251.834C372.808 251.783 372.752 251.733 372.696 251.684L372.623 251.62C372.116 251.178 371.598 250.741 371.202 250.408L371.195 250.402L371.192 250.399L371.189 250.397L371.185 250.394C371.274 247.2 371.464 243.864 371.674 240.268L371.694 239.925C371.967 235.238 372.269 230.052 372.269 224.984C372.269 224.135 372.813 221.469 375.009 216.97C377.009 212.872 379.637 208.734 381.924 205.43C389.377 194.665 396.393 183.727 403.282 172.989L403.282 172.988L403.283 172.987L403.293 172.971C404.419 171.217 405.54 169.468 406.66 167.727C407.643 166.197 408.74 164.558 409.906 162.816L410.035 162.623C415.78 154.045 423.159 143.026 426.991 130.572C431.469 116.018 431.416 101.707 431.37 89.3859L431.37 89.3259C431.365 88.1235 431.36 86.9405 431.36 85.7779C431.36 84.6953 431.378 83.4026 431.398 81.9674L431.398 81.9579L431.398 81.9512V81.95C431.454 77.9022 431.526 72.7137 431.26 67.8479C430.883 60.9699 429.801 52.7109 426.41 44.7812C423.889 38.8873 420.945 33.6727 415.973 29.5148C413.673 27.5911 411.392 26.2761 409.613 25.325C408.808 24.8946 407.972 24.4701 407.247 24.1021L407.175 24.0655L407.058 24.0063C406.244 23.5934 405.481 23.2055 404.665 22.7731C400.268 20.4457 395.938 18.3559 391.528 16.267C387.19 14.2125 381.554 12.9782 378.401 12.3441C376.54 11.97 374.866 11.679 373.659 11.4814C373.051 11.3819 372.552 11.3044 372.194 11.2504C372.015 11.2233 371.871 11.202 371.766 11.1867ZM226.631 256.294C226.631 256.294 226.637 256.258 226.652 256.192C226.647 256.224 226.642 256.249 226.638 256.266C226.634 256.285 226.631 256.294 226.631 256.294ZM242.844 92.7684C246.448 91.2597 257.144 91.2696 262.534 93.594C263.437 93.9837 264.732 94.371 266.192 94.8076C270.907 96.2182 277.341 98.1429 277.848 102.321C278.078 104.223 278.529 106.264 278.993 108.367C280.092 113.34 281.267 118.662 279.792 123.313C278.33 127.924 277.607 129.771 274.844 133.061C271.793 136.694 268.466 138.235 264.753 139.955C264.028 140.291 263.289 140.634 262.534 141C255.658 144.336 243.027 143.828 237.785 137.288C233.672 132.157 233 131.249 233 125.141C233 117.697 233 96.8899 242.844 92.7684ZM345.175 87.2961C338.223 76.8818 319.961 75.2866 312.205 78.514C308.327 80.1277 302.759 82.6792 302.759 88.6714V106.092C302.759 109.267 306.419 119.607 311.573 119.846C316.076 120.054 320.633 119.984 325.176 119.915C327.442 119.88 329.704 119.846 331.955 119.846C339.398 119.846 347.929 110.625 347.929 104.666C347.929 103.77 347.947 102.869 347.965 101.965C348.063 96.897 348.163 91.7715 345.175 87.2961Z" fill="#FF8200"/>
<path fill-rule="evenodd" clip-rule="evenodd" d="M482.706 56.797C481.376 59.298 479.914 61.84 478.566 64.183C477.978 65.206 477.411 66.192 476.886 67.119C474.617 71.133 472.827 74.578 471.67 77.758C470.63 80.617 469.481 83.075 468.448 85.197C468.149 85.812 467.87 86.378 467.606 86.915C466.902 88.343 466.299 89.567 465.677 90.967C464.724 93.111 463.581 94.794 462.683 96.002C462.245 96.591 461.816 97.132 461.509 97.518L461.506 97.521C461.267 97.822 461.098 98.036 460.956 98.218C460.295 104.22 455.207 108.889 449.029 108.889C442.402 108.889 437.029 103.517 437.029 96.889C437.029 90.705 439.755 86.48 441.587 84.039C441.975 83.523 442.368 83.029 442.651 82.673C442.673 82.645 442.694 82.618 442.715 82.592C443.038 82.186 443.243 81.925 443.422 81.684C443.65 81.378 443.735 81.233 443.755 81.199C444.585 79.332 445.48 77.516 446.234 75.987C446.46 75.527 446.674 75.094 446.869 74.692C447.78 72.822 448.502 71.243 449.115 69.556C450.993 64.393 453.624 59.5 455.995 55.307C456.728 54.0106 457.423 52.8014 458.084 51.6519C459.722 48.8031 461.149 46.3213 462.412 43.7949C465.023 38.5728 469.654 33.1715 472.84 29.9709C472.831 29.9797 472.825 29.9835 472.825 29.9835C472.82 29.9788 473.032 29.7216 473.71 28.8541L473.758 28.794C474.366 28.0161 475.485 26.5858 476.693 25.3644C477.294 24.7566 478.375 23.7246 479.822 22.8223C480.89 22.1572 484.564 20.0095 489.448 21.0507C495.378 22.3152 497.926 26.9518 498.775 29.3325C499.584 31.6013 499.666 33.7331 499.666 34.9567C499.666 36.2621 500.16 37.7883 502.21 41.9212C502.326 42.154 502.449 42.4006 502.58 42.6605C504.313 46.1154 507.224 51.9189 507.602 58.723C508.031 66.447 510.593 74.428 513.852 84.389L513.971 84.753C517.008 94.033 520.629 105.099 521.24 116.713C521.373 119.231 522.09 121.923 523.277 126.375L523.285 126.405C524.333 130.34 525.803 135.862 525.803 141.776C525.803 145.164 526.052 148.811 526.342 153.03L526.347 153.091C526.625 157.132 526.939 161.689 526.939 166.208C526.939 172.836 521.566 178.208 514.939 178.208C508.311 178.208 502.939 172.836 502.939 166.208C502.939 162.629 502.688 158.871 502.399 154.68L502.377 154.358C502.105 150.413 501.803 146.028 501.803 141.776C501.803 139.431 501.212 136.78 500.094 132.585C500.017 132.295 499.936 131.995 499.852 131.684C498.881 128.071 497.543 123.097 497.274 117.975C496.849 109.914 494.272 101.725 491.042 91.852C490.943 91.551 490.844 91.249 490.744 90.944C487.77 81.865 484.254 71.131 483.639 60.054C483.591 59.192 483.348 58.296 482.706 56.797Z" fill="#FF8200"/>
<path d="M516.712 105C528.292 105 543.107 109.755 551.308 117.5C554.487 120.502 555.968 124.522 556.223 128.752C556.223 137.415 557.959 145.545 557.959 154.321C557.959 165.915 559.095 176.803 559.095 188.412C559.095 192.879 561.368 197.597 561.368 202.048C561.368 204.977 561.565 211.867 562.757 214.549C566.823 223.698 566.877 235.512 569.323 245.294C572 256.003 574.052 266.483 576.709 277.112C577.581 280.598 578.859 284.451 579.487 287.908C580.031 290.902 579.944 292.268 579.487 295C578.52 300.778 578.594 305.971 572 308C562.131 311.036 556.219 314.936 545.711 315.686C539.943 316.098 533.951 318.649 528.413 320.232C524.672 321.3 518.565 321.283 515.345 323.072C513.634 324.023 511.82 324.575 507.5 323.072C502.426 321.308 500.558 318.543 500.067 314.613C498.96 305.761 495.393 294.233 491.797 286.14C490.033 282.173 489.583 277.928 488.388 273.893C486.685 268.145 483.61 261.321 482.958 255.458C481.206 239.688 472.565 225.452 469.259 210.571C467.567 202.96 464.417 196.384 461.367 187.275C458.227 177.896 454.336 173.077 453.412 163.229C452.587 154.431 452.576 146.468 455.853 140.733C461.302 131.196 470.902 123.359 480.853 118.384C492.56 112.531 502.514 105 516.712 105Z" fill="#FF8200"/>
</svg>
