<?xml version="1.0" standalone="no"?>
<!DOCTYPE svg PUBLIC "-//W3C//DTD SVG 20010904//EN"
 "http://www.w3.org/TR/2001/REC-SVG-20010904/DTD/svg10.dtd">
<svg version="1.0" xmlns="http://www.w3.org/2000/svg"
 width="700.000000pt" height="700.000000pt" viewBox="0 0 700.000000 700.000000"
 preserveAspectRatio="xMidYMid meet">
<metadata>
Created by potrace 1.14, written by Peter Selinger 2001-2017
</metadata>
<g transform="translate(0.000000,700.000000) scale(0.100000,-0.100000)"
fill="#000000" stroke="none">
<path d="M3097 6903 c-2 -1 -223 -11 -440 -18 -212 -8 -288 -27 -397 -99 -36
-24 -96 -64 -135 -88 -38 -25 -90 -62 -115 -82 -84 -70 -226 -215 -243 -248
-43 -85 -128 -300 -136 -344 -12 -59 -4 -280 14 -422 8 -63 53 -200 82 -252
56 -98 188 -236 297 -309 82 -55 98 -70 167 -152 109 -129 130 -186 133 -368
3 -120 1 -138 -19 -175 -11 -22 -34 -72 -50 -110 -21 -48 -36 -71 -54 -79 -15
-6 -37 -18 -51 -27 -14 -9 -45 -24 -70 -35 -25 -10 -118 -54 -208 -97 -199
-96 -264 -126 -311 -143 -76 -27 -328 -156 -363 -185 -42 -35 -185 -217 -235
-300 -19 -30 -41 -77 -49 -105 -29 -96 -38 -328 -14 -410 32 -114 204 -229
376 -251 96 -12 312 -7 410 10 108 19 170 39 288 95 48 22 95 41 105 41 32 0
73 -62 86 -130 22 -116 26 -555 5 -666 -7 -38 -31 -107 -52 -154 -22 -47 -48
-107 -58 -135 -10 -27 -32 -84 -50 -125 -17 -41 -59 -145 -92 -230 -191 -493
-213 -578 -211 -830 1 -170 46 -256 168 -319 92 -47 161 -61 295 -58 117 2
118 2 204 46 118 60 182 125 236 238 23 48 59 117 80 153 120 208 182 349 245
554 52 169 57 182 102 271 19 38 48 102 63 141 15 40 36 85 47 101 10 15 27
48 38 73 10 25 37 70 60 100 22 30 48 66 57 80 27 43 78 87 138 119 72 38 69
44 75 -140 4 -132 12 -265 20 -344 2 -22 6 -80 10 -130 3 -49 8 -105 11 -123
2 -18 6 -97 9 -175 7 -192 13 -251 32 -322 38 -140 150 -333 243 -418 104 -94
285 -191 427 -228 161 -41 238 -34 381 34 193 93 285 260 297 543 3 65 8 136
11 156 2 21 7 52 9 69 2 18 5 157 6 308 1 221 -1 288 -14 336 -23 91 -30 131
-42 240 -4 39 -9 78 -11 89 -2 10 -6 41 -9 70 -10 95 -12 111 -20 151 -8 50
-38 152 -77 270 -16 50 -38 124 -48 165 -11 41 -36 118 -56 170 -40 103 -42
131 -31 325 10 156 57 291 132 375 25 28 68 85 96 127 29 43 73 103 99 133 26
30 66 84 88 120 35 55 42 61 43 40 1 -14 1 -29 0 -33 -1 -5 6 -23 15 -42 11
-25 28 -39 59 -51 48 -18 70 -14 275 42 47 13 108 26 135 30 28 3 89 19 137
35 177 60 185 67 194 170 5 49 1 85 -16 149 -12 47 -25 103 -29 125 -5 22 -20
90 -34 150 -14 61 -35 162 -46 226 -12 63 -28 135 -36 159 -9 24 -18 78 -21
120 -2 41 -9 91 -14 110 -5 19 -12 116 -15 215 -15 421 -24 501 -57 547 -43
61 -150 116 -274 141 l-67 13 -22 80 c-13 43 -39 132 -59 197 -20 65 -38 138
-41 163 -8 82 -18 117 -51 192 -19 40 -34 84 -34 97 0 62 -55 125 -113 129
-63 5 -96 -14 -169 -100 -84 -97 -138 -192 -266 -464 -14 -30 -34 -66 -45 -80
-79 -104 -54 -226 51 -252 54 -14 142 43 142 92 0 9 6 23 14 29 18 15 60 94
87 164 26 68 120 238 128 232 4 -2 8 -18 9 -36 5 -63 34 -183 73 -303 22 -66
42 -139 45 -161 l6 -40 -79 -39 c-177 -89 -282 -176 -331 -276 -24 -50 -27
-64 -25 -155 2 -109 4 -119 85 -330 58 -150 84 -233 76 -241 -3 -2 -16 -1 -29
4 -42 15 -172 6 -245 -17 -80 -26 -335 -171 -540 -308 -125 -83 -144 -92 -167
-84 -21 8 -24 15 -21 43 2 18 5 83 7 143 5 138 12 154 154 367 59 89 110 167
113 173 5 9 51 81 165 255 83 126 126 229 161 385 4 17 8 154 10 305 4 309 -1
352 -61 477 -18 40 -52 90 -74 112 -45 44 -247 151 -332 175 -78 23 -83 24
-230 42 -46 6 -617 12 -622 7z m306 -710 c118 -41 158 -91 163 -207 4 -97 -28
-156 -108 -197 -31 -16 -59 -19 -158 -19 l-121 0 -29 32 c-19 20 -33 50 -39
82 -13 69 -8 225 8 254 7 13 36 35 64 48 59 28 151 31 220 7z m-677 -163 c102
-33 113 -44 131 -126 8 -38 15 -89 15 -114 2 -83 -56 -174 -133 -211 -19 -9
-46 -22 -61 -29 -15 -7 -56 -13 -92 -13 -81 0 -140 32 -174 92 -20 35 -23 53
-21 131 3 164 33 255 94 284 42 21 154 15 241 -14z"/>
</g>
</svg>
