<svg width="320" height="132" viewBox="0 0 320 132" fill="none" xmlns="http://www.w3.org/2000/svg">
<g clip-path="url(#clip0_67_3724)">
<path fill-rule="evenodd" clip-rule="evenodd" d="M42.4543 19.8451C41.3301 19.7844 40.7227 19.7934 39.5492 19.8462C38.72 19.8835 38.0105 19.863 37.3924 19.845L37.3216 19.843C36.6785 19.8244 36.125 19.8109 35.481 19.8452C34.3116 19.9076 32.9101 19.97 31.601 20.0283C30.9789 20.056 30.3778 20.0827 29.8323 20.1081C29.1958 20.1377 28.6205 20.1495 28.1307 20.1596C28.0207 20.1618 27.915 20.164 27.814 20.1662C27.2387 20.1791 26.8283 20.1949 26.4788 20.2329C25.8854 20.2976 25.5367 20.4156 25.0968 20.7322C24.259 21.335 23.5544 21.7695 23.0215 22.0982C22.8345 22.2135 22.6686 22.3159 22.5256 22.4079C21.9808 22.7581 21.4662 23.1321 20.653 23.9423C20.445 24.1495 20.2085 24.3621 20.0193 24.5322C20.0025 24.5474 19.986 24.5621 19.97 24.5766C19.7521 24.7726 19.5717 24.9366 19.4111 25.0974C19.2499 25.2587 19.1508 25.3752 19.0936 25.4549C19.0868 25.4642 19.0812 25.4724 19.0766 25.4792C18.7871 26.4511 18.2653 27.5358 17.9044 28.2859C17.8411 28.4172 17.783 28.5381 17.7317 28.6465C17.6183 28.8867 17.5463 29.2853 17.5906 30.0692C17.6081 30.3809 17.6384 30.6872 17.6737 31.0462C17.6824 31.1347 17.6915 31.2266 17.7007 31.3226C17.7441 31.7713 17.7914 32.3083 17.7914 32.8499C17.7914 33.2602 17.8948 34.0006 18.1224 34.7754C18.3661 35.6053 18.635 36.0711 18.7405 36.1887C18.9996 36.4772 19.2246 36.7344 19.4267 36.9655C20.1925 37.8412 20.6291 38.3405 21.3435 38.7359C23.1792 39.7519 24.4964 41.3581 25.462 42.5354C25.4958 42.5766 25.5291 42.6174 25.562 42.6575C26.8295 44.201 28.1364 46.737 28.1364 49.1842C28.1364 49.3114 28.1438 49.5361 28.1554 49.8813C28.157 49.9297 28.1587 49.9804 28.1604 50.0338C28.1736 50.4352 28.1887 50.9264 28.1932 51.4215C28.1977 51.9096 28.1923 52.4442 28.159 52.9277C28.134 53.2906 28.0764 54.0213 27.797 54.6478C27.645 54.9885 27.449 55.3483 27.3097 55.6043C27.2856 55.6484 27.2633 55.6895 27.2431 55.7268C27.0721 56.0434 26.9877 56.2177 26.9456 56.3335C26.845 56.6088 26.5571 57.292 26.258 57.9131C26.1077 58.2255 25.924 58.5864 25.734 58.8991C25.6427 59.0496 25.5115 59.2532 25.3483 59.4507C25.2668 59.5493 25.1391 59.6935 24.9673 59.8394C24.822 59.9628 24.4847 60.2277 23.9788 60.3716C23.7811 60.4279 23.5387 60.5428 23.0769 60.8017C23.0318 60.8269 22.9832 60.8545 22.9314 60.884C22.5393 61.106 21.9601 61.434 21.3424 61.6708C20.1598 62.124 19.009 62.7008 17.7271 63.3433L17.6683 63.3728C16.4025 64.0072 15.0041 64.706 13.5208 65.2532C13.0683 65.4202 12.6117 65.6511 11.9965 65.9664L11.9532 65.9886C11.3904 66.2771 10.6833 66.6396 9.9166 66.9226C9.58934 67.0433 9.2937 67.2625 8.85828 67.8893C8.47053 68.4472 8.0942 68.9218 7.79008 69.3054C7.77064 69.33 7.75151 69.3541 7.73268 69.3779C7.40079 69.7967 7.1857 70.0751 7.01582 70.3432C6.75598 70.7531 6.57947 71.1603 6.57947 72.0068C6.57947 72.3865 6.54768 72.7095 6.51729 72.9641C6.50278 73.0857 6.49167 73.1722 6.48226 73.244C6.46868 73.3493 6.45912 73.4228 6.44939 73.529C6.43844 73.6497 6.43103 73.7791 6.44523 73.9507C6.5267 74.001 6.61912 74.0531 6.71911 74.1054C6.86199 74.1801 6.99977 74.2443 7.11225 74.2942C7.26655 74.3624 7.52561 74.454 7.81261 74.5261C7.95039 74.5609 8.07553 74.5863 8.17937 74.6021C8.2306 74.6099 8.27164 74.6147 8.3025 74.6175C8.33398 74.6202 8.34833 74.6202 8.34694 74.6202H11.5872C11.7381 74.6202 12.2448 74.5629 12.9416 74.4294C13.6154 74.3006 14.1689 74.1581 14.3829 74.082C14.8294 73.9232 15.1513 73.7618 15.5744 73.5498C15.8345 73.4194 16.1331 73.2697 16.5225 73.0897C17.4083 72.68 18.5629 72.2374 19.9964 72.2374C20.2091 72.2374 20.5307 72.2386 20.8388 72.2861C21.0192 72.3139 21.2674 72.367 21.541 72.483C21.837 72.6083 22.0726 72.7687 22.257 72.9262C22.3358 72.9936 22.3977 73.054 22.4362 73.0929C23.483 73.6992 24.2333 74.7983 24.6712 75.5412C25.3426 76.6807 25.5473 77.5255 25.7323 78.5769C25.9311 79.7067 25.988 80.3299 26.0306 81.4445C26.0656 82.3609 26.0513 83.3072 26.0403 84.0209C26.0361 84.2999 26.0324 84.5434 26.0324 84.7356V87.2687C26.0324 89.4729 25.5538 91.9088 24.4066 93.9662C24.1442 94.4371 23.9408 94.9756 23.6808 95.7115C23.6612 95.7673 23.641 95.8245 23.6205 95.8831C23.3903 96.5374 23.1017 97.358 22.7033 98.1519C22.4665 98.6239 22.2594 99.1509 22.0335 99.7726C21.9788 99.9231 21.921 100.084 21.861 100.253C21.6899 100.732 21.4989 101.267 21.2969 101.77C21.1861 102.046 21.0755 102.319 20.966 102.59C19.8498 105.348 18.8434 107.835 18.8434 110.154C18.8434 110.385 18.8376 110.609 18.8322 110.802L18.8303 110.872C18.8254 111.044 18.8214 111.188 18.8198 111.33C18.8177 111.551 18.8232 111.703 18.833 111.811C19.6484 112.152 20.0877 112.144 21.4628 112.068C21.4841 112.061 21.573 112.032 21.7447 111.935C21.9747 111.805 22.1844 111.657 22.4784 111.449C22.5495 111.399 22.6254 111.345 22.7078 111.287C22.7154 111.282 22.7232 111.277 22.7447 111.248C22.7748 111.208 22.8266 111.126 22.9115 110.947C22.9751 110.813 23.025 110.697 23.092 110.541C23.1317 110.449 23.1773 110.343 23.235 110.212C23.3711 109.902 23.5456 109.523 23.7768 109.12C25.3181 106.428 26.3717 104.568 27.1079 102.514C27.3352 101.88 27.5192 101.252 27.7257 100.547C27.7851 100.345 27.8464 100.136 27.911 99.9189C28.1875 98.9895 28.5149 97.9539 28.9837 96.9159C29.2302 96.3701 29.5254 95.8012 29.7795 95.3115C29.8896 95.0997 29.9917 94.9028 30.0789 94.7289C30.1381 94.6108 30.1779 94.4934 30.2645 94.2374C30.302 94.1264 30.3483 93.9894 30.4089 93.8152C30.5581 93.3856 30.8289 92.6297 31.3514 91.9603C31.3861 91.9159 31.4612 91.7933 31.6254 91.4079C31.6444 91.3635 31.6661 91.3115 31.6904 91.2533C31.8231 90.9346 32.0329 90.4313 32.2866 89.9887C32.5827 89.4724 32.946 89.0332 33.1738 88.7577L33.2015 88.7242C33.4739 88.3946 33.5888 88.2484 33.666 88.1179C34.5718 86.5835 36.1784 85.1468 38.1664 84.2269C38.2558 84.1855 38.352 84.1393 38.4547 84.0899C39.4293 83.6215 40.9932 82.8699 42.9559 83.2822C43.8073 83.461 44.3554 83.9725 44.6498 84.328C44.9494 84.6901 45.1421 85.0749 45.2671 85.3696C45.5188 85.963 45.6751 86.6282 45.7781 87.1859C45.988 88.3219 46.0725 89.5596 46.0725 90.2242C46.0725 92.4054 46.2676 94.6271 46.4755 96.9786L46.4797 97.0249C46.6832 99.3246 46.8977 101.751 46.8977 104.176C46.8977 105.81 47.3608 107.121 48.3467 108.649C48.9307 109.555 49.2318 109.938 49.7793 110.316C50.7087 110.957 51.842 111.638 52.5619 111.887L52.6689 111.924C53.3691 112.165 53.94 112.363 54.4893 112.455C55.0637 112.551 55.2371 112.461 55.2408 112.459C55.5144 112.308 55.7688 112.191 55.9684 112.103C56.0603 112.062 56.1307 112.031 56.1905 112.005C56.2836 111.965 56.3516 111.936 56.4373 111.896C56.6457 111.798 56.6868 111.758 56.7105 111.734C57.0109 111.435 57.1592 111.176 57.4464 110.375C57.6485 109.811 57.7176 109.181 57.7509 108.269C57.7559 108.133 57.7599 107.985 57.7642 107.829C57.7858 107.045 57.8137 106.029 57.9949 105.036C58.1683 104.086 58.1455 103.167 58.1168 102.012C58.1046 101.527 58.0915 100.999 58.0915 100.41C58.0915 99.973 58.1245 99.3547 58.1523 98.8354C58.1677 98.5484 58.1813 98.2917 58.187 98.1122C58.2095 97.398 58.1736 96.9477 58.0939 96.6619C57.6366 95.0216 57.4046 93.0673 57.2143 91.4659C57.1612 91.0198 57.1115 90.601 57.0611 90.2239C57.0099 89.8415 56.9793 89.5597 56.9498 89.2889C56.9145 88.9636 56.8809 88.6539 56.8153 88.2047C56.7133 87.5042 56.6028 87.0737 56.5119 86.87C56.2725 86.3335 56.1618 85.8005 56.1012 85.5084L56.0969 85.4872C56.0202 85.1182 55.9981 85.0249 55.9714 84.9545C55.9319 84.8504 55.8861 84.7334 55.836 84.6055C55.5578 83.8947 55.1484 82.8487 54.9719 81.8377C54.9039 81.4483 54.7547 80.9969 54.5184 80.3795C54.4775 80.2729 54.4325 80.1571 54.3845 80.0343C54.1885 79.5319 53.9471 78.9129 53.7707 78.3201C53.3911 77.0434 53.0546 75.085 53.5817 73.2997C53.584 73.2549 53.5846 73.1801 53.5792 73.0558C53.5752 72.9594 53.57 72.8783 53.5635 72.776C53.5596 72.7167 53.5555 72.6504 53.5507 72.5699C53.5399 72.3863 53.5272 72.137 53.5334 71.8767C53.546 71.3326 53.6545 70.8459 53.7403 70.5105C53.7823 70.3458 53.8275 70.1861 53.8628 70.0608L53.8679 70.0428C53.9074 69.9031 53.9349 69.805 53.9571 69.7166C54.2685 68.4757 54.7071 67.4301 55.1481 66.4413C55.5311 65.5828 56.0983 64.9341 56.4718 64.5196C56.5709 64.4097 56.6574 64.3147 56.734 64.2306C57.0052 63.9328 57.1503 63.7736 57.2788 63.5815C57.3762 63.436 57.4789 63.2793 57.5869 63.1145C58.1608 62.2393 58.8872 61.1316 59.7951 60.1923C60.0872 59.8901 60.3382 59.4913 60.6736 58.8553C60.7258 58.7562 60.7827 58.6456 60.8443 58.5263C61.1216 57.9879 61.4902 57.2719 61.9339 56.6291C61.9336 56.6294 61.9333 56.6296 61.9333 56.6296C61.9313 56.6285 61.9909 56.5146 62.0631 56.2319C62.1441 55.9147 62.2081 55.5139 62.2381 55.0864C62.2678 54.6578 62.2594 54.2591 62.2217 53.9449C62.1919 53.6966 62.154 53.5863 62.1513 53.5738C61.8338 53.007 61.498 52.4712 61.137 52.0332C60.7571 51.5728 60.4584 51.3556 60.2681 51.2713C59.6903 51.0155 59.3022 50.8778 58.8949 50.8676C58.5004 50.8578 58.3519 50.8862 57.68 51.1178C57.4666 51.1912 57.3174 51.267 57.1166 51.3869C57.0322 51.4375 56.958 51.4839 56.8616 51.5441C56.8131 51.5745 56.759 51.6082 56.6952 51.6478C56.5214 51.7556 56.3135 51.8821 56.0694 52.0177C55.3047 52.4423 54.8867 52.6852 54.121 53.1377C54.0438 53.1833 53.969 53.2276 53.896 53.2706C52.7466 53.9495 52.0862 54.3395 50.9756 55.0808C50.7344 55.2418 50.5223 55.398 50.2767 55.5788C50.2301 55.6131 50.1822 55.6483 50.1327 55.6846C49.8514 55.891 49.4845 56.1574 49.0827 56.3862L49.0475 56.4062L49.0472 56.4063C49.031 56.4157 49.0139 56.4254 48.996 56.4357C48.7454 56.579 48.3442 56.8084 47.8801 56.9699C47.3152 57.1664 46.7644 57.2343 46.1824 57.2343C45.6581 57.2343 45.0451 57.1287 44.5419 56.9942C44.273 56.9223 43.9651 56.8236 43.6616 56.6897C43.3989 56.5738 42.9469 56.3495 42.547 55.951C42.5183 55.9224 42.4706 55.8809 42.3031 55.7404L42.2929 55.7318C42.1589 55.6194 41.9343 55.4311 41.717 55.2101C41.2651 54.7506 40.5575 53.8641 40.5575 52.5424C40.5575 51.7227 40.6056 50.8993 40.6487 50.1643L40.6495 50.1512C40.6942 49.3855 40.7329 48.7163 40.7329 48.0875C40.7329 46.812 41.2247 45.578 41.6559 44.6977C42.1174 43.7556 42.6763 42.8918 43.1006 42.2812C44.1977 40.7023 45.2288 39.1009 46.2947 37.4455C46.4698 37.1735 46.646 36.9 46.8235 36.6248C47.0812 36.2256 47.3246 35.8597 47.5528 35.5167C48.4002 34.2435 49.0361 33.288 49.3947 32.1264C49.8548 30.6366 49.8533 29.1715 49.8509 27.1361C49.8508 26.9894 49.8505 26.8397 49.8505 26.6869C49.8505 26.3891 49.8545 26.1122 49.8584 25.8457C49.8664 25.2856 49.8738 24.7703 49.8423 24.1993C49.7983 23.3993 49.6828 22.781 49.4845 22.3189C49.3513 22.0088 49.2655 21.8601 49.2262 21.7998C49.2032 21.7859 49.1648 21.7637 49.1045 21.7316C49.0255 21.6895 48.936 21.6443 48.8042 21.5776C48.6795 21.5146 48.5271 21.4375 48.3587 21.3487C47.7809 21.0439 47.1935 20.7605 46.5283 20.4466C46.5306 20.4477 46.5297 20.4474 46.5252 20.4457C46.5067 20.4387 46.4245 20.4078 46.2585 20.3626C46.075 20.3126 45.8605 20.2641 45.6433 20.2206C45.4291 20.1777 45.2315 20.1434 45.0872 20.1198C45.0156 20.1082 44.9587 20.0994 44.9212 20.0938C44.9077 20.0917 44.8968 20.0901 44.8888 20.0889L44.8866 20.0886L44.8383 20.0825C44.7954 20.0771 44.7321 20.0692 44.6527 20.0595C44.4933 20.0401 44.2703 20.0137 44.0168 19.9856C43.4967 19.928 42.8965 19.869 42.4543 19.8451ZM45.5928 15.2197L45.5629 15.2154L45.5729 15.2169L45.5928 15.2197C45.609 15.2221 45.6312 15.2253 45.6588 15.2295C45.7141 15.2378 45.7911 15.2497 45.8849 15.265C46.0711 15.2954 46.3294 15.3401 46.6166 15.3976C47.1031 15.4951 47.9727 15.6849 48.642 16.0007C49.3225 16.3219 49.9906 16.6431 50.669 17.0009C50.7949 17.0674 50.9127 17.127 51.0383 17.1905L51.0563 17.1996C51.1706 17.2575 51.3041 17.3249 51.4325 17.3932C51.707 17.5395 52.0589 17.7416 52.4138 18.0374C53.181 18.6766 53.6352 19.4782 54.0242 20.3843C54.5474 21.6034 54.7144 22.8731 54.7726 23.9304C54.8136 24.679 54.8025 25.4772 54.7938 26.0996C54.7908 26.3208 54.788 26.5201 54.788 26.6869C54.788 26.8686 54.7888 27.0535 54.7895 27.2416C54.7966 29.1357 54.8048 31.3358 54.1139 33.5732C53.5226 35.4878 52.384 37.1818 51.4976 38.5005C51.3103 38.7794 51.1341 39.0414 50.9768 39.2852C50.804 39.5528 50.6311 39.8217 50.4573 40.0914C49.3939 41.7431 48.3108 43.4255 47.1602 45.0814C46.8073 45.5893 46.4018 46.2255 46.0932 46.8555C45.7544 47.5471 45.6704 47.957 45.6704 48.0875C45.6704 48.8666 45.6238 49.6639 45.5817 50.3844L45.5786 50.4372C45.5462 50.99 45.5169 51.5029 45.5032 51.9939L45.5038 51.9943C45.5652 52.0458 45.646 52.1136 45.725 52.1824C45.7429 52.198 45.7616 52.2143 45.7811 52.2316C45.7939 52.2352 45.8074 52.2391 45.8218 52.2429C45.9173 52.2685 46.0188 52.2892 46.1063 52.3027C46.1489 52.3092 46.1805 52.3129 46.1997 52.3146C46.2007 52.3147 46.202 52.3147 46.2029 52.3149C46.2351 52.3146 46.2595 52.3136 46.277 52.3126C46.2818 52.3103 46.287 52.3075 46.2929 52.3046C46.359 52.2704 46.4391 52.2253 46.5968 52.1355L46.5971 52.1353L46.6328 52.115L46.6331 52.1149C46.7588 52.0432 46.9187 51.9333 47.2048 51.7235C47.2424 51.6958 47.2822 51.6664 47.3242 51.6357C47.5689 51.4552 47.8832 51.2237 48.2276 50.9938C49.4533 50.1757 50.2165 49.7249 51.3644 49.047C51.4419 49.0012 51.5211 48.9544 51.6022 48.9065C52.3922 48.4397 52.8503 48.1733 53.6655 47.7205C53.8766 47.6034 53.9938 47.5295 54.143 47.4355C54.253 47.366 54.3806 47.2856 54.5763 47.1686C54.9741 46.9308 55.4391 46.6844 56.0666 46.4682C56.9585 46.1611 57.7582 45.9185 59.0179 45.9497C60.4808 45.986 61.6448 46.4974 62.2734 46.7759C63.4369 47.2912 64.3161 48.1393 64.9517 48.91C65.598 49.6936 66.1083 50.5405 66.4882 51.2217C66.8839 51.9316 67.0483 52.7278 67.1242 53.3606C67.2055 54.0367 67.2109 54.7509 67.1635 55.4275C67.1163 56.1053 67.0123 56.802 66.8481 57.445C66.6948 58.0451 66.4442 58.7806 66.0092 59.4066C65.7603 59.7648 65.5724 60.1275 65.3081 60.6379C65.2285 60.7917 65.1418 60.9589 65.0446 61.1433C64.6687 61.8562 64.1532 62.7752 63.3516 63.6046C62.794 64.1816 62.3652 64.8314 61.794 65.6966C61.6665 65.89 61.5318 66.094 61.387 66.3105C61.0305 66.8432 60.5758 67.3377 60.286 67.6527C60.2331 67.7102 60.1857 67.7619 60.1455 67.8066C59.8079 68.1811 59.7039 68.3413 59.6601 68.4392C59.2475 69.3644 58.9515 70.0948 58.7471 70.9097C58.7051 71.0771 58.6587 71.2416 58.6224 71.3698L58.6206 71.3761C58.5808 71.517 58.5511 71.6223 58.5254 71.7234C58.4783 71.9073 58.4707 71.9805 58.4697 71.9908C58.4695 71.9923 58.4695 71.9923 58.4695 71.9911C58.4669 72.103 58.472 72.1737 58.4809 72.2992C58.4891 72.4128 58.5005 72.5713 58.5122 72.8457C58.5291 73.2352 58.5471 73.9473 58.322 74.676C58.1861 75.1163 58.2279 75.9911 58.5048 76.9225C58.6176 77.3016 58.7607 77.6695 58.9444 78.1418C59.0028 78.2918 59.0652 78.4523 59.1321 78.627C59.3812 79.2782 59.6812 80.1059 59.8364 80.9948C59.9207 81.4778 60.1103 81.9692 60.3842 82.6786C60.4484 82.8448 60.5172 83.0231 60.5903 83.2159C60.7665 83.6808 60.8634 84.1551 60.917 84.4177C60.9224 84.4438 60.9273 84.4678 60.9318 84.4895C60.9629 84.6392 60.9828 84.7282 61.0021 84.7998C61.012 84.8364 61.0191 84.858 61.0227 84.8681C61.024 84.8718 61.0248 84.8741 61.0251 84.8749C61.4093 85.7375 61.5914 86.7412 61.7016 87.4979C61.7613 87.9071 61.8319 88.521 61.8859 88.9897C61.9157 89.2478 61.9403 89.462 61.9552 89.5737C62.0279 90.1166 62.0916 90.6477 62.1535 91.1653C62.3367 92.6948 62.5056 94.1053 62.8512 95.3454C63.1399 96.3808 63.1478 97.45 63.122 98.2666C63.1072 98.7363 63.0865 99.0805 63.0685 99.3816C63.0469 99.7391 63.029 100.036 63.029 100.41C63.029 100.716 63.0381 101.068 63.0481 101.452C63.0817 102.755 63.1251 104.424 62.8528 105.916C62.7451 106.507 62.7279 107.072 62.7051 107.834C62.6992 108.025 62.6932 108.229 62.6852 108.448C62.6486 109.447 62.5675 110.715 62.0961 112.03C61.7301 113.051 61.2822 114.137 60.2018 115.213C59.6115 115.801 59.0015 116.131 58.534 116.349C58.2663 116.474 58.114 116.539 58.0009 116.587C57.8676 116.643 57.7884 116.676 57.6388 116.759C56.2277 117.54 54.7411 117.486 53.6678 117.306C52.6892 117.141 51.7411 116.812 51.1151 116.594C51.056 116.573 50.9998 116.554 50.9468 116.536C49.5325 116.048 47.9178 115.015 46.969 114.36C45.5806 113.403 44.8474 112.323 44.1935 111.31C42.8235 109.186 41.9602 106.965 41.9602 104.176C41.9602 101.987 41.7652 99.7617 41.5572 97.4106L41.5522 97.3539C41.349 95.0579 41.135 92.6387 41.135 90.2242C41.135 89.8814 41.087 89.1009 40.9693 88.3528C40.8414 88.4104 40.7169 88.4687 40.5717 88.5368C40.4748 88.5822 40.3686 88.6318 40.2463 88.6885C39.0537 89.2404 38.2597 90.0399 37.9218 90.6122C37.63 91.1063 37.2764 91.5334 37.0533 91.8029C37.0395 91.8195 37.0263 91.8355 37.0134 91.8508C36.7473 92.1732 36.64 92.3134 36.5735 92.4295C36.4865 92.5812 36.4208 92.7373 36.2949 93.036C36.2589 93.1214 36.218 93.2184 36.1704 93.3305C35.998 93.735 35.7153 94.3813 35.2531 94.9752C35.2537 94.9744 35.2542 94.9741 35.2542 94.9741C35.2554 94.9749 35.1974 95.0714 35.0749 95.4239C35.0617 95.462 35.0383 95.5309 35.0108 95.6122C34.9605 95.7607 34.8963 95.9506 34.8542 96.069C34.7681 96.311 34.6516 96.617 34.4952 96.929C34.3416 97.2349 34.206 97.4953 34.0809 97.7356C33.8649 98.1508 33.6797 98.5066 33.4864 98.9347C33.1603 99.6565 32.9091 100.429 32.6447 101.317C32.5938 101.488 32.5416 101.667 32.4879 101.85C32.2759 102.574 32.0391 103.384 31.7578 104.168C30.855 106.687 29.5783 108.916 28.0909 111.513L28.0652 111.558C27.9002 111.846 27.8263 112.022 27.7222 112.27C27.6424 112.46 27.5447 112.693 27.3747 113.051C27.0553 113.724 26.5476 114.61 25.5493 115.31C25.5074 115.34 25.4592 115.374 25.406 115.412C25.1091 115.623 24.6509 115.949 24.177 116.216C23.6115 116.535 22.7746 116.922 21.7718 116.978L21.7127 116.981C20.1385 117.068 18.7226 117.147 16.6871 116.245C15.9308 115.91 15.2841 115.419 14.801 114.757C14.3278 114.109 14.1034 113.423 13.9939 112.831C13.8877 112.256 13.8783 111.703 13.8826 111.28C13.8857 110.984 13.8913 110.82 13.8962 110.676C13.9015 110.524 13.9059 110.394 13.9059 110.154C13.9059 106.808 15.3053 103.388 16.3625 100.804C16.4847 100.505 16.6023 100.218 16.7126 99.9429C16.8765 99.5349 17.0184 99.137 17.1778 98.6907C17.2449 98.5029 17.315 98.3066 17.391 98.0973C17.6324 97.4334 17.9177 96.6878 18.2871 95.9518C18.5399 95.4479 18.7303 94.9086 18.9842 94.1893L19.0234 94.0783C19.277 93.3602 19.6006 92.4558 20.0905 91.5772C20.7433 90.4065 21.0949 88.8355 21.0949 87.2687V84.7356C21.0949 84.4155 21.1 84.0959 21.1051 83.7694C21.1156 83.1068 21.1267 82.4153 21.0966 81.6319C21.0613 80.7067 21.024 80.3073 20.8689 79.4262C20.7371 78.6774 20.6708 78.4689 20.4133 78.032C20.2579 77.7682 20.111 77.5602 19.9913 77.418C19.9467 77.3651 19.9133 77.3302 19.8925 77.3099C19.8208 77.2677 19.7512 77.2248 19.6839 77.181C19.39 77.2265 19.0598 77.3399 18.6009 77.5521C18.4745 77.6105 18.3083 77.6931 18.1144 77.7891C17.5566 78.066 16.7702 78.4563 16.0434 78.7149C15.464 78.9211 14.6106 79.1194 13.8729 79.2607C13.1579 79.3975 12.2485 79.5397 11.5872 79.5397H8.34694C7.22659 79.5397 5.89671 79.1392 5.10701 78.7896C4.76525 78.6384 4.14744 78.3477 3.55849 77.9473C3.26363 77.747 2.9089 77.4744 2.58765 77.1253C2.28076 76.7919 1.86971 76.2433 1.70075 75.4859C1.4798 74.4956 1.47178 73.7441 1.53242 73.0821C1.55001 72.8889 1.57932 72.66 1.59876 72.5073C1.60524 72.4566 1.61065 72.4142 1.61419 72.3845C1.63379 72.2197 1.64197 72.1114 1.64197 72.0068C1.64197 70.1947 2.10254 68.8818 2.84085 67.7168C3.16997 67.1974 3.54414 66.7248 3.85721 66.3297L3.89702 66.2794C4.21271 65.8811 4.50201 65.5161 4.79873 65.0891C5.5429 64.018 6.5628 62.9142 8.20174 62.3094C8.66309 62.1391 9.12537 61.9058 9.73793 61.5918L9.79085 61.5647C10.3496 61.2782 11.0505 60.9187 11.806 60.64C12.9924 60.2022 14.1542 59.6272 15.4495 58.978C15.4975 58.954 15.5457 58.9297 15.594 58.9056C16.8115 58.2951 18.1548 57.6214 19.57 57.0792C19.8215 56.9828 20.0636 56.8469 20.5063 56.5982C20.5537 56.5716 20.6034 56.5438 20.6555 56.5144C20.9339 56.3584 21.2943 56.1582 21.714 55.9731C21.7431 55.9152 21.7739 55.8526 21.8061 55.7856C21.9258 55.5368 22.0437 55.2741 22.1395 55.0521C22.1871 54.9419 22.2273 54.8458 22.2579 54.7708C22.2915 54.6887 22.3054 54.6519 22.3052 54.6522C22.4838 54.1634 22.7279 53.7056 22.895 53.3959C22.9302 53.3307 22.9626 53.2709 22.9925 53.2158C23.0883 53.0391 23.1585 52.9095 23.2145 52.7979C23.2205 52.7475 23.227 52.6791 23.233 52.5908C23.2536 52.2937 23.2599 51.9052 23.2559 51.4658C23.252 51.0337 23.2387 50.5926 23.2256 50.1952C23.2239 50.1454 23.2222 50.095 23.2205 50.0445C23.2097 49.7242 23.1989 49.4007 23.1989 49.1842C23.1989 48.2554 22.5743 46.788 21.7407 45.7726C20.6478 44.4419 19.8774 43.5521 18.9456 43.0363C17.3954 42.1781 16.2892 40.8914 15.4875 39.9585C15.3346 39.7807 15.1926 39.6157 15.0609 39.4689C14.2099 38.5213 13.6898 37.1993 13.3835 36.1569C13.0612 35.0594 12.8539 33.8429 12.8539 32.8499C12.8539 32.5649 12.8283 32.233 12.7859 31.7934C12.779 31.7221 12.7716 31.6469 12.7638 31.5687C12.7277 31.2034 12.6848 30.7705 12.6608 30.3453C12.6029 29.3191 12.6185 27.9189 13.2642 26.5519C13.3437 26.3837 13.4213 26.2209 13.4966 26.0632C13.8759 25.2684 14.1929 24.6041 14.3517 24.0507C14.6734 22.9284 15.4466 22.0921 15.9129 21.6257C16.1774 21.3611 16.448 21.1169 16.6606 20.9256L16.6719 20.9154C16.8998 20.7104 17.0467 20.5782 17.1618 20.4636C18.236 19.3933 19.0268 18.8024 19.8488 18.274C20.1053 18.1092 20.3346 17.968 20.5594 17.8295C21.0497 17.5274 21.5193 17.2381 22.2059 16.744C23.4651 15.8379 24.6683 15.4814 25.9423 15.3426C26.5267 15.279 27.129 15.2609 27.7032 15.248C27.8189 15.2454 27.9346 15.243 28.0511 15.2406C28.5371 15.2306 29.036 15.2203 29.6018 15.194C30.1696 15.1676 30.7837 15.1402 31.4126 15.1123C32.7092 15.0546 34.069 14.994 35.2168 14.9328C36.0847 14.8865 36.8195 14.907 37.4646 14.9256L37.4882 14.9263C38.1319 14.9448 38.6826 14.9607 39.3264 14.9318C40.6107 14.874 41.389 14.8609 42.7217 14.9329C43.3102 14.9647 44.025 15.0367 44.5623 15.0962C44.8374 15.1267 45.0787 15.1553 45.2515 15.1764C45.3381 15.1869 45.4077 15.1956 45.4564 15.2017C45.4806 15.2048 45.4998 15.2072 45.513 15.2089L45.535 15.2117L45.5928 15.2197ZM23.1989 52.9009C23.1989 52.9009 23.1999 52.8954 23.2022 52.8852C23.2003 52.896 23.1989 52.9009 23.1989 52.9009ZM19.8708 77.2897C19.8708 77.2897 19.8712 77.2901 19.8729 77.2915C19.8715 77.2904 19.8708 77.2897 19.8708 77.2897ZM45.5928 15.2197L45.535 15.2117L45.5488 15.2135L45.5626 15.2154L45.5928 15.2197ZM49.201 21.7652C49.201 21.7647 49.2044 21.7685 49.2112 21.7778C49.2044 21.7704 49.201 21.7657 49.201 21.7652ZM53.5794 73.3287C53.5794 73.3287 53.5795 73.3275 53.5797 73.3256C53.5795 73.3279 53.5794 73.3287 53.5794 73.3287Z" fill="#FF8200"/>
<path fill-rule="evenodd" clip-rule="evenodd" d="M38.6059 27.275C37.8471 27.1219 37.2453 27.2192 37.0947 27.2816C36.9625 27.3364 36.863 27.38 36.7775 27.4238V29.7351C36.7824 29.756 36.7899 29.785 36.8008 29.8216C36.8277 29.9111 36.8648 30.0112 36.9082 30.1062C37.3587 30.1137 37.8042 30.1068 38.2793 30.0993C38.6272 30.0939 38.9911 30.088 39.3845 30.0877C39.3976 30.0828 39.4186 30.0741 39.4481 30.059C39.5424 30.0103 39.6649 29.9236 39.7875 29.8019C39.9105 29.6799 39.996 29.56 40.0415 29.4757C40.0427 29.4736 40.0437 29.4716 40.0447 29.4696C40.046 29.351 40.0483 29.2228 40.0505 29.1094C40.0522 29.025 40.0535 28.9489 40.0542 28.8908C40.0565 28.6815 40.0535 28.5206 40.0418 28.3816C40.0193 28.1147 39.9699 28.0113 39.9307 27.9527C39.7769 27.7232 39.3547 27.4262 38.6059 27.275ZM36.7701 29.6986C36.7701 29.6986 36.7706 29.7008 36.771 29.7046C36.7704 29.7005 36.7701 29.6986 36.7701 29.6986ZM39.3412 23.6589C40.5686 23.9066 42.0918 24.5327 43.0106 25.9042C43.5146 26.6564 43.6777 27.4329 43.7318 28.0711C43.7675 28.4911 43.7578 28.9869 43.7511 29.3289C43.749 29.4365 43.7473 29.5288 43.7473 29.5989C43.7473 30.2387 43.5286 30.8054 43.3024 31.2241C43.0653 31.6632 42.75 32.0695 42.4004 32.4165C41.7619 33.0497 40.7019 33.7772 39.4308 33.7772C39.1426 33.7772 38.8256 33.782 38.4928 33.7869C37.7604 33.7978 36.9509 33.8099 36.2004 33.7753C35.3739 33.7372 34.7811 33.3058 34.4382 32.9692C34.0867 32.624 33.836 32.2248 33.6635 31.8927C33.5118 31.6008 33.3899 31.3013 33.2983 31.0227C33.366 31.5963 33.3763 32.3035 33.1472 33.0231C33.037 33.3692 32.9165 33.7401 32.7391 34.1016C32.545 34.497 32.3151 34.8201 32.0367 35.1505C31.2739 36.0555 30.3389 36.4766 29.7703 36.7327C29.6792 36.7738 29.5976 36.8105 29.5276 36.8443C28.6209 37.2826 27.503 37.4138 26.5078 37.3017C25.5333 37.1921 24.287 36.8007 23.456 35.7677C23.4373 35.7447 23.418 35.7207 23.3983 35.6962C23.1418 35.3791 22.7967 34.9522 22.5853 34.4481C22.3267 33.8318 22.3108 33.2394 22.3108 32.7466V32.717C22.3108 32.1439 22.3106 30.9204 22.5316 29.7308C22.6441 29.1254 22.8302 28.4317 23.1625 27.7986C23.4953 27.165 24.0526 26.4492 24.9664 26.0681C25.3495 25.9082 25.7644 25.8413 26.0716 25.8076C26.4134 25.7703 26.7834 25.7581 27.1478 25.7681C27.822 25.7866 28.717 25.887 29.4512 26.2021C29.4507 26.202 29.4506 26.2018 29.4506 26.2018C29.4506 26.2018 29.4777 26.2124 29.5507 26.2358C29.6238 26.259 29.7062 26.2836 29.8164 26.3165C29.8286 26.32 29.8411 26.3239 29.8541 26.3277C30.0901 26.3981 30.4288 26.4994 30.7643 26.6315C31.0867 26.7585 31.5243 26.9582 31.9179 27.2758C32.3242 27.6036 32.8175 28.1707 32.9202 29.0162C32.9388 29.1673 32.9753 29.3532 33.034 29.6205C33.0434 29.6631 33.0534 29.7086 33.064 29.7563C33.0674 29.7717 33.0708 29.7873 33.0744 29.8032V27.1399C33.0744 26.008 33.6388 25.2007 34.2341 24.6986C34.7642 24.2516 35.372 23.9996 35.6667 23.8774L35.6721 23.8752C36.7183 23.4414 38.1238 23.4132 39.3412 23.6589ZM26.4612 29.477C26.4558 29.4865 26.45 29.4971 26.4438 29.5088C26.3491 29.6894 26.2503 29.986 26.1728 30.4024C26.0181 31.2358 26.0139 32.1619 26.0139 32.7466C26.0139 32.898 26.0181 32.9919 26.0216 33.0454C26.0233 33.0477 26.0249 33.05 26.0266 33.0525C26.0884 33.1392 26.1776 33.2517 26.3455 33.4602C26.3416 33.4554 26.3424 33.456 26.3487 33.4605C26.3793 33.4817 26.5368 33.5919 26.9232 33.6354C27.3697 33.6857 27.7569 33.5995 27.9111 33.5248C28.0974 33.4347 28.2514 33.3623 28.3804 33.3014C28.8877 33.0623 29.0094 33.005 29.2009 32.7776C29.3487 32.6022 29.3879 32.5307 29.4125 32.4804C29.4538 32.3962 29.5018 32.2709 29.6174 31.9079C29.638 31.8429 29.664 31.6514 29.5762 31.1659C29.5425 30.9791 29.5023 30.7975 29.4543 30.5809C29.4421 30.5259 29.4294 30.4685 29.4163 30.4083C29.3913 30.2948 29.3645 30.17 29.3384 30.0381C29.1846 29.981 29.0076 29.9266 28.7919 29.8622C28.7792 29.8585 28.7663 29.8547 28.753 29.8507C28.6496 29.8199 28.5308 29.7844 28.4213 29.7495C28.3014 29.7112 28.1432 29.6582 27.9861 29.5907C27.963 29.5807 27.8619 29.5457 27.6663 29.5129C27.4822 29.4822 27.2668 29.4624 27.0462 29.4564C26.8247 29.4504 26.6257 29.4588 26.4757 29.4753C26.4708 29.4759 26.4658 29.4763 26.4612 29.477ZM26.5104 29.4016C26.5126 29.399 26.5138 29.3979 26.5138 29.3979C26.5138 29.3979 26.5128 29.3993 26.5104 29.4016Z" fill="#FF8200"/>
<path fill-rule="evenodd" clip-rule="evenodd" d="M62.7104 22.2316C62.5052 22.6161 62.2796 23.0069 62.0716 23.3671C61.9809 23.5243 61.8934 23.6759 61.8124 23.8184C61.4623 24.4355 61.1861 24.9651 61.0076 25.454C60.8471 25.8935 60.6698 26.2714 60.5105 26.5976C60.4643 26.6922 60.4213 26.7792 60.3805 26.8617C60.2719 27.0813 60.1789 27.2694 60.0829 27.4847C59.9359 27.8143 59.7595 28.073 59.6209 28.2587C59.5533 28.3493 59.4872 28.4324 59.4398 28.4918L59.4393 28.4922C59.4024 28.5385 59.3764 28.5714 59.3545 28.5994C59.2525 29.5221 58.4674 30.2399 57.5142 30.2399C56.4916 30.2399 55.6626 29.414 55.6626 28.3951C55.6626 27.4444 56.0832 26.7949 56.3659 26.4196C56.4257 26.3403 56.4864 26.2643 56.5301 26.2096C56.5335 26.2053 56.5367 26.2011 56.5399 26.1971C56.5898 26.1347 56.6214 26.0946 56.649 26.0576C56.6842 26.0105 56.6973 25.9882 56.7004 25.983C56.8285 25.696 56.9666 25.4168 57.0829 25.1817C57.1178 25.111 57.1508 25.0445 57.1809 24.9827C57.3214 24.6952 57.4328 24.4524 57.5274 24.1931C57.8172 23.3994 58.2232 22.6471 58.589 22.0025C58.7021 21.8032 58.8093 21.6173 58.9113 21.4406C59.1641 21.0027 59.3842 20.6211 59.5791 20.2327C59.982 19.4299 60.6965 18.5996 61.1881 18.1075C61.1867 18.1089 61.1858 18.1095 61.1858 18.1095C61.185 18.1087 61.2177 18.0692 61.3224 17.9358L61.3298 17.9266C61.4236 17.807 61.5962 17.5871 61.7826 17.3993C61.8754 17.3059 62.0422 17.1473 62.2654 17.0085C62.4302 16.9063 62.9971 16.5761 63.7507 16.7362C64.6657 16.9306 65.0588 17.6434 65.1898 18.0094C65.3146 18.3582 65.3273 18.6859 65.3273 18.874C65.3273 19.0747 65.4035 19.3093 65.7198 19.9447C65.7377 19.9805 65.7567 20.0184 65.7769 20.0583C66.0443 20.5895 66.4935 21.4817 66.5518 22.5277C66.618 23.7151 67.0133 24.9421 67.5161 26.4734L67.5345 26.5294C68.0031 27.956 68.5618 29.6572 68.6561 31.4427C68.6766 31.8298 68.7872 32.2436 68.9704 32.9281L68.9716 32.9327C69.1333 33.5376 69.3601 34.3865 69.3601 35.2957C69.3601 35.8166 69.3986 36.3772 69.4433 37.0258L69.4441 37.0352C69.487 37.6564 69.5354 38.357 69.5354 39.0517C69.5354 40.0707 68.7064 40.8965 67.6839 40.8965C66.6612 40.8965 65.8323 40.0707 65.8323 39.0517C65.8323 38.5015 65.7936 37.9238 65.749 37.2795L65.7456 37.23C65.7036 36.6235 65.657 35.9494 65.657 35.2957C65.657 34.9352 65.5658 34.5277 65.3933 33.8827C65.3815 33.8382 65.369 33.792 65.356 33.7442C65.2062 33.1888 64.9997 32.4241 64.9582 31.6367C64.8926 30.3975 64.495 29.1385 63.9966 27.6207C63.9814 27.5744 63.9661 27.528 63.9506 27.4811C63.4918 26.0854 62.9493 24.4352 62.8544 22.7323C62.847 22.5998 62.8095 22.462 62.7104 22.2316Z" fill="#FF8200"/>
<path fill-rule="evenodd" clip-rule="evenodd" d="M64.0207 28.0717C65.1044 27.5788 66.3944 27.1582 67.9567 27.1582C69.7559 27.1582 71.992 27.7127 73.7508 28.8071C74.8977 28.7955 75.934 29.5857 76.1864 30.7463C76.3549 31.5212 76.5126 32.3765 76.5214 33.197C76.5273 33.3214 76.5293 33.4458 76.5274 33.57C76.5424 33.994 76.587 34.4373 76.6427 34.9762L76.6467 35.0149C76.7112 35.6381 76.7897 36.3962 76.7897 37.2001C76.7897 38.0193 76.8298 38.8223 76.8743 39.6956L76.8755 39.7205C76.9186 40.5691 76.965 41.4862 76.965 42.4412C76.965 42.4404 76.965 42.4399 76.965 42.4399C76.9655 42.4399 76.9721 42.5136 77.0679 42.899C77.0725 42.9173 77.0775 42.937 77.0827 42.958C77.1613 43.2706 77.3157 43.8849 77.3157 44.5375C77.3157 44.7209 77.3224 45.0273 77.3457 45.3121C77.356 45.4374 77.3676 45.5341 77.378 45.6005C77.7911 46.5812 77.9756 47.6054 78.1009 48.408C78.1418 48.6697 78.1765 48.9061 78.2085 49.124C78.2932 49.7012 78.3586 50.1481 78.4694 50.5892C78.6839 51.4443 78.8723 52.2856 79.0526 53.0911L79.0548 53.1004C79.2379 53.9183 79.4129 54.6991 79.609 55.4808C79.6246 55.5426 79.6552 55.6521 79.694 55.7909C79.807 56.1946 79.9894 56.8466 80.0716 57.297C80.1401 57.6728 80.1358 58.0039 80.1259 58.2144C80.1208 58.3246 80.1128 58.4253 80.1063 58.5011C80.1032 58.5358 80.1012 58.5597 80.0995 58.5786C80.162 58.7358 80.2279 58.9139 80.2807 59.0911C80.3705 59.3937 80.5259 60.0129 80.362 60.7399C80.1711 61.5877 79.6512 62.1679 79.1378 62.5226C78.6971 62.8273 78.2247 62.9944 77.8914 63.0966C77.5498 63.2013 77.1984 63.3199 76.8034 63.4533L76.7959 63.4558C76.4142 63.5846 75.9926 63.727 75.562 63.859C74.6996 64.1237 73.6907 64.3839 72.607 64.4609C72.4407 64.4727 72.1971 64.5227 71.8028 64.6423C71.7268 64.6653 71.5837 64.7116 71.4135 64.7665C71.0969 64.8687 70.6868 65.0011 70.4402 65.0713C70.1437 65.1557 69.8538 65.2048 69.6486 65.2363C69.5396 65.2529 69.4321 65.268 69.34 65.2806L69.3045 65.2855C69.2225 65.2967 69.1528 65.3064 69.0835 65.3166C68.9649 65.3339 68.8848 65.3479 68.8302 65.359C68.7731 65.3919 68.7002 65.434 68.6199 65.4797C68.4494 65.5765 68.2228 65.7023 67.9863 65.821C67.7745 65.9273 67.4497 66.0818 67.107 66.1882C66.9501 66.237 66.6368 66.3252 66.2551 66.3355C65.9701 66.3432 64.9146 66.328 64.1522 65.3784C63.6834 64.7946 63.4188 64.1053 63.2705 63.6405C63.1067 63.1269 62.9948 62.5952 62.9386 62.1475C62.8044 61.0772 62.3363 59.5403 61.8562 58.4642C61.6236 57.9426 61.4964 57.4452 61.4126 57.0881C61.3785 56.9433 61.3528 56.8289 61.3312 56.7322C61.2892 56.5454 61.2622 56.4255 61.2192 56.2812C61.1496 56.0467 61.0775 55.8441 60.9865 55.5878C60.9241 55.412 60.8527 55.2109 60.7669 54.9569C60.5939 54.4453 60.3761 53.7481 60.2949 53.02C60.1969 52.1416 59.8985 51.2403 59.4722 50.1163C59.417 49.9706 59.3585 49.8187 59.298 49.6617C58.9295 48.7046 58.4859 47.5522 58.2247 46.3813C58.167 46.1226 58.0426 45.8368 57.7955 45.2689C57.7617 45.1913 57.7256 45.1084 57.687 45.0197C57.4421 44.4551 57.0218 43.4862 56.9541 42.4358C56.9504 42.4204 56.9362 42.3631 56.893 42.2515C56.8211 42.0661 56.7266 41.869 56.5764 41.5552C56.5674 41.5366 56.5585 41.5177 56.5491 41.4983C56.5373 41.4736 56.5247 41.4474 56.5114 41.4199C56.3042 40.9898 55.9396 40.2328 55.789 39.3471C55.2463 38.2316 55.2923 37.0912 55.4718 36.2491C55.683 35.2572 56.1286 34.404 56.4228 33.8908C57.5696 31.8912 59.4805 30.3917 61.3196 29.4754C61.6563 29.3077 61.9795 29.1314 62.3457 28.9318C62.4153 28.8939 62.4862 28.8551 62.5594 28.8153C62.9957 28.5779 63.4923 28.3121 64.0207 28.0717ZM61.9939 42.516C62.0916 42.5256 62.1841 42.5328 62.2708 42.5385C62.6935 42.5661 63.1469 42.5629 63.4578 42.5606C63.5308 42.5602 63.5961 42.5595 63.651 42.5595C64.6669 42.5595 65.6592 42.4831 66.5447 42.415C66.71 42.4023 66.8714 42.3898 67.0286 42.3781C67.4853 42.3445 68.1349 42.2535 68.7723 42.0962C69.094 42.0167 69.4589 41.9092 69.8166 41.7627C70.1452 41.6282 70.6217 41.3998 71.0499 41.0159C71.3304 40.7642 71.6377 40.5032 71.9579 40.2389C71.9959 40.9999 72.0275 41.714 72.0275 42.4412C72.0275 43.0953 72.1819 43.7098 72.2606 44.0231C72.2659 44.044 72.2708 44.0635 72.2753 44.0815C72.3703 44.4643 72.3776 44.5392 72.3782 44.5392C72.3782 44.5392 72.3782 44.5385 72.3782 44.5375C72.3782 44.8044 72.3869 45.2526 72.4247 45.7132C72.452 46.0459 72.5195 46.8175 72.8053 47.4583C72.9766 47.8421 73.098 48.3693 73.2222 49.1641C73.2449 49.3103 73.2687 49.4731 73.2941 49.6474C73.387 50.2853 73.5027 51.0787 73.6792 51.7823C73.8771 52.5704 74.0528 53.3544 74.2358 54.1718L74.24 54.1901C74.4196 54.9924 74.6067 55.828 74.819 56.674C74.9125 57.0469 74.9849 57.2958 75.0437 57.4983C75.1034 57.7037 75.1492 57.8614 75.1893 58.0526C75.1883 58.0654 75.1869 58.0799 75.1853 58.0977C75.1818 58.1364 75.1767 58.1913 75.1691 58.2817C75.1593 58.4019 75.1446 58.5946 75.1471 58.8182C74.7815 58.9415 74.4436 59.0547 74.1083 59.1577C73.3898 59.3783 72.793 59.5157 72.2552 59.554C71.5316 59.6055 70.8678 59.7834 70.3637 59.9365C70.0348 60.0363 69.836 60.1025 69.6647 60.1596C69.4814 60.2206 69.3296 60.2712 69.0838 60.3411C69.0852 60.3407 69.0851 60.3408 69.083 60.3413C69.0732 60.3434 69.0215 60.3551 68.8982 60.374C68.7931 60.39 68.7319 60.3983 68.6581 60.4083C68.5878 60.4177 68.5061 60.4288 68.364 60.4497C68.1764 60.4772 67.9332 60.5158 67.6789 60.5743C67.393 59.152 66.8797 57.613 66.3682 56.4663C66.3289 56.3779 66.2852 56.2441 66.2202 55.9672C66.2099 55.923 66.1972 55.8667 66.1826 55.8018C66.1284 55.5608 66.0473 55.1998 65.9533 54.8836C65.8519 54.5425 65.7019 54.1171 65.5808 53.7735C65.5285 53.625 65.4816 53.4918 65.4463 53.3871C65.2911 52.9281 65.2215 52.65 65.2022 52.4767C65.0298 50.9308 64.5265 49.5257 64.0909 48.3774C64.0213 48.1936 63.9538 48.0174 63.8886 47.8472C63.5151 46.8715 63.2202 46.1017 63.0446 45.3141C62.8741 44.5495 62.5296 43.7708 62.3076 43.2687C62.2753 43.1955 62.2455 43.1283 62.2193 43.0679C62.1229 42.8456 62.0496 42.6682 61.9939 42.516ZM75.194 57.9764C75.194 57.9764 75.194 57.979 75.1938 57.9838C75.1938 57.9787 75.194 57.9764 75.194 57.9764ZM71.5848 33.3717C71.5853 33.435 71.5862 33.4982 71.5878 33.5611C71.5663 33.875 71.4287 34.2501 71.2532 34.4784C71.2509 34.4807 71.2235 34.5117 71.157 34.5731C71.0755 34.6483 70.9682 34.739 70.8322 34.8476C70.6964 34.956 70.5524 35.0659 70.3935 35.1868C70.3825 35.1951 70.3714 35.2035 70.3602 35.2121C70.219 35.3196 70.0573 35.4424 69.9115 35.5587C69.2802 36.0618 68.5496 36.6492 67.8905 37.2314C67.8212 37.2563 67.7195 37.2879 67.5853 37.3209C67.2377 37.4067 66.8646 37.4573 66.6638 37.4722C66.477 37.486 66.2958 37.4999 66.119 37.5134C65.234 37.581 64.4599 37.6401 63.651 37.6401C63.5273 37.6401 63.4165 37.6408 63.3151 37.6414C63.032 37.6431 62.8205 37.6444 62.5943 37.6296C62.3698 37.6148 62.2807 37.5896 62.2749 37.5892C61.6956 37.3315 61.0868 37.2553 60.8109 37.2214C60.576 37.1927 60.4478 37.1802 60.3608 37.1718C60.3491 37.1706 60.338 37.1695 60.3275 37.1684C60.3534 37.0789 60.392 36.9718 60.4458 36.8482C60.5207 36.6763 60.6118 36.5021 60.7097 36.3316C61.2446 35.3989 62.2961 34.4891 63.5277 33.8756C63.9542 33.6631 64.3699 33.4362 64.7347 33.2371C64.7998 33.2016 64.8633 33.1669 64.9251 33.1334C65.3531 32.9006 65.7161 32.7084 66.0712 32.5469C66.7549 32.2359 67.3281 32.0777 67.9567 32.0777C69.2545 32.0777 70.8541 32.6506 71.572 33.3023C71.5759 33.3165 71.581 33.3392 71.5848 33.3717ZM68.7672 65.3733C68.761 65.3753 68.7579 65.376 68.7579 65.376C68.7579 65.376 68.7609 65.375 68.7672 65.3733Z" fill="#FF8200"/>
<path d="M108.036 49.968C109.252 51.504 110.148 52.784 110.724 53.808C111.3 54.8 111.588 55.968 111.588 57.312C111.588 57.856 111.54 58.448 111.444 59.088C110.932 61.936 109.604 63.888 107.46 64.944C105.316 65.968 102.564 66.48 99.204 66.48C98.212 66.48 95.108 66.288 89.892 65.904C89.796 63.504 89.748 59.664 89.748 54.384C89.748 48.656 89.764 43.488 89.796 38.88V32.64C92.612 31.84 95.316 31.44 97.908 31.44C101.524 31.44 104.484 32.24 106.788 33.84C109.124 35.408 110.292 38 110.292 41.616C110.292 43.952 109.476 46.496 107.844 49.248V49.2C107.78 49.328 107.748 49.424 107.748 49.488C107.748 49.584 107.844 49.728 108.036 49.92V49.968ZM102.708 41.616C102.228 40.72 101.62 40.176 100.884 39.984C100.372 39.92 99.972 39.888 99.684 39.888C98.852 39.824 98.228 39.744 97.812 39.648C97.908 40.192 97.956 41.024 97.956 42.144V43.872C97.956 44.672 97.972 45.296 98.004 45.744H99.396C100.804 45.744 101.764 45.264 102.276 44.304C102.692 43.536 102.9 42.912 102.9 42.432C102.9 42.144 102.836 41.872 102.708 41.616ZM102.708 56.352C102.708 55.808 102.612 55.216 102.42 54.576V54.624C102.26 54.272 102.036 53.952 101.748 53.664C101.46 53.376 101.172 53.2 100.884 53.136C100.372 53.008 99.62 52.912 98.628 52.848C98.532 52.848 98.42 52.864 98.292 52.896C98.196 52.896 98.084 52.88 97.956 52.848C97.636 54.192 97.476 55.36 97.476 56.352C97.476 57.504 97.652 58.4 98.004 59.04C99.156 59.072 100.052 59.04 100.692 58.944C101.364 58.816 101.924 58.48 102.372 57.936C102.596 57.616 102.708 57.088 102.708 56.352ZM132.885 66.144C131.861 66.368 130.757 66.48 129.573 66.48C128.165 66.48 126.629 66.304 124.965 65.952C124.741 65.344 124.389 64.064 123.909 62.112C123.429 60.128 123.045 58.816 122.757 58.176L121.797 58.128L120.981 58.176C120.853 58.56 120.645 59.504 120.357 61.008C120.133 62.256 119.909 63.28 119.685 64.08C119.461 64.848 119.141 65.552 118.725 66.192C118.405 66.256 117.925 66.288 117.285 66.288C116.997 66.288 116.373 66.256 115.413 66.192C112.629 66.064 111.077 66 110.757 66C110.757 65.84 110.789 65.472 110.853 64.896C110.917 64.288 111.013 63.616 111.141 62.88L112.197 56.832C113.029 51.872 113.813 47.552 114.549 43.872C115.317 40.192 116.309 36.304 117.525 32.208C117.973 32.144 118.581 32.112 119.349 32.112H119.637C121.717 32.112 123.749 32.032 125.733 31.872C126.117 33.376 126.469 34.864 126.789 36.336C127.109 37.776 127.397 39.072 127.653 40.224C128.677 44.672 129.365 47.632 129.717 49.104L132.885 66.144ZM122.853 52.032C122.149 45.632 121.813 42.432 121.845 42.432L121.797 41.952C121.797 41.952 121.765 42.336 121.701 43.104C121.605 45.504 121.461 47.408 121.269 48.816L120.837 52.032H122.853ZM152.497 57.072C153.777 59.024 154.801 60.672 155.569 62.016C156.369 63.36 157.025 64.72 157.537 66.096H156.769C156.385 66.096 155.521 66.128 154.177 66.192C152.833 66.256 151.761 66.288 150.961 66.288C150.513 66.288 149.841 66.256 148.945 66.192L148.129 66.144C146.049 61.408 144.193 57.856 142.561 55.488V56.736C142.561 58.72 142.673 61.28 142.897 64.416V64.368C142.929 64.592 142.945 64.976 142.945 65.52C141.857 66.032 140.065 66.288 137.569 66.288L136.417 66.24H133.873C133.521 66.24 133.345 63.344 133.345 57.552C133.345 52.304 133.297 47.056 133.201 41.808C133.105 36.528 132.961 33.36 132.769 32.304L134.065 32.112C135.985 31.856 137.569 31.664 138.817 31.536C140.065 31.408 141.345 31.344 142.657 31.344C144.065 31.344 145.265 31.408 146.257 31.536C148.113 31.76 149.841 32.4 151.441 33.456C153.073 34.512 154.369 35.808 155.329 37.344C156.321 38.88 156.817 40.464 156.817 42.096C156.817 43.664 156.305 45.376 155.281 47.232C154.641 48.384 153.793 49.344 152.737 50.112C151.681 50.88 150.417 51.344 148.945 51.504C149.809 53.04 150.817 54.64 151.969 56.304C152.193 56.688 152.369 56.944 152.497 57.072ZM145.585 44.832C146.033 44.704 146.385 44.384 146.641 43.872C146.897 43.36 147.025 42.752 147.025 42.048C147.025 40.736 146.705 39.888 146.065 39.504C145.649 39.248 145.217 39.088 144.769 39.024C144.353 38.96 143.873 38.928 143.329 38.928L141.265 39.264C141.329 40.224 141.361 41.04 141.361 41.712C141.361 43.44 141.409 44.496 141.505 44.88C142.049 44.944 142.721 44.976 143.521 44.976C144.257 44.976 144.945 44.928 145.585 44.832ZM177.341 57.072C178.621 59.024 179.645 60.672 180.413 62.016C181.213 63.36 181.869 64.72 182.381 66.096H181.613C181.229 66.096 180.365 66.128 179.021 66.192C177.677 66.256 176.605 66.288 175.805 66.288C175.357 66.288 174.685 66.256 173.789 66.192L172.973 66.144C170.893 61.408 169.037 57.856 167.405 55.488V56.736C167.405 58.72 167.517 61.28 167.741 64.416V64.368C167.773 64.592 167.789 64.976 167.789 65.52C166.701 66.032 164.909 66.288 162.413 66.288L161.261 66.24H158.717C158.365 66.24 158.189 63.344 158.189 57.552C158.189 52.304 158.141 47.056 158.045 41.808C157.949 36.528 157.805 33.36 157.613 32.304L158.909 32.112C160.829 31.856 162.413 31.664 163.661 31.536C164.909 31.408 166.189 31.344 167.501 31.344C168.909 31.344 170.109 31.408 171.101 31.536C172.957 31.76 174.685 32.4 176.285 33.456C177.917 34.512 179.213 35.808 180.173 37.344C181.165 38.88 181.661 40.464 181.661 42.096C181.661 43.664 181.149 45.376 180.125 47.232C179.485 48.384 178.637 49.344 177.581 50.112C176.525 50.88 175.261 51.344 173.789 51.504C174.653 53.04 175.661 54.64 176.813 56.304C177.037 56.688 177.213 56.944 177.341 57.072ZM170.429 44.832C170.877 44.704 171.229 44.384 171.485 43.872C171.741 43.36 171.869 42.752 171.869 42.048C171.869 40.736 171.549 39.888 170.909 39.504C170.493 39.248 170.061 39.088 169.613 39.024C169.197 38.96 168.717 38.928 168.173 38.928L166.109 39.264C166.173 40.224 166.205 41.04 166.205 41.712C166.205 43.44 166.253 44.496 166.349 44.88C166.893 44.944 167.565 44.976 168.365 44.976C169.101 44.976 169.789 44.928 170.429 44.832ZM203.385 66.144C202.361 66.368 201.257 66.48 200.073 66.48C198.665 66.48 197.129 66.304 195.465 65.952C195.241 65.344 194.889 64.064 194.409 62.112C193.929 60.128 193.545 58.816 193.257 58.176L192.297 58.128L191.481 58.176C191.353 58.56 191.145 59.504 190.857 61.008C190.633 62.256 190.409 63.28 190.185 64.08C189.961 64.848 189.641 65.552 189.225 66.192C188.905 66.256 188.425 66.288 187.785 66.288C187.497 66.288 186.873 66.256 185.913 66.192C183.129 66.064 181.577 66 181.257 66C181.257 65.84 181.289 65.472 181.353 64.896C181.417 64.288 181.513 63.616 181.641 62.88L182.697 56.832C183.529 51.872 184.313 47.552 185.049 43.872C185.817 40.192 186.809 36.304 188.025 32.208C188.473 32.144 189.081 32.112 189.849 32.112H190.137C192.217 32.112 194.249 32.032 196.233 31.872C196.617 33.376 196.969 34.864 197.289 36.336C197.609 37.776 197.897 39.072 198.153 40.224C199.177 44.672 199.865 47.632 200.217 49.104L203.385 66.144ZM193.353 52.032C192.649 45.632 192.313 42.432 192.345 42.432L192.297 41.952C192.297 41.952 192.265 42.336 192.201 43.104C192.105 45.504 191.961 47.408 191.769 48.816L191.337 52.032H193.353ZM225.445 65.904C224.389 66.16 223.253 66.288 222.037 66.288C221.429 66.288 220.581 66.256 219.493 66.192C219.141 66.16 218.485 66.144 217.525 66.144C216.661 65.12 215.893 63.984 215.221 62.736C214.549 61.456 213.797 59.872 212.965 57.984C212.805 57.664 212.661 57.312 212.533 56.928C212.437 56.512 212.389 56.272 212.389 56.208L212.245 55.632L212.053 55.008C212.053 56.64 212.085 58.672 212.149 61.104C212.213 63.088 212.245 64.672 212.245 65.856C211.093 66.176 209.749 66.336 208.213 66.336C206.645 66.336 205.173 66.176 203.797 65.856C203.669 63.072 203.605 59.92 203.605 56.4C203.605 52.592 203.653 48.8 203.749 45.024C203.845 41.184 203.893 36.912 203.893 32.208C204.949 32.176 206.437 32.192 208.357 32.256C208.965 32.288 210.101 32.304 211.765 32.304C211.797 33.52 211.813 36.496 211.813 41.232V42.192C212.869 40.496 213.733 38.96 214.405 37.584C215.525 35.44 216.597 33.648 217.621 32.208L220.789 32.256C222.421 32.192 223.957 32.272 225.397 32.496C225.013 33.84 224.485 35.184 223.813 36.528C223.141 37.84 222.197 39.552 220.981 41.664L220.693 42.144C219.477 44.064 218.309 46.272 217.189 48.768L225.445 65.904ZM247.716 33.648C247.876 37.072 247.956 40.24 247.956 43.152C247.956 48.688 247.684 53.904 247.14 58.8C246.884 61.008 245.988 62.864 244.452 64.368C242.948 65.84 240.996 66.688 238.596 66.912H238.644C238.068 66.976 237.54 67.008 237.06 67.008C235.172 67.008 233.364 66.704 231.636 66.096C229.908 65.52 228.468 64.624 227.316 63.408C226.196 62.192 225.604 60.704 225.54 58.944C225.54 56.608 225.572 53.104 225.636 48.432L225.684 45.312C225.748 41.92 225.78 39.408 225.78 37.776C225.78 35.664 225.764 34.112 225.732 33.12H226.932L229.812 33.024C231.38 33.024 232.756 33.2 233.94 33.552C233.812 37.136 233.748 39.888 233.748 41.808C233.748 46.448 233.956 51.584 234.372 57.216V57.168C234.564 57.808 234.852 58.304 235.236 58.656C235.62 58.976 236.036 59.136 236.484 59.136C236.996 59.136 237.476 58.928 237.924 58.512C238.372 58.096 238.676 57.568 238.836 56.928V56.976C238.964 54.032 239.06 49.376 239.124 43.008L239.172 39.936C239.172 38.4 239.204 36.288 239.268 33.6L240.276 33.456C240.724 33.456 241.332 33.408 242.1 33.312C243.412 33.184 244.196 33.136 244.452 33.168C245.828 33.168 246.788 33.328 247.332 33.648H247.716ZM268.159 36.24C269.663 38.608 270.655 40.992 271.135 43.392V43.344C271.391 44.144 271.551 45.184 271.615 46.464C271.551 47.424 271.519 48.144 271.519 48.624L271.471 49.392C271.471 49.616 271.439 50.368 271.375 51.648C271.311 52.928 271.151 54.192 270.895 55.44C270.287 57.232 269.439 58.992 268.351 60.72C267.295 62.416 266.031 64.176 264.559 66C261.871 66.064 259.663 66.096 257.935 66.096L254.479 66.144L250.735 66.192C250.159 62 249.871 56.72 249.871 50.352C249.871 47.568 249.887 45.488 249.919 44.112C249.951 42.864 249.967 40.72 249.967 37.68C249.967 36.912 249.935 35.76 249.871 34.224L249.823 32.784L250.159 32.736C251.855 32.288 253.823 32.064 256.063 32.064L257.311 32.112H258.607C259.023 32.144 259.663 32.16 260.527 32.16C261.391 32.16 262.031 32.144 262.447 32.112C263.631 32.432 264.767 33.008 265.855 33.84C266.943 34.64 267.807 35.568 268.447 36.624L268.159 36.24ZM263.791 49.536C263.791 48.96 263.727 48.4 263.599 47.856C263.343 46.512 263.039 45.424 262.687 44.592C262.335 43.728 261.791 43.168 261.055 42.912H261.151C260.383 42.848 259.807 42.816 259.423 42.816C258.783 42.816 258.367 42.848 258.175 42.912C258.239 44.064 258.271 45.152 258.271 46.176V47.424L258.223 48.72C258.191 49.456 258.175 50.56 258.175 52.032C258.175 53.44 258.159 54.512 258.127 55.248C258.607 55.44 258.943 55.536 259.135 55.536H259.759C260.271 55.536 260.639 55.488 260.863 55.392C261.375 55.264 261.951 54.688 262.591 53.664C263.391 52.448 263.791 51.072 263.791 49.536ZM294.915 61.728C294.915 63.36 294.739 64.816 294.387 66.096C292.979 66.096 290.899 66.128 288.147 66.192L281.859 66.24C279.011 66.24 276.163 66.144 273.315 65.952C273.347 64.928 273.299 60.944 273.171 54C273.075 50.064 273.027 47.04 273.027 44.928C273.027 40.544 273.139 36.464 273.363 32.688L277.587 32.544C282.323 32.352 285.939 32.256 288.435 32.256C290.579 32.256 292.659 32.336 294.675 32.496C294.803 33.168 294.867 33.952 294.867 34.848C294.867 35.328 294.835 36.112 294.771 37.2C294.707 38.224 294.675 39.024 294.675 39.6C292.755 40.016 290.611 40.224 288.243 40.224L282.003 40.272C281.843 41.776 281.763 43.024 281.763 44.016C281.763 44.784 281.859 45.456 282.051 46.032L285.219 45.648C285.667 45.648 286.339 45.68 287.235 45.744L287.859 45.792C288.019 46.752 288.099 47.792 288.099 48.912L288.003 52.752C286.979 53.04 285.603 53.184 283.875 53.184L282.627 53.136C282.403 53.136 282.259 53.168 282.195 53.232L282.003 55.728C282.003 57.04 282.067 58.128 282.195 58.992C283.859 58.992 285.475 59.04 287.043 59.136C287.587 59.168 288.259 59.2 289.059 59.232C289.859 59.264 290.803 59.28 291.891 59.28L294.819 59.184C294.883 60.656 294.915 61.504 294.915 61.728ZM317.304 43.488C315.96 43.712 314.632 43.824 313.32 43.824C311.752 43.824 310.376 43.648 309.192 43.296C309.256 42.976 309.288 42.752 309.288 42.624C309.288 41.888 309.016 41.28 308.472 40.8C307.928 40.32 307.32 40.08 306.648 40.08C306.168 40.08 305.736 40.24 305.352 40.56C305 40.848 304.792 41.296 304.728 41.904C304.632 42.192 304.584 42.448 304.584 42.672L304.632 43.104C304.632 43.168 304.632 43.2 304.632 43.2C304.856 43.872 305.176 44.336 305.592 44.592C306.04 44.848 306.568 45.024 307.176 45.12C308.776 45.344 310.392 45.936 312.024 46.896C313.656 47.856 314.968 48.976 315.96 50.256C316.568 51.088 317.048 52.016 317.4 53.04C317.752 54.032 317.928 55.008 317.928 55.968C317.928 57.632 317.56 59.248 316.824 60.816C315.992 62.608 314.712 64 312.984 64.992C311.256 65.984 309.368 66.48 307.32 66.48C305.24 66.48 303.208 66.08 301.224 65.28C299.272 64.448 297.688 63.264 296.472 61.728C295.256 60.192 294.712 58.416 294.84 56.4V55.968C295.768 55.808 296.792 55.728 297.912 55.728C298.872 55.728 299.688 55.744 300.36 55.776C300.968 55.808 302.056 55.824 303.624 55.824C303.656 56.784 303.944 57.536 304.488 58.08C305.064 58.624 305.72 58.896 306.456 58.896C307.096 58.896 307.624 58.688 308.04 58.272C308.488 57.856 308.712 57.264 308.712 56.496C308.712 56.208 308.696 55.984 308.664 55.824C308.504 54.64 307.944 53.808 306.984 53.328C306.024 52.848 304.728 52.448 303.096 52.128L302.376 51.984C301 51.728 299.8 51.168 298.776 50.304C297.624 49.184 296.76 47.984 296.184 46.704C295.608 45.424 295.32 44.144 295.32 42.864C295.32 40.784 295.944 38.832 297.192 37.008C298.472 35.152 300.12 33.808 302.136 32.976C303.384 32.464 304.936 32.208 306.792 32.208C309.192 32.208 311.384 32.656 313.368 33.552C314.84 34.32 316.008 35.328 316.872 36.576C317.736 37.824 318.168 39.296 318.168 40.992C318.168 41.632 318.072 42.464 317.88 43.488H317.304Z" fill="#FF8200"/>
<path opacity="0.7" d="M102.58 79.816C102.58 80.776 102.601 82.2587 102.644 84.264L102.676 85.512C102.719 86.792 102.74 87.8373 102.74 88.648C102.74 89.4587 102.729 90.0667 102.708 90.472C102.687 90.7493 102.676 91.1867 102.676 91.784C102.633 93.3413 102.537 94.6427 102.388 95.688C102.239 96.7333 101.876 97.7147 101.3 98.632C100.745 99.5493 99.8813 100.221 98.708 100.648V100.616C97.6627 101.149 96.3933 101.416 94.9 101.416C94.0467 101.416 93.2147 101.331 92.404 101.16C90.8467 100.691 89.7373 99.6667 89.076 98.088C88.436 96.488 88.116 94.7067 88.116 92.744L88.148 92.264V91.72C88.7667 91.5493 89.5987 91.464 90.644 91.464C91.86 91.464 93.0013 91.5707 94.068 91.784V92.04C94.2387 94.3013 94.7507 95.464 95.604 95.528C96.0093 95.6133 96.3187 95.4533 96.532 95.048C96.7667 94.6213 96.916 94.088 96.98 93.448C96.8947 89.864 96.852 86.8453 96.852 84.392C96.852 82.4507 96.884 80.488 96.948 78.504V78.12L102.58 78.056V79.816ZM118.289 84.04C118.353 84.7013 118.385 85.3733 118.385 86.056L118.353 86.632V87.208C118.31 87.912 118.289 88.9467 118.289 90.312C118.289 91.8267 118.257 92.9787 118.193 93.768L118.097 94.824C117.99 96.552 117.553 98.024 116.785 99.24C116.465 99.688 115.985 100.083 115.345 100.424C114.705 100.765 114.001 101.043 113.233 101.256C112.443 101.491 111.515 101.608 110.449 101.608C109.958 101.608 109.617 101.597 109.425 101.576C108.379 101.491 107.441 101.267 106.609 100.904C105.798 100.52 105.201 99.9653 104.817 99.24C104.305 98.28 104.027 97.0747 103.985 95.624L103.921 94.6C103.899 94.4293 103.889 94.0773 103.889 93.544C103.782 91.7947 103.729 90.12 103.729 88.52C103.729 87.5387 103.761 86.5573 103.825 85.576C103.889 84.5093 104.07 83.4747 104.368 82.472C104.689 81.448 105.169 80.552 105.809 79.784L106.513 79.4C107.878 78.7387 109.371 78.408 110.993 78.408C112.017 78.408 112.977 78.5467 113.873 78.824C114.79 79.08 115.59 79.464 116.273 79.976C117.019 80.6587 117.51 81.3307 117.745 81.992C118.001 82.6747 118.182 83.3573 118.289 84.04ZM113.329 87.528L113.201 85.864C113.158 85.2667 113.009 84.744 112.753 84.296C112.518 83.8267 112.209 83.496 111.825 83.304C111.654 83.24 111.483 83.208 111.312 83.208C110.801 83.208 110.299 83.3787 109.809 83.72C109.553 83.9333 109.297 84.2427 109.041 84.648C108.806 85.032 108.625 85.4267 108.497 85.832C108.283 86.7707 108.177 87.9653 108.177 89.416C108.177 90.1413 108.187 90.6853 108.209 91.048V91.016C108.294 91.4427 108.358 92.008 108.401 92.712L108.433 93.16C108.518 94.2267 108.635 95.016 108.785 95.528V95.496C108.977 95.9227 109.254 96.2533 109.617 96.488C110.001 96.7013 110.406 96.808 110.833 96.808C111.174 96.808 111.515 96.7333 111.857 96.584C112.219 96.4133 112.529 96.1787 112.785 95.88C112.998 95.6027 113.126 95.368 113.169 95.176C113.233 94.984 113.265 94.6853 113.265 94.28C113.265 93.9173 113.275 93.6507 113.297 93.48L113.329 93.064L113.361 92.456V92.008L113.393 91.4V89.864L113.329 87.688V87.528ZM133.315 78.952C132.653 82.472 131.907 85.896 131.075 89.224C130.243 92.552 129.197 96.52 127.939 101.128C127.469 101.128 127.149 101.139 126.979 101.16L126.659 101.192C126.275 101.235 125.88 101.256 125.475 101.256C124.131 101.256 123.085 101.128 122.339 100.872C120.483 94.3227 119.235 87.1013 118.595 79.208C118.787 78.9947 119.181 78.8347 119.779 78.728C120.376 78.6213 121.037 78.568 121.763 78.568C122.445 78.568 123.213 78.6427 124.067 78.792L124.259 81.64C124.387 83.752 124.525 85.5867 124.675 87.144C124.824 88.68 125.037 90.2053 125.315 91.72C125.571 90.5467 125.965 88.4133 126.499 85.32C127.139 81.544 127.565 79.2933 127.779 78.568C128.611 78.7387 129.56 78.824 130.627 78.824C131.693 78.824 132.451 78.8667 132.899 78.952H133.315ZM148.016 98.152C148.016 99.24 147.899 100.211 147.664 101.064C146.726 101.064 145.339 101.085 143.504 101.128L139.312 101.16C137.414 101.16 135.515 101.096 133.616 100.968C133.638 100.285 133.606 97.6293 133.52 93C133.456 90.376 133.424 88.36 133.424 86.952C133.424 84.0293 133.499 81.3093 133.648 78.792L136.464 78.696C139.622 78.568 142.032 78.504 143.696 78.504C145.126 78.504 146.512 78.5573 147.856 78.664C147.942 79.112 147.984 79.6347 147.984 80.232C147.984 80.552 147.963 81.0747 147.92 81.8C147.878 82.4827 147.856 83.016 147.856 83.4C146.576 83.6773 145.147 83.816 143.568 83.816L139.408 83.848C139.302 84.8507 139.248 85.6827 139.248 86.344C139.248 86.856 139.312 87.304 139.44 87.688L141.552 87.432C141.851 87.432 142.299 87.4533 142.896 87.496L143.312 87.528C143.419 88.168 143.472 88.8613 143.472 89.608L143.408 92.168C142.726 92.36 141.808 92.456 140.656 92.456L139.824 92.424C139.675 92.424 139.579 92.4453 139.536 92.488L139.408 94.152C139.408 95.0267 139.451 95.752 139.536 96.328C140.646 96.328 141.723 96.36 142.768 96.424C143.131 96.4453 143.579 96.4667 144.112 96.488C144.646 96.5093 145.275 96.52 146 96.52L147.952 96.456C147.995 97.4373 148.016 98.0027 148.016 98.152ZM162.943 85.992C162.047 86.1413 161.161 86.216 160.287 86.216C159.241 86.216 158.324 86.0987 157.535 85.864C157.577 85.6507 157.599 85.5013 157.599 85.416C157.599 84.9253 157.417 84.52 157.055 84.2C156.692 83.88 156.287 83.72 155.839 83.72C155.519 83.72 155.231 83.8267 154.975 84.04C154.74 84.232 154.601 84.5307 154.559 84.936C154.495 85.128 154.463 85.2987 154.463 85.448L154.495 85.736C154.495 85.7787 154.495 85.8 154.495 85.8C154.644 86.248 154.857 86.5573 155.135 86.728C155.433 86.8987 155.785 87.016 156.191 87.08C157.257 87.2293 158.335 87.624 159.423 88.264C160.511 88.904 161.385 89.6507 162.047 90.504C162.452 91.0587 162.772 91.6773 163.007 92.36C163.241 93.0213 163.359 93.672 163.359 94.312C163.359 95.4213 163.113 96.4987 162.623 97.544C162.068 98.7387 161.215 99.6667 160.063 100.328C158.911 100.989 157.652 101.32 156.286 101.32C154.9 101.32 153.545 101.053 152.223 100.52C150.921 99.9653 149.865 99.176 149.055 98.152C148.244 97.128 147.881 95.944 147.966 94.6V94.312C148.585 94.2053 149.268 94.152 150.015 94.152C150.655 94.152 151.199 94.1627 151.647 94.184C152.052 94.2053 152.777 94.216 153.823 94.216C153.844 94.856 154.036 95.3573 154.399 95.72C154.783 96.0827 155.22 96.264 155.711 96.264C156.137 96.264 156.489 96.1253 156.767 95.848C157.065 95.5707 157.215 95.176 157.215 94.664C157.215 94.472 157.204 94.3227 157.183 94.216C157.076 93.4267 156.703 92.872 156.062 92.552C155.423 92.232 154.559 91.9653 153.471 91.752L152.991 91.656C152.073 91.4853 151.273 91.112 150.591 90.536C149.823 89.7893 149.247 88.9893 148.863 88.136C148.479 87.2827 148.287 86.4293 148.287 85.576C148.287 84.1893 148.703 82.888 149.535 81.672C150.388 80.4347 151.487 79.5387 152.831 78.984C153.663 78.6427 154.697 78.472 155.935 78.472C157.535 78.472 158.996 78.7707 160.319 79.368C161.3 79.88 162.079 80.552 162.655 81.384C163.231 82.216 163.519 83.1973 163.519 84.328C163.519 84.7547 163.455 85.3093 163.327 85.992H162.943ZM171.28 94.024C171.173 93.4053 171.141 92.7547 171.184 92.072C171.184 91.2827 171.237 90.664 171.344 90.216L171.408 90.024C171.728 89.384 172.411 89.064 173.456 89.064H175.184C175.867 89.064 176.485 89.2027 177.04 89.48C177.595 89.7573 177.947 90.184 178.096 90.76C178.16 91.1653 178.192 91.4747 178.192 91.688C178.192 91.9227 178.16 92.296 178.096 92.808L178 93.64C177.851 94.3013 177.424 94.8133 176.72 95.176C176.549 95.2613 176.379 95.3253 176.208 95.368C176.059 95.3893 175.685 95.4107 175.088 95.432H174.768C174.277 95.432 173.893 95.4533 173.616 95.496C173.531 95.5173 173.403 95.528 173.232 95.528C172.912 95.528 172.613 95.464 172.336 95.336C172.059 95.1867 171.824 94.9947 171.632 94.76C171.44 94.4827 171.323 94.2373 171.28 94.024ZM198.68 90.312C199.491 91.336 200.088 92.1893 200.472 92.872C200.856 93.5333 201.048 94.312 201.048 95.208C201.048 95.5707 201.016 95.9653 200.952 96.392C200.611 98.2907 199.726 99.592 198.296 100.296C196.867 100.979 195.032 101.32 192.792 101.32C192.131 101.32 190.062 101.192 186.584 100.936C186.52 99.336 186.488 96.776 186.488 93.256C186.488 89.4373 186.499 85.992 186.52 82.92V78.76C188.398 78.2267 190.2 77.96 191.928 77.96C194.339 77.96 196.312 78.4933 197.848 79.56C199.406 80.6053 200.184 82.3333 200.184 84.744C200.184 86.3013 199.64 87.9973 198.552 89.832V89.8C198.51 89.8853 198.488 89.9493 198.488 89.992C198.488 90.056 198.552 90.152 198.68 90.28V90.312ZM195.128 84.744C194.808 84.1467 194.403 83.784 193.912 83.656C193.571 83.6133 193.304 83.592 193.112 83.592C192.558 83.5493 192.142 83.496 191.864 83.432C191.928 83.7947 191.96 84.3493 191.96 85.096V86.248C191.96 86.7813 191.971 87.1973 191.992 87.496H192.92C193.859 87.496 194.499 87.176 194.84 86.536C195.118 86.024 195.256 85.608 195.256 85.288C195.256 85.096 195.214 84.9147 195.128 84.744ZM195.128 94.568C195.128 94.2053 195.064 93.8107 194.936 93.384V93.416C194.83 93.1813 194.68 92.968 194.488 92.776C194.296 92.584 194.104 92.4667 193.912 92.424C193.571 92.3387 193.07 92.2747 192.408 92.232C192.344 92.232 192.27 92.2427 192.184 92.264C192.12 92.264 192.046 92.2533 191.96 92.232C191.747 93.128 191.64 93.9067 191.64 94.568C191.64 95.336 191.758 95.9333 191.992 96.36C192.76 96.3813 193.358 96.36 193.784 96.296C194.232 96.2107 194.606 95.9867 194.904 95.624C195.054 95.4107 195.128 95.0587 195.128 94.568ZM216.266 98.152C216.266 99.24 216.149 100.211 215.914 101.064C214.976 101.064 213.589 101.085 211.754 101.128L207.562 101.16C205.664 101.16 203.765 101.096 201.866 100.968C201.888 100.285 201.856 97.6293 201.77 93C201.706 90.376 201.674 88.36 201.674 86.952C201.674 84.0293 201.749 81.3093 201.898 78.792L204.714 78.696C207.872 78.568 210.282 78.504 211.946 78.504C213.376 78.504 214.762 78.5573 216.106 78.664C216.192 79.112 216.234 79.6347 216.234 80.232C216.234 80.552 216.213 81.0747 216.17 81.8C216.128 82.4827 216.106 83.016 216.106 83.4C214.826 83.6773 213.397 83.816 211.818 83.816L207.658 83.848C207.552 84.8507 207.498 85.6827 207.498 86.344C207.498 86.856 207.562 87.304 207.69 87.688L209.802 87.432C210.101 87.432 210.549 87.4533 211.146 87.496L211.562 87.528C211.669 88.168 211.722 88.8613 211.722 89.608L211.658 92.168C210.976 92.36 210.058 92.456 208.906 92.456L208.074 92.424C207.925 92.424 207.829 92.4453 207.786 92.488L207.658 94.152C207.658 95.0267 207.701 95.752 207.786 96.328C208.896 96.328 209.973 96.36 211.018 96.424C211.381 96.4453 211.829 96.4667 212.362 96.488C212.896 96.5093 213.525 96.52 214.25 96.52L216.202 96.456C216.245 97.4373 216.266 98.0027 216.266 98.152ZM226.521 89.384C227.438 89.384 228.473 89.4267 229.625 89.512L230.649 89.576L231.193 89.608L231.257 90.28C231.278 90.5147 231.321 91.0267 231.385 91.816C231.449 92.584 231.481 93.2453 231.481 93.8C231.481 94.888 231.395 95.9653 231.225 97.032C231.075 97.992 230.702 98.8027 230.105 99.464C229.507 100.125 228.75 100.627 227.833 100.968C226.275 101.437 224.835 101.672 223.513 101.672C222.489 101.672 221.561 101.512 220.729 101.192C219.043 100.445 217.945 99.144 217.433 97.288C217.283 96.712 217.155 95.9653 217.049 95.048C217.049 95.2827 216.931 93.3733 216.697 89.32C216.697 88.6373 216.707 88.0933 216.729 87.688C216.771 85.768 216.878 84.36 217.049 83.464C217.347 81.7573 218.041 80.4987 219.129 79.688C219.939 79.0907 221.049 78.6853 222.457 78.472C222.947 78.408 223.449 78.376 223.961 78.376C226.094 78.376 227.843 78.92 229.209 80.008C230.574 81.0747 231.257 82.6 231.257 84.584L231.193 85.608V86.056C231.043 86.0773 230.862 86.088 230.649 86.088C230.435 86.088 230.243 86.088 230.073 86.088H228.537C227.726 86.088 226.947 86.0453 226.201 85.96C225.689 84.2107 225.113 83.336 224.473 83.336C224.366 83.336 224.249 83.3253 224.121 83.304C223.993 83.2827 223.875 83.272 223.769 83.272C223.427 83.272 223.129 83.4 222.873 83.656C222.851 83.6773 222.777 83.9333 222.649 84.424C222.243 85.768 222.041 87.752 222.041 90.376C222.041 91.6773 222.083 92.7547 222.169 93.608C222.318 95.0373 222.606 95.944 223.033 96.328C223.246 96.456 223.417 96.5413 223.545 96.584C223.779 96.6053 224.057 96.5947 224.377 96.552C224.718 96.488 225.017 96.4027 225.273 96.296C225.635 96.1467 225.87 95.8053 225.977 95.272C226.041 95.016 226.105 94.6853 226.169 94.28C226.233 93.8747 226.254 93.6293 226.233 93.544H225.465C224.675 93.5867 224.067 93.5227 223.641 93.352C223.598 92.904 223.577 92.3493 223.577 91.688V91.336C223.577 91.2507 223.577 91.112 223.577 90.92C223.598 90.7067 223.577 90.312 223.513 89.736C223.683 89.736 224.046 89.6933 224.601 89.608C225.454 89.4587 226.094 89.384 226.521 89.384ZM247.207 79.432C247.313 81.7147 247.367 83.8267 247.367 85.768C247.367 89.4587 247.185 92.936 246.823 96.2C246.652 97.672 246.055 98.9093 245.031 99.912C244.028 100.893 242.727 101.459 241.127 101.608H241.159C240.775 101.651 240.423 101.672 240.103 101.672C238.844 101.672 237.639 101.469 236.487 101.064C235.335 100.68 234.375 100.083 233.607 99.272C232.86 98.4613 232.465 97.4693 232.423 96.296C232.423 94.7387 232.444 92.4027 232.487 89.288L232.519 87.208C232.561 84.9467 232.583 83.272 232.583 82.184C232.583 80.776 232.572 79.7413 232.551 79.08H233.351L235.271 79.016C236.316 79.016 237.233 79.1333 238.023 79.368C237.937 81.7573 237.895 83.592 237.895 84.872C237.895 87.9653 238.033 91.3893 238.311 95.144V95.112C238.439 95.5387 238.631 95.8693 238.887 96.104C239.143 96.3173 239.42 96.424 239.719 96.424C240.06 96.424 240.38 96.2853 240.679 96.008C240.977 95.7307 241.18 95.3787 241.287 94.952V94.984C241.372 93.0213 241.436 89.9173 241.479 85.672L241.511 83.624C241.511 82.6 241.532 81.192 241.575 79.4L242.247 79.304C242.545 79.304 242.951 79.272 243.463 79.208C244.337 79.1227 244.86 79.0907 245.031 79.112C245.948 79.112 246.588 79.2187 246.951 79.432H247.207ZM261.571 95.048C262.424 96.3493 263.107 97.448 263.619 98.344C264.152 99.24 264.59 100.147 264.931 101.064H264.419C264.163 101.064 263.587 101.085 262.691 101.128C261.795 101.171 261.08 101.192 260.547 101.192C260.248 101.192 259.8 101.171 259.203 101.128L258.659 101.096C257.272 97.9387 256.035 95.5707 254.947 93.992V94.824C254.947 96.1467 255.022 97.8533 255.171 99.944V99.912C255.192 100.061 255.203 100.317 255.203 100.68C254.478 101.021 253.283 101.192 251.619 101.192L250.851 101.16H249.155C248.92 101.16 248.803 99.2293 248.803 95.368C248.803 91.8693 248.771 88.3707 248.707 84.872C248.643 81.352 248.547 79.24 248.419 78.536L249.283 78.408C250.563 78.2373 251.619 78.1093 252.451 78.024C253.283 77.9387 254.136 77.896 255.011 77.896C255.95 77.896 256.75 77.9387 257.411 78.024C258.648 78.1733 259.8 78.6 260.867 79.304C261.955 80.008 262.819 80.872 263.459 81.896C264.12 82.92 264.451 83.976 264.451 85.064C264.451 86.1093 264.11 87.2507 263.427 88.488C263 89.256 262.435 89.896 261.731 90.408C261.027 90.92 260.184 91.2293 259.203 91.336C259.779 92.36 260.451 93.4267 261.219 94.536C261.368 94.792 261.486 94.9627 261.571 95.048ZM256.963 86.888C257.262 86.8027 257.496 86.5893 257.667 86.248C257.838 85.9067 257.923 85.5013 257.923 85.032C257.923 84.1573 257.71 83.592 257.283 83.336C257.006 83.1653 256.718 83.0587 256.419 83.016C256.142 82.9733 255.822 82.952 255.459 82.952L254.083 83.176C254.126 83.816 254.147 84.36 254.147 84.808C254.147 85.96 254.179 86.664 254.243 86.92C254.606 86.9627 255.054 86.984 255.587 86.984C256.078 86.984 256.536 86.952 256.963 86.888Z" fill="#FF8200"/>
</g>
<defs>
<clipPath id="clip0_67_3724">
<rect width="320" height="132" fill="white"/>
</clipPath>
</defs>
</svg>
