<svg width="1024" height="1024" viewBox="0 0 1024 1024" fill="none" xmlns="http://www.w3.org/2000/svg">
<path fill-rule="evenodd" clip-rule="evenodd" d="M515.55 86.2009C508.264 85.8057 504.328 85.8647 496.722 86.2082C491.348 86.4508 486.75 86.3169 482.744 86.2003L482.285 86.1869C478.117 86.0662 474.53 85.978 470.356 86.2015C462.777 86.6074 453.694 87.0132 445.21 87.3922C441.178 87.5724 437.282 87.7464 433.747 87.9116C429.622 88.1043 425.893 88.181 422.719 88.2463C422.006 88.261 421.321 88.275 420.666 88.2897C416.938 88.3734 414.278 88.4761 412.013 88.7236C408.167 89.144 405.907 89.9116 403.056 91.9708C397.626 95.8925 393.06 98.7188 389.606 100.857C388.394 101.607 387.319 102.273 386.392 102.871C382.861 105.149 379.526 107.582 374.256 112.852C372.908 114.2 371.375 115.583 370.149 116.689C370.04 116.788 369.933 116.884 369.829 116.978C368.417 118.253 367.248 119.32 366.207 120.366C365.162 121.415 364.52 122.173 364.149 122.691C364.105 122.752 364.069 122.805 364.039 122.849C362.163 129.171 358.781 136.227 356.442 141.106C356.032 141.96 355.655 142.747 355.323 143.452C354.588 145.014 354.121 147.607 354.408 152.706C354.522 154.734 354.718 156.726 354.947 159.061C355.003 159.637 355.062 160.235 355.122 160.859C355.403 163.778 355.71 167.271 355.71 170.794C355.71 173.463 356.38 178.279 357.855 183.319C359.434 188.717 361.177 191.747 361.861 192.512C363.54 194.389 364.998 196.062 366.308 197.565C371.271 203.261 374.101 206.509 378.731 209.081C390.628 215.69 399.165 226.138 405.423 233.796C405.642 234.064 405.858 234.329 406.071 234.59C414.286 244.63 422.756 261.126 422.756 277.045C422.756 277.872 422.804 279.334 422.879 281.579C422.889 281.894 422.9 282.224 422.911 282.571C422.997 285.182 423.095 288.377 423.124 291.598C423.153 294.773 423.118 298.25 422.902 301.395C422.74 303.756 422.367 308.509 420.556 312.584C419.571 314.8 418.301 317.141 417.398 318.806C417.242 319.093 417.097 319.36 416.966 319.603C415.858 321.662 415.311 322.796 415.038 323.549C414.386 325.34 412.52 329.784 410.582 333.824C409.608 335.856 408.417 338.204 407.186 340.238C406.594 341.217 405.744 342.541 404.686 343.826C404.158 344.467 403.33 345.405 402.217 346.354C401.275 347.157 399.089 348.88 395.81 349.816C394.529 350.182 392.958 350.93 389.965 352.614C389.673 352.778 389.358 352.957 389.022 353.149C386.481 354.593 382.727 356.727 378.724 358.267C371.059 361.215 363.601 364.967 355.293 369.146L354.912 369.338C346.708 373.465 337.645 378.01 328.032 381.57C325.099 382.656 322.14 384.158 318.153 386.209L317.872 386.353C314.225 388.23 309.642 390.588 304.673 392.429C302.552 393.214 300.636 394.64 297.814 398.717C295.301 402.346 292.862 405.433 290.891 407.928C290.765 408.088 290.641 408.245 290.519 408.4C288.368 411.124 286.974 412.935 285.873 414.679C284.189 417.345 283.045 419.994 283.045 425.5C283.045 427.97 282.839 430.071 282.642 431.727C282.548 432.518 282.476 433.081 282.415 433.548C282.327 434.233 282.265 434.711 282.202 435.402C282.131 436.187 282.083 437.029 282.175 438.145C282.703 438.472 283.302 438.811 283.95 439.151C284.876 439.637 285.769 440.055 286.498 440.379C287.498 440.823 289.177 441.419 291.037 441.888C291.93 442.114 292.741 442.279 293.414 442.382C293.746 442.433 294.012 442.464 294.212 442.482C294.416 442.5 294.509 442.5 294.5 442.5H315.5C316.478 442.5 319.762 442.127 324.278 441.259C328.645 440.421 332.232 439.494 333.619 438.999C336.513 437.966 338.599 436.916 341.341 435.537C343.027 434.689 344.962 433.715 347.486 432.544C353.227 429.879 360.71 427 370 427C371.379 427 373.463 427.008 375.46 427.317C376.629 427.498 378.238 427.843 380.011 428.598C381.929 429.413 383.456 430.456 384.651 431.481C385.162 431.919 385.563 432.312 385.813 432.565C392.597 436.509 397.46 443.658 400.298 448.491C404.649 455.903 405.976 461.398 407.175 468.237C408.463 475.586 408.832 479.64 409.108 486.89C409.335 492.851 409.242 499.007 409.171 503.649C409.144 505.464 409.12 507.048 409.12 508.298V524.775C409.12 539.113 406.018 554.958 398.583 568.341C396.882 571.404 395.564 574.907 393.879 579.694C393.752 580.057 393.621 580.429 393.488 580.81C391.996 585.066 390.126 590.404 387.544 595.568C386.009 598.638 384.667 602.066 383.203 606.11C382.848 607.089 382.474 608.139 382.085 609.234C380.976 612.35 379.738 615.832 378.429 619.102C377.711 620.898 376.994 622.676 376.284 624.436C369.05 642.38 362.528 658.554 362.528 673.64C362.528 675.141 362.49 676.597 362.455 677.853L362.443 678.308C362.411 679.426 362.385 680.366 362.375 681.291C362.361 682.727 362.397 683.716 362.46 684.414C367.745 686.636 370.592 686.581 379.504 686.087C379.642 686.042 380.218 685.852 381.331 685.222C382.822 684.378 384.181 683.413 386.086 682.062C386.547 681.735 387.039 681.386 387.573 681.01C387.622 680.976 387.673 680.944 387.812 680.755C388.007 680.492 388.343 679.96 388.893 678.797C389.305 677.928 389.629 677.17 390.063 676.158C390.32 675.558 390.616 674.869 390.99 674.014C391.872 672.001 393.003 669.534 394.501 666.91C404.49 649.405 411.319 637.3 416.09 623.94C417.563 619.817 418.756 615.734 420.094 611.15C420.479 609.833 420.876 608.474 421.295 607.062C423.087 601.016 425.209 594.28 428.247 587.528C429.845 583.978 431.758 580.277 433.405 577.092C434.118 575.714 434.78 574.433 435.345 573.302C435.729 572.534 435.987 571.77 436.548 570.105C436.791 569.383 437.091 568.492 437.484 567.359C438.451 564.564 440.206 559.647 443.592 555.293C443.817 555.004 444.304 554.207 445.368 551.7C445.491 551.411 445.632 551.073 445.789 550.694C446.649 548.621 448.009 545.347 449.653 542.468C451.572 539.11 453.927 536.253 455.403 534.461L455.583 534.243C457.348 532.099 458.093 531.148 458.593 530.299C464.464 520.318 474.876 510.973 487.76 504.989C488.34 504.72 488.963 504.419 489.629 504.098C495.945 501.051 506.081 496.162 518.801 498.844C524.319 500.007 527.871 503.334 529.779 505.647C531.721 508.002 532.97 510.505 533.78 512.422C535.411 516.282 536.424 520.609 537.092 524.237C538.452 531.626 539 539.677 539 544C539 558.188 540.264 572.64 541.612 587.936L541.639 588.237C542.958 603.196 544.348 618.977 544.348 634.751C544.348 645.384 547.349 653.911 553.739 663.852C557.524 669.74 559.475 672.233 563.024 674.69C569.047 678.86 576.392 683.295 581.058 684.91L581.751 685.15C586.289 686.722 589.989 688.005 593.549 688.605C597.272 689.233 598.396 688.645 598.42 688.632C600.193 687.647 601.842 686.888 603.135 686.314C603.731 686.05 604.187 685.851 604.575 685.682C605.178 685.419 605.619 685.227 606.174 684.967C607.525 684.333 607.791 684.071 607.945 683.918C609.892 681.971 610.853 680.288 612.714 675.077C614.024 671.407 614.472 667.307 614.688 661.377C614.72 660.492 614.746 659.532 614.774 658.512C614.914 653.416 615.095 646.807 616.269 640.349C617.393 634.168 617.245 628.192 617.059 620.68C616.98 617.52 616.895 614.089 616.895 610.256C616.895 607.414 617.109 603.392 617.289 600.014C617.389 598.147 617.477 596.477 617.514 595.31C617.66 590.664 617.427 587.735 616.911 585.876C613.947 575.206 612.443 562.494 611.21 552.077C610.866 549.175 610.544 546.451 610.217 543.998C609.885 541.511 609.687 539.678 609.496 537.916C609.267 535.8 609.049 533.786 608.624 530.864C607.963 526.307 607.247 523.507 606.658 522.182C605.106 518.692 604.389 515.225 603.996 513.325L603.968 513.187C603.471 510.787 603.328 510.18 603.155 509.722C602.899 509.045 602.602 508.284 602.277 507.452C600.474 502.828 597.821 496.024 596.677 489.448C596.236 486.915 595.269 483.979 593.738 479.963C593.473 479.269 593.181 478.516 592.87 477.717C591.6 474.449 590.035 470.423 588.892 466.567C586.432 458.262 584.251 445.523 587.667 433.91C587.682 433.619 587.686 433.132 587.651 432.324C587.625 431.697 587.591 431.169 587.549 430.504C587.524 430.118 587.497 429.687 587.466 429.163C587.396 427.969 587.314 426.347 587.354 424.654C587.436 421.115 588.139 417.949 588.695 415.767C588.967 414.696 589.26 413.657 589.489 412.842L589.522 412.725C589.778 411.816 589.956 411.178 590.1 410.603C592.118 402.531 594.961 395.73 597.819 389.298C600.301 383.714 603.977 379.494 606.398 376.798C607.04 376.083 607.601 375.465 608.097 374.918C609.855 372.981 610.795 371.945 611.628 370.696C612.259 369.749 612.925 368.73 613.625 367.658C617.344 361.965 622.052 354.76 627.936 348.65C629.829 346.684 631.456 344.09 633.63 339.953C633.968 339.308 634.337 338.589 634.736 337.813C636.533 334.311 638.922 329.653 641.798 325.472C641.796 325.474 641.794 325.475 641.794 325.475C641.781 325.468 642.167 324.727 642.635 322.888C643.16 320.825 643.575 318.218 643.769 315.437C643.962 312.649 643.907 310.056 643.663 308.012C643.47 306.397 643.224 305.679 643.207 305.598C641.149 301.911 638.973 298.426 636.633 295.577C634.171 292.582 632.235 291.169 631.002 290.621C627.257 288.957 624.742 288.061 622.102 287.995C619.545 287.931 618.583 288.116 614.228 289.622C612.845 290.1 611.878 290.593 610.577 291.373C610.03 291.702 609.549 292.004 608.924 292.395C608.61 292.593 608.259 292.812 607.846 293.07C606.719 293.771 605.372 294.594 603.79 295.476C598.834 298.238 596.125 299.818 591.162 302.761C590.662 303.058 590.177 303.346 589.704 303.626C582.255 308.042 577.975 310.579 570.777 315.401C569.214 316.448 567.839 317.464 566.247 318.64C565.945 318.863 565.635 319.092 565.314 319.328C563.491 320.671 561.113 322.404 558.509 323.892L558.281 324.022L558.279 324.023C558.174 324.084 558.063 324.147 557.947 324.214C556.323 325.146 553.723 326.638 550.715 327.689C547.054 328.967 543.484 329.409 539.712 329.409C536.314 329.409 532.341 328.722 529.08 327.847C527.337 327.379 525.342 326.737 523.375 325.866C521.672 325.112 518.743 323.653 516.151 321.061C515.965 320.875 515.656 320.605 514.57 319.691L514.504 319.635C513.636 318.904 512.18 317.679 510.772 316.242C507.843 313.253 503.257 307.486 503.257 298.889C503.257 293.557 503.569 288.201 503.848 283.42L503.853 283.335C504.143 278.354 504.394 274.001 504.394 269.911C504.394 261.614 507.581 253.587 510.376 247.861C513.367 241.733 516.989 236.114 519.739 232.142C526.849 221.872 533.532 211.455 540.44 200.687C541.575 198.918 542.717 197.139 543.867 195.349C545.537 192.752 547.115 190.372 548.594 188.141C554.086 179.859 558.207 173.644 560.531 166.088C563.513 156.397 563.503 146.867 563.488 133.627C563.487 132.673 563.485 131.699 563.485 130.705C563.485 128.768 563.511 126.967 563.536 125.233C563.588 121.59 563.636 118.238 563.432 114.524C563.147 109.32 562.398 105.298 561.113 102.292C560.25 100.275 559.694 99.3077 559.439 98.9154C559.29 98.825 559.041 98.6807 558.65 98.4718C558.138 98.1983 557.558 97.9038 556.704 97.4702C555.896 97.0604 554.908 96.5586 553.817 95.9813C550.072 93.9986 546.265 92.1555 541.954 90.1136C541.969 90.1205 541.963 90.1183 541.934 90.1077C541.814 90.062 541.281 89.8611 540.205 89.5667C539.016 89.2415 537.626 88.9264 536.218 88.6432C534.83 88.3642 533.549 88.1411 532.614 87.9879C532.15 87.912 531.781 87.8549 531.538 87.8182C531.451 87.805 531.38 87.7945 531.328 87.7868L531.314 87.7846L531.001 87.7448C530.723 87.7097 530.313 87.6585 529.798 87.5955C528.765 87.4694 527.32 87.2973 525.677 87.1147C522.306 86.7401 518.416 86.3565 515.55 86.2009ZM535.891 56.1137L535.697 56.0859L535.762 56.0951L535.891 56.1137C535.996 56.129 536.14 56.1503 536.319 56.1774C536.677 56.2314 537.176 56.3089 537.784 56.4084C538.991 56.606 540.665 56.897 542.526 57.2711C545.679 57.9052 551.315 59.1395 555.653 61.194C560.063 63.2829 564.393 65.3727 568.79 67.7001C569.606 68.1325 570.369 68.5204 571.183 68.9333L571.3 68.9925C572.041 69.3688 572.906 69.8073 573.738 70.252C575.517 71.2031 577.798 72.5181 580.098 74.4418C585.07 78.5997 588.014 83.8143 590.535 89.7082C593.926 97.6379 595.008 105.897 595.385 112.775C595.651 117.644 595.579 122.836 595.523 126.885C595.503 128.324 595.485 129.62 595.485 130.705C595.485 131.887 595.49 133.09 595.495 134.313C595.541 146.634 595.594 160.945 591.116 175.499C587.284 187.953 579.905 198.972 574.16 207.55C572.946 209.364 571.804 211.068 570.785 212.654C569.665 214.395 568.544 216.144 567.418 217.898C560.526 228.642 553.506 239.586 546.049 250.357C543.762 253.661 541.134 257.799 539.134 261.897C536.938 266.396 536.394 269.062 536.394 269.911C536.394 274.979 536.092 280.165 535.819 284.852L535.799 285.195C535.589 288.791 535.399 292.127 535.31 295.321L535.314 295.324C535.712 295.659 536.236 296.1 536.748 296.547C536.864 296.649 536.985 296.755 537.111 296.867C537.194 296.891 537.282 296.916 537.375 296.941C537.994 297.107 538.652 297.242 539.219 297.33C539.495 297.372 539.7 297.396 539.824 297.407C539.831 297.408 539.839 297.408 539.845 297.409C540.054 297.407 540.212 297.401 540.325 297.394C540.356 297.379 540.39 297.361 540.428 297.342C540.857 297.12 541.376 296.826 542.398 296.242L542.4 296.241L542.631 296.109L542.633 296.108C543.448 295.642 544.484 294.927 546.338 293.562C546.582 293.382 546.84 293.191 547.112 292.991C548.698 291.817 550.735 290.311 552.967 288.816C560.911 283.494 565.857 280.562 573.297 276.152C573.799 275.854 574.312 275.55 574.838 275.238C579.958 272.202 582.927 270.469 588.21 267.524C589.578 266.762 590.338 266.281 591.305 265.67C592.018 265.218 592.845 264.695 594.113 263.934C596.691 262.387 599.705 260.784 603.772 259.378C609.552 257.38 614.735 255.802 622.899 256.005C632.38 256.241 639.924 259.568 643.998 261.379C651.539 264.731 657.237 270.248 661.356 275.261C665.545 280.358 668.852 285.867 671.314 290.298C673.879 294.916 674.944 300.095 675.436 304.211C675.963 308.609 675.998 313.255 675.691 317.656C675.385 322.065 674.711 326.597 673.647 330.779C672.653 334.683 671.029 339.467 668.21 343.539C666.597 345.869 665.379 348.228 663.666 351.548C663.15 352.549 662.588 353.636 661.958 354.836C659.522 359.473 656.181 365.451 650.986 370.846C647.372 374.599 644.593 378.826 640.891 384.454C640.065 385.712 639.192 387.039 638.253 388.447C635.943 391.912 632.996 395.129 631.118 397.178C630.775 397.552 630.468 397.888 630.207 398.179C628.019 400.615 627.345 401.657 627.061 402.294C624.387 408.312 622.469 413.063 621.144 418.364C620.872 419.453 620.571 420.523 620.336 421.357L620.324 421.398C620.066 422.314 619.874 422.999 619.707 423.657C619.402 424.853 619.353 425.329 619.346 425.396C619.345 425.406 619.345 425.406 619.345 425.398C619.328 426.126 619.361 426.586 619.419 427.402C619.472 428.141 619.546 429.172 619.622 430.957C619.731 433.491 619.848 438.123 618.389 442.863C617.508 445.727 617.779 451.417 619.574 457.476C620.305 459.942 621.232 462.335 622.423 465.407C622.801 466.383 623.206 467.427 623.639 468.563C625.254 472.799 627.198 478.183 628.204 483.965C628.75 487.107 629.979 490.303 631.754 494.918C632.17 495.999 632.616 497.159 633.09 498.413C634.232 501.437 634.86 504.522 635.207 506.23C635.242 506.4 635.274 506.556 635.303 506.697C635.505 507.671 635.634 508.25 635.759 508.716C635.823 508.954 635.869 509.094 635.892 509.16C635.901 509.184 635.906 509.199 635.908 509.204C638.398 514.815 639.578 521.344 640.292 526.266C640.679 528.928 641.137 532.921 641.487 535.97C641.68 537.649 641.839 539.042 641.936 539.769C642.407 543.3 642.82 546.755 643.221 550.122C644.408 560.071 645.503 569.246 647.743 577.312C649.614 584.047 649.665 591.002 649.498 596.314C649.402 599.369 649.268 601.608 649.151 603.567C649.011 605.892 648.895 607.824 648.895 610.256C648.895 612.249 648.954 614.539 649.019 617.035C649.237 625.512 649.518 636.368 647.753 646.073C647.055 649.915 646.944 653.591 646.796 658.549C646.758 659.792 646.719 661.115 646.667 662.542C646.43 669.042 645.904 677.287 642.849 685.84C640.477 692.484 637.574 699.544 630.572 706.545C626.746 710.372 622.793 712.517 619.763 713.938C618.028 714.752 617.041 715.171 616.308 715.482C615.444 715.848 614.931 716.065 613.961 716.605C604.816 721.685 595.181 721.333 588.225 720.159C581.883 719.089 575.738 716.945 571.681 715.529C571.298 715.396 570.934 715.268 570.59 715.149C561.424 711.976 550.959 705.258 544.81 701C535.812 694.771 531.06 687.749 526.822 681.156C517.943 667.345 512.348 652.893 512.348 634.751C512.348 620.516 511.084 606.039 509.736 590.746L509.704 590.377C508.387 575.442 507 559.706 507 544C507 541.77 506.689 536.693 505.926 531.827C505.097 532.202 504.29 532.581 503.349 533.024C502.721 533.319 502.033 533.642 501.24 534.011C493.511 537.601 488.365 542.801 486.175 546.524C484.284 549.738 481.992 552.516 480.546 554.269C480.457 554.377 480.371 554.481 480.288 554.581C478.563 556.678 477.868 557.59 477.437 558.345C476.873 559.332 476.447 560.347 475.631 562.29C475.398 562.846 475.133 563.477 474.824 564.206C473.707 566.837 471.875 571.041 468.879 574.904C468.883 574.899 468.886 574.897 468.886 574.897C468.894 574.902 468.518 575.53 467.724 577.823C467.639 578.071 467.487 578.519 467.309 579.048C466.983 580.014 466.567 581.249 466.294 582.019C465.736 583.593 464.981 585.584 463.967 587.613C462.972 589.603 462.093 591.297 461.282 592.86C459.882 595.561 458.682 597.875 457.429 600.66C455.316 605.355 453.688 610.38 451.974 616.159C451.644 617.271 451.306 618.43 450.958 619.625C449.584 624.335 448.049 629.599 446.226 634.703C440.375 651.088 432.101 665.585 422.461 682.478L422.294 682.77C421.225 684.644 420.746 685.788 420.071 687.404C419.554 688.641 418.921 690.154 417.819 692.483C415.749 696.858 412.459 702.627 405.989 707.18C405.717 707.372 405.405 707.594 405.06 707.84C403.136 709.212 400.166 711.331 397.095 713.069C393.43 715.144 388.006 717.664 381.507 718.025L381.124 718.047C370.921 718.614 361.745 719.125 348.553 713.262C343.651 711.083 339.46 707.885 336.329 703.58C333.262 699.364 331.808 694.905 331.098 691.049C330.41 687.312 330.349 683.716 330.377 680.961C330.397 679.039 330.433 677.973 330.465 677.033C330.499 676.045 330.528 675.197 330.528 673.64C330.528 651.873 339.597 629.628 346.449 612.817C347.241 610.875 348.003 609.005 348.718 607.218C349.78 604.564 350.7 601.976 351.733 599.073C352.168 597.851 352.622 596.574 353.115 595.213C354.679 590.894 356.528 586.044 358.922 581.257C360.561 577.979 361.795 574.471 363.44 569.792L363.694 569.07C365.338 564.399 367.435 558.516 370.61 552.801C374.841 545.186 377.12 534.967 377.12 524.775V508.298C377.12 506.216 377.153 504.137 377.186 502.013C377.254 497.703 377.326 493.205 377.131 488.109C376.902 482.091 376.66 479.493 375.655 473.762C374.801 468.891 374.371 467.535 372.702 464.693C371.695 462.977 370.743 461.624 369.967 460.699C369.678 460.355 369.462 460.128 369.327 459.996C368.862 459.721 368.411 459.442 367.975 459.157C366.07 459.453 363.93 460.191 360.956 461.571C360.137 461.951 359.06 462.488 357.803 463.113C354.188 464.914 349.091 467.453 344.381 469.135C340.626 470.476 335.095 471.766 330.314 472.685C325.68 473.575 319.786 474.5 315.5 474.5H294.5C287.239 474.5 278.62 471.895 273.502 469.621C271.287 468.637 267.283 466.746 263.466 464.142C261.555 462.839 259.256 461.066 257.174 458.795C255.185 456.626 252.521 453.058 251.426 448.131C249.994 441.689 249.942 436.801 250.335 432.495C250.449 431.238 250.639 429.749 250.765 428.756C250.807 428.426 250.842 428.15 250.865 427.957C250.992 426.885 251.045 426.181 251.045 425.5C251.045 413.713 254.03 405.173 258.815 397.595C260.948 394.216 263.373 391.142 265.402 388.572L265.66 388.245C267.706 385.654 269.581 383.28 271.504 380.502C276.327 373.535 282.937 366.355 293.559 362.421C296.549 361.313 299.545 359.796 303.515 357.753L303.858 357.577C307.479 355.713 312.022 353.375 316.918 351.562C324.607 348.714 332.137 344.974 340.532 340.751C340.843 340.595 341.155 340.437 341.468 340.28C349.359 336.309 358.065 331.927 367.237 328.4C368.867 327.773 370.436 326.889 373.305 325.271C373.612 325.098 373.934 324.917 374.272 324.726C376.076 323.711 378.412 322.409 381.132 321.205C381.321 320.828 381.52 320.421 381.729 319.985C382.505 318.367 383.269 316.658 383.89 315.214C384.198 314.497 384.459 313.872 384.657 313.384C384.875 312.85 384.965 312.611 384.964 312.613C386.121 309.433 387.703 306.455 388.786 304.441C389.014 304.017 389.224 303.628 389.418 303.269C390.039 302.12 390.494 301.277 390.857 300.551C390.896 300.223 390.938 299.778 390.977 299.204C391.11 297.271 391.151 294.744 391.125 291.886C391.1 289.075 391.014 286.206 390.929 283.621C390.918 283.297 390.907 282.969 390.896 282.641C390.826 280.557 390.756 278.453 390.756 277.045C390.756 271.003 386.708 261.458 381.305 254.853C374.222 246.197 369.229 240.409 363.19 237.054C353.143 231.472 345.974 223.102 340.778 217.034C339.787 215.877 338.867 214.804 338.013 213.849C332.498 207.685 329.127 199.086 327.142 192.305C325.053 185.166 323.71 177.253 323.71 170.794C323.71 168.94 323.544 166.781 323.269 163.922C323.224 163.458 323.176 162.969 323.126 162.46C322.892 160.084 322.614 157.268 322.458 154.502C322.083 147.827 322.184 138.719 326.369 129.827C326.884 128.733 327.387 127.674 327.875 126.648C330.333 121.478 332.388 117.157 333.417 113.557C335.502 106.257 340.513 100.817 343.535 97.7829C345.249 96.0622 347.003 94.4738 348.381 93.229L348.454 93.1631C349.931 91.8293 350.883 90.9696 351.629 90.2242C358.591 83.2617 363.716 79.4184 369.044 75.9811C370.706 74.9089 372.192 73.9905 373.649 73.0895C376.827 71.1247 379.87 69.2428 384.32 66.029C392.481 60.135 400.279 57.8156 408.536 56.9131C412.323 56.4992 416.227 56.3813 419.948 56.2978C420.698 56.281 421.448 56.2655 422.203 56.2498C425.353 56.1847 428.586 56.1178 432.253 55.9464C435.933 55.7746 439.913 55.5968 443.989 55.4147C452.392 55.0394 461.205 54.6457 468.644 54.2473C474.269 53.9461 479.031 54.0793 483.212 54.2004L483.365 54.2048C487.537 54.3257 491.106 54.4291 495.278 54.2407C503.602 53.8649 508.646 53.7794 517.283 54.2479C521.097 54.4548 525.73 54.9235 529.212 55.3106C530.995 55.5088 532.559 55.6949 533.679 55.8317C534.24 55.9003 534.691 55.9567 535.007 55.9965C535.164 56.0164 535.288 56.0321 535.374 56.0431L535.516 56.0614L535.891 56.1137ZM390.756 301.221C390.756 301.221 390.762 301.185 390.777 301.119C390.765 301.189 390.756 301.221 390.756 301.221ZM369.186 459.864C369.186 459.864 369.189 459.867 369.2 459.876C369.191 459.869 369.186 459.864 369.186 459.864ZM535.891 56.1137L535.516 56.0614L535.606 56.073L535.695 56.0856L535.891 56.1137ZM559.276 98.6907C559.276 98.6875 559.298 98.7118 559.342 98.7726C559.298 98.7242 559.276 98.6938 559.276 98.6907ZM587.652 434.099C587.652 434.099 587.653 434.091 587.654 434.079C587.653 434.094 587.652 434.099 587.652 434.099Z" fill="white"/>
<path fill-rule="evenodd" clip-rule="evenodd" d="M490.609 134.531C485.691 133.535 481.791 134.168 480.815 134.574C479.958 134.93 479.313 135.214 478.759 135.499V150.533C478.791 150.669 478.839 150.858 478.91 151.096C479.084 151.678 479.325 152.329 479.606 152.947C482.526 152.996 485.413 152.951 488.492 152.902C490.747 152.867 493.105 152.829 495.655 152.827C495.74 152.795 495.876 152.738 496.067 152.64C496.678 152.323 497.472 151.759 498.267 150.968C499.064 150.174 499.618 149.394 499.913 148.846C499.921 148.832 499.927 148.819 499.934 148.806C499.942 148.035 499.957 147.201 499.971 146.463C499.982 145.914 499.991 145.419 499.995 145.041C500.01 143.68 499.991 142.633 499.915 141.729C499.769 139.993 499.449 139.32 499.195 138.939C498.198 137.446 495.462 135.514 490.609 134.531ZM478.711 150.296C478.711 150.296 478.714 150.31 478.717 150.335C478.713 150.308 478.711 150.296 478.711 150.296ZM495.374 111.009C503.329 112.62 513.201 116.693 519.156 125.614C522.422 130.507 523.479 135.558 523.83 139.709C524.061 142.441 523.998 145.666 523.955 147.891C523.941 148.591 523.93 149.191 523.93 149.647C523.93 153.809 522.513 157.495 521.047 160.219C519.51 163.075 517.467 165.718 515.201 167.975C511.063 172.094 504.193 176.826 495.955 176.826C494.087 176.826 492.033 176.857 489.876 176.889C485.129 176.96 479.883 177.039 475.019 176.814C469.662 176.566 465.82 173.76 463.598 171.57C461.32 169.325 459.695 166.728 458.577 164.568C457.594 162.669 456.804 160.721 456.21 158.909C456.649 162.64 456.716 167.24 455.231 171.921C454.517 174.172 453.736 176.585 452.586 178.936C451.328 181.508 449.838 183.61 448.034 185.759C443.09 191.646 437.03 194.385 433.345 196.051C432.755 196.318 432.226 196.557 431.772 196.777C425.896 199.628 418.651 200.481 412.201 199.752C405.885 199.039 397.808 196.493 392.422 189.774C392.301 189.624 392.176 189.468 392.048 189.309C390.386 187.246 388.149 184.469 386.779 181.19C385.103 177.181 385 173.328 385 170.122V169.93C385 166.202 384.999 158.243 386.431 150.505C387.16 146.567 388.366 142.055 390.52 137.937C392.677 133.815 396.289 129.159 402.211 126.68C404.694 125.64 407.383 125.205 409.374 124.986C411.589 124.743 413.987 124.664 416.349 124.729C420.718 124.849 426.519 125.502 431.277 127.552C431.274 127.551 431.273 127.55 431.273 127.55C431.273 127.55 431.449 127.619 431.922 127.771C432.396 127.922 432.93 128.082 433.644 128.296C433.723 128.319 433.804 128.344 433.888 128.369C435.418 128.827 437.613 129.486 439.787 130.345C441.877 131.171 444.713 132.47 447.264 134.536C449.897 136.668 453.094 140.357 453.76 145.857C453.88 146.84 454.117 148.049 454.497 149.788C454.558 150.065 454.623 150.361 454.692 150.671C454.714 150.771 454.736 150.873 454.759 150.976V133.652C454.759 126.289 458.417 121.038 462.275 117.772C465.711 114.864 469.65 113.225 471.56 112.43L471.595 112.416C478.375 109.594 487.484 109.411 495.374 111.009ZM411.899 148.854C411.864 148.916 411.826 148.985 411.786 149.061C411.172 150.236 410.532 152.165 410.03 154.874C409.027 160.295 409 166.319 409 170.122C409 171.107 409.027 171.718 409.05 172.066C409.061 172.081 409.071 172.096 409.082 172.112C409.483 172.676 410.061 173.408 411.149 174.764C411.124 174.733 411.129 174.737 411.17 174.766C411.368 174.904 412.389 175.621 414.893 175.904C417.787 176.231 420.296 175.67 421.296 175.184C422.503 174.598 423.501 174.127 424.337 173.731C427.625 172.176 428.414 171.803 429.655 170.324C430.613 169.183 430.867 168.718 431.026 168.391C431.294 167.843 431.605 167.028 432.354 164.667C432.488 164.244 432.656 162.998 432.087 159.84C431.869 158.625 431.608 157.444 431.297 156.035C431.218 155.677 431.136 155.304 431.051 154.912C430.889 154.174 430.715 153.362 430.546 152.504C429.549 152.133 428.402 151.779 427.004 151.36C426.922 151.336 426.838 151.311 426.752 151.285C426.082 151.085 425.312 150.854 424.602 150.627C423.825 150.378 422.8 150.033 421.782 149.594C421.632 149.529 420.977 149.301 419.709 149.088C418.516 148.888 417.12 148.759 415.69 148.72C414.255 148.681 412.965 148.736 411.993 148.843C411.961 148.847 411.929 148.85 411.899 148.854ZM412.218 148.364C412.232 148.347 412.24 148.34 412.24 148.34C412.24 148.34 412.233 148.349 412.218 148.364Z" fill="white"/>
<path fill-rule="evenodd" clip-rule="evenodd" d="M651.799 101.724C650.469 104.225 649.007 106.767 647.659 109.11C647.071 110.133 646.504 111.119 645.979 112.046C643.71 116.06 641.92 119.505 640.763 122.685C639.723 125.544 638.574 128.002 637.541 130.124C637.242 130.739 636.963 131.305 636.699 131.842C635.995 133.27 635.392 134.494 634.77 135.894C633.817 138.038 632.674 139.721 631.776 140.929C631.338 141.518 630.909 142.059 630.602 142.445L630.599 142.448C630.36 142.749 630.191 142.963 630.049 143.145C629.388 149.147 624.3 153.816 618.122 153.816C611.495 153.816 606.122 148.444 606.122 141.816C606.122 135.632 608.848 131.407 610.68 128.966C611.068 128.45 611.461 127.956 611.744 127.6C611.766 127.572 611.787 127.545 611.808 127.519C612.131 127.113 612.336 126.852 612.515 126.611C612.743 126.305 612.828 126.16 612.848 126.126C613.678 124.259 614.573 122.443 615.327 120.914C615.553 120.454 615.767 120.021 615.962 119.619C616.873 117.749 617.595 116.17 618.208 114.483C620.086 109.32 622.717 104.427 625.088 100.234C625.821 98.9376 626.516 97.7284 627.177 96.5789C628.815 93.7301 630.242 91.2483 631.505 88.7219C634.116 83.4998 638.747 78.0985 641.933 74.8979C641.924 74.9067 641.918 74.9105 641.918 74.9105C641.913 74.9058 642.125 74.6486 642.803 73.7811L642.851 73.721C643.459 72.9431 644.578 71.5128 645.786 70.2914C646.387 69.6836 647.468 68.6516 648.915 67.7493C649.983 67.0842 653.657 64.9365 658.541 65.9777C664.471 67.2422 667.019 71.8788 667.868 74.2595C668.677 76.5283 668.759 78.6601 668.759 79.8837C668.759 81.1891 669.253 82.7153 671.303 86.8482C671.419 87.081 671.542 87.3276 671.673 87.5875C673.406 91.0424 676.317 96.8459 676.695 103.65C677.124 111.374 679.686 119.355 682.945 129.316L683.064 129.68C686.101 138.96 689.722 150.026 690.333 161.64C690.466 164.158 691.183 166.85 692.37 171.302L692.378 171.332C693.426 175.267 694.896 180.789 694.896 186.703C694.896 190.091 695.145 193.738 695.435 197.957L695.44 198.018C695.718 202.059 696.032 206.616 696.032 211.135C696.032 217.763 690.659 223.135 684.032 223.135C677.404 223.135 672.032 217.763 672.032 211.135C672.032 207.556 671.781 203.798 671.492 199.607L671.47 199.285C671.198 195.34 670.896 190.955 670.896 186.703C670.896 184.358 670.305 181.707 669.187 177.512C669.11 177.222 669.029 176.922 668.945 176.611C667.974 172.998 666.636 168.024 666.367 162.902C665.942 154.841 663.365 146.652 660.135 136.779C660.036 136.478 659.937 136.176 659.837 135.871C656.863 126.792 653.347 116.058 652.732 104.981C652.684 104.119 652.441 103.223 651.799 101.724Z" fill="white"/>
<path fill-rule="evenodd" clip-rule="evenodd" d="M660.291 139.713C667.314 136.507 675.675 133.771 685.8 133.771C697.461 133.771 711.953 137.378 723.352 144.497C730.785 144.421 737.501 149.561 739.137 157.111C740.229 162.151 741.251 167.715 741.308 173.052C741.346 173.861 741.359 174.67 741.347 175.478C741.444 178.236 741.733 181.12 742.094 184.625L742.12 184.877C742.538 188.931 743.047 193.862 743.047 199.091C743.047 204.42 743.307 209.643 743.595 215.324L743.603 215.486C743.882 221.006 744.183 226.971 744.183 233.183C744.183 233.178 744.183 233.175 744.183 233.175C744.186 233.175 744.229 233.654 744.85 236.161C744.88 236.28 744.912 236.408 744.946 236.545C745.455 238.578 746.456 242.574 746.456 246.819C746.456 248.012 746.499 250.005 746.65 251.858C746.717 252.673 746.792 253.302 746.86 253.734C749.537 260.113 750.733 266.775 751.545 271.996C751.81 273.698 752.035 275.236 752.242 276.653C752.791 280.408 753.215 283.315 753.933 286.184C755.323 291.746 756.544 297.219 757.713 302.458L757.727 302.519C758.914 307.839 760.048 312.918 761.319 318.003C761.42 318.405 761.618 319.117 761.87 320.02C762.602 322.646 763.784 326.887 764.317 329.817C764.761 332.261 764.733 334.415 764.669 335.784C764.636 336.501 764.584 337.156 764.542 337.649C764.522 337.875 764.509 338.03 764.498 338.153C764.903 339.176 765.33 340.334 765.672 341.487C766.254 343.455 767.261 347.483 766.199 352.212C764.962 357.727 761.592 361.501 758.265 363.808C755.409 365.79 752.347 366.877 750.187 367.542C747.973 368.223 745.696 368.994 743.136 369.862L743.087 369.878C740.613 370.716 737.881 371.642 735.09 372.501C729.501 374.223 722.962 375.915 715.939 376.416C714.861 376.493 713.282 376.818 710.727 377.596C710.234 377.746 709.307 378.047 708.204 378.404C706.152 379.069 703.494 379.93 701.896 380.387C699.974 380.936 698.095 381.255 696.765 381.46C696.059 381.568 695.362 381.666 694.765 381.748L694.535 381.78C694.004 381.853 693.552 381.916 693.103 381.982C692.334 382.095 691.815 382.186 691.461 382.258C691.091 382.472 690.619 382.746 690.098 383.043C688.993 383.673 687.525 384.491 685.992 385.263C684.619 385.955 682.514 386.96 680.293 387.652C679.276 387.969 677.246 388.543 674.772 388.61C672.925 388.66 666.084 388.561 661.143 382.384C658.105 378.587 656.39 374.103 655.429 371.08C654.367 367.739 653.642 364.28 653.278 361.368C652.408 354.406 649.374 344.409 646.263 337.409C644.755 334.016 643.931 330.781 643.388 328.458C643.167 327.516 643 326.772 642.86 326.143C642.588 324.928 642.413 324.148 642.134 323.209C641.683 321.684 641.216 320.366 640.626 318.699C640.222 317.555 639.759 316.247 639.203 314.595C638.082 311.267 636.67 306.732 636.144 301.996C635.509 296.282 633.575 290.419 630.812 283.108C630.454 282.16 630.075 281.172 629.683 280.151C627.295 273.925 624.42 266.429 622.727 258.813C622.353 257.13 621.547 255.271 619.945 251.577C619.726 251.072 619.492 250.533 619.242 249.956C617.655 246.283 614.931 239.981 614.492 233.148C614.468 233.048 614.376 232.675 614.096 231.949C613.63 230.743 613.018 229.461 612.044 227.42C611.986 227.299 611.928 227.176 611.867 227.05C611.791 226.889 611.709 226.719 611.623 226.54C610.28 223.742 607.917 218.818 606.941 213.057C603.424 205.801 603.722 198.383 604.885 192.905C606.254 186.453 609.142 180.903 611.049 177.565C618.481 164.558 630.866 154.804 642.785 148.844C644.967 147.753 647.062 146.606 649.435 145.308C649.886 145.061 650.346 144.809 650.82 144.55C653.648 143.006 656.866 141.277 660.291 139.713ZM647.155 233.67C647.788 233.732 648.388 233.779 648.95 233.816C651.689 233.996 654.628 233.975 656.643 233.96C657.116 233.957 657.539 233.953 657.895 233.953C664.479 233.953 670.91 233.456 676.649 233.013C677.72 232.93 678.766 232.849 679.785 232.773C682.745 232.554 686.955 231.962 691.086 230.939C693.171 230.422 695.536 229.723 697.854 228.77C699.984 227.895 703.072 226.409 705.847 223.912C707.665 222.275 709.657 220.577 711.732 218.858C711.978 223.808 712.183 228.453 712.183 233.183C712.183 237.438 713.184 241.435 713.694 243.473C713.728 243.609 713.76 243.736 713.789 243.853C714.405 246.343 714.452 246.83 714.456 246.83C714.456 246.83 714.456 246.826 714.456 246.819C714.456 248.555 714.512 251.471 714.757 254.467C714.934 256.631 715.372 261.65 717.224 265.818C718.334 268.315 719.121 271.744 719.926 276.914C720.073 277.865 720.227 278.924 720.392 280.058C720.994 284.207 721.744 289.368 722.888 293.945C724.17 299.071 725.309 304.171 726.495 309.488L726.522 309.607C727.686 314.826 728.899 320.261 730.275 325.764C730.881 328.19 731.35 329.809 731.731 331.126C732.118 332.462 732.415 333.488 732.675 334.732C732.668 334.815 732.659 334.909 732.649 335.025C732.626 335.277 732.593 335.634 732.544 336.222C732.48 337.004 732.385 338.257 732.401 339.712C730.032 340.514 727.842 341.25 725.669 341.92C721.012 343.355 717.144 344.249 713.659 344.498C708.969 344.833 704.667 345.99 701.4 346.986C699.268 347.635 697.98 348.066 696.87 348.437C695.682 348.834 694.698 349.163 693.105 349.618C693.114 349.615 693.113 349.616 693.1 349.619C693.036 349.633 692.701 349.709 691.902 349.832C691.221 349.936 690.824 349.99 690.346 350.055C689.89 350.116 689.361 350.188 688.44 350.324C687.224 350.503 685.648 350.754 684 351.135C682.147 341.883 678.82 331.872 675.505 324.413C675.25 323.838 674.967 322.968 674.546 321.167C674.479 320.879 674.397 320.513 674.302 320.091C673.951 318.523 673.425 316.175 672.816 314.118C672.159 311.899 671.187 309.132 670.402 306.897C670.063 305.931 669.759 305.065 669.53 304.384C668.524 301.398 668.073 299.589 667.948 298.462C666.831 288.406 663.569 279.266 660.746 271.797C660.295 270.601 659.857 269.455 659.435 268.348C657.014 262.001 655.103 256.994 653.965 251.871C652.86 246.897 650.627 241.832 649.188 238.566C648.979 238.09 648.786 237.653 648.616 237.26C647.991 235.814 647.516 234.66 647.155 233.67ZM732.705 334.236C732.705 334.236 732.705 334.253 732.704 334.284C732.704 334.251 732.705 334.236 732.705 334.236ZM709.314 174.188C709.317 174.6 709.323 175.011 709.333 175.42C709.194 177.462 708.302 179.902 707.165 181.387C707.15 181.402 706.972 181.604 706.541 182.003C706.013 182.492 705.318 183.082 704.436 183.789C703.556 184.494 702.623 185.209 701.593 185.995C701.522 186.049 701.45 186.104 701.377 186.16C700.462 186.859 699.414 187.658 698.469 188.414C694.378 191.687 689.643 195.508 685.371 199.295C684.922 199.457 684.263 199.662 683.393 199.877C681.14 200.435 678.722 200.764 677.421 200.861C676.21 200.951 675.036 201.041 673.89 201.129C668.154 201.569 663.137 201.953 657.895 201.953C657.093 201.953 656.375 201.958 655.718 201.962C653.883 201.973 652.512 201.981 651.046 201.885C649.591 201.789 649.014 201.625 648.976 201.622C645.222 199.946 641.276 199.45 639.488 199.23C637.966 199.043 637.135 198.962 636.571 198.907C636.495 198.899 636.423 198.892 636.355 198.885C636.523 198.303 636.773 197.606 637.122 196.802C637.607 195.684 638.198 194.551 638.832 193.442C642.299 187.375 649.114 181.457 657.096 177.466C659.86 176.084 662.554 174.608 664.918 173.313C665.34 173.082 665.752 172.856 666.152 172.638C668.926 171.124 671.279 169.874 673.58 168.823C678.011 166.8 681.726 165.771 685.8 165.771C694.211 165.771 704.578 169.498 709.231 173.737C709.256 173.829 709.289 173.977 709.314 174.188ZM691.053 382.351C691.013 382.364 690.993 382.369 690.993 382.369C690.993 382.369 691.012 382.362 691.053 382.351Z" fill="white"/>
<path fill-rule="evenodd" clip-rule="evenodd" d="M232.822 200.382C236.434 197.785 241.727 195 249 195C257.837 195 265 202.163 265 211C265 219.221 258.8 225.994 250.82 226.898C250.618 227.063 250.364 227.274 250.022 227.559C249.896 227.663 249.758 227.778 249.606 227.904C248.623 228.721 247.075 229.995 245.202 231.225C243.786 232.155 242.343 233.445 240.095 235.683C239.81 235.967 239.501 236.279 239.169 236.612C237.23 238.563 234.537 241.273 231.567 243.662C220.763 252.35 211.479 265.728 202.803 279.71C190.595 299.386 179.353 320.279 168.98 341.329C168.421 342.464 167.862 343.596 167.305 344.725C158.927 361.696 150.822 378.113 146.463 394.173C137.483 427.25 131.07 460.396 131.07 493.301C131.07 495.176 131.052 496.8 131.037 498.235C130.984 503.135 130.955 505.833 131.726 508.778C133.479 515.477 134.924 523.267 134.924 531.234C134.924 532.994 135.086 534.878 135.339 537.651L135.358 537.854C135.572 540.202 135.85 543.236 135.884 546.437C135.938 546.642 136.031 546.967 136.202 547.55L136.241 547.682C136.46 548.426 136.838 549.711 137.14 551.084C137.475 552.61 137.814 554.645 137.814 557C137.814 565.837 130.651 573 121.814 573C113.222 573 106.211 566.227 105.831 557.728C105.777 557.523 105.683 557.194 105.499 556.57L105.466 556.456C105.244 555.702 104.862 554.402 104.556 553.001C104.22 551.462 103.887 549.429 103.887 547.082C103.887 545.244 103.723 543.306 103.472 540.562L103.446 540.276C103.22 537.807 102.924 534.574 102.924 531.234C102.924 526.95 102.12 522.043 100.769 516.882C98.7869 509.308 98.9366 501.262 99.0348 495.984C99.0534 494.982 99.0702 494.081 99.0702 493.301C99.0702 456.391 106.247 420.171 115.58 385.79C120.796 366.578 130.25 347.461 138.316 331.153C138.98 329.811 139.634 328.488 140.276 327.185C150.973 305.476 162.715 283.625 175.612 262.838C184.341 248.771 196.06 231.153 211.512 218.726C212.987 217.539 214.256 216.269 216.208 214.315C216.612 213.91 217.046 213.476 217.517 213.007C219.964 210.57 223.333 207.303 227.639 204.476C227.904 204.302 228.28 204.019 229.161 203.287C229.247 203.215 229.346 203.133 229.456 203.041C230.213 202.409 231.493 201.338 232.822 200.382Z" fill="white"/>
<path fill-rule="evenodd" clip-rule="evenodd" d="M771 232C771 223.163 778.163 216 787 216C794.811 216 800.871 220.211 803.266 221.907C804.519 222.795 805.777 223.77 806.663 224.457C806.833 224.589 806.989 224.71 807.128 224.818C807.631 225.205 807.997 225.482 808.3 225.701C808.577 225.901 808.703 225.982 808.717 225.99L808.718 225.991C814.107 229.271 819.01 233.361 822.809 236.53C823.74 237.307 824.605 238.028 825.394 238.669L825.67 238.892C832.16 244.158 838.668 249.439 845.231 256.928C846.663 258.562 848.231 260.303 849.875 262.128C854.731 267.519 860.25 273.646 864.892 279.943C890.093 314.123 906.57 352.177 916.789 391.69C926.518 429.307 930.8 466.71 929.878 505.421C929.469 522.585 926.161 539.742 923.209 555.05C922.887 556.721 922.569 558.37 922.259 559.994C920.606 568.675 912.228 574.371 903.548 572.717C894.867 571.064 889.171 562.686 890.825 554.006C891.131 552.4 891.436 550.807 891.74 549.228C894.762 533.486 897.545 518.993 897.887 504.66C898.738 468.896 894.795 434.447 885.809 399.703C876.432 363.448 861.514 329.284 839.136 298.932C835.495 293.994 831.561 289.627 827.067 284.637C825.202 282.566 823.241 280.388 821.164 278.018C816.539 272.741 811.973 268.988 805.231 263.517C803.749 262.314 802.444 261.23 801.252 260.24C797.775 257.352 795.252 255.256 792.081 253.326C790.285 252.233 788.623 250.957 787.587 250.158C787.327 249.958 787.089 249.774 786.869 249.603C786.008 248.937 785.408 248.472 784.769 248.02C784.65 247.936 784.544 247.862 784.449 247.798C776.825 246.576 771 239.968 771 232Z" fill="white"/>
<path d="M136.602 623.616C106.291 634.061 81.1008 643.277 80.4864 643.891C78.6432 645.734 86.2208 673.178 92.16 685.466C100.966 704.102 109.158 710.656 123.085 710.656C133.53 710.656 142.95 705.331 149.914 695.296C156.467 685.875 156.877 685.875 165.478 687.104C178.381 688.947 194.765 683.622 202.342 674.816C213.811 661.914 213.606 643.482 201.523 618.906C197.632 610.918 193.741 604.16 192.922 604.16C192.102 604.365 166.707 612.966 136.602 623.616ZM179.814 649.011C180.634 656.998 177.357 661.504 171.008 661.504C166.707 661.504 157.696 653.107 157.696 649.011C157.696 647.168 174.08 641.229 177.152 641.843C178.381 642.048 179.405 645.325 179.814 649.011ZM134.758 664.986C135.987 677.478 118.989 682.189 114.483 670.31C113.459 667.648 112.64 664.576 112.64 663.552C112.64 661.094 123.085 657.613 129.024 658.022C133.12 658.432 134.349 659.661 134.758 664.986Z" fill="white"/>
<path d="M838.656 610.714C824.935 618.086 813.056 638.566 813.056 653.926C813.261 667.648 825.344 685.261 838.247 689.971C854.221 696.115 869.581 689.971 880.845 673.587C889.447 660.89 895.591 657.408 902.963 661.504C910.951 665.6 907.264 677.888 897.843 677.888C894.362 677.888 892.519 680.346 889.037 689.357C883.303 704.307 883.507 708.198 889.856 709.837C899.277 712.09 909.312 708.608 918.938 699.802C930.611 689.152 935.731 678.093 935.936 663.962C935.936 651.469 932.455 643.686 923.853 636.314C905.011 620.544 878.183 626.074 863.027 649.011C857.088 658.227 853.197 660.275 847.872 657.408C839.271 652.902 842.957 642.253 853.197 642.048C858.112 642.048 859.546 640.819 862.413 632.832C868.967 614.4 868.967 612.966 861.799 610.509C853.811 607.642 843.981 607.642 838.656 610.714Z" fill="white"/>
<path d="M795.648 688.947C784.384 704.717 760.013 741.376 758.17 744.858C755.917 748.954 757.146 750.387 774.759 763.29C785.203 770.867 807.322 786.432 824.115 797.696L854.426 818.176L859.955 811.213C862.823 807.526 872.858 793.6 882.074 780.493L898.867 756.736L890.88 748.954C886.375 744.858 882.074 741.376 880.845 741.376C879.821 741.376 873.063 749.158 866.099 758.784C858.931 768.41 852.173 776.192 850.944 776.192C849.715 776.192 845.619 773.53 841.933 770.458L835.175 764.723L840.499 756.941C843.367 752.64 845.824 748.339 845.824 747.725C845.824 747.11 841.114 743.219 835.379 739.328L824.935 732.365L821.043 737.28C818.995 740.147 816.743 744.038 815.923 745.882C814.285 751.002 809.984 750.387 802.816 743.834L796.672 738.304L807.936 721.101C814.08 711.68 819.2 702.669 819.2 701.235C819.2 698.163 803.635 686.08 799.949 686.08C798.72 686.08 796.672 687.309 795.648 688.947Z" fill="white"/>
<path d="M215.04 709.222C185.344 720.691 124.518 748.339 123.494 751.002C122.88 752.23 125.747 758.374 129.843 764.723C137.83 777.216 137.83 777.216 156.467 769.229C170.394 763.494 171.622 768.41 159.744 782.541C155.238 787.866 151.552 793.6 151.552 795.238C151.552 798.72 163.635 817.152 165.888 817.152C167.936 817.152 244.326 738.714 249.856 730.931L253.747 725.606L245.555 714.138C241.05 707.789 236.134 702.464 234.906 702.464C233.472 702.669 224.666 705.741 215.04 709.222ZM199.68 748.544C189.85 757.35 186.368 758.784 184.934 754.483C184.525 753.05 205.414 739.738 208.896 739.533C209.51 739.533 205.414 743.629 199.68 748.544Z" fill="white"/>
<path d="M698.573 712.294C694.682 714.138 689.562 718.234 687.309 721.51L683.213 727.245L700.006 744.038L716.8 760.832L721.306 756.326L725.811 751.616L720.691 746.291C716.39 741.376 716.186 740.966 719.872 742.195C729.907 745.882 734.413 745.677 738.099 741.581C741.786 737.485 741.786 737.28 736.461 735.232C733.389 734.208 729.702 733.184 728.064 733.184C721.92 733.184 719.667 730.931 720.486 725.402C721.306 719.053 716.186 711.68 709.632 709.837C707.379 709.222 702.259 710.246 698.573 712.294ZM707.994 724.173C709.837 728.883 705.331 732.365 701.44 729.088C698.982 727.04 698.778 725.811 700.621 723.763C703.693 720.077 706.355 720.077 707.994 724.173Z" fill="white"/>
<path d="M314.368 729.088C302.899 740.557 296.55 743.629 301.056 735.232C302.694 732.16 302.285 730.317 299.008 727.04C293.888 721.92 292.454 722.739 287.744 732.16C284.672 739.123 284.672 739.942 287.744 744.653C289.587 747.52 293.478 750.797 296.346 752.23C303.514 755.507 313.139 749.773 326.246 734.618C336.077 723.354 336.486 722.739 332.595 719.872C330.547 718.234 328.294 716.8 327.68 716.8C327.066 716.8 321.126 722.33 314.368 729.088Z" fill="white"/>
<path d="M672.973 737.075C669.286 741.171 669.286 741.581 678.707 755.098C684.646 763.904 687.514 769.434 686.08 770.867C683.418 773.53 679.936 770.253 670.515 756.736C662.528 745.062 659.661 743.424 655.36 748.544C653.312 751.002 654.95 754.483 663.962 767.386C673.382 781.107 675.84 783.36 681.574 783.974C686.694 784.589 689.562 783.36 694.272 778.445C697.754 775.168 700.416 771.072 700.416 769.638C700.416 765.747 687.104 743.629 681.165 737.69L676.659 732.979L672.973 737.075Z" fill="white"/>
<path d="M333.414 741.786C323.994 752.026 316.826 765.133 318.464 770.048C319.898 774.349 330.752 782.336 335.258 782.336C341.402 782.336 362.496 757.555 362.496 750.182C362.496 748.544 359.834 744.448 356.557 741.171C348.57 733.184 341.197 733.389 333.414 741.786ZM349.389 748.339C351.027 752.845 338.534 770.048 333.824 770.048C328.499 770.048 328.704 765.133 334.029 756.531C340.173 746.496 347.341 742.81 349.389 748.339Z" fill="white"/>
<path d="M370.483 756.122C369.05 758.784 365.363 768.614 362.291 778.24L356.557 795.648L360.858 799.13C363.11 801.178 365.568 802.816 366.387 802.816C367.821 802.816 387.277 781.517 395.674 770.867C399.155 766.566 399.155 766.362 394.445 763.085C389.53 760.013 389.325 760.218 381.747 770.048C377.446 775.578 373.76 779.878 373.35 779.469C372.941 779.059 374.579 774.554 376.832 769.229C381.952 757.146 381.952 756.326 376.832 753.664C373.555 752.026 372.531 752.435 370.483 756.122Z" fill="white"/>
<path d="M263.987 762.266C260.096 767.181 244.531 786.227 229.376 804.864C214.016 823.501 199.885 841.114 197.837 843.981L194.355 849.51L203.162 856.678C214.221 865.485 221.184 869.171 223.027 866.918C223.846 866.099 228.557 859.955 233.472 853.197C238.387 846.643 242.893 842.138 243.302 843.366C243.712 844.595 242.074 853.402 239.821 863.232C237.363 873.062 235.52 881.664 235.52 882.688C235.52 884.326 258.662 903.168 260.71 903.168C262.963 903.168 270.336 859.136 270.336 846.234C270.336 844.39 271.36 844.186 274.227 845.824C281.19 849.51 296.755 848.282 305.562 843.366C317.03 836.813 322.15 827.392 322.15 813.261C322.15 799.13 317.235 788.685 304.742 777.011C296.346 768.819 275.046 753.664 271.974 753.664C271.36 753.664 267.674 757.555 263.987 762.266ZM286.106 797.082C291.635 802.202 292.045 808.141 287.334 813.466C282.829 818.381 277.914 818.176 271.36 812.442L266.035 807.936L271.77 800.358C278.528 791.347 279.757 791.142 286.106 797.082Z" fill="white"/>
<path d="M629.35 761.856C623.821 765.133 622.592 767.181 622.592 772.506C622.592 781.926 634.88 803.43 641.638 805.683C648.192 808.141 655.974 805.069 660.48 798.106C663.347 793.395 663.347 792.371 660.275 784.589C656.589 775.578 653.107 774.144 645.734 779.264C640.409 782.95 641.638 788.48 647.577 788.48C652.083 788.48 651.673 793.19 646.963 794.214C643.277 794.829 634.88 780.698 634.88 774.144C634.88 770.458 635.699 769.843 639.795 770.867C645.325 772.301 651.264 770.662 651.264 767.795C651.264 764.518 643.277 757.76 639.59 757.76C637.542 757.76 632.832 759.603 629.35 761.856Z" fill="white"/>
<path d="M403.661 773.53C398.746 782.95 389.53 813.056 391.168 814.08C395.878 816.947 416.358 823.091 417.997 822.067C422.298 819.405 419.635 813.67 413.286 811.827C405.299 809.37 403.456 801.382 411.034 802.202C416.768 802.816 419.84 795.034 414.925 792.166C410.829 789.914 410.624 784.384 414.515 784.384C416.154 784.384 420.045 785.408 423.322 786.637C428.032 788.275 429.466 788.07 431.514 785.203C432.947 783.155 434.176 780.902 434.176 780.083C434.176 778.65 410.829 770.048 407.142 770.048C406.323 770.048 404.89 771.686 403.661 773.53Z" fill="white"/>
<path d="M594.534 776.397C588.595 778.65 583.68 781.722 583.68 783.155C583.68 788.07 597.606 824.32 599.245 824.32C600.269 824.32 606.822 822.477 613.99 820.429C625.254 816.947 626.688 815.923 625.459 812.237C624.64 809.779 624.026 807.731 623.821 807.526C623.616 807.322 619.93 808.141 615.834 809.37C609.894 811.213 607.642 811.213 605.594 809.165C603.75 807.117 603.955 806.093 606.822 803.84C612.147 799.949 610.509 793.6 604.16 793.6C595.968 793.6 596.582 787.251 604.979 784.384C613.376 781.722 615.014 779.878 613.171 775.373C611.533 771.072 607.642 771.277 594.534 776.397Z" fill="white"/>
<path d="M723.968 776.192C718.848 778.24 692.224 800.563 689.562 805.069C687.923 807.731 692.224 814.49 711.885 838.861C737.28 870.4 763.085 899.072 766.362 899.072C767.181 899.072 776.397 892.109 786.637 883.302L805.274 867.738L803.84 852.173C801.997 832.102 797.491 820.634 785.613 805.069C767.591 781.722 740.762 769.024 723.968 776.192ZM756.327 816.128C765.338 822.272 770.048 830.669 770.048 840.294C770.048 847.258 765.952 852.992 762.061 851.558C761.037 851.354 754.279 843.366 746.906 834.355C734.618 818.995 733.799 817.357 736.871 814.285C741.581 809.574 747.52 810.189 756.327 816.128Z" fill="white"/>
<path d="M440.32 788.48C438.067 790.733 436.224 794.829 436.224 797.696C436.224 803.021 444.211 813.056 448.512 813.056C449.536 813.056 450.56 814.899 450.56 817.152C450.56 821.862 447.488 822.682 445.03 818.586C444.211 816.947 440.934 815.104 437.862 814.285C432.742 813.056 432.128 813.466 432.128 817.971C432.128 828.826 452.198 835.994 459.162 827.802C466.534 819.2 464.282 808.96 453.427 801.997C449.536 799.334 448.717 797.696 450.355 796.058C451.994 794.419 453.632 795.034 456.704 798.31C462.643 804.659 468.992 804.25 468.992 797.696C468.992 785.818 449.331 779.469 440.32 788.48Z" fill="white"/>
<path d="M550.502 785.818C545.997 787.046 545.997 788.89 550.298 813.466L553.574 833.536H560.538C570.163 833.536 581.632 828.416 581.837 823.91C582.246 817.562 581.427 814.285 578.15 810.598C576.102 808.346 575.488 805.274 576.307 801.792C577.536 796.672 574.874 788.685 570.573 786.022C568.115 784.384 556.237 784.179 550.502 785.818ZM565.043 802.202C561.971 805.888 558.08 802.406 559.923 797.696C560.947 794.829 561.766 794.624 564.224 796.672C566.682 798.72 566.886 799.949 565.043 802.202ZM568.32 818.176C568.32 820.224 567.091 822.272 565.862 822.682C564.224 823.296 563.2 821.658 563.2 818.176C563.2 814.694 564.224 813.056 565.862 813.466C567.091 814.08 568.32 816.128 568.32 818.176Z" fill="white"/>
<path d="M342.835 817.562C342.016 820.224 332.39 843.981 321.536 870.4C310.477 896.819 300.851 920.576 300.237 922.829C299.008 926.515 300.441 927.744 309.248 931.635C314.777 934.093 321.945 936.55 325.017 937.165C330.547 938.189 330.957 937.574 336.896 921.6C343.654 902.963 345.497 903.782 346.112 925.696C346.726 946.995 347.545 948.224 363.315 954.778C371.097 957.85 377.856 960.512 378.265 960.512C380.313 960.512 376.422 926.925 371.712 905.626C370.688 901.53 371.302 901.12 378.061 901.12C400.998 901.12 417.997 878.387 411.443 856.269C406.118 838.656 392.397 827.597 363.725 817.971C346.112 811.827 344.678 811.827 342.835 817.562ZM372.736 850.944C380.109 854.835 381.133 863.642 374.989 869.171C371.507 872.243 369.869 872.448 363.725 870.4C355.328 867.738 355.123 867.328 359.629 856.064C363.315 846.848 364.339 846.643 372.736 850.944Z" fill="white"/>
<path d="M500.122 818.586C500.736 823.501 501.76 824.32 506.88 824.32C512 824.32 513.024 823.501 513.638 818.586C514.253 813.466 513.843 813.056 506.88 813.056C499.917 813.056 499.507 813.466 500.122 818.586Z" fill="white"/>
<path d="M662.528 822.067C646.963 829.235 646.758 826.573 664.371 869.99C673.178 891.699 679.936 910.746 679.526 912.589C678.707 917.299 672.973 920.576 668.877 918.938C665.19 917.504 649.011 884.531 636.928 854.426C632.422 842.957 629.146 837.632 626.893 837.632C625.05 837.632 618.701 839.885 612.966 842.752L602.112 847.667L606.413 857.498C608.666 862.822 617.062 883.302 625.05 902.758C635.494 928.563 641.024 939.418 645.325 943.104C653.517 949.862 666.624 951.501 680.55 947.405C700.006 941.67 711.27 928.768 711.066 912.384C710.861 902.758 700.211 871.014 686.899 840.499C676.659 817.357 675.226 816.333 662.528 822.067Z" fill="white"/>
<path d="M574.464 849.715C566.477 850.944 566.067 851.354 559.104 867.738C555.213 877.158 551.322 884.736 550.707 884.736C549.888 884.736 548.659 877.773 547.84 869.171L546.202 853.606L532.685 855.04C525.312 855.859 518.758 856.883 518.349 857.293C517.12 858.522 529.408 967.27 531.661 975.258C532.48 977.715 534.733 978.944 539.238 978.944C545.587 978.944 560.742 975.872 562.176 974.438C562.586 974.234 561.562 966.042 559.923 956.416C558.49 946.79 557.056 938.598 557.056 938.189C557.056 937.574 560.538 942.899 564.838 949.658C579.174 972.8 579.994 973.619 593.101 971.981C599.45 971.162 605.798 969.933 607.232 969.114C609.075 968.09 604.365 959.488 591.667 940.032C581.837 924.877 573.645 911.155 573.645 909.926C573.44 908.493 578.15 895.795 583.68 881.664C589.414 867.533 593.92 854.221 593.92 851.968C593.92 847.667 590.848 847.258 574.464 849.715Z" fill="white"/>
<path d="M444.826 870.81C436.429 892.109 413.696 961.741 413.696 966.042C413.696 968.499 433.971 973.619 439.91 972.39C441.958 971.981 445.235 966.861 448.307 958.874C451.789 950.067 454.451 946.176 456.909 946.176C459.981 946.176 460.8 948.634 462.029 960.307C463.258 973.824 463.667 974.643 469.606 976.691C472.883 977.92 479.437 978.944 483.942 978.944H492.134L490.701 946.176C489.472 917.094 484.147 854.016 482.714 852.992C482.509 852.582 475.75 851.968 467.763 851.149L453.222 849.715L444.826 870.81ZM463.462 908.698C462.643 919.962 461.619 923.648 459.366 923.648C457.114 923.648 456.704 922.214 457.523 918.938C458.138 916.48 459.571 909.517 461.005 903.578C462.234 897.434 463.462 892.928 463.872 893.338C464.282 893.747 464.077 900.71 463.462 908.698Z" fill="white"/>
</svg>
