<svg width="5157" height="1403" viewBox="0 0 5157 1403" fill="none" xmlns="http://www.w3.org/2000/svg">
  <path fill-rule="evenodd" clip-rule="evenodd"
    d="M3827.52 94.4991C3823.79 97.7041 3823.53 98.8271 3821.85 118.591C3820.88 129.992 3819.25 146.53 3818.22 155.342C3816.51 169.942 3816.56 171.694 3818.79 175.096C3823.15 181.748 3833.53 181.909 3837.8 175.391C3842.74 167.846 3849.12 101.418 3845.34 96.7651C3840.3 90.5431 3833.17 89.6371 3827.52 94.4991ZM3616.95 98.6091C3607.86 99.2981 3590.7 100.097 3578.84 100.386C3566.97 100.675 3555 101.298 3552.23 101.772C3549.46 102.245 3536.98 103.218 3524.49 103.933C3495.38 105.602 3490.88 107.527 3472.38 126.252C3449.33 149.589 3441.61 164.385 3440.4 187.598C3439.53 204.21 3441.59 212.501 3451.24 231.374C3462.28 252.941 3477.2 265.47 3508.57 279.524C3528.23 288.331 3528.7 288.674 3537.3 300.725L3543.75 309.772L3542.21 320.846C3541.36 326.937 3539.87 332.426 3538.9 333.045C3535.7 335.076 3518.56 334.269 3502.61 331.338C3453.57 322.328 3424.89 333.899 3402.26 371.837C3392.42 388.312 3390.43 393.594 3388.16 409.114C3382.79 445.817 3397.93 472.295 3424.27 472.295C3436.82 472.295 3447.57 466.231 3460.51 451.849C3473.35 437.576 3480.95 433.494 3494.7 433.476C3505.41 433.463 3513.04 436.547 3515.99 442.09C3518.71 447.211 3517.14 481.942 3513.39 499.521C3509.8 516.389 3502.65 537.47 3493.86 557.164C3483.04 581.37 3476.05 598.987 3473.79 607.706C3468.43 628.347 3475.02 699.613 3484.16 719.981C3490.63 734.415 3506.83 746.324 3525.22 750.183C3532.22 751.651 3534.53 751.541 3541.26 749.42C3551.51 746.189 3562.59 736.267 3568.07 725.397C3579.54 702.686 3589.35 653.944 3591.81 607.498C3592.89 587.102 3595 568.365 3597.07 560.752C3598.54 555.356 3598.98 557.049 3604.14 588.081C3607.29 607.007 3610.29 631.318 3611.15 644.895C3614.63 699.289 3617.14 716.415 3623.89 731.673C3632.9 752.038 3654.94 760.903 3676.23 752.725C3691.91 746.701 3699.4 735.579 3702.05 714.357C3704.33 696.068 3701.63 622.407 3697.41 587.763C3695.85 575.004 3685.85 539.431 3675.05 508.253C3667.49 486.423 3665.68 471.908 3668.7 457.365C3671.48 443.96 3672.35 443.528 3696.69 443.528C3720.01 443.528 3733.44 441.316 3747.02 435.234C3755.3 431.526 3768.5 421.953 3774.17 415.541C3788.4 399.471 3816.06 341.994 3824.94 310.07C3826.3 305.155 3827.8 301.141 3828.27 301.151C3828.73 301.161 3830.53 303.366 3832.27 306.051C3834.01 308.737 3840.81 315.437 3847.37 320.941C3865.96 336.518 3893.72 366.008 3911.09 388.631C3936.73 422.013 3934.94 418.731 3942.89 447.078C3945.58 456.655 3945.54 491.691 3942.83 505.862C3940.17 519.771 3930.64 550.51 3924.69 564.348C3917.93 580.104 3905.11 618.386 3903.32 628.181C3900.62 642.932 3898.62 693.402 3900.26 705.336C3903.05 725.62 3917.85 749.23 3932.86 757.358C3946.9 764.961 3962.41 763.927 3971.56 754.775C3977.54 748.794 3981.05 739.353 3985.95 716.018C3989.36 699.811 3989.98 692.82 3990.75 662.155C3991.61 628.191 3991.76 626.745 3995.02 622.182C3997.8 618.285 3998.77 617.758 4000.51 619.2C4005.48 623.333 4006.87 629.514 4008.94 656.786C4010.98 683.665 4015.14 705.337 4020.04 714.627C4022.39 719.092 4034.65 734.439 4042.02 742.135C4049.65 750.115 4060.27 753.371 4075.74 752.476C4099.18 751.119 4105.7 742.681 4114.96 701.709C4117.85 688.937 4118.2 683.621 4118.11 654.244C4118.03 626.394 4117.39 616.727 4114.09 593.115C4111.93 577.689 4108.86 559.971 4107.28 553.742C4105.69 547.513 4104.59 540.13 4104.83 537.335C4105.23 532.755 4105.75 533.589 4110.1 545.783C4116.26 563.058 4121.59 572.422 4132.49 585.081C4144.28 598.78 4148.77 602.688 4155.92 605.483C4169.7 610.865 4191.99 604.032 4203.57 590.874C4210.33 583.193 4212.63 575.173 4215.92 547.732C4218.73 524.377 4218.76 504.816 4216.02 491.712C4213.35 478.934 4204.6 461.187 4195.31 449.711C4191.34 444.805 4186.37 438.009 4184.25 434.609C4182.13 431.208 4178.11 425.585 4175.3 422.114C4168.24 413.391 4135.9 392.482 4120.37 386.6C4113.65 384.054 4103.61 380.053 4098.08 377.709L4088.01 373.447L4088.09 363.49C4088.15 354.767 4088.72 352.737 4092.62 347.11C4099.21 337.601 4108.42 328.531 4120.68 319.465C4126.68 315.026 4132.02 310.69 4132.56 309.828C4133.09 308.966 4137.06 305.653 4141.37 302.466C4145.68 299.279 4151.95 293.645 4155.29 289.947C4158.63 286.249 4166.99 277.259 4173.87 269.97C4196.28 246.208 4203.16 225.767 4197.42 199.968C4194.43 186.502 4186.25 165.967 4180.64 157.808C4175.88 150.89 4158.21 136.427 4150.58 133.196C4147.81 132.025 4139.05 129.895 4131.12 128.463C4123.19 127.031 4111.21 123.83 4104.51 121.35C4094.67 117.709 4088.86 116.593 4074.34 115.561C4064.46 114.858 4051.19 113.528 4044.86 112.606C4036.94 111.452 4021.49 111.226 3995.31 111.88C3952.86 112.94 3950.47 113.436 3939.34 123.487C3932.71 129.484 3922.47 143.315 3917.66 152.778C3911.2 165.483 3908.32 192.101 3911.95 205.484C3912.81 208.648 3917.92 217.759 3923.31 225.729C3928.7 233.7 3935.08 244.846 3937.48 250.499C3942.46 262.199 3951.05 275.376 3957.84 281.716C3960.38 284.089 3968.21 292.634 3975.23 300.705C3987.94 315.305 3987.99 315.391 3984.83 317.606C3980.04 320.957 3976.98 320.363 3967.95 314.332C3955.7 306.152 3932.58 279.293 3921.93 260.86C3915.78 250.208 3900.65 234.016 3885.56 221.944C3873.45 212.251 3854.3 211.375 3838.11 219.774L3831.27 223.325L3829.2 219.33C3823.35 208.006 3807.55 199.451 3795.21 200.913C3777.95 202.957 3767.61 214.161 3749.84 250.072C3730.75 288.66 3719.41 309.985 3714.47 316.606C3711.95 319.973 3705.81 325.389 3700.82 328.64C3695.83 331.891 3689.78 336.801 3687.36 339.552L3682.97 344.553L3673.44 342.894C3668.2 341.981 3661.86 340.374 3659.34 339.323C3647.82 334.512 3642.3 320.964 3645.66 305.808C3650.01 286.237 3651.82 283.416 3675.78 258.769C3710.95 222.601 3723.23 205.64 3728.45 186.056C3735.03 161.301 3725.98 131.398 3706.71 114.265C3688.68 98.2351 3668.47 94.7091 3616.95 98.6091ZM3746.51 120.75C3743.14 123.586 3742.09 125.66 3742.09 129.446C3742.09 135.295 3747.37 141.451 3752.45 141.528C3754.58 141.561 3761.37 146.694 3771.58 155.988C3780.28 163.913 3788.99 171.046 3790.94 171.839C3798.42 174.889 3806.81 168.98 3806.81 160.661C3806.81 155.659 3807.54 156.463 3779.81 130.834C3764.22 116.431 3754.98 113.631 3746.51 120.75ZM3894.34 121.082C3886.6 125.031 3874.36 136.129 3858.49 153.599C3845.89 167.466 3844.21 169.932 3844.21 174.563C3844.21 181.258 3848.97 186.067 3855.59 186.067C3859.8 186.067 3863.08 183.261 3886.06 160.038C3913.58 132.227 3914.69 130.424 3908.58 123.696C3904.06 118.729 3900.31 118.04 3894.34 121.082ZM3672.93 130.882C3679.18 132.133 3690.73 142.891 3694.71 151.171C3699.12 160.353 3699.29 175.408 3695.1 184.628C3690.2 195.409 3676.01 212.832 3651.02 238.738C3637.96 252.281 3626 265.874 3624.44 268.943C3619.36 278.942 3613.84 298.736 3613.05 309.818C3611.67 329.065 3616.92 344.338 3629.12 356.593C3639.03 366.537 3649.52 371.34 3668.32 374.541C3690.31 378.283 3694.86 377.13 3708.3 364.412C3713.95 359.063 3720.55 353.661 3722.98 352.409C3735.33 346.023 3751.13 320.929 3779.82 262.165C3789.49 242.348 3795.39 233.532 3798.98 233.532C3810.22 233.532 3801.12 289.639 3782.95 332.361C3770.89 360.697 3756.33 387.622 3749.14 394.854C3736.33 407.758 3722.9 411.831 3693.09 411.864C3656.72 411.903 3645.04 419.586 3637.95 448.12C3632.02 472.002 3633.24 484.276 3644.98 519.041C3656.62 553.505 3664.4 581.88 3665.83 595.032C3668.65 621.056 3670.47 663.035 3669.97 690.68C3669.49 717.634 3669.23 720.084 3666.66 721.964C3665.13 723.086 3662.42 724.003 3660.65 724.003C3652.51 724.003 3647.99 709.153 3645.71 674.85C3642.5 626.737 3641.25 615.127 3635.66 581.402C3629.12 541.942 3628.3 538.755 3622.97 532.429C3617.43 525.842 3602.38 519.406 3592.05 519.204C3584.01 519.047 3583.46 519.278 3578.14 524.968C3567.82 536.028 3562.21 560.956 3559.42 608.217C3557.28 644.445 3551.74 676.739 3543.37 701.651C3539.41 713.424 3535.75 718.25 3530.77 718.25C3526.97 718.25 3517.57 712.559 3513.81 707.977C3511.09 704.673 3507.95 684.283 3505.26 652.528C3502.31 617.537 3502.17 618.237 3519.18 579.419C3532.1 549.912 3540.78 525.032 3545.32 504.45C3547.9 492.776 3548.46 485.452 3548.54 462.946C3548.63 435.862 3548.6 435.544 3544.62 427.445C3537.49 412.92 3523.59 404.091 3504.51 401.965C3478.65 399.083 3460.91 405.718 3441.45 425.546C3426.77 440.513 3424.46 442.024 3421.81 438.401C3419.23 434.87 3419.31 412.89 3421.93 404.178C3424.72 394.896 3435.82 377.533 3443.46 370.492C3454.64 360.182 3470.21 358.029 3497.6 363.003C3507.47 364.795 3521.7 366.313 3529.22 366.375C3541.02 366.472 3543.96 365.985 3550.79 362.791C3564.84 356.225 3570.09 348.89 3573.2 331.456C3575.53 318.354 3575.75 306.6 3573.77 299.499C3571.97 292.988 3554.8 269.743 3547.58 264.024C3544.62 261.685 3533.94 256.065 3523.84 251.535C3496.54 239.286 3487.65 231.97 3478.42 214.114C3472.9 203.445 3472.47 201.77 3472.46 191.101C3472.45 177.017 3474.83 171.865 3489.25 154.827C3504.5 136.797 3505.23 136.483 3532.81 136.249C3545.47 136.141 3561.65 135.328 3568.77 134.442C3599.09 130.668 3661.24 128.544 3672.93 130.882ZM3619.6 144.386C3613.04 147.853 3608.32 153.704 3608.32 158.381C3608.32 161.92 3608.28 161.907 3602.67 156.844C3593.55 148.605 3579.15 146.383 3564.01 150.881C3554.93 153.576 3549.96 158.625 3547.16 167.989C3542.52 183.507 3545.68 197.988 3555.94 208.252C3564.48 216.788 3572.74 220.587 3582.77 220.587C3600.7 220.587 3614.03 208.588 3614.07 192.402C3614.08 189.753 3614.78 190.054 3619.86 194.887C3629.83 204.377 3645.86 207.049 3657.3 201.13C3662.22 198.589 3667.73 191.47 3669.97 184.773C3675.37 168.662 3664.94 150.107 3646.71 143.386C3639.38 140.684 3625.65 141.191 3619.6 144.386ZM4046.3 145.092C4054.21 146.238 4065.25 147.188 4070.83 147.204C4078.57 147.225 4084.52 148.428 4095.95 152.276C4104.19 155.05 4116.77 158.324 4123.92 159.552C4137.57 161.899 4143.17 164.711 4151.66 173.482C4157.14 179.156 4165.71 200.655 4167.16 212.368C4168.69 224.839 4163.54 234.166 4142.47 257.02C4133.23 267.043 4125.18 275.243 4124.57 275.243C4123.97 275.243 4120.03 278.343 4115.81 282.132C4111.6 285.921 4103.46 292.452 4097.73 296.646C4078.38 310.802 4059.99 333.868 4057.16 347.536C4056.3 351.68 4055.53 361.291 4055.46 368.893C4055.3 384.824 4057.47 391.141 4065.12 396.971C4069.63 400.415 4096.43 412.427 4110.3 417.223C4113.86 418.453 4124.25 424.224 4133.38 430.047C4148 439.37 4150.66 441.704 4155.67 449.6C4158.8 454.532 4164.5 462.464 4168.33 467.229C4172.16 471.993 4177.3 479.774 4179.75 484.521C4183.94 492.647 4184.24 494.284 4184.83 512.568C4185.17 523.248 4184.74 537.164 4183.88 543.492C4183.02 549.821 4181.91 558.335 4181.43 562.412C4180.6 569.436 4180.21 570.002 4174.06 573.2L4167.58 576.574L4161.16 569.382C4150.66 557.608 4145.27 548.393 4138.91 531.363C4128.72 504.066 4117.79 490.853 4103.62 488.729C4091.6 486.927 4082.62 493.419 4075.51 509.052C4071.05 518.858 4071.01 542.583 4075.42 559.314C4082.04 584.412 4088.52 649.978 4086.66 672.942C4085.67 685.176 4079.76 713.504 4077.21 718.273C4076.16 720.24 4074.2 721.127 4070.9 721.127C4066.69 721.127 4065.05 719.815 4057.09 710.117C4045.8 696.368 4043.43 688.193 4041.27 655.715C4038.38 612.345 4032.31 598.911 4010.75 588.125C3999.56 582.526 3991.99 581.674 3985.1 585.237C3977.16 589.344 3964.78 607.639 3960.78 621.162C3959.84 624.34 3958.56 643.334 3957.91 663.593C3956.96 693.527 3956.13 702.981 3953.44 715.014C3951.63 723.122 3949.68 729.757 3949.11 729.757C3947.31 729.757 3939.3 719.869 3935.96 713.535C3933.25 708.385 3932.68 704.621 3932.2 688.764C3931.89 678.48 3932.4 661.132 3933.33 650.213C3934.85 632.355 3935.79 628.092 3942.71 607.782C3946.94 595.364 3952.42 580.729 3954.88 575.26C3960.35 563.141 3972.64 522.782 3975.07 508.972C3976.24 502.282 3976.63 489.252 3976.21 470.137L3975.57 441.371L3969.7 423.818C3966.47 414.164 3961.71 403.16 3959.12 399.366C3937.49 367.659 3894.4 318.222 3872.83 300.383C3854.54 285.251 3851.51 279.31 3851.44 258.497C3851.4 247.246 3851.98 246.477 3860.56 246.477C3867.48 246.477 3887.54 265.556 3896.32 280.501C3902.87 291.655 3908.97 299.532 3928.1 321.543C3949.46 346.121 3971.45 355.667 3992.57 349.526C4010.67 344.265 4024.11 323.389 4019.65 307.46C4017.93 301.327 3999.13 277.635 3981.54 259.422C3976.11 253.801 3971.64 246.882 3966.1 235.518C3961.81 226.722 3954.57 214.225 3950 207.748L3941.7 195.971L3943.1 182.462C3944.42 169.659 3944.85 168.422 3951.42 158.81C3955.23 153.231 3959.8 147.716 3961.57 146.553C3964.75 144.475 3970.1 144.162 4017.53 143.276C4025.44 143.129 4038.39 143.946 4046.3 145.092ZM3993.23 157.355C3982.09 160.687 3975.06 173.281 3974.01 191.754C3973.4 202.375 3973.74 204.972 3976.51 210.861C3982.8 224.23 3994.07 230.223 4010.2 228.774C4020.56 227.843 4028.4 222.859 4035.05 212.978C4039.29 206.681 4039.69 206.419 4040.59 209.428C4043.8 220.27 4057.3 230.655 4068.17 230.655C4087.34 230.655 4105.87 212.961 4105.96 194.563C4106.02 181.675 4094.9 168.563 4080.54 164.599C4077.74 163.825 4074.18 162.052 4072.65 160.66C4066.95 155.505 4047 159.205 4042 166.344C4039.99 169.204 4039.85 169.163 4034.3 164.149C4027.55 158.055 4022 156.566 4014.03 158.713C4009.19 160.017 4007.56 159.903 4004.96 158.082C4001.46 155.631 3999.41 155.504 3993.23 157.355ZM3643.37 168.911C3650.5 174.517 3647.07 182.701 3639.12 179.077C3634.51 176.977 3633.38 173.777 3635.7 169.429C3637.98 165.172 3638.57 165.132 3643.37 168.911ZM3587.96 176.785C3588.88 178.8 3589.63 183.675 3589.63 187.619C3589.63 193.736 3589.15 194.965 3586.4 195.984C3579.42 198.564 3569.49 191.122 3569.49 183.316C3569.49 176.656 3573.18 173.122 3580.13 173.122C3585.33 173.122 3586.55 173.689 3587.96 176.785ZM4019.69 186.692C4019.69 195.921 4013.02 204.765 4006.06 204.765C4000.21 204.765 3998.11 202.495 3998.11 196.169C3998.11 191.035 3998.12 191.026 4003.86 191.573C4008.84 192.048 4010.14 191.52 4013.53 187.656C4018.25 182.276 4019.69 182.051 4019.69 186.692ZM4078.34 189.744C4082.54 192.686 4082.38 196.351 4077.81 201.778C4072.75 207.795 4066.65 207.873 4063.59 201.96C4062.39 199.626 4061.4 196.219 4061.4 194.39C4061.4 188.481 4072.28 185.497 4078.34 189.744Z"
    fill="#292524" />
  <path fill-rule="evenodd" clip-rule="evenodd"
    d="M1038.85 17.5188C1034.5 18.5368 1029.69 21.8118 1027.77 25.0758L1026.29 27.5708L1012.12 28.1678C985.383 29.2968 952.453 33.3948 937.656 37.4358C927.77 40.1358 923.136 42.9618 914.345 51.6548C902.919 62.9508 899.354 70.8358 896.2 91.7848C892.626 115.52 892.654 137.443 896.278 152.25C899.199 164.188 908.797 180.87 920.377 194.136C923.45 197.655 927.434 203.471 929.231 207.06C931.028 210.649 935.336 218.674 938.804 224.895C946.267 238.281 952.525 250.65 954.96 256.827C956.362 260.385 956.488 261.424 955.585 261.997C953.941 263.04 948.641 262.897 945.264 261.72C941.699 260.477 922.827 249.139 907.475 239.017C885.979 224.844 878.325 221.835 862.235 221.237C848.242 220.716 840.819 222.105 830.555 227.166C816.22 234.234 805.633 247.685 801.791 263.708C799.66 272.599 799.454 286.189 801.337 293.66C803.286 301.391 810.49 315.228 817.171 324.075C824.637 333.96 840.465 349.926 851.903 359.108C856.748 362.996 861.884 367.667 863.318 369.487C869.843 377.765 874.38 391.407 875.391 405.78C876.28 418.439 874.847 424.712 867.918 438.48C864.213 445.843 860.203 455.743 857.171 465.015C847.141 495.685 845.578 503.2 844.404 526.419C843.93 535.788 842.533 553.21 841.299 565.134C838.551 591.688 837.673 618.104 839.117 630.75C840.275 640.889 844.034 656.964 847.816 667.952C857.109 694.953 878.045 706.914 903.845 699.963C915.025 696.951 922.056 692.359 930.71 682.421C944.529 666.549 951.9 652.224 964.46 616.83C967.432 608.456 972.199 595.75 975.053 588.594C978.296 580.467 982.012 568.711 984.955 557.274C989.896 538.073 999.258 512.468 1003.1 507.65C1005.1 505.143 1005.29 505.096 1013.08 505.18C1017.45 505.227 1022.1 505.711 1023.41 506.256C1028.42 508.334 1031.75 516.053 1034.9 532.875C1042.63 574.064 1050.5 602.051 1063.77 635.535C1070.79 653.228 1075.43 662.557 1082.6 673.38C1096.55 694.415 1111.4 704.693 1126.3 703.627C1147.04 702.143 1161.06 676.874 1161.08 640.938C1161.08 623.851 1159.43 613.431 1150.3 572.895C1146.45 555.791 1138.9 512.947 1136.29 493.29C1134.37 478.842 1132.75 436.992 1134 433.87C1135.3 430.597 1140.02 428.746 1147.12 428.724C1155.12 428.7 1158.74 430.471 1166.31 438.113C1190.88 462.914 1245.4 483.003 1266.55 475.046C1272.74 472.714 1276.64 468.437 1281.24 458.925C1286.39 448.277 1288.37 439.805 1288.37 428.475C1288.36 417.537 1287.76 415.498 1277.97 393.395C1263.72 361.208 1248.25 338.319 1232.02 325.407C1219.34 315.315 1184.14 295.955 1165.87 289.022C1162.04 287.57 1152.25 284.357 1144.12 281.884C1135.98 279.41 1126.78 276.341 1123.67 275.065L1118.02 272.745L1114.1 264.817C1111.95 260.457 1109.48 255.833 1108.61 254.541C1107.66 253.128 1106.85 249.877 1106.57 246.374L1106.11 240.555L1109.89 238.231C1115.59 234.727 1126.34 229.548 1138.41 224.495C1160.29 215.336 1169.9 209.498 1179.18 199.727C1191.53 186.719 1198.11 171.453 1201.63 147.571C1205.34 122.428 1199.1 96.4718 1183.87 73.6688C1178.06 64.9778 1162.19 51.5528 1142.71 38.8598C1122.84 25.9058 1104.14 20.7438 1076.21 20.4998C1062.56 20.3798 1061.14 20.2168 1058.28 18.4498C1055.76 16.8938 1053.95 16.5468 1048.75 16.6168C1045.22 16.6648 1040.76 17.0708 1038.85 17.5188ZM1092.11 53.5908C1109.15 56.1178 1115.59 58.8498 1132.6 70.7698C1148.69 82.0428 1155.1 87.8498 1159.49 95.1188C1164.43 103.315 1168.77 114.913 1169.96 123.105C1171.87 136.276 1169.09 154.547 1163.31 166.767C1157.87 178.267 1149.96 184.564 1130.2 193.153C1107.27 203.112 1102.63 205.298 1095.75 209.359C1086.62 214.751 1080.35 220.46 1077.09 226.34C1074.58 230.864 1074.52 231.292 1074.58 242.73C1074.61 249.19 1075.11 256.237 1075.7 258.39C1076.28 260.543 1079.78 268.352 1083.47 275.743C1088.86 286.554 1091.14 290.158 1095.13 294.182C1101.02 300.127 1109.95 304.75 1124.13 309.194C1129.38 310.839 1138.83 313.808 1145.12 315.792C1158.58 320.033 1183.79 332.212 1200.23 342.411C1222.04 355.941 1233.92 372.318 1251.58 413.183C1256.66 424.962 1256.97 426.029 1256.48 430.583C1256.2 433.252 1255.35 437.49 1254.6 440.003C1252.95 445.519 1252.43 445.605 1240.25 442.374C1228.64 439.296 1217.55 434.876 1208.69 429.796C1198.35 423.863 1194.91 421.278 1186.31 412.948C1177.53 404.447 1171.48 400.785 1162.34 398.447C1154.69 396.491 1142.15 396.145 1134.81 397.688C1122.45 400.282 1110.51 408.73 1105.91 418.124C1101.18 427.772 1100.66 433.335 1101.8 461.535C1102.36 475.412 1103.39 490.989 1104.09 496.151C1107.01 517.676 1115.42 564.124 1120.59 587.25C1128.16 621.152 1128.43 622.973 1128.45 639.885C1128.46 655.25 1127.59 661.173 1124.4 667.524C1122.4 671.489 1121.4 671.174 1116.14 664.931C1107.53 654.718 1101.37 643.33 1092.97 622.05C1082.05 594.362 1075.17 570.999 1069.66 542.88C1064.3 515.48 1062.19 507.557 1057.98 498.839C1051.2 484.82 1040.58 476.396 1026.77 474.069C1017.31 472.476 999.163 473.457 992.735 475.909C985.786 478.56 976.433 487.825 972.556 495.9C966.439 508.638 959.017 529.699 954.501 547.131C951.597 558.342 947.627 570.852 944.206 579.576C941.143 587.386 935.981 601.213 932.733 610.305C923.017 637.504 915.156 652.51 905.123 663.003C901.559 666.73 899.547 668.088 896.419 668.875C885.155 671.711 881.398 668.496 876.269 651.63C871.409 635.651 870.931 631.829 870.99 609.435C871.033 593.063 871.549 583.859 873.379 566.805C874.662 554.842 875.928 539.574 876.191 532.875C876.454 526.176 877.07 517.563 877.56 513.735C879.698 497.027 888.986 467.603 896.983 452.204C903.318 440.006 905.656 432.817 907.095 421.107C909.304 403.132 905.123 378.845 897.056 362.79C891.677 352.084 884.178 343.566 871.37 333.615C862.48 326.708 847.207 311.161 841.735 303.448C834.338 293.021 832.221 287.811 832.221 280.022C832.219 262.213 841.823 252.869 860.143 252.855C865.923 252.85 867.571 253.238 873.279 255.949C876.869 257.654 884.581 262.248 890.416 266.157C907.993 277.933 929.704 290.52 935.748 292.439C943.661 294.952 955.686 295.529 961.944 293.697C967.851 291.967 975.89 287.267 980.39 282.913C985.311 278.151 989.006 269.826 989.106 263.271C989.245 254.155 982.393 236.858 969.877 214.734C966.542 208.838 961.605 199.608 958.907 194.222C955.394 187.211 951.967 182.022 946.843 175.952C938.114 165.614 931.097 155.12 928.766 148.918C926.419 142.677 925.133 129.453 925.788 118.32C926.569 105.06 929.512 85.4038 931.322 81.3588C932.182 79.4368 934.998 75.8868 937.58 73.4698C941.734 69.5828 943.03 68.9108 948.824 67.6458C966.545 63.7768 991.637 61.0118 1015.36 60.3138L1033.64 59.7758L1039.55 62.6248C1044.6 65.0598 1046.05 65.3938 1049.52 64.9178C1054.96 64.1718 1059.35 61.0938 1061.94 56.2188L1064.07 52.1998H1073.4C1078.53 52.1998 1086.95 52.8258 1092.11 53.5908ZM983.669 88.4288C978.945 90.0828 974.188 93.0358 969.667 97.1198C962.37 103.713 960.235 109.849 959.51 126.317C958.957 138.892 959.58 143.182 962.96 150.075C969.127 162.647 980.122 169.65 993.696 169.65C1004.04 169.65 1017.26 162.946 1023.93 154.319L1027.48 149.739L1030.72 154.867C1035.13 161.844 1043.54 169.92 1049.34 172.76C1055.47 175.757 1064.34 176.555 1070.02 174.619C1079.22 171.484 1089.77 162.027 1093.99 153.12C1095.92 149.064 1096.27 147.143 1096.27 140.505C1096.27 133.436 1096.01 132.215 1093.66 127.945C1089.53 120.476 1077.4 108.703 1070.39 105.369C1067.17 103.835 1064.12 101.816 1063.62 100.883C1062.07 97.9908 1056.4 95.6998 1050.78 95.6998C1043.39 95.6998 1037.15 97.8278 1032.81 101.835L1029.11 105.243L1026.48 101.976C1023.87 98.7238 1015.6 93.9598 1012.57 93.9598C1011.69 93.9598 1009.5 92.9598 1007.71 91.7388C1000.68 86.9668 991.469 85.6988 983.669 88.4288ZM1009.62 121.019C1011.71 127.981 1007.92 138.196 1001.52 142.83C997.022 146.092 990.078 146.338 987.34 143.333C983.921 139.579 983.288 137.284 983.453 129.26C983.542 124.99 983.743 121.367 983.901 121.209C984.059 121.051 985.436 121.357 986.961 121.889C990.61 123.161 995.197 122.23 998.169 119.614C999.946 118.05 1001.6 117.498 1004.56 117.477C1008.49 117.45 1008.57 117.507 1009.62 121.019ZM1067.91 133.706C1070.94 137.102 1072.34 139.428 1072.34 141.047C1072.34 143.833 1069.14 147.917 1064.91 150.533L1061.9 152.392L1058.9 150.535C1053.69 147.318 1046.24 135.215 1046.24 129.976C1046.24 128.143 1046.47 128.02 1048.47 128.782C1051.58 129.964 1055.85 129.788 1058.41 128.372C1061.19 126.832 1062.38 127.497 1067.91 133.706Z"
    fill="#292524" />
  <path fill-rule="evenodd" clip-rule="evenodd"
    d="M760.931 105.187C763.041 107.078 765.289 108.961 767.361 110.697C768.265 111.455 769.137 112.185 769.949 112.875C773.461 115.863 776.328 118.48 778.508 121.068C780.469 123.395 782.394 125.307 784.094 126.943C784.587 127.418 785.043 127.853 785.477 128.266C786.629 129.365 787.617 130.307 788.683 131.407C790.315 133.092 791.967 134.278 793.226 135.103C793.84 135.506 794.43 135.865 794.851 136.123L794.854 136.125C795.182 136.325 795.415 136.467 795.611 136.59C798.298 141.997 804.682 144.63 810.482 142.503C816.705 140.221 819.9 133.328 817.618 127.105C815.489 121.299 811.475 118.271 808.915 116.61C808.374 116.259 807.834 115.93 807.446 115.693C807.416 115.674 807.387 115.657 807.359 115.639C806.915 115.369 806.633 115.195 806.382 115.03C806.062 114.821 805.932 114.715 805.902 114.689C804.48 113.222 803.014 111.825 801.781 110.649C801.41 110.296 801.06 109.962 800.738 109.652C799.24 108.21 798.018 106.975 796.861 105.603C793.321 101.402 789.166 97.7135 785.497 94.5929C784.363 93.6283 783.294 92.7324 782.277 91.8807C779.759 89.7699 777.564 87.9311 775.509 85.9939C771.26 81.9898 765.053 78.5127 760.959 76.6046C760.971 76.6097 760.978 76.6112 760.978 76.6112C760.981 76.6049 760.694 76.4364 759.758 75.8556L759.693 75.8153C758.854 75.2944 757.311 74.3367 755.756 73.6058C754.982 73.2422 753.613 72.6451 751.943 72.2964C750.712 72.0394 746.523 71.2879 742.296 73.9467C737.163 77.1754 736.368 82.4055 736.39 84.933C736.411 87.3416 737.068 89.3714 737.49 90.5202C737.939 91.7458 738 93.3488 737.498 97.935C737.47 98.1933 737.439 98.4674 737.406 98.7563C736.968 102.597 736.232 109.048 738.22 115.566C740.476 122.966 740.818 131.341 741.187 141.815L741.201 142.197C741.544 151.956 741.954 163.592 745.378 174.707C746.12 177.117 746.373 179.891 746.792 184.479L746.795 184.511C747.165 188.566 747.686 194.255 749.722 199.809C750.888 202.989 751.91 206.5 753.09 210.561L753.107 210.619C754.236 214.509 755.51 218.896 757.066 223.139C759.347 229.361 766.241 232.556 772.464 230.274C778.686 227.993 781.881 221.099 779.599 214.877C778.367 211.516 777.309 207.902 776.138 203.867L776.047 203.557C774.945 199.76 773.719 195.539 772.256 191.547C771.448 189.345 771.09 186.653 770.696 182.329C770.668 182.031 770.641 181.72 770.612 181.4C770.281 177.674 769.824 172.543 768.314 167.641C765.938 159.927 765.538 151.352 765.173 140.97C765.161 140.653 765.15 140.335 765.139 140.015C764.806 130.467 764.412 119.178 761.177 108.567C760.925 107.74 760.844 106.816 760.931 105.187Z"
    fill="#292524" />
  <path fill-rule="evenodd" clip-rule="evenodd"
    d="M739.198 156.654C746.221 153.448 754.582 150.712 764.706 150.712C776.367 150.712 790.86 154.319 802.259 161.439C809.692 161.362 816.408 166.502 818.044 174.052C819.136 179.092 820.158 184.656 820.215 189.994C820.253 190.802 820.266 191.611 820.253 192.419C820.351 195.177 820.64 198.061 821.001 201.566L821.027 201.818C821.445 205.872 821.954 210.803 821.954 216.033C821.954 221.361 822.214 226.584 822.501 232.265L822.51 232.427C822.789 237.947 823.09 243.912 823.09 250.124C823.09 250.119 823.09 250.116 823.09 250.116C823.093 250.116 823.136 250.595 823.757 253.102C823.787 253.221 823.819 253.349 823.853 253.487C824.362 255.519 825.363 259.515 825.363 263.761C825.363 264.954 825.406 266.947 825.557 268.799C825.624 269.614 825.699 270.244 825.767 270.675C828.444 277.055 829.64 283.717 830.452 288.937C830.717 290.64 830.942 292.178 831.149 293.595C831.698 297.35 832.122 300.256 832.84 303.126C834.23 308.688 835.451 314.16 836.62 319.399L836.634 319.461C837.821 324.78 838.955 329.86 840.226 334.944C840.327 335.346 840.525 336.059 840.777 336.962C841.509 339.588 842.691 343.829 843.224 346.758C843.668 349.202 843.64 351.357 843.576 352.725C843.543 353.443 843.491 354.097 843.449 354.59C843.429 354.816 843.416 354.972 843.405 355.095C843.81 356.117 844.237 357.275 844.579 358.429C845.161 360.396 846.168 364.425 845.106 369.154C843.869 374.668 840.498 378.442 837.172 380.75C834.316 382.732 831.254 383.819 829.094 384.484C826.88 385.165 824.603 385.936 822.042 386.803L821.994 386.82C819.52 387.658 816.788 388.584 813.997 389.443C808.407 391.165 801.868 392.856 794.846 393.358C793.768 393.435 792.189 393.759 789.634 394.538C789.141 394.688 788.213 394.989 787.11 395.346C785.059 396.011 782.401 396.872 780.803 397.329C778.881 397.878 777.002 398.197 775.672 398.402C774.966 398.51 774.269 398.607 773.671 398.69L773.442 398.722C772.911 398.795 772.459 398.858 772.009 398.924C771.24 399.037 770.722 399.127 770.367 399.2C769.998 399.414 769.526 399.687 769.005 399.984C767.899 400.615 766.432 401.432 764.899 402.205C763.525 402.897 761.421 403.902 759.2 404.594C758.183 404.91 756.153 405.485 753.679 405.552C751.831 405.602 744.991 405.502 740.05 399.326C737.012 395.529 735.297 391.044 734.336 388.022C733.273 384.681 732.549 381.222 732.185 378.31C731.315 371.348 728.281 361.351 725.17 354.351C723.662 350.958 722.838 347.723 722.294 345.4C722.074 344.458 721.907 343.713 721.766 343.085C721.494 341.87 721.319 341.089 721.041 340.151C720.589 338.626 720.123 337.308 719.533 335.64C719.128 334.496 718.665 333.188 718.109 331.537C716.989 328.209 715.577 323.674 715.05 318.937C714.415 313.224 712.481 307.36 709.718 300.049C709.36 299.101 708.981 298.114 708.59 297.092C706.201 290.866 703.326 283.371 701.634 275.754C701.26 274.071 700.453 272.212 698.851 268.519C698.632 268.014 698.398 267.475 698.149 266.897C696.561 263.224 693.838 256.923 693.399 250.089C693.375 249.989 693.282 249.616 693.002 248.891C692.536 247.685 691.925 246.403 690.951 244.361C690.893 244.241 690.834 244.117 690.774 243.991C690.697 243.83 690.616 243.66 690.53 243.482C689.187 240.683 686.824 235.759 685.848 229.998C682.33 222.743 682.629 215.324 683.791 209.846C685.161 203.394 688.048 197.844 689.955 194.507C697.388 181.499 709.772 171.745 721.692 165.785C723.874 164.694 725.969 163.547 728.342 162.249C728.792 162.002 729.253 161.75 729.726 161.491C732.555 159.947 735.773 158.218 739.198 156.654ZM726.062 250.611C726.694 250.674 727.295 250.721 727.857 250.758C730.596 250.937 733.535 250.916 735.55 250.901C736.023 250.898 736.445 250.895 736.802 250.895C743.385 250.895 749.817 250.398 755.556 249.954C756.626 249.871 757.673 249.79 758.691 249.715C761.651 249.495 765.861 248.903 769.993 247.88C772.078 247.364 774.443 246.664 776.761 245.712C778.891 244.836 781.979 243.351 784.753 240.853C786.572 239.216 788.564 237.519 790.639 235.8C790.885 240.75 791.09 245.394 791.09 250.124C791.09 254.379 792.091 258.377 792.601 260.415C792.635 260.55 792.666 260.677 792.695 260.795C793.312 263.285 793.359 263.771 793.362 263.771C793.362 263.771 793.363 263.767 793.363 263.761C793.363 265.496 793.419 268.413 793.664 271.408C793.841 273.573 794.279 278.592 796.131 282.759C797.24 285.256 798.028 288.685 798.832 293.855C798.98 294.806 799.134 295.865 799.299 297C799.901 301.148 800.651 306.309 801.795 310.887C803.076 316.012 804.216 321.113 805.402 326.43L805.429 326.549C806.593 331.768 807.806 337.203 809.182 342.705C809.788 345.131 810.257 346.75 810.638 348.067C811.025 349.404 811.322 350.43 811.582 351.673C811.575 351.757 811.566 351.851 811.555 351.967C811.532 352.219 811.5 352.575 811.451 353.164C811.387 353.946 811.292 355.199 811.308 356.653C808.938 357.456 806.749 358.192 804.576 358.861C799.919 360.296 796.051 361.19 792.566 361.439C787.875 361.774 783.574 362.932 780.306 363.927C778.175 364.577 776.886 365.008 775.777 365.379C774.588 365.776 773.605 366.105 772.012 366.56C772.021 366.557 772.02 366.557 772.006 366.561C771.943 366.575 771.608 366.65 770.809 366.773C770.128 366.878 769.73 366.932 769.253 366.996C768.797 367.058 768.267 367.13 767.347 367.265C766.131 367.444 764.555 367.696 762.906 368.077C761.054 358.825 757.727 348.813 754.412 341.355C754.157 340.78 753.874 339.909 753.453 338.109C753.385 337.821 753.303 337.455 753.209 337.032C752.858 335.464 752.332 333.117 751.723 331.06C751.065 328.841 750.094 326.074 749.309 323.838C748.97 322.873 748.666 322.006 748.437 321.326C747.431 318.339 746.98 316.531 746.855 315.404C745.737 305.347 742.475 296.208 739.653 288.738C739.201 287.543 738.764 286.396 738.342 285.29C735.92 278.942 734.01 273.935 732.872 268.813C731.766 263.838 729.534 258.773 728.095 255.507C727.885 255.032 727.692 254.595 727.523 254.201C726.898 252.755 726.422 251.601 726.062 250.611ZM765.441 379.906C765.451 379.924 765.456 379.934 765.456 379.934C765.456 379.934 765.451 379.925 765.441 379.906ZM820.265 353.7C820.265 353.7 820.247 353.709 820.207 353.724C820.244 353.708 820.265 353.7 820.265 353.7ZM811.612 351.178C811.612 351.178 811.612 351.194 811.611 351.225C811.611 351.192 811.612 351.178 811.612 351.178ZM788.22 191.129C788.224 191.542 788.23 191.952 788.24 192.361C788.101 194.403 787.209 196.844 786.072 198.328C786.057 198.343 785.879 198.545 785.448 198.945C784.92 199.434 784.225 200.024 783.343 200.73C782.463 201.435 781.53 202.15 780.5 202.936C780.429 202.991 780.357 203.045 780.284 203.101C779.368 203.8 778.32 204.6 777.376 205.355C773.284 208.628 768.55 212.449 764.277 216.236C763.829 216.399 763.169 216.603 762.299 216.819C760.047 217.376 757.628 217.706 756.327 217.802C755.117 217.892 753.942 217.982 752.797 218.07C747.061 218.51 742.044 218.895 736.802 218.895C735.999 218.895 735.282 218.899 734.624 218.903C732.79 218.914 731.419 218.922 729.953 218.826C728.498 218.731 727.92 218.567 727.883 218.563C724.129 216.887 720.183 216.391 718.394 216.171C716.873 215.984 716.042 215.903 715.478 215.848C715.401 215.84 715.33 215.833 715.262 215.827C715.43 215.244 715.68 214.548 716.029 213.743C716.513 212.625 717.105 211.492 717.739 210.383C721.206 204.316 728.021 198.398 736.003 194.407C738.766 193.025 741.46 191.55 743.825 190.254C744.247 190.023 744.659 189.798 745.059 189.579C747.832 188.065 750.186 186.815 752.487 185.764C756.917 183.742 760.633 182.712 764.706 182.712C773.118 182.712 783.485 186.439 788.137 190.678C788.163 190.77 788.195 190.918 788.22 191.129ZM771.11 398.772L771.109 398.772ZM769.959 399.293C769.92 399.306 769.899 399.311 769.899 399.311C769.899 399.311 769.919 399.304 769.959 399.293Z"
    fill="#292524" />
  <path fill-rule="evenodd" clip-rule="evenodd"
    d="M221.43 413.059C219.669 413.214 207.728 413.759 194.895 414.271C171.581 415.201 164.282 416.237 157.941 419.516C156.46 420.281 148.633 425.26 140.548 430.579C128.33 438.617 123.901 442.191 114.319 451.751L102.789 463.252L97.1811 476.52C87.4331 499.58 87.2321 500.774 89.1571 524.227C90.9041 545.509 93.8331 556.678 100.356 566.936C104.854 574.009 118.313 587.629 126.476 593.366C138.177 601.592 148.874 613.56 153.494 623.597C155.621 628.219 156.012 630.585 156.664 642.819L157.409 656.771L154.802 662.034C153.368 664.929 151.077 669.974 149.71 673.245C147.252 679.129 147.146 679.233 139.721 683.036C131.578 687.206 106.221 699.124 90.1271 706.345C63.8551 718.133 51.7861 724.248 47.1031 728.145C41.6061 732.72 25.2791 753.772 22.0411 760.46C18.4981 767.78 17.3381 773.85 16.7641 788.083C16.0331 806.222 17.1231 810.38 24.5641 817.82C30.3891 823.646 39.6611 828.602 49.4101 831.102C54.3291 832.363 58.6791 832.558 74.5731 832.228C97.2341 831.757 104.488 830.24 121.468 822.426C127.13 819.82 132.677 817.82 133.795 817.98C136.562 818.378 140.603 826.61 141.799 834.285C142.309 837.556 142.722 851.556 142.717 865.395C142.707 894.55 142.106 898.695 135.964 911.955C133.724 916.794 130.37 924.87 128.512 929.903C126.655 934.935 124.585 940.128 123.914 941.443C123.243 942.758 119.751 951.404 116.156 960.658C100.544 1000.83 97.3161 1012.34 96.4101 1031.01C95.2401 1055.13 100.949 1066.22 117.769 1072.48C139.355 1080.51 158.604 1077.22 174.341 1062.8C179.089 1058.45 181.078 1055.73 184.114 1049.44C186.21 1045.09 191.2 1035.56 195.201 1028.26C205.349 1009.76 210.508 997.945 215.816 981.058C221.853 961.855 222.392 960.41 226.828 951.587C228.914 947.438 231.5 941.686 232.574 938.803C233.647 935.921 235.422 932.121 236.517 930.36C237.612 928.599 239.587 924.782 240.906 921.878C246.282 910.047 256.66 897.932 265.314 893.385L271.637 890.062L272.112 893.97C272.373 896.119 272.824 904.26 273.114 912.06C273.404 919.86 274.444 935.919 275.425 947.745C276.407 959.571 277.608 977.483 278.096 987.548C278.619 998.352 279.563 1008.02 280.401 1011.15C284.092 1024.95 291.009 1038.27 300.248 1049.38C308.274 1059.02 325.032 1069.45 340.599 1074.5C359.738 1080.7 368.241 1080.43 382.928 1073.18C393.045 1068.19 398.452 1063.48 403.351 1055.39C409.134 1045.85 412.641 1031.59 412.683 1017.45C412.694 1014.09 413.128 1008.66 413.649 1005.39C414.17 1002.12 414.784 987.222 415.014 972.285C415.416 946.22 415.341 944.656 413.164 933.398C411.916 926.946 409.848 913.365 408.569 903.217C405.372 877.859 404.451 873.664 397.151 851.213C394.536 843.16 391.924 835.106 389.315 827.051L384.155 811.124L384.761 796.856C385.646 776.053 389.534 763.846 398.689 753.13C401.185 750.208 405.337 744.729 407.916 740.955C413.891 732.21 419.737 725.157 420.255 726.067C420.476 726.455 421.343 728.876 422.181 731.448C423.881 736.658 428.866 743.041 432.841 745.096C437.343 747.425 444.034 746.804 451.47 743.368C455.134 741.675 460.063 740.001 462.425 739.646C464.787 739.292 468.986 738.223 471.757 737.269C474.527 736.316 480.79 734.858 485.675 734.029C490.561 733.199 500.749 730.518 508.317 728.071C519.023 724.609 522.915 722.903 525.858 720.383C530.74 716.205 532.995 710.552 532.158 704.594C531.821 702.198 531.201 697.149 530.781 693.375C530.361 689.601 528.962 682.395 527.672 677.363C524.045 663.204 519.972 644.736 517.48 631.137C516.233 624.333 514.58 616.973 513.806 614.781C513.033 612.588 512.39 608.685 512.378 606.106C512.366 603.527 511.955 599.77 511.465 597.758C510.975 595.745 509.968 581.539 509.226 566.19C506.972 519.523 505.793 511.882 500.07 506.857C498.318 505.319 495.366 503.775 493.511 503.427C491.656 503.079 486.776 501.219 482.667 499.294C473.514 495.005 466.556 493.108 457.259 492.367L450.156 491.802L447.922 484.39C445.359 475.888 443.43 467.619 442.057 459.255C441.531 456.05 439.816 450.697 438.247 447.36C436.678 444.023 435.04 439.155 434.609 436.543C434.177 433.931 433.119 430.719 432.258 429.405C429.131 424.632 422.263 422.82 416.439 425.233C408.948 428.336 392.519 452.352 383.939 472.742C382.166 476.955 379.073 483.131 377.064 486.467C372.958 493.286 371.525 498.411 372.472 502.886C373.837 509.343 381.028 513.427 387.355 511.339C390.51 510.298 395.28 505.765 395.28 503.809C395.28 503.294 396.716 500.547 398.471 497.703C400.226 494.859 403.13 489.033 404.925 484.755C408.175 477.008 417.273 459.778 417.823 460.328C417.982 460.487 418.54 463.681 419.064 467.425C419.587 471.169 421.449 479.258 423.203 485.4C424.956 491.541 426.39 496.759 426.39 496.995C426.39 497.231 420.523 500.594 413.351 504.469C397.359 513.11 393.478 515.899 385.378 524.572C375.166 535.508 368.611 551.198 370.005 561.371C370.64 566.008 374.22 576.84 377.997 585.558C379.451 588.914 380.64 592.5 380.64 593.527C380.64 594.555 382.081 599.427 383.842 604.354C385.603 609.281 387.045 613.621 387.045 613.999C387.045 614.376 385.089 614.691 382.699 614.697C380.308 614.704 375.058 615.867 371.033 617.282C362.985 620.11 333.705 636.977 316.503 648.695C307.084 655.112 305.631 655.823 303.548 655.031L301.202 654.139L301.615 642.876C302.385 621.869 301.089 624.898 324.438 589.523C351.841 548.006 355.704 540.755 359.295 524.086C360.702 517.556 360.968 512.034 360.968 489.33C360.968 459.597 360.562 456.64 354.834 444.588C351.002 436.525 346.051 431.948 334.394 425.696C312.941 414.188 302.177 412.396 255.887 412.624C238.697 412.708 223.191 412.904 221.43 413.059ZM296.19 445.856C304.284 447.007 306.862 447.853 315.544 452.207C329.235 459.073 328.948 458.287 328.926 488.873C328.907 515.41 328.093 521.282 323.051 531.304C319.845 537.674 307.695 556.848 285.651 590.322C277.116 603.282 272.339 613.617 270.856 622.332C270.415 624.92 269.782 634.334 269.45 643.252C268.698 663.431 269.362 666.045 277.437 674.677C286.968 684.866 299.616 689.191 312.165 686.551C319.631 684.981 321.81 683.879 333.975 675.522C342.636 669.573 370.325 652.815 377.57 649.138C382.933 646.416 387.743 645.829 392.677 647.295C398.936 649.153 400.362 650.905 401.606 658.263C402.19 661.722 403.893 668.543 405.389 673.42L408.11 682.287L402.112 693.006C398.814 698.901 393.654 706.783 390.647 710.521C387.64 714.259 383.481 719.857 381.406 722.96C379.33 726.063 375.715 730.867 373.373 733.635C366.928 741.249 365.13 744.107 361.769 752.076C356.259 765.14 354.06 774.235 352.952 788.535C351.208 811.054 351.975 817.796 358.183 834.533C359.905 839.178 361.944 845.448 362.714 848.468C363.483 851.487 365.183 857.046 366.491 860.82C368.639 867.019 370.941 874.758 373.305 883.735C373.775 885.519 375.228 895.607 376.535 906.153C377.841 916.699 379.902 930.289 381.116 936.354C383.3 947.27 383.313 947.661 382.434 975.699C380.574 1035.03 379.576 1039.85 368.063 1045.01C362.885 1047.34 362.566 1047.37 357.193 1046.12C349.176 1044.25 342.648 1041.5 335.179 1036.87C327.214 1031.92 321.632 1025.9 317.289 1017.58C311.7 1006.87 311.025 1003.74 310.11 984.345C309.648 974.532 308.46 956.621 307.47 944.543C306.481 932.464 305.421 915.995 305.116 907.942C304.161 882.809 301.186 870.325 294.391 862.954C288.498 856.561 279.049 854.693 267.601 857.657C256.047 860.649 236.622 872.21 231.053 879.41C220.43 893.143 215.56 900.62 209.806 912.029C206.134 919.31 203.13 925.681 203.13 926.188C203.13 926.695 200.48 932.679 197.241 939.486C193.814 946.689 189.467 957.982 186.842 966.503C181.26 984.618 178.431 991.412 169.694 1007.68C165.909 1014.72 160.747 1024.68 158.223 1029.81C154.31 1037.76 153.01 1039.54 149.403 1041.93C144.682 1045.06 139.566 1045.57 132.049 1043.68L127.868 1042.63L128.52 1032.04C128.9 1025.87 130.093 1017.91 131.38 1012.96C133.298 1005.58 142.106 981.771 151.107 959.64C152.643 955.866 156.064 947.219 158.709 940.425C161.355 933.631 164.673 925.808 166.083 923.04C169.172 916.975 171.6 909.4 173.416 900.165C175.312 890.519 175.315 840.921 173.42 829.252C170.842 813.38 165.784 803.133 156.28 794.533C148.27 787.284 144.031 785.457 135.437 785.55C126.528 785.646 122.824 786.66 109.314 792.703C94.8941 799.152 88.4661 800.443 71.0811 800.38C60.1471 800.341 56.3101 799.991 53.0701 798.736L48.9531 797.142L49.1491 787.703C49.3881 776.284 50.1731 774.425 60.1951 761.543C67.0871 752.683 67.5881 752.257 75.9751 748.114C80.7391 745.761 89.1671 741.893 94.7031 739.518C106.284 734.55 139.748 718.792 156.362 710.482C164.861 706.231 168.458 703.883 170.74 701.098C172.415 699.056 176.923 690.728 180.759 682.593C187.49 668.321 187.763 667.477 188.539 658.539C189.662 645.609 188.31 625.903 185.787 618.446C179.561 600.039 164.63 580.844 147.312 568.983C138.832 563.175 129.211 553.468 126.199 547.681C123.222 541.962 121.808 533.502 121.189 517.695L120.598 502.598L124.218 494.82C126.209 490.542 128.336 485.514 128.944 483.645C130.534 478.759 144.078 466.716 159.61 456.377C171.654 448.361 172.723 447.844 178.825 447.092C198.816 444.628 281.434 443.758 296.19 445.856ZM239.273 469.977C236.756 470.836 232.769 472.867 230.412 474.49C222.586 479.876 220.544 484.59 220.454 497.473C220.395 505.901 220.346 506.109 219.241 502.598C216.555 494.059 212.701 490.877 199.637 486.411C191.716 483.703 189.711 483.383 180.713 483.383C172.072 483.383 170.111 483.669 166.857 485.41C155.815 491.315 150.307 506.176 151.111 527.892C151.419 536.198 151.773 537.922 153.931 541.605C155.289 543.921 158.655 547.878 161.412 550.397C171.141 559.29 185.481 560.503 199.643 553.633C203.825 551.603 208.986 548.43 211.111 546.58C216.095 542.24 221.332 531.816 222.057 524.793L222.591 519.622L226.014 524.919C227.897 527.832 231.033 531.207 232.983 532.419C236.365 534.522 237.24 534.623 252.083 534.623C266.613 534.623 267.929 534.479 272.058 532.446C277.723 529.657 285.189 522.191 287.666 516.838C289.244 513.427 289.598 510.903 289.598 503.055C289.598 494.618 289.308 492.829 287.217 488.373C283.973 481.457 280.137 477.341 273.771 473.948C263.202 468.315 248.94 466.673 239.273 469.977ZM262.02 494.613C264.71 496.18 264.91 496.662 265.171 502.184C265.554 510.314 264.298 511.29 253.452 511.29C244.028 511.29 244.305 511.596 244.305 501.196C244.305 495.328 244.601 493.812 245.906 493.001C248.204 491.572 258.583 492.611 262.02 494.613ZM190.418 508.704L196.592 510.693L197.598 516.469C198.508 521.691 198.421 522.606 196.692 525.995C193.121 532.994 179.96 536.643 176.024 531.726C174.971 530.412 174.789 528.261 175.186 521.813C175.465 517.283 176.121 512.033 176.644 510.146C177.521 506.986 177.858 506.715 180.919 506.715C182.747 506.715 187.021 507.61 190.418 508.704ZM470.768 528.998C473.488 530.476 474.503 531.644 474.723 533.55C475.121 537.01 473.228 539.625 466.678 544.666L461.16 548.912L461.148 545.885C461.141 544.22 460.323 538.946 459.33 534.165C458.337 529.384 457.519 525.186 457.512 524.836C457.494 523.875 466.602 526.736 470.768 528.998ZM434.631 533.936C435.577 537.161 437.265 551.714 437.337 557.269L437.37 559.785L426.619 559.787C419.778 559.789 413.538 559.238 409.463 558.271C405.94 557.436 402.914 556.639 402.738 556.501C401.787 555.751 408.157 546.266 411.714 543.135C415.31 539.97 431.172 530.56 432.981 530.519C433.335 530.512 434.077 532.049 434.631 533.936ZM479.261 600.535C479.807 603.033 480.473 608.166 480.741 611.94C481.01 615.714 482.034 621.139 483.017 623.994C484 626.85 485.278 632.409 485.859 636.347C486.999 644.087 495.092 680.726 497.314 688.208C498.062 690.729 498.675 693.913 498.675 695.282C498.675 697.561 498.152 697.93 492.499 699.642C489.102 700.671 483.44 701.959 479.918 702.504C476.395 703.05 469.816 704.547 465.298 705.832C460.78 707.116 455.492 708.236 453.548 708.32L450.012 708.473L447.479 699.78C446.085 694.999 444.223 689.44 443.341 687.428C442.116 684.633 441.689 680.846 441.534 671.415C441.295 656.866 440.095 652.687 432.964 641.571C428.098 633.985 423.355 622.645 420.129 610.882C419.072 607.028 417.166 601.522 415.894 598.644C414.621 595.767 413.58 593.11 413.58 592.741C413.58 592.372 421.094 591.847 430.279 591.575C454.823 590.849 463.953 588.496 473.513 580.432L477.173 577.345L477.72 586.669C478.022 591.797 478.715 598.037 479.261 600.535Z"
    fill="#292524" />
  <path fill-rule="evenodd" clip-rule="evenodd"
    d="M2987.82 667.7C2953.19 671.313 2920.62 691.364 2905.76 718.225C2900.71 727.349 2896.6 740.49 2891.07 765.18C2885.24 791.218 2885.05 796.819 2889.18 822.704C2890.73 832.453 2892.62 842.932 2893.37 845.99C2894.12 849.048 2895.35 855.784 2896.09 860.959C2897.83 873.108 2900.3 879.559 2905.39 885.222C2910.19 890.565 2914.74 892.911 2924.82 895.254C2934.73 897.556 2940.15 901.059 2947.93 910.177C2958.99 923.147 2964.8 926.092 2984.03 928.473C2990.16 929.232 2995.3 929.853 2995.44 929.853C2995.58 929.853 2995.7 931.019 2995.7 932.443C2995.7 933.867 2994.35 937.295 2992.69 940.061C2989.18 945.923 2988.06 946.546 2957.56 959.573C2933.39 969.893 2921.06 976.036 2903.23 986.64C2886.61 996.52 2877.9 1003.58 2865.62 1017.1C2860.69 1022.53 2856.11 1027.18 2855.43 1027.44C2853.45 1028.2 2845.64 1039.14 2842.21 1045.94C2835.42 1059.43 2831.69 1076.9 2831.69 1095.26C2831.7 1114.8 2833.57 1122.88 2843.08 1144.34C2847.75 1154.88 2856.38 1161.95 2865.94 1163.08C2872.3 1163.83 2886.34 1161.8 2894.23 1158.99C2901.8 1156.29 2926.56 1143.6 2935.93 1137.61C2939.5 1135.33 2946.13 1130.35 2950.67 1126.55C2955.21 1122.75 2963.29 1116.76 2968.63 1113.24L2978.34 1106.85L2977.7 1120.52C2977.35 1128.03 2976.25 1142.93 2975.26 1153.61C2974.27 1164.29 2973.46 1175.35 2973.46 1178.17C2973.45 1181.63 2972.57 1185.57 2970.72 1190.31C2967.6 1198.34 2964.2 1219.14 2964.21 1230.09C2964.22 1233.97 2965.03 1240.12 2966.04 1243.99C2968.86 1254.81 2969.12 1260.23 2967.18 1267.61L2965.47 1274.08L2960.91 1275.37C2954.15 1277.28 2941.16 1274.97 2909.52 1266.26C2904.84 1264.97 2899.68 1264.34 2893.71 1264.3C2878.99 1264.23 2868.05 1267.68 2856.84 1275.93C2846.39 1283.62 2843.73 1289.28 2843.73 1303.73C2843.73 1320.85 2848.64 1334.15 2860.75 1349.84C2872.33 1364.84 2874.56 1366.09 2906.42 1375.49C2941.34 1385.8 2943.89 1386.24 2968.36 1386.19C2993.32 1386.14 3004.05 1384.92 3011.92 1381.21C3019.39 1377.69 3023.76 1373.7 3032.24 1362.64C3045.47 1345.37 3050.79 1332.63 3056.41 1304.69C3058.16 1295.98 3061.12 1284.07 3062.99 1278.24C3066.29 1267.88 3066.38 1267.19 3066.81 1249.79L3067.25 1231.95L3071.09 1231.99C3073.2 1232.01 3088.27 1232.6 3104.58 1233.29L3134.24 1234.56L3147.67 1238.29C3165.83 1243.32 3171.78 1243.99 3198.94 1244.02C3226.98 1244.06 3254.5 1245.34 3262.12 1246.96C3270.53 1248.75 3303.6 1248.3 3310.53 1246.3C3326.88 1241.58 3343.19 1226.19 3349.91 1209.17C3355.19 1195.79 3355.44 1182.82 3351.53 1125.84C3349.53 1096.56 3342.53 1083.09 3319.98 1065.1C3307.69 1055.31 3305.43 1054.49 3290.38 1054.49C3279.8 1054.49 3276.94 1054.81 3271.85 1056.58C3255.94 1062.09 3245.05 1074.5 3241.76 1090.87C3241.07 1094.31 3240.24 1102.54 3239.91 1109.16C3239.58 1115.79 3238.45 1125.17 3237.39 1130.01C3235.74 1137.54 3234.97 1139.33 3232.11 1142.34C3230.27 1144.28 3226.24 1147.11 3223.17 1148.63L3217.58 1151.38L3205.1 1149.92C3198.23 1149.12 3187.82 1147.66 3181.96 1146.68C3176.1 1145.71 3168.65 1144.63 3165.41 1144.28L3159.52 1143.65L3160.17 1138.92C3160.53 1136.31 3161.39 1126.89 3162.08 1117.97C3162.77 1109.05 3163.76 1099.87 3164.27 1097.58C3164.78 1095.29 3165.22 1090.91 3165.24 1087.85C3165.32 1078.79 3173.2 1060.83 3180.99 1051.98C3182.97 1049.73 3185.49 1046.04 3186.59 1043.78C3187.48 1041.94 3188.39 1040.1 3189.3 1038.27C3189.68 1037.51 3194.73 1033.13 3200.51 1028.54C3219.88 1013.16 3227.8 1006.21 3233.26 999.748C3254.87 974.224 3256.89 971.525 3262.42 960.68C3273.31 939.324 3275.86 930.805 3275.95 915.49C3276.01 906.159 3275.67 903.372 3273.87 898.17C3269.61 885.837 3259.68 874.245 3248.56 868.63C3226.25 857.369 3194.97 863.628 3173 883.751C3169.52 886.942 3161.67 893.709 3155.55 898.789C3149.43 903.869 3141.8 910.465 3138.59 913.447C3132.24 919.342 3128.13 921.513 3123.32 921.513C3117.35 921.513 3116.78 920.318 3117.32 908.924C3117.93 896.198 3120.81 886.105 3128.14 871.01C3134.34 858.249 3139.55 850.604 3152.74 834.907C3174.6 808.909 3181.36 797.54 3187.91 775.785C3192.34 761.065 3193.37 752.835 3192.74 737.073C3192.08 720.47 3191.02 713.768 3187.99 706.919C3183.24 696.182 3173.95 689.833 3155.01 684.386C3138.44 679.62 3110.42 672.377 3104.12 671.233C3095.54 669.673 3080.03 669.855 3070.27 671.631C3065.67 672.468 3056.94 673.557 3050.88 674.051L3039.86 674.949L3036.38 671.803C3034.47 670.072 3031.31 668.214 3029.36 667.674C3025.28 666.541 2998.77 666.558 2987.82 667.7ZM3009.32 700.39C3009.73 701.093 3011.69 702.761 3013.67 704.097C3017.21 706.486 3017.54 706.527 3033.26 706.527C3050.42 706.527 3063.72 705.479 3076.32 703.136C3086.55 701.234 3096.84 701.936 3110.14 705.444C3152.02 716.487 3158.18 718.464 3159.27 721.201C3159.61 722.05 3160.11 729.415 3160.38 737.57C3160.94 754.575 3159.62 762.246 3153.65 776.668C3149.17 787.481 3143.87 795.414 3129.6 812.621C3112.87 832.803 3106.82 841.461 3100.44 854.33C3086.99 881.447 3081.8 908.195 3086.46 926.408C3088.63 934.89 3090.19 938.057 3094.61 942.949C3100.95 949.965 3109.85 953.003 3124.04 952.989C3138.99 952.976 3146.9 949.436 3160.85 936.537C3164.56 933.105 3172.44 926.269 3178.37 921.344C3184.29 916.42 3191.75 910.065 3194.93 907.223C3212.51 891.543 3234.62 890.909 3242.25 905.867C3244.87 911.008 3244.65 919.847 3241.68 928.689C3238.48 938.244 3229.23 955.023 3223.37 961.932C3219.68 966.294 3215.99 970.662 3212.31 975.037C3205.94 982.605 3199.52 988.331 3179.59 1004.19C3167.35 1013.94 3163.15 1018.5 3159.29 1026.23C3157.89 1029.03 3155.57 1032.57 3154.13 1034.1C3150.15 1038.33 3142.83 1051.37 3138.78 1061.44C3134.07 1073.16 3133.54 1076.16 3131.01 1105.46C3130.42 1112.1 3129.81 1118.74 3129.17 1125.38C3127.12 1146.58 3127.03 1149.17 3128.18 1153.98C3129.52 1159.54 3135.24 1166.52 3141.43 1170.14C3146.69 1173.21 3157.12 1176.35 3162.09 1176.35C3164.3 1176.35 3170.41 1177.17 3175.66 1178.18C3185.65 1180.09 3198.89 1181.63 3213.06 1182.53C3222.58 1183.14 3228.66 1181.82 3237.95 1177.13C3248.46 1171.83 3259.57 1161.83 3263.49 1154.14C3267.42 1146.43 3271.06 1128.78 3271.89 1113.33C3272.99 1093.03 3273.27 1092.1 3279.28 1088.43C3281.78 1086.91 3284.01 1086.47 3289.19 1086.46C3295.36 1086.46 3296.15 1086.69 3299.38 1089.41C3306.25 1095.19 3313.71 1102.71 3315.01 1105.18C3317.72 1110.32 3319.17 1119.88 3320.07 1138.35C3320.57 1148.8 3321.31 1162.38 3321.72 1168.52C3323.14 1190.25 3320.81 1200.45 3312.52 1208.63C3305.71 1215.34 3304.65 1215.67 3288.53 1216.03C3278.2 1216.26 3271.43 1215.91 3264.43 1214.79C3257.03 1213.6 3244.83 1213.06 3213.47 1212.52L3172.23 1211.82L3161.57 1208.89C3140.74 1203.17 3135.92 1202.51 3106.9 1201.36C3066.46 1199.76 3061.7 1199.84 3054.06 1202.3C3045.66 1205 3040.33 1209.87 3037.36 1217.58C3035.44 1222.55 3035.14 1225.33 3034.59 1243.53C3034 1262.86 3033.81 1264.4 3031.07 1273.18C3029.48 1278.28 3027.09 1287.87 3025.77 1294.5C3021.89 1313.86 3019.93 1320.68 3015.92 1328.64C3012.44 1335.58 3003.34 1348.61 3000.12 1351.28C2997.88 1353.14 2986.27 1354.21 2968.09 1354.24C2951.66 1354.27 2950.71 1354.16 2937.97 1350.95C2923.53 1347.32 2898.88 1340.02 2893.77 1337.87C2886.93 1334.99 2876.84 1317.86 2875.74 1307.25C2875.15 1301.53 2875.17 1301.46 2878.03 1299.72C2882.12 1297.24 2891.1 1295.52 2896.31 1296.24C2898.73 1296.57 2904.05 1297.86 2908.13 1299.1C2916.41 1301.62 2929.38 1304.62 2940.56 1306.61C2961.69 1310.37 2979.47 1306 2990.03 1294.44C2994.68 1289.36 2995.88 1286.4 2998.98 1272.41C3001.01 1263.23 3000.41 1248.72 2997.54 1237.68C2995.6 1230.21 2995.58 1229.71 2997.01 1221.35C2997.82 1216.6 2998.48 1211.26 2998.48 1209.48C2998.48 1207.69 2999.57 1203.78 3000.89 1200.79C3004.04 1193.68 3005.86 1184.9 3005.88 1176.7C3005.89 1173.07 3006.51 1164.1 3007.27 1156.78C3009 1140.04 3010.51 1114.84 3010.52 1102.49C3010.53 1086.24 3007.05 1075.51 3000.33 1071.06C2991.19 1065.01 2975.12 1068.28 2961.8 1078.91C2959.2 1080.98 2952.74 1085.55 2947.43 1089.07C2942.13 1092.6 2934.86 1097.94 2931.3 1100.96C2920.8 1109.83 2919.02 1110.99 2903.29 1119.28C2887.79 1127.45 2879.14 1130.94 2874.41 1130.94C2871.93 1130.94 2871.53 1130.49 2870.09 1126.08C2869.22 1123.4 2867.47 1118.72 2866.21 1115.67C2863.99 1110.33 2863.93 1109.59 2864.36 1093.9C2865.02 1069.68 2868.43 1059.82 2880.25 1048C2883.86 1044.4 2890.15 1037.87 2894.23 1033.51C2907.36 1019.47 2930.38 1005.93 2969.13 989.466C2998.38 977.031 3006.01 973.147 3011.31 967.99C3017.87 961.599 3022.82 953.521 3025.81 944.313C3032.02 925.225 3025.52 909.092 3008.4 901.077C3003.86 898.953 3000.1 898.092 2990.97 897.086C2984.58 896.381 2978.5 895.354 2977.47 894.804C2976.45 894.254 2973.85 891.485 2971.71 888.65C2963.45 877.706 2947.59 867.419 2935.17 864.95C2928.31 863.587 2928.83 864.391 2927.66 853.403C2927.38 850.855 2926.34 845.642 2925.35 841.82C2922.61 831.336 2918.37 803.297 2918.4 795.95C2918.45 784.77 2927.72 746.04 2932.81 735.795C2941.43 718.408 2962.99 703.966 2986.12 700.084C2994.04 698.755 3008.48 698.945 3009.32 700.39ZM3016.55 717.245C3013.13 719.018 3007.93 723.939 3007.27 726.036C3006.9 727.196 3005.2 727.744 3000.54 728.205C2987.29 729.515 2980.21 733.923 2975.38 743.864C2969.08 756.823 2969.97 772.961 2977.67 785.293C2980.37 789.62 2988.09 796.728 2992.56 799.011C3008 806.884 3030.89 802.639 3042.48 789.755L3046.51 785.271L3050.99 788.011C3069.2 799.145 3094.12 796.407 3108.8 781.661C3116.43 773.998 3118.49 769.156 3118.47 758.883C3118.45 751.601 3118.11 749.849 3115.78 745.071C3111.95 737.197 3102.31 727.714 3094.29 723.916C3088.4 721.127 3087.18 720.89 3078.64 720.89C3064.66 720.89 3055.35 724.584 3052.57 731.224C3051.74 733.22 3050.2 734.773 3048.28 735.565L3045.28 736.797L3041.01 730.233C3035.99 722.519 3032.66 719.207 3027.93 717.232C3023.57 715.411 3020.08 715.415 3016.55 717.245ZM3084.52 745.839C3085.93 746.564 3088.82 749.057 3090.96 751.378C3096.25 757.115 3096.31 760.597 3091.19 765.225C3082.1 773.435 3066.76 772.822 3059.29 763.95C3056.01 760.049 3056.21 759.347 3060.61 759.347C3067.52 759.347 3072.39 755.008 3072.79 748.489C3072.87 747.071 3073.1 745.597 3073.3 745.215C3073.91 744.016 3081.85 744.458 3084.52 745.839ZM3027.91 761.434C3028.68 770.577 3024.99 775.661 3015.62 778.386C3004 781.763 2995.4 774.68 2995.58 761.879C2995.69 754.47 2997.35 751.933 3002.1 751.933C3004.06 751.933 3007.26 752.6 3009.21 753.414C3013.56 755.232 3018.28 754.13 3021.69 750.501L3023.93 748.11L3025.7 752.107C3026.67 754.305 3027.67 758.502 3027.91 761.434Z"
    fill="#292524" />
  <path fill-rule="evenodd" clip-rule="evenodd"
    d="M4848.99 471.396C4841.19 475.627 4839.56 482.855 4844.87 489.611C4847.66 493.152 4847.82 494.1 4846.03 496.507C4842.93 500.633 4839.82 504.751 4836.69 508.861C4827.96 520.373 4826.2 527.323 4830.15 534.666C4833.62 541.112 4832.17 542.897 4822.55 543.981C4816.84 544.624 4815.49 544.317 4815.49 542.381C4815.49 539.149 4808.2 533.608 4803.95 533.608C4797.3 533.608 4792.87 538.926 4792.11 547.797C4791.74 552.261 4790.19 558.49 4788.69 561.639L4785.95 567.364L4780.36 565.026C4773.8 562.286 4769.1 563.111 4764.77 567.76C4755.12 578.113 4767.96 590.527 4788.31 590.527C4796.87 590.527 4804.23 584.902 4809.03 574.686C4812.01 568.347 4812.34 568.132 4818.28 568.699C4833.27 570.128 4851.62 559.483 4858.43 545.412C4862.46 537.095 4862.49 532.028 4858.54 527.01L4855.45 523.073L4861.86 515.66C4870.38 505.821 4873.87 497.712 4873.91 487.689C4873.94 480.359 4873.38 478.887 4868.72 474.229C4862.86 468.367 4856.3 467.426 4848.99 471.396ZM4833.18 604.057C4830.64 605.57 4826.6 606.949 4824.2 607.122C4818.41 607.539 4818.26 607.663 4810.34 618.077C4797.44 635.039 4796.98 638.822 4806.7 648.14C4818.82 659.753 4844.2 666.295 4854.85 660.556C4862.15 656.625 4864.2 650.694 4865.36 630.198C4866.32 613.165 4866.2 612.003 4863.1 608.911C4855.57 601.374 4841.51 599.093 4833.18 604.057ZM4669.91 613.779C4666.58 615.475 4663.2 621.196 4663.2 625.126C4663.2 630.501 4670.02 635.211 4680.12 636.813C4690.93 638.527 4700.54 643.725 4708.87 652.359C4716.46 660.235 4717.3 664.004 4714.72 678.603C4711.51 696.753 4711.74 700.186 4716.48 704.923C4721.45 709.891 4726.37 710.084 4731.6 705.517C4734.86 702.672 4735.97 699.591 4737.81 688.211C4741.19 667.378 4740.82 658.691 4736.13 649.294C4727.62 632.202 4701.67 614.633 4682.42 612.924C4677.09 612.451 4671.81 612.812 4669.91 613.779ZM5064.74 625.869C5059.48 631.126 5059.01 639.355 5062.52 664.528C5063.38 670.687 5063.04 672.052 5059.91 674.973C5054.5 680.011 5041.58 685.862 5034.91 686.292L5029.01 686.673L5028.78 672.566C5028.57 659.925 5028.16 658.047 5024.82 654.49C5022.32 651.833 5019.47 650.522 5016.18 650.522C5005.21 650.522 4997.49 663.493 4998.94 679.487C4999.9 690.092 4999.06 691.89 4989.91 698.876C4984.05 703.353 4982.33 703.968 4979.11 702.743C4969.45 699.072 4960.09 703.945 4960.09 712.642C4960.09 719.307 4962.62 722.283 4970.67 725.09C4985.05 730.105 4994.84 727.117 5010.55 712.921C5015.96 708.035 5017.16 707.571 5020.79 708.952C5027.33 711.439 5040.39 710.776 5050 707.469C5060.75 703.773 5068 699.434 5076.53 691.597L5082.98 685.677L5096.62 691.132C5104.12 694.133 5113.87 697.422 5118.28 698.441C5125.57 700.125 5126.68 700.014 5130.42 697.225C5139.4 690.523 5137.4 680.68 5126.21 676.466C5120.12 674.183 5114.03 671.915 5107.93 669.662C5090.75 663.309 5088.28 660.346 5086.34 643.724C5085.12 633.17 5083.97 629.176 5081.38 626.418C5077.11 621.879 5069 621.612 5064.74 625.869ZM4840.1 635.138C4840.1 636.848 4839.08 638.215 4837.8 638.215C4835.01 638.215 4834.82 636.42 4837.33 633.908C4839.82 631.425 4840.1 631.552 4840.1 635.138ZM4878.42 682.031C4852.86 686.164 4829.55 696.555 4816.82 709.489C4808.89 717.54 4807.21 723.738 4811.43 729.301C4816.66 736.183 4825.43 735.173 4833.2 726.795C4841.2 718.157 4858.67 710.315 4878.31 706.535C4906.45 701.121 4913.78 706.534 4911.77 731.254C4910.85 742.567 4911.07 744.204 4914 747.925C4917.98 752.983 4925.65 753.508 4930.43 749.049C4933.88 745.835 4937.02 734.117 4937.02 724.448C4937.02 715.461 4931.53 699.676 4926.15 693.166C4916.53 681.54 4902.17 678.191 4878.42 682.031ZM4707.81 713.039C4705.69 713.349 4698.77 714.37 4692.42 715.308C4686.08 716.246 4676.39 718.449 4670.89 720.205C4665.39 721.961 4657.54 723.442 4653.45 723.495C4647.55 723.572 4645.39 724.347 4643.06 727.224C4639.56 731.549 4639.26 738.01 4642.37 742.143C4645.39 746.163 4644.13 765.245 4639.22 789.917C4637.18 800.167 4635.5 813.666 4635.5 819.915C4635.49 826.163 4634.49 837.914 4633.26 846.027C4632.04 854.14 4630.83 874.733 4630.58 891.788L4630.12 922.798L4621.52 922.802C4616.79 922.805 4609.76 923.758 4605.9 924.921C4598.48 927.153 4567.53 944.793 4551.21 956.096C4545.88 959.785 4540.06 962.803 4538.28 962.803C4535.15 962.803 4535.08 962.324 4535.98 947.474C4536.53 938.573 4537.89 930.259 4539.24 927.647C4540.52 925.172 4550.3 909.842 4560.97 893.58C4593.4 844.173 4594.74 840.359 4594.74 797.433C4594.74 773.214 4594.26 766.839 4591.96 760.239C4587.1 746.312 4581.69 740.563 4566.06 732.712C4549.21 724.247 4537.99 721.656 4512.41 720.317C4487.15 718.995 4409.55 722.335 4399.29 725.186C4383.52 729.571 4341.8 761.486 4336.01 773.605C4329.99 786.175 4324.52 800.616 4323.26 807.219C4320.1 823.888 4326.16 862.875 4333.59 873.682C4340.27 883.411 4349.43 892.902 4359.38 900.422C4382.8 918.122 4389.62 928.965 4390.61 950.119C4391.25 963.665 4391.03 964.912 4386.12 975.811L4380.97 987.267L4368.63 993.228C4361.85 996.508 4346.65 1003.64 4334.85 1009.07C4323.05 1014.51 4305.76 1022.76 4296.43 1027.41L4279.45 1035.87L4267.55 1051.59C4253.55 1070.08 4250.97 1077.23 4250.73 1098.24C4250.53 1114.82 4251.67 1118.69 4258.86 1125.87C4275.99 1143.01 4317.13 1146.09 4349.12 1132.62C4367.07 1125.06 4369.36 1125.08 4373.22 1132.79C4376.01 1138.37 4376.3 1142.02 4376.3 1172.02C4376.3 1204.98 4376.28 1205.12 4371.93 1215.09C4361.95 1237.92 4342.48 1287.72 4336.83 1304.87C4329.11 1328.33 4328.3 1356.04 4335.02 1367.41C4341.34 1378.1 4359.51 1385.21 4377.28 1383.93C4390.27 1383 4402.78 1377.04 4410.69 1368.01C4418.57 1359.01 4445.23 1305.09 4450.18 1288.16C4456.72 1265.74 4474.23 1228.19 4484.43 1214.71C4490.07 1207.25 4503.85 1196.47 4505.33 1198.37C4505.58 1198.68 4506.62 1212.09 4507.64 1228.17C4513.75 1323.91 4513.67 1323.36 4523.53 1341.23C4530.9 1354.61 4537.83 1362.09 4550.58 1370.47C4565.03 1379.96 4583.27 1386.23 4596.42 1386.23C4608.91 1386.24 4623.56 1379.4 4632.27 1369.51C4644.32 1355.82 4647.19 1341.16 4648.83 1284.83C4649.56 1259.84 4649.25 1251.31 4647.26 1240.99C4645.9 1233.93 4643.71 1219.51 4642.38 1208.94C4641.05 1198.36 4638.29 1183.82 4636.25 1176.63C4630.81 1157.54 4623.91 1135.34 4620.94 1127.4C4618.8 1121.69 4618.53 1117.4 4619.37 1102.79C4620.86 1077.19 4623.34 1072.03 4651.66 1035.82C4655.89 1030.41 4662.77 1019.34 4666.96 1011.22C4674.05 997.459 4674.61 995.555 4675.21 982.894C4675.91 968.198 4674.39 961.291 4668.3 951.618C4665.67 947.434 4665.2 945.653 4666.62 945.231C4667.7 944.91 4673.08 943.475 4678.58 942.044C4684.08 940.612 4698.44 935.663 4710.5 931.048C4723.2 926.185 4740.24 921.038 4751.02 918.809C4761.24 916.694 4773.18 913.552 4777.55 911.828C4781.92 910.103 4791.03 907.721 4797.8 906.535C4814.54 903.6 4817.16 902.289 4823.86 893.506C4836.4 877.057 4843.03 840.198 4838.48 812.168C4836.13 797.723 4826.74 769.46 4821.13 759.976C4812.84 745.968 4785.01 727.345 4759.13 718.486C4743.21 713.039 4722.66 710.858 4707.81 713.039ZM4746.05 739.788C4759.77 743.59 4769.49 748.289 4785.07 758.653C4794.82 765.137 4797.76 768.088 4801.46 775.073C4814.43 799.587 4818.67 831.523 4812.52 858.487L4809.15 873.272L4803.8 874.277C4798.27 875.314 4798.86 875.529 4770.11 861.952C4743.59 849.428 4718.17 830.911 4706.6 815.691C4702.26 809.988 4697.92 804.293 4693.56 798.608C4691.23 795.571 4687.91 788.544 4686.2 782.992C4683.08 772.908 4678.87 743.556 4680.33 742.098C4682.09 740.34 4708.02 736.97 4720.91 736.825C4730.54 736.716 4738.24 737.624 4746.05 739.788ZM4528.76 753.711C4540.93 755.404 4555.95 761.638 4560.2 766.758C4563.16 770.326 4564.22 809.526 4561.74 823.903C4559.59 836.372 4557.38 840.457 4530.29 881.938C4517.77 901.102 4508.4 917.151 4506.97 921.858C4505.66 926.187 4504.18 938.417 4503.68 949.034C4502.9 965.562 4503.16 969.164 4505.49 974.073C4509.03 981.538 4519.89 991.012 4527.53 993.299C4541.33 997.436 4550.85 994.84 4570.8 981.493C4578.26 976.505 4591.52 968.371 4600.26 963.418C4621.86 951.189 4629.05 951.42 4638.63 964.652C4642.37 969.816 4643.2 972.482 4643.2 979.382C4643.2 986.392 4642.11 989.777 4636.73 999.534C4633.18 1005.98 4627.47 1014.8 4624.04 1019.12C4601.89 1047.07 4596.79 1055.29 4591.71 1071.26C4588.72 1080.67 4587.58 1088.29 4586.87 1103.66C4585.98 1123.09 4586.1 1124.22 4590.52 1137.5C4593.04 1145.06 4597.33 1158.52 4600.04 1167.4C4602.76 1176.29 4605.6 1185.28 4606.35 1187.4C4607.1 1189.51 4609.15 1202.29 4610.9 1215.8C4612.66 1229.3 4614.74 1243.14 4615.53 1246.56C4619.05 1261.79 4615.53 1334.63 4610.78 1344.82C4609.66 1347.21 4606.02 1350.56 4602.68 1352.26C4597.27 1355.03 4595.86 1355.16 4589.53 1353.46C4571.35 1348.6 4557.86 1338.02 4549.96 1322.44C4545.5 1313.65 4546.11 1319.45 4539.41 1222.01C4537.1 1188.4 4536.02 1182.23 4530.98 1174.01C4523.95 1162.56 4507.96 1161.26 4488.84 1170.58C4467.76 1180.87 4455.71 1195.41 4438.5 1231.35C4431.99 1244.95 4423.77 1265.02 4420.24 1275.96C4413.34 1297.3 4390.16 1344.44 4384.19 1349.27C4382.28 1350.82 4378.24 1351.95 4374.5 1351.97C4363.85 1352.02 4363.22 1351.37 4363.22 1340.14C4363.22 1323.91 4368.49 1307.55 4392.08 1250.47C4409.62 1208.05 4408.56 1213.13 4408.52 1172.02C4408.5 1138.33 4408.25 1135.19 4404.98 1125.99C4400.33 1112.9 4394.14 1104.21 4385.19 1098.22C4378.3 1093.6 4377.15 1093.33 4367.06 1093.94C4358.89 1094.43 4353.25 1095.96 4343.77 1100.23C4336.9 1103.34 4327.63 1106.57 4323.19 1107.41C4312.29 1109.48 4294.44 1109.15 4287.84 1106.76L4282.46 1104.8L4283.01 1094.95C4283.66 1083.52 4284.98 1080.61 4295.03 1068.38C4301.77 1060.18 4304.15 1058.57 4320.92 1050.95C4331.07 1046.33 4353.34 1035.94 4370.42 1027.86C4405.44 1011.26 4405.23 1011.46 4416.2 987.643C4421.34 976.495 4422.22 972.93 4422.85 960.722C4424.29 933.117 4418.81 915.85 4402.45 896.459C4397.72 890.851 4389.44 883.027 4384.05 879.07C4361.67 862.634 4356.66 853.645 4354.87 826.661C4353.99 813.313 4354.15 812.38 4359.24 800.689C4365.66 785.956 4372.67 778.423 4392.47 764.992L4407.1 755.067L4434 753.79C4474.28 751.878 4515.34 751.844 4528.76 753.711ZM4728.37 753.851C4724.77 755.591 4721.65 761.234 4721.65 765.991C4721.65 767.655 4719.54 770.911 4716.96 773.225C4708.22 781.052 4708.51 795.216 4717.54 801.903C4723.42 806.256 4741.97 806.517 4748.35 802.337C4752.48 799.63 4752.88 799.643 4762.29 802.774C4767.62 804.548 4773.58 807.706 4775.54 809.792C4781.7 816.349 4791.95 814.435 4795.41 806.081C4800.02 794.974 4787.93 784.49 4763.04 777.995L4749.49 774.461L4747.73 767.112C4746.56 762.234 4744.42 758.466 4741.38 755.907C4736.48 751.781 4733.58 751.324 4728.37 753.851ZM4871.66 772.308C4863.58 778.666 4860.85 791.483 4865.8 799.862C4870.4 807.643 4883.42 811.419 4891.23 807.238C4896.88 804.216 4905.99 794.5 4906.92 790.51C4908.32 784.506 4904.74 779.693 4894.71 774.132C4883.96 768.166 4877.57 767.66 4871.66 772.308ZM4470.13 779.217C4459.09 785.031 4454.09 793.253 4453.93 805.893L4453.86 811.277L4451.66 806.215C4449.06 800.219 4437.98 794.505 4423.92 791.906C4399.1 787.318 4387.59 797.995 4385.24 827.773C4384.52 837.001 4384.9 841.193 4386.94 846.546C4393.68 864.189 4413.81 870.699 4433.23 861.513C4444.18 856.33 4451.63 848.429 4454.09 839.378C4455.07 835.768 4456.17 831.815 4456.53 830.593C4456.98 829.088 4458.14 829.932 4460.13 833.21C4464.71 840.735 4470.33 842.813 4486.11 842.813C4493.71 842.813 4501.88 842.079 4504.26 841.181C4509.67 839.142 4518.09 831.202 4521.25 825.156C4524.21 819.495 4524.18 803.489 4521.19 796.368C4518.12 789.085 4510.03 781.798 4501.94 779.042C4492.89 775.955 4476.16 776.047 4470.13 779.217ZM4673.35 811.613C4684.93 827.539 4695.64 840.947 4700.34 845.404C4708.38 853.03 4742.72 875.368 4756.71 882.077C4763.66 885.406 4769.34 888.608 4769.34 889.192C4769.34 890.264 4757.02 893.302 4738.57 896.779C4733.07 897.816 4717.84 902.664 4704.73 907.553C4691.62 912.443 4675.69 917.815 4669.35 919.492C4658.66 922.317 4657.67 922.354 4655.84 919.999C4653.21 916.622 4654.4 868.626 4657.69 845.121C4658.99 835.814 4660.07 823.561 4660.09 817.891C4660.11 812.222 4660.9 803.957 4661.85 799.525L4663.58 791.467L4666.24 798.474C4667.7 802.329 4670.9 808.241 4673.35 811.613ZM4497.33 803.832C4498.87 805.228 4500.13 808.324 4500.13 810.711C4500.13 816.663 4494.64 820.067 4486.03 819.448L4479.36 818.969L4478.89 811.473C4478.17 800.168 4478.94 799.158 4487.36 800.312C4491.3 800.852 4495.79 802.436 4497.33 803.832ZM4425.95 816.771C4429.86 818.136 4430.85 819.492 4431.73 824.644C4433.02 832.317 4429.35 838.112 4421.55 840.703C4413.2 843.474 4410.22 841.456 4409.66 832.65C4409.39 828.515 4409.59 822.879 4410.11 820.127C4410.94 815.679 4411.61 815.123 4416.13 815.123C4418.93 815.123 4423.35 815.865 4425.95 816.771ZM4952 852.428C4947.04 856.189 4945.91 865.008 4948.54 879.303C4950.33 889.056 4963.57 899.609 4974.11 899.698C4977.93 899.73 4978.17 900.211 4978.91 909.391C4979.35 914.934 4981.13 921.893 4983.08 925.718C4989.84 938.963 5006.91 951.546 5021.92 954.358C5026.57 955.227 5027.78 956.23 5028.58 959.863C5029.75 965.193 5036.01 970.495 5041.13 970.495C5046.22 970.495 5052.4 963.967 5052.36 958.643C5052.35 956.278 5051.36 948.818 5050.17 942.065C5048.57 933 5047.13 929.076 5044.65 927.067C5040.11 923.39 5033.71 923.64 5028.55 927.695L5024.29 931.044L5017.39 927.383C5004.2 920.383 4999.13 907.733 5004.51 895.221C5008.82 885.205 5008.65 880.463 5003.81 875.619C5000.16 871.972 4999.18 871.741 4991.89 872.825C4987.51 873.475 4981.17 874.083 4977.78 874.178L4971.63 874.349L4970.83 865.342C4970.21 858.344 4969.23 855.686 4966.43 853.42C4962.3 850.076 4955.69 849.622 4952 852.428ZM4859.62 854.196C4851.64 857.145 4848.07 860.694 4846.24 867.506C4843.57 877.421 4848.06 884.348 4857.15 884.348C4861.51 884.348 4863.71 883.39 4865.98 880.502C4870.42 874.865 4874.72 875.62 4880.04 882.972C4895.08 903.735 4897.99 944.023 4886.22 968.475C4880.65 980.036 4880.52 983.36 4885.41 988.256C4891.15 993.995 4897.29 993.304 4903.09 986.263C4912.31 975.094 4917.04 957.25 4917.26 932.806C4917.5 906.19 4910.8 883.048 4898.2 867.022C4888.95 855.247 4872.01 849.615 4859.62 854.196Z"
    fill="#292524" />
  <path fill-rule="evenodd" clip-rule="evenodd"
    d="M2255.29 114.434C2212.66 117.324 2160.82 125.74 2125.83 135.451C2110.49 139.711 2106.45 141.576 2096.4 149.054C2080.73 160.707 2076.02 166.755 2063.66 191.129C2055.6 207.031 2060.46 235.439 2074.31 253.439C2086.41 269.16 2109.79 288.341 2140 307.34C2149.91 313.571 2163.3 322.591 2169.76 327.385C2183.05 337.248 2182.88 336.638 2175.4 348.33C2166.98 361.491 2163.18 361.199 2123.87 344.373C2099.26 333.835 2089.81 328.75 2067.65 314.11C2059.67 308.835 2045.2 300.481 2035.49 295.546C2025.79 290.611 2012.19 282.464 2005.27 277.441C1991.77 267.649 1981.18 262.01 1972.51 260.013C1950.32 254.899 1925.31 266.766 1916.39 286.643C1909.04 303.009 1908.15 323.356 1914.06 339.819C1919.28 354.379 1939.43 389.581 1947.8 398.751C1960.22 412.378 1998.99 447.744 2019.63 464.284C2026.92 470.125 2035.84 475.296 2043.23 477.963C2046.55 479.163 2054.98 482.776 2061.96 485.993C2076 492.466 2099.91 499.482 2117.54 502.303C2137.74 505.534 2146.34 507.698 2152.86 511.183L2159.23 514.585V575.145C2159.23 629.448 2159.03 635.704 2157.33 635.706C2156.28 635.707 2151.62 634.415 2146.97 632.833C2134.21 628.493 2122.34 626.824 2103.56 626.731C2086.71 626.647 2086.53 626.675 2082.07 630.065C2076.13 634.585 2072.39 640.724 2068.99 651.566C2066.67 658.951 2066.2 663.069 2066.23 675.583C2066.28 688.442 2066.67 691.537 2068.9 696.4C2073 705.358 2079.82 715.54 2085.91 721.817C2095.32 731.503 2105.69 734.277 2163.54 742.583C2175.22 744.259 2187.99 746.61 2191.94 747.808C2198.07 749.672 2199.4 750.607 2201.15 754.307C2202.28 756.684 2204.88 760.047 2206.94 761.781C2209 763.514 2213.83 769.172 2217.67 774.354C2221.52 779.537 2227.2 786.639 2230.31 790.137C2233.42 793.635 2235.96 797.379 2235.96 798.457C2235.96 799.534 2234.1 806.177 2231.82 813.218C2224.94 834.505 2223.6 847.525 2225.04 878.948C2225.72 893.701 2226.66 908.218 2227.12 911.208C2227.58 914.199 2228.02 939.483 2228.08 967.396C2228.2 1017.4 2228.24 1018.37 2231.4 1033.54C2237.39 1062.3 2248.13 1076 2265.95 1077.62C2278.76 1078.78 2298.7 1070.67 2310.52 1059.49C2322.23 1048.42 2329.85 1035.11 2335.93 1015.12C2338.97 1005.14 2339.08 1003.63 2339.78 961.354C2340.37 926.339 2340.86 917.169 2342.31 914.341C2345.32 908.439 2347.46 907.894 2353.06 911.6L2358 914.868V956.154C2358 979.138 2357.41 1002.04 2356.67 1007.82C2354.99 1020.88 2356.81 1047.1 2359.93 1055.03C2363.38 1063.77 2367.71 1069.42 2373.61 1072.89C2378.2 1075.59 2380.48 1076.12 2387 1076C2396.34 1075.82 2408.42 1072.17 2414.17 1067.78C2420.63 1062.85 2435.25 1043.9 2446.39 1026C2451.98 1017.03 2457.19 1008.21 2457.98 1006.4C2461.77 997.723 2468.35 963.903 2470.19 943.678C2471.43 930.022 2470.86 919.265 2466.73 878.62C2464.1 852.806 2463.76 837.438 2465.55 825.417C2466.19 821.097 2467.05 808.591 2467.45 797.625C2468.04 781.455 2470.56 759.194 2471.9 758.342C2472.06 758.242 2475.26 757.498 2479.01 756.689C2482.76 755.879 2490.26 753.349 2495.67 751.065C2501.09 748.782 2513.51 744.384 2523.29 741.292C2533.06 738.2 2543.51 734.442 2546.5 732.941C2553.52 729.415 2562.53 721.439 2565.95 715.725C2567.43 713.252 2572.84 705.52 2577.97 698.542C2588.81 683.81 2592.17 677.506 2596.48 663.824C2604.67 637.823 2604.06 606.52 2595.01 588.983C2589.56 578.43 2578.53 571.266 2564.35 569.079C2554.15 567.507 2545.03 569.254 2535.48 574.609C2532.41 576.33 2519.63 587.658 2507.08 599.783C2494.54 611.907 2482.26 622.755 2479.79 623.889C2477.33 625.024 2473.19 627.875 2470.58 630.226C2466 634.371 2465.57 634.498 2456.33 634.447C2446.77 634.395 2437.12 633.068 2435.66 631.607C2435.23 631.177 2434.65 627.621 2434.36 623.706C2433.95 617.94 2434.42 615.364 2436.86 610.138C2440.62 602.076 2447.01 594.665 2454.63 589.525C2464.48 582.885 2482.63 562.454 2488.9 550.964C2496.76 536.536 2501.79 518.976 2501.79 505.946C2501.79 492.406 2494.3 471.935 2485.26 460.81C2477.76 451.572 2459.23 440.064 2445.08 435.865C2437.51 433.616 2428.85 433.353 2423.53 435.209C2421.49 435.92 2418.05 436.327 2415.88 436.115C2412.07 435.742 2412.32 435.481 2423.45 428.247C2432.85 422.137 2437.97 417.485 2451.38 402.872C2476.1 375.943 2497.6 346.584 2507.86 325.771C2516.93 307.352 2523.9 287.963 2525.89 275.625C2530.87 244.651 2521.27 217.918 2500.15 203.899C2476.52 188.211 2446.85 189.497 2427.43 207.051C2420.47 213.35 2416.5 220.063 2411.16 234.587C2406.57 247.077 2397.82 263.689 2387.68 279.137C2383.5 285.512 2375.89 298.965 2370.77 309.032C2360.09 330.036 2355.17 336.428 2346.59 340.423C2338.62 344.135 2326.44 344.289 2315.21 340.82C2301.26 336.511 2295.21 328.327 2297.02 316.218C2297.72 311.586 2299.25 309.602 2311.22 297.856C2318.6 290.613 2329.06 280.338 2334.47 275.021C2357.49 252.39 2365.45 229.499 2359.89 201.886C2356.8 186.495 2346.13 150.249 2342.53 142.9C2332.66 122.73 2316.83 115.434 2280.91 114.485C2270.47 114.209 2258.95 114.186 2255.29 114.434ZM2305.18 149.297C2312.61 152.03 2313.9 154.553 2321.93 182.197C2327.7 202.086 2328.19 204.747 2328.29 217.058C2328.39 230.198 2328.34 230.49 2324.17 237.589C2321.84 241.551 2315.66 248.874 2310.42 253.865C2268.92 293.449 2266.3 297.024 2265.25 315.409C2264.23 333.235 2268.36 345.607 2278.81 355.993C2291.11 368.227 2310.65 375.222 2332.62 375.257C2352.64 375.289 2366.07 369.326 2380.09 354.184C2386.36 347.405 2389.94 341.771 2397.93 326.072C2403.43 315.273 2411.06 301.77 2414.88 296.066C2425.53 280.182 2435.02 262.298 2440.14 248.497C2445.96 232.82 2447.53 230.455 2454.26 227.194C2461.66 223.615 2473.13 224.389 2479.99 228.929C2491 236.212 2494.77 244.142 2494.67 259.788C2494.6 270.75 2493.47 276.556 2488.99 289.066C2481.85 309.021 2473.43 323.954 2457.06 345.708C2441.13 366.893 2417.59 393.613 2410.64 398.412C2408.6 399.819 2403.13 403.516 2398.48 406.627C2393.83 409.738 2387.8 414.062 2385.08 416.237C2382.36 418.412 2376.37 421.745 2371.78 423.643C2361.33 427.967 2355.82 431.939 2354.84 435.864C2354.15 438.586 2353.6 438.844 2349.69 438.277C2347.28 437.928 2342.32 437.295 2338.67 436.87C2335.01 436.446 2325.22 434.705 2316.92 433.002C2304.77 430.512 2298.14 429.885 2283.03 429.797L2264.25 429.688L2254.64 434.403C2237.17 442.971 2220.75 463.081 2213.65 484.613C2205.96 507.933 2206.81 525.751 2216.63 547.039C2224.01 563.04 2230.34 571.19 2251.8 592.314C2278.45 618.545 2281.9 625.616 2275.95 641.75C2274.6 645.405 2273.48 650.844 2273.46 653.837C2273.43 656.83 2272.33 663.081 2271 667.729C2268.09 677.91 2267.97 684.78 2270.48 696.947C2274.13 714.609 2277.87 721.404 2293.32 738.417C2298.45 744.066 2305.16 752.222 2308.23 756.542C2311.29 760.861 2316.88 767.93 2320.64 772.25C2324.4 776.57 2328.16 781.422 2329 783.034C2329.83 784.645 2330.79 791.773 2331.13 798.875L2331.74 811.787L2326.71 818.602C2323.38 823.113 2320.77 825.462 2318.99 825.55C2308.97 826.051 2300.2 822.874 2292.43 815.928C2288.95 812.815 2283.66 808.307 2280.67 805.91C2276.95 802.931 2273.13 797.836 2268.58 789.797C2264.93 783.332 2258.95 774.505 2255.29 770.183C2244.46 757.372 2237.65 747.392 2231.31 734.996C2223.81 720.336 2200.73 668.56 2198.1 660.479C2190.95 638.521 2189.44 615.169 2191.34 555.864L2192.83 509.249L2189.79 502.612C2183.1 488.006 2162.19 476.957 2132.78 472.486C2109.73 468.983 2089.93 463.501 2074.04 456.224C2066.4 452.724 2058.15 449.235 2055.7 448.469C2049.72 446.598 2038.77 439.302 2029.94 431.303C2025.95 427.693 2018.07 420.869 2012.42 416.138C2006.77 411.408 1994.2 399.743 1984.48 390.217C1965.63 371.722 1963.76 369.014 1948.03 337.25C1943.12 327.352 1942.94 326.562 1942.94 315.5C1942.95 306.151 1943.4 303.244 1945.4 299.834C1950.18 291.679 1960.55 288.77 1970.2 292.879C1972.48 293.853 1980.22 298.852 1987.39 303.988C1994.55 309.124 2009.69 318.16 2021.02 324.068C2032.35 329.976 2045.93 337.847 2051.2 341.561C2067.76 353.235 2086.74 363.343 2113.14 374.564C2148.12 389.43 2157.44 391.817 2170.26 389.202C2184.5 386.3 2196.27 376.757 2205.1 360.972C2216.33 340.885 2216.16 326.097 2204.56 314.491C2198.22 308.154 2179.23 294.439 2157.59 280.573C2123.1 258.467 2102.21 240.628 2095.9 227.892C2091.75 219.526 2090.92 205.862 2094.28 201.109C2095.6 199.227 2098.07 194.947 2099.76 191.597C2102.93 185.291 2110.12 177.878 2118.33 172.447C2129.16 165.282 2188.5 152.939 2235.31 148.115C2257.8 145.797 2297.48 146.469 2305.18 149.297ZM2271 165.291C2269.34 165.515 2265.63 166.003 2262.75 166.375C2256.09 167.236 2248.96 173.447 2246.13 180.85L2244.09 186.212L2238.75 181.29C2227.46 170.89 2215.04 168.057 2202.95 173.131C2193.3 177.186 2190.3 179.78 2186.87 187.029C2181.15 199.113 2181.81 216.561 2188.35 226.477C2192.18 232.266 2201.62 236.93 2209.55 236.947C2221.67 236.972 2238.87 229.156 2244.44 221.092L2247.51 216.657C2247.65 216.458 2250.68 219.206 2254.24 222.766C2264.47 232.972 2273.8 234.438 2286.75 227.875C2297.57 222.393 2304.67 211.043 2305.76 197.501C2306.28 190.983 2305.91 188.984 2303.12 183.288C2297.43 171.649 2283.15 163.651 2271 165.291ZM2279.34 190.91C2281.82 192.818 2282.13 193.823 2281.49 197.831C2280.73 202.629 2275.66 208.476 2272.98 207.641C2270.77 206.951 2267.38 199.249 2267.38 194.93C2267.37 191.945 2268.05 190.693 2270.09 189.871C2274.17 188.23 2276.14 188.451 2279.34 190.91ZM2219.07 196.492C2222.93 198.492 2225.08 201.658 2225.08 205.354C2225.08 208.363 2215.75 213.127 2210.93 212.574C2207.9 212.227 2207.52 211.668 2207.19 207.035C2206.92 203.285 2207.52 200.902 2209.39 198.275C2212.29 194.198 2214.02 193.88 2219.07 196.492ZM2312.08 464.781C2344.81 471.161 2368.82 472.753 2383.95 469.546C2389.06 468.465 2398.84 467.768 2408.73 467.78C2417.71 467.792 2426.69 467.335 2428.69 466.765C2434.6 465.075 2444.57 468.72 2455.61 476.603C2466.77 484.575 2471.62 502.314 2467.37 519.657C2463.61 534.987 2454.16 547.105 2426.84 571.649C2409.56 587.178 2402.15 602.959 2402.46 623.566C2402.78 644.499 2406.92 654.624 2417.3 659.921C2424.7 663.697 2441.24 666.275 2458.9 666.405C2473.83 666.515 2474.87 666.362 2480.04 663.313C2483.03 661.549 2486.82 658.666 2488.47 656.906C2490.11 655.147 2493.78 652.682 2496.61 651.427C2499.95 649.952 2509.35 641.798 2523.23 628.347C2548.69 603.668 2552.52 600.667 2558.53 600.667C2563.95 600.667 2566.32 602.436 2568.11 607.827C2573.97 625.5 2568.63 656.167 2556.74 673.135C2539.85 697.213 2536.42 701.7 2533.44 703.585C2531.64 704.724 2523.66 707.629 2515.7 710.041C2507.75 712.453 2495.24 716.817 2487.92 719.738C2480.6 722.66 2471.61 725.678 2467.96 726.445C2459.45 728.23 2453.82 731.135 2449.06 736.196C2440.23 745.589 2436.94 759.419 2435.32 794C2434.68 807.624 2433.62 822.577 2432.97 827.229C2431.12 840.479 2431.45 848.809 2435.43 888.867C2438.16 916.374 2438.95 929.199 2438.39 937.188C2437.19 954.295 2430.8 988.287 2427.48 995.188C2423.68 1003.09 2411.03 1022.73 2405.3 1029.62C2402.81 1032.62 2399.59 1036.76 2398.14 1038.84C2396.69 1040.92 2394.18 1042.88 2392.56 1043.19C2389.65 1043.74 2389.6 1043.61 2388.74 1032.16C2388.21 1025.08 2388.46 1014.68 2389.37 1005.46C2390.35 995.507 2390.71 976.136 2390.41 948.667C2389.93 904.124 2389.84 903.383 2383.47 895.285C2380.44 891.439 2363.89 879.721 2358.27 877.45C2356.1 876.569 2351.3 875.876 2347.61 875.91C2338.51 875.991 2329.9 880.38 2321.44 889.248C2316.09 894.858 2314.22 897.922 2312.25 904.297C2308.31 917.052 2306.85 935.587 2307.64 962.563C2308.72 999.523 2306.15 1012.77 2294.76 1028.73C2289.32 1036.36 2287.39 1038.05 2279.62 1042C2274.73 1044.48 2270.24 1046.21 2269.65 1045.85C2267.08 1044.26 2264.87 1037.4 2262.44 1023.42C2260.05 1009.72 2259.88 1005.57 2260.45 973.438C2260.87 949.88 2260.53 930.674 2259.42 914.833C2256.5 873.295 2256 852.121 2257.67 841.336C2258.56 835.678 2259.79 831.47 2260.57 831.486C2261.32 831.502 2266.02 835.087 2271 839.453C2285.41 852.075 2297.84 857.111 2315.1 857.32C2332.07 857.525 2340.66 853.125 2351.6 838.623C2362.64 823.992 2363.45 821.481 2363.34 802.458C2363.19 777.407 2359.85 767.553 2346.67 753.257C2343.13 749.414 2338.04 743.098 2335.36 739.22C2332.68 735.343 2325.23 726.237 2318.81 718.986C2312.38 711.735 2305.99 703.251 2304.61 700.132C2301.17 692.347 2300.41 680.967 2302.77 672.278C2303.8 668.447 2305.02 662.392 2305.48 658.823C2305.94 655.254 2307.7 649.647 2309.41 646.364C2312.4 640.592 2312.46 640.06 2311.17 630.4C2308.01 606.849 2302.08 596.847 2276.54 572.066C2251 547.271 2242.25 533.609 2241.09 516.663C2239.61 495.029 2254.12 468.361 2270.77 462.12C2276.67 459.908 2292.23 460.91 2312.08 464.781ZM2293.52 475.609C2289.9 477.497 2284.09 481.91 2278.29 487.179C2272.63 492.31 2271.08 501.234 2273.38 515.315C2276.47 534.143 2287.61 542.971 2302.73 538.574C2324.44 532.264 2335.64 501.54 2322.51 484.359C2315.41 475.073 2302.2 471.085 2293.52 475.609ZM2372.5 478.478C2365.35 479.611 2362.83 481.112 2357.06 487.674C2347.09 498.99 2347.19 515.828 2357.3 529.52C2364.57 539.367 2378.43 543.495 2387.85 538.621C2393.49 535.707 2401.12 526.292 2403.5 519.31C2406.72 509.881 2406.26 499.694 2402.23 491.454C2396.36 479.459 2388.35 475.965 2372.5 478.478ZM2303.62 504.302C2303.62 505.797 2302.43 508.924 2300.99 511.25L2298.37 515.479L2297.49 512.458C2296.08 507.587 2296.26 505.208 2298.04 505.208C2298.95 505.208 2300.38 504.393 2301.21 503.396C2303.23 500.956 2303.63 501.103 2303.62 504.302ZM2380.92 510.164C2378.88 517.271 2377.15 517.859 2374.82 512.236C2373.75 509.653 2373.65 508.249 2374.51 507.963C2375.21 507.729 2376.81 506.788 2378.06 505.872C2381 503.724 2382.24 505.582 2380.92 510.164ZM2132.65 661.789C2135.97 662.98 2145.18 665.619 2153.13 667.654L2167.57 671.354L2170.46 678.576C2172.04 682.549 2176.05 691.714 2179.35 698.944C2182.65 706.174 2185.1 712.341 2184.8 712.648C2183.55 713.898 2122.33 704.255 2113.69 701.449C2109.16 699.976 2107.31 698.477 2104.39 693.925C2098.05 684.05 2096.66 679.488 2097.55 671.582C2097.99 667.678 2098.88 663.098 2099.52 661.405L2100.69 658.328L2113.65 658.976C2121.49 659.368 2128.99 660.478 2132.65 661.789Z"
    fill="#292524" />
  <path fill-rule="evenodd" clip-rule="evenodd"
    d="M1448.59 618.597C1446.03 619.546 1442.48 621.276 1440.7 622.441C1433.91 626.889 1426.67 649.508 1428.89 659.318C1431.46 670.666 1442.03 684.569 1463.13 704.341C1477.62 717.914 1480.5 720.09 1484.03 720.09C1489.17 720.09 1492.77 717.597 1496.19 711.673C1498.83 707.082 1506.7 700.055 1520.92 689.588C1534.39 679.673 1543.59 664.432 1543.71 651.851C1543.84 637.692 1533.69 627.399 1516.48 624.217C1510.59 623.128 1508.35 623.322 1501.3 625.526C1496.75 626.949 1491.67 628.875 1490.02 629.807C1487.22 631.385 1486.55 631.129 1480.4 626.115C1471.04 618.489 1457.5 615.29 1448.59 618.597ZM1471.18 650.463C1482.35 661.246 1485.22 661.675 1496.37 654.235C1504.19 649.012 1510.24 647.192 1515.45 648.499C1524.08 650.666 1518.15 661.923 1502.1 673.835C1498.48 676.523 1492.76 681.005 1489.4 683.795L1483.29 688.868L1477.75 684.896C1467.01 677.207 1452.62 658.849 1452.62 652.841C1452.62 651.054 1453.23 647.829 1453.98 645.676C1456.29 639.05 1460.59 640.247 1471.18 650.463ZM1359.99 710.73C1346.25 712.446 1342.33 713.569 1321.18 721.831C1314.88 724.293 1308.01 726.307 1305.91 726.307C1297.95 726.307 1288.5 733.064 1288.5 738.755C1288.5 740.581 1287.63 740.824 1283.01 740.303C1273.8 739.264 1265.91 742.038 1252.13 751.156C1233.6 763.424 1225.08 772.505 1217.22 788.347L1210.79 801.302L1210.88 822.552C1210.98 845.757 1212.42 855.207 1217.32 864.938C1222.57 875.368 1227.47 881.807 1240.05 894.778C1246.68 901.617 1261.69 917.519 1273.41 930.116L1294.71 953.021V961.977C1294.71 966.902 1294.35 972.737 1293.91 974.942C1292.1 984.016 1268.28 1004.91 1242.05 1020.44C1210.25 1039.27 1195.54 1050.45 1181.66 1066.36C1165.9 1084.41 1162.68 1092.57 1165.11 1108.27C1167.7 1125.02 1177.25 1139.83 1189.35 1145.86C1195.1 1148.72 1197.18 1149.04 1210.21 1149.04C1225.89 1149.04 1239.14 1146.46 1248.82 1141.52C1258.03 1136.83 1281.3 1119.25 1291.29 1109.44C1296.59 1104.24 1300.93 1100.29 1300.93 1100.67C1300.93 1104.29 1295.48 1130.15 1293.51 1135.87C1292.12 1139.91 1290.98 1144 1290.98 1144.96C1290.98 1145.93 1288.72 1152.69 1285.96 1160C1281.02 1173.06 1275.54 1191.69 1263.96 1234.83L1258.12 1256.59L1258.23 1279.59C1258.32 1299.42 1258.8 1304.82 1261.68 1318.75C1266.34 1341.36 1270.57 1357.01 1273.63 1363C1279.4 1374.31 1291.71 1384.37 1301.74 1385.97C1319.61 1388.83 1339.03 1368.58 1347.14 1338.65C1349.73 1329.1 1349.82 1326.64 1349.53 1277.64C1349.22 1225.6 1349.86 1215.58 1354.03 1206.85C1355.85 1203.02 1356.23 1202.82 1359.23 1204.12C1363.89 1206.14 1370.18 1210.99 1371.33 1213.45C1371.87 1214.61 1372.37 1231.78 1372.42 1251.61C1372.54 1290.46 1373.59 1300.45 1379.86 1322.5C1386.94 1347.33 1397.76 1361.85 1412.36 1366.1C1418.6 1367.92 1421.15 1368.03 1429.84 1366.87C1452.58 1363.84 1462 1353.13 1469.41 1321.86C1473.54 1304.43 1473.26 1296.47 1467.64 1272.13C1461.55 1245.69 1460.46 1242.16 1448.82 1211.21C1434.63 1173.46 1432.22 1164.55 1428.42 1135.75C1424.64 1107.18 1424.6 1105.38 1427.61 1101.66C1429.76 1099 1430.83 1098.78 1440.97 1098.94C1453.47 1099.13 1467.11 1102.3 1504.64 1113.74L1528.15 1120.91L1528.99 1128.44C1530.1 1138.36 1531.92 1185.77 1533.38 1242.91C1534.63 1291.96 1535.15 1297.13 1541.08 1319.38C1546.8 1340.85 1550.1 1348.53 1559.76 1362.97C1570.63 1379.2 1574.56 1382.19 1584.94 1382.1C1601.51 1381.96 1615.1 1367.85 1619.01 1346.73C1619.7 1342.97 1621.49 1332.9 1622.98 1324.35C1624.79 1313.98 1626.66 1303.62 1628.57 1293.27C1630.17 1284.72 1632.66 1269.89 1634.12 1260.32C1637.64 1237.24 1642.52 1216.85 1645.35 1213.39L1647.64 1210.58L1652.62 1215.42C1659.13 1221.74 1664.68 1232.32 1667.81 1244.39C1669.92 1252.49 1670.51 1260.39 1671.42 1292.02C1672.34 1323.84 1672.92 1331.51 1675.06 1339.67C1680.09 1358.91 1687.08 1367.33 1701.72 1371.8C1718.36 1376.88 1732.36 1373.05 1745.42 1359.84C1758.68 1346.43 1763.45 1333.79 1771.73 1290.16C1777.68 1258.75 1775.93 1235.9 1765.54 1209.29C1760.39 1196.1 1758.04 1187.01 1756.1 1172.66C1755.03 1164.82 1753.95 1156.97 1752.84 1149.13C1750.68 1133.78 1750.52 1123.91 1752.34 1117.95C1753.08 1115.56 1754.17 1107.43 1754.78 1099.87C1755.86 1086.33 1762.06 1062.01 1766.71 1053.01C1768.96 1048.66 1771.02 1048.76 1782.75 1053.73C1792.95 1058.05 1805 1059.2 1812.93 1056.61C1816.28 1055.52 1827.36 1050.28 1837.55 1044.98C1861.13 1032.71 1869.63 1024.96 1873.89 1011.84C1878.53 997.548 1878.74 990.343 1874.74 981.45C1872.87 977.276 1870.42 973.033 1869.3 972.021C1864.95 968.08 1838.56 953.801 1831.35 951.482C1824.51 949.28 1814.76 947.246 1780.69 940.912C1774.79 939.815 1767.84 938.917 1765.25 938.917C1755.53 938.917 1724.8 932.54 1716.31 928.76C1713.29 927.416 1706.83 925.87 1701.96 925.323C1697.09 924.777 1691.43 923.468 1689.4 922.415C1684.2 919.728 1681.15 910.826 1681.64 899.768L1682.01 891.346L1694.11 887.967C1701.95 885.78 1708.75 882.916 1713.39 879.853C1724.31 872.64 1735.4 860.495 1740.43 850.231C1744.52 841.888 1744.89 840.118 1746.15 822.678C1747.77 800.485 1747.35 797.225 1741.37 784.95C1733.6 769.016 1719.88 757.992 1700.91 752.435C1696.67 751.192 1689.36 748.406 1684.66 746.244C1679.96 744.081 1671.22 741.264 1665.23 739.984C1652.08 737.175 1647.65 735.399 1639.14 729.545C1635.55 727.08 1632.24 725.063 1631.78 725.063C1631.33 725.063 1630 723.453 1628.83 721.484C1625.13 715.212 1620.07 713.804 1600.92 713.711C1588.07 713.649 1580.74 714.273 1571.6 716.21C1564.9 717.629 1555.67 719.126 1551.09 719.536C1541.17 720.424 1519.53 726.377 1509.4 731.007C1501.85 734.456 1491.03 744.174 1487.81 750.391L1485.96 753.978L1478.92 747.133C1468.95 737.426 1451.51 724.544 1441.56 719.534C1424.74 711.063 1419.41 709.898 1395.42 709.438C1381.85 709.178 1368.52 709.664 1359.99 710.73ZM1424.16 746.477C1429.37 749.022 1438.98 755.338 1445.51 760.511C1455.17 768.156 1458.69 771.922 1464.33 780.624C1468.15 786.512 1471.27 792.506 1471.27 793.942C1471.26 802.02 1445.18 839.932 1433.48 848.866C1430.33 851.272 1427.75 853.699 1427.75 854.26C1427.75 854.821 1424.65 858.509 1420.85 862.456C1409.5 874.269 1405.77 879.41 1400.5 890.465C1389.15 914.251 1385.84 938.307 1391.6 955.08C1397.43 972.058 1404.28 979.051 1422.09 986.213C1443.25 994.722 1445.05 996.134 1462.52 1017.87C1481.4 1041.37 1499.19 1051.4 1529.93 1055.9C1540.85 1057.49 1565.09 1056.8 1579.44 1054.47C1591.64 1052.5 1633.8 1042.57 1641.86 1039.77C1645.95 1038.35 1654.38 1036.95 1661.81 1036.45L1674.67 1035.59L1679.27 1039.93C1683.08 1043.53 1683.88 1045.12 1683.88 1049.22C1683.88 1062.2 1667.78 1071.59 1625.62 1083.21C1596.68 1091.18 1580.79 1093.5 1560.16 1092.73C1545.31 1092.18 1540.94 1091.52 1530.32 1088.22C1476.53 1071.48 1457.38 1066.98 1439.9 1066.98C1414.06 1066.98 1399.95 1076.8 1394.61 1098.51C1392.59 1106.72 1392.61 1107.9 1395.32 1130.22C1400.11 1169.83 1402.22 1177.72 1423.35 1234.81C1430.36 1253.74 1438.36 1284.68 1439.74 1298.2C1440.56 1306.24 1436.55 1325.21 1432.7 1331.55C1430.63 1334.96 1429.55 1335.54 1425.37 1335.54C1419.01 1335.54 1416.33 1332.2 1412.2 1319.11C1405.83 1298.94 1404.94 1290.58 1404.79 1249.13C1404.65 1212.05 1404.53 1210.31 1401.79 1203.39C1397.62 1192.86 1387.53 1182.52 1375.77 1176.71C1367.07 1172.4 1365.5 1172.04 1355.6 1172.04C1345.82 1172.04 1344.33 1172.38 1338.75 1175.82C1331.77 1180.12 1326.08 1188.57 1322.11 1200.52C1317.47 1214.49 1316.7 1226.53 1317.42 1273.55C1317.93 1306.74 1317.7 1320.18 1316.5 1327.09C1314.92 1336.14 1311.5 1344.52 1307.04 1350.23L1304.79 1353.11L1302.36 1348.34C1301.02 1345.71 1297.84 1334.06 1295.3 1322.46C1291.03 1302.97 1290.66 1299.72 1290.54 1280.21C1290.41 1259.57 1290.51 1258.7 1294.89 1242.91C1298.15 1231.11 1301.38 1219.3 1304.58 1207.48C1307.44 1196.88 1312.26 1181.49 1315.28 1173.28C1318.3 1165.08 1321.61 1154.97 1322.64 1150.82C1323.66 1146.67 1325.35 1140.87 1326.39 1137.92C1327.43 1134.98 1329.17 1126.98 1330.26 1120.13C1331.34 1113.29 1333.02 1105.46 1333.99 1102.72C1337.97 1091.43 1335.15 1079.61 1326.78 1072.53C1319.58 1066.45 1312.8 1064.17 1303.41 1064.7C1296.18 1065.11 1294.03 1065.84 1287.83 1069.95C1283.88 1072.58 1276.39 1079.05 1271.2 1084.32C1260.3 1095.41 1239.05 1110.92 1230.13 1114.31C1226.76 1115.59 1219.58 1117.01 1214.18 1117.46C1205.14 1118.21 1204.15 1118.06 1201.85 1115.6C1199.34 1112.9 1196.49 1105.25 1196.49 1101.2C1196.49 1098.59 1206.44 1085.95 1214.73 1078.03C1223.31 1069.83 1231.83 1063.91 1254.55 1050.34C1287.92 1030.42 1314.04 1008.12 1321.06 993.549C1328.11 978.944 1329.06 953.099 1323.03 939.936C1319.79 932.853 1302.44 913.279 1269.78 879.858C1261.09 870.969 1251.89 860.406 1249.34 856.386C1244.06 848.071 1242.6 840.425 1242.53 820.71C1242.5 809.715 1242.79 808.247 1246.4 801.438C1248.55 797.385 1252.05 792.192 1254.17 789.898C1260.15 783.442 1275.75 773.411 1282.63 771.595C1288.56 770.032 1295.93 764.628 1295.98 761.82C1296.02 758.373 1297.96 757.351 1301.86 758.711C1306.91 760.471 1316.08 758.174 1337.32 749.829C1356.16 742.427 1363.39 741.376 1393.56 741.654L1414.69 741.848L1424.16 746.477ZM1600.53 747.357C1602.83 751.667 1608.95 755.055 1614.55 755.126C1617.49 755.164 1621.23 756.165 1622.95 757.378C1630.38 762.595 1642.85 767.751 1654.52 770.432C1661.43 772.02 1670.8 775.026 1675.33 777.111C1679.87 779.196 1686.3 781.568 1689.63 782.383C1700.78 785.109 1708.45 790.531 1712.57 798.607C1714.77 802.918 1714.96 805.06 1714.32 817.978C1713.45 835.377 1712.25 838.33 1702.36 847.485C1696.65 852.775 1693.2 854.847 1686.83 856.815C1682.33 858.205 1677.8 859.343 1676.78 859.343C1673.43 859.343 1657.77 868.305 1654.66 872.005C1649.93 877.619 1648.73 884.335 1649.36 901.617C1649.97 918.612 1651.73 924.996 1659.3 937.7C1662.93 943.791 1664.48 945.073 1673.93 949.811C1681.49 953.603 1687.08 955.462 1693.59 956.345C1698.58 957.023 1704.22 958.381 1706.12 959.362C1712.07 962.437 1736.11 967.515 1759.25 970.586C1783.88 973.854 1790.05 974.843 1805.1 977.938C1823.2 981.658 1825.1 982.353 1836.39 989.371L1845.3 994.911L1844.04 999.551C1843.34 1002.1 1841.95 1005.12 1840.94 1006.26C1837.84 1009.75 1805.03 1025.95 1801.07 1025.95C1799.05 1025.95 1794.75 1024.54 1791.51 1022.82C1782.94 1018.27 1776.56 1017.16 1766.77 1018.55C1746.09 1021.48 1738.86 1030.7 1727.83 1068.22C1726.12 1074.04 1724.18 1084.39 1723.51 1091.22C1722.84 1098.06 1721.49 1107.73 1720.49 1112.71C1717.48 1127.84 1718.16 1138.11 1725.1 1181.99C1727.48 1197 1729.33 1203.54 1737.82 1226.88C1742.31 1239.24 1744.42 1257.08 1742.66 1267.98C1735.27 1313.94 1730.97 1328.96 1722.66 1337.79C1719.39 1341.27 1718.06 1341.85 1714.08 1341.52C1709.57 1341.15 1709.26 1340.83 1707.03 1334.3C1705.06 1328.57 1704.52 1321.62 1703.67 1291.4C1703.11 1271.57 1702.06 1251.89 1701.34 1247.66C1694.77 1209.52 1671.3 1179.71 1647.82 1179.71C1634.87 1179.71 1622.13 1188.24 1615.4 1201.44C1611.82 1208.47 1606.37 1230.42 1603.1 1251.01C1600.62 1266.65 1598.29 1279.81 1592.01 1313.78C1590.62 1321.3 1589.11 1330.54 1588.65 1334.3C1587.41 1344.43 1586.62 1345.15 1582.82 1339.65C1579.17 1334.38 1576.99 1328.74 1572.61 1313.16C1567.69 1295.67 1566.97 1288.28 1565.75 1242.91C1564.07 1180.57 1562.25 1134.13 1561.3 1129.46L1560.48 1125.42H1568.67C1595.55 1125.42 1652.19 1111.4 1679.61 1097.97C1705.19 1085.43 1717.48 1067.96 1715.86 1046.45C1714.92 1034.07 1711.28 1026.32 1702.47 1017.91C1694.19 1010.02 1685.04 1005.29 1675.79 1004.14C1666.47 1002.97 1643.67 1005.61 1632.26 1009.16C1617.43 1013.79 1580.2 1022.23 1568.87 1023.54C1552.94 1025.38 1547.11 1025.11 1547.11 1022.53C1547.11 1017.93 1539.5 1004.55 1533.46 998.508C1530.01 995.053 1524.05 990.794 1520.23 989.045C1513.77 986.086 1512.48 985.925 1501.91 986.75C1495.66 987.238 1488.73 988.391 1486.52 989.312C1482.54 990.976 1482.47 990.946 1475.96 984.136C1472.35 980.368 1469.24 976.844 1469.05 976.305C1468.58 975.033 1494.58 971.589 1516.13 970.067C1540.59 968.34 1546.33 965.764 1567.42 947.063C1576.95 938.617 1581.06 931.323 1583.21 919.023C1585.77 904.443 1583.23 891.059 1574.34 872.24C1566.04 854.679 1555.77 846.71 1535.28 841.933C1521.61 838.745 1516.71 836.177 1509.4 828.353C1503.78 822.345 1503.49 821.705 1504.18 816.735C1504.58 813.842 1505.42 806.44 1506.05 800.285C1507.43 786.717 1513.47 768.225 1518.1 763.393C1522.29 759.015 1542.22 752.645 1556.32 751.174C1561.85 750.597 1570.3 749.264 1575.08 748.213C1593.15 744.245 1598.76 744.056 1600.53 747.357ZM1405.99 754.881C1389.04 763.272 1383.17 776.408 1389.18 792.468C1392.45 801.199 1397.48 807.063 1405.42 811.381C1418.74 818.63 1431.73 815.09 1437.8 802.561C1445.71 786.214 1439.27 761.527 1425.2 754.249C1420.25 751.691 1411.88 751.967 1405.99 754.881ZM1557.24 760.513C1554.26 762.215 1550.56 763.607 1549.02 763.607C1541.63 763.607 1536.44 772.364 1537.53 782.982C1538.7 794.334 1547.46 806.041 1558.1 810.487C1564.5 813.161 1575.62 812.735 1582.38 809.556C1588.08 806.877 1596.78 798.527 1596.91 795.619C1596.95 794.766 1597.99 797.237 1599.23 801.11C1603.75 815.258 1613.35 825.602 1625.14 829.029C1643.02 834.227 1656.52 823.829 1656.52 804.861C1656.52 782.848 1643.42 767.778 1626.48 770.317C1618.51 771.512 1605.4 778.439 1602.33 783.07L1599.74 786.991L1598.19 780.957C1595.1 768.9 1580.48 757.373 1568.31 757.405C1564.58 757.415 1560.81 758.475 1557.24 760.513ZM1336.38 774.787C1332.43 776.801 1330.7 777.038 1327.14 776.056C1317.23 773.319 1306.06 780.349 1302.78 791.385C1296.7 811.884 1318.14 837.212 1338.68 833.792C1354.75 831.117 1367.03 815.217 1367.06 797.06C1367.09 778.678 1351.28 767.194 1336.38 774.787ZM1416.56 780.858C1416.56 781.456 1416.91 783.694 1417.34 785.831C1417.96 788.944 1417.7 789.717 1416.03 789.717C1413.95 789.717 1410.04 782.512 1411.15 780.715C1411.96 779.403 1416.56 779.524 1416.56 780.858ZM1573.84 786.138C1573.84 787.163 1572.22 788.008 1569.8 788.241C1565.27 788.678 1565.27 788.675 1567.02 784.065C1568.21 780.947 1568.46 780.854 1571.07 782.582C1572.59 783.596 1573.84 785.196 1573.84 786.138ZM1632.12 798.575C1633.84 807.159 1632.25 808.107 1626.48 801.934L1622.79 797.988L1626.29 796.44C1631.23 794.255 1631.26 794.266 1632.12 798.575ZM1336.44 803.897C1341.38 803.789 1341.73 803.982 1340.58 806.143C1337.85 811.237 1330.65 810.42 1327.68 804.68C1325.11 799.699 1325.31 798.842 1328.41 801.646C1330.2 803.266 1332.74 803.978 1336.44 803.897ZM1487.94 852.245C1497.33 861.943 1509.22 868.338 1525.6 872.492C1532.22 874.171 1538.73 876.515 1540.07 877.701C1541.42 878.888 1544.51 884.055 1546.95 889.183C1550.83 897.367 1551.38 899.704 1551.42 908.283L1551.46 918.058L1545.87 923.046C1529.74 937.42 1532.07 936.42 1510.19 938.338C1471.25 941.752 1440.98 946.977 1432.29 951.784L1427.51 954.431L1425.22 951.609C1423.97 950.057 1422.24 945.671 1421.39 941.863C1420 935.673 1420.13 933.733 1422.61 923.563C1427.42 903.833 1431.56 897.029 1450.34 877.936C1459.46 868.673 1469.71 857.357 1473.13 852.79C1476.55 848.222 1479.58 844.471 1479.86 844.454C1480.14 844.437 1483.77 847.943 1487.94 852.245Z"
    fill="#292524" />
</svg>